<?xml version="1.0" encoding="utf-8"?>
<!-- Generator: Adobe Illustrator 17.0.0, SVG Export Plug-In . SVG Version: 6.00 Build 0)  -->
<!DOCTYPE svg PUBLIC "-//W3C//DTD SVG 1.1//EN" "http://www.w3.org/Graphics/SVG/1.1/DTD/svg11.dtd">
<svg version="1.1" id="Layer_1" xmlns="http://www.w3.org/2000/svg" xmlns:xlink="http://www.w3.org/1999/xlink" x="0px" y="0px"
	 width="655px" height="123px" viewBox="0 0 655 123" enable-background="new 0 0 655 123" xml:space="preserve">
<linearGradient id="SVGID_1_" gradientUnits="userSpaceOnUse" x1="327.5" y1="-1.470380e-008" x2="327.5" y2="123">
	<stop  offset="0" style="stop-color:#B7B7B7"/>
	<stop  offset="1" style="stop-color:#5E5E5E"/>
</linearGradient>
<rect x="0" y="0" fill="url(#SVGID_1_)" width="655" height="123"/>
<rect x="0" y="0" fill="none" width="655" height="123"/>
<g opacity="0.1">
	<defs>
		<rect id="SVGID_2_" x="0" y="0" opacity="0.1" width="655" height="123"/>
	</defs>
	<clipPath id="SVGID_3_">
		<use xlink:href="#SVGID_2_"  overflow="visible"/>
	</clipPath>
	<g clip-path="url(#SVGID_3_)">
		
			<rect x="-136.453" y="221.638" transform="matrix(-0.7071 -0.7071 0.7071 -0.7071 88.9845 500.8387)" width="569.345" height="20.703"/>
		
			<rect x="-107.174" y="192.359" transform="matrix(-0.7071 -0.7071 0.7071 -0.7071 159.6706 471.5595)" width="569.345" height="20.703"/>
		
			<rect x="-77.895" y="163.08" transform="matrix(-0.7071 -0.7071 0.7071 -0.7071 230.3565 442.2804)" width="569.345" height="20.703"/>
		
			<rect x="-48.616" y="133.801" transform="matrix(-0.7071 -0.7071 0.7071 -0.7071 301.0426 413.0013)" width="569.345" height="20.703"/>
		
			<rect x="-19.337" y="104.522" transform="matrix(-0.7071 -0.7071 0.7071 -0.7071 371.7287 383.7222)" width="569.345" height="20.703"/>
		
			<rect x="97.78" y="-12.595" transform="matrix(-0.7071 -0.7071 0.7071 -0.7071 654.4728 266.6058)" width="569.345" height="20.703"/>
		
			<rect x="127.059" y="-41.874" transform="matrix(-0.7071 -0.7071 0.7071 -0.7071 725.1589 237.3266)" width="569.345" height="20.703"/>
		
			<rect x="156.338" y="-71.153" transform="matrix(-0.7071 -0.7071 0.7071 -0.7071 795.8449 208.0475)" width="569.345" height="20.703"/>
		
			<rect x="185.617" y="-100.432" transform="matrix(-0.7071 -0.7071 0.7071 -0.7071 866.5309 178.7684)" width="569.345" height="20.704"/>
		
			<rect x="489.217" y="-404.032" transform="matrix(0.7071 -0.7071 0.7071 0.7071 230.721 318.2894)" width="20.703" height="569.345"/>
		<path d="M144.559-166.938L326.224,14.727c-5.865,0.156-11.561,1.372-16.944,3.649c-1.997,0.844-3.917,1.825-5.761,2.926
			l-173.6-173.6l-14.64,14.64L288.522,35.583c-1.613,2.422-3.002,4.991-4.147,7.698c-1.888,4.463-3.048,9.142-3.48,13.954
			L100.641-123.019l-14.64,14.64l402.588,402.588l14.64-14.64L331.765,108.105c4.812-0.433,9.491-1.592,13.955-3.48
			c2.706-1.145,5.275-2.534,7.697-4.147l164.451,164.451l14.64-14.64L367.699,85.481c1.101-1.844,2.081-3.764,2.926-5.761
			c2.277-5.383,3.492-11.079,3.648-16.944L547.147,235.65l14.64-14.64L159.199-181.577L144.559-166.938z M327.5,23.329
			c12.566,0,23.733,6.106,30.692,15.504h-10.406v9.303c0,0-5.661-1.126-10.139-0.903c-3.835,0.191-6.946,1.924-8.838,4.893
			c-0.645,1.002-1.179,2.034-1.606,3.096c-1.04-2.109-2.662-3.866-4.868-5.267c-2.432-1.521-5.82-2.282-10.164-2.282l-5.107,0.251
			l-5.231,0.612l-5.482,0.751V83.54c-4.421-6.229-7.022-13.836-7.022-22.04C289.329,40.453,306.452,23.329,327.5,23.329z
			 M347.786,56.034v13.009c-1.369,0.39-2.776,0.585-4.219,0.585c-4.497,0-6.744-2.342-6.744-7.025c0-2.323,0.509-4.117,1.526-5.381
			c1.092-1.245,2.323-1.87,3.692-1.868C345.145,55.358,347.786,56.034,347.786,56.034z M318.139,62.63
			c0,2.324-0.509,4.117-1.526,5.381c-1.093,1.245-2.323,1.868-3.692,1.868c-1.48,0-2.84-0.687-4.08-2.063
			c-1.11-1.32-1.665-3.011-1.665-5.074V56.19c1.369-0.39,2.775-0.586,4.218-0.586C315.891,55.603,318.139,57.946,318.139,62.63z
			 M327.5,99.671c-9.774,0-18.701-3.694-25.461-9.758h5.136V73.982c3.301,2.384,6.762,3.576,10.379,3.576
			c3.84,0,6.706-1.484,8.598-4.453c0.645-1.003,1.179-2.034,1.605-3.096c1.04,2.109,2.662,3.865,4.868,5.266
			c2.432,1.521,5.82,2.282,10.164,2.282l5.107-0.251l5.232-0.612l5.482-0.751V39.406c4.444,6.24,7.06,13.867,7.06,22.094
			C365.671,82.548,348.548,99.671,327.5,99.671z"/>
	</g>
</g>
</svg>
