<?xml version="1.0" encoding="utf-8"?>
<!-- Generator: Adobe Illustrator 17.0.0, SVG Export Plug-In . SVG Version: 6.00 Build 0)  -->
<!DOCTYPE svg PUBLIC "-//W3C//DTD SVG 1.1//EN" "http://www.w3.org/Graphics/SVG/1.1/DTD/svg11.dtd">
<svg version="1.1" id="Layer_1" xmlns="http://www.w3.org/2000/svg" xmlns:xlink="http://www.w3.org/1999/xlink" x="0px" y="0px"
	 width="400px" height="300px" viewBox="0 0 400 300" enable-background="new 0 0 400 300" xml:space="preserve">
<linearGradient id="SVGID_1_" gradientUnits="userSpaceOnUse" x1="200" y1="-8.979441e-009" x2="200" y2="300">
	<stop  offset="0" style="stop-color:#B7B7B7"/>
	<stop  offset="1" style="stop-color:#5E5E5E"/>
</linearGradient>
<rect x="0" y="0" fill="url(#SVGID_1_)" width="400" height="300"/>
<g opacity="0.3">
	<defs>
		<rect id="SVGID_2_" x="0" y="0" opacity="0.3" width="400" height="300"/>
	</defs>
	<clipPath id="SVGID_3_">
		<use xlink:href="#SVGID_2_"  overflow="visible"/>
	</clipPath>
	<path clip-path="url(#SVGID_3_)" d="M248.835,149.641c-0.023-3.181-0.34-6.318-0.962-9.387l210.68-42.171
		c-3.392-16.945-8.484-33.621-15.136-49.566l-198.311,82.731c-0.036-0.087-0.066-0.175-0.103-0.261
		c-1.21-2.86-2.679-5.575-4.39-8.131L418.902,2.964c-9.593-14.265-20.637-27.653-32.826-39.792l-151.61,152.222
		c-2.307-2.298-4.812-4.338-7.488-6.114L346.151-69.495c-14.365-9.576-29.728-17.763-45.661-24.333l-81.918,198.651
		c-2.927-1.205-5.939-2.12-9.019-2.731l41.309-210.853c-16.671-3.267-33.783-4.922-50.861-4.922h-0.27v214.847
		c-3.203,0.017-6.36,0.334-9.449,0.958l-42.047-210.704c-16.947,3.382-33.627,8.465-49.576,15.107l82.614,198.359
		c-0.095,0.04-0.192,0.073-0.287,0.113c-2.852,1.206-5.558,2.67-8.107,4.375L53.092-68.988c-14.27,9.583-27.664,20.62-39.813,32.803
		l152.134,151.698c-2.3,2.306-4.341,4.81-6.119,7.487L-19.41,3.722c-9.584,14.359-17.78,29.716-24.359,45.645l198.601,82.037
		c-1.205,2.924-2.122,5.932-2.734,9.008L-58.734,98.995c-3.285,16.72-4.95,33.88-4.95,51.005v0.18h214.845
		c0.011,3.225,0.329,6.403,0.955,9.513l-210.73,41.92c3.372,16.951,8.446,33.635,15.081,49.59l198.405-82.505
		c0.044,0.105,0.08,0.212,0.125,0.317c1.202,2.843,2.662,5.541,4.36,8.083L-19.073,296.781
		c9.573,14.272,20.602,27.673,32.778,39.829l151.791-152.04c2.305,2.301,4.808,4.343,7.483,6.122L53.594,369.323
		c14.354,9.593,29.707,17.798,45.633,24.388l82.152-198.553c2.925,1.208,5.935,2.127,9.013,2.741l-41.552,210.805
		c16.767,3.305,33.98,4.98,51.161,4.98h0.09l-0.089-214.84c3.28,0,6.511-0.321,9.672-0.956l41.781,210.758
		c16.954-3.36,33.645-8.426,49.608-15.054L218.67,195.139c0.114-0.047,0.23-0.087,0.344-0.135c2.833-1.199,5.523-2.653,8.058-4.344
		l119.584,178.497c14.278-9.565,27.686-20.587,39.849-32.756L234.548,184.527c2.302-2.303,4.345-4.803,6.125-7.476l178.569,119.476
		c9.599-14.347,17.811-29.691,24.408-45.608l-198.502-82.275c1.208-2.922,2.128-5.928,2.744-9.002l210.782,41.662
		c3.323-16.816,5.009-34.078,5.009-51.305v-0.359H248.835z M200,110.166c13.114,0,24.767,6.372,32.029,16.179H221.17v9.708
		c0,0-5.908-1.175-10.581-0.942c-4.002,0.199-7.248,2.008-9.223,5.107c-0.673,1.046-1.23,2.123-1.676,3.231
		c-1.085-2.201-2.778-4.034-5.08-5.496c-2.538-1.587-6.073-2.382-10.607-2.382l-5.33,0.262l-5.459,0.639l-5.721,0.784V173
		c-4.613-6.501-7.328-14.439-7.328-23C160.166,128.036,178.035,110.166,200,110.166z M221.17,144.296v13.576
		c-1.429,0.407-2.896,0.611-4.403,0.611c-4.692,0-7.038-2.444-7.038-7.331c0-2.425,0.531-4.297,1.593-5.616
		c1.14-1.3,2.424-1.951,3.852-1.95C218.413,143.591,221.17,144.296,221.17,144.296z M190.231,151.179
		c0,2.425-0.531,4.296-1.593,5.616c-1.14,1.3-2.424,1.949-3.853,1.949c-1.545,0-2.964-0.717-4.258-2.153
		c-1.159-1.377-1.737-3.142-1.737-5.295v-6.837c1.429-0.407,2.896-0.612,4.402-0.612
		C187.885,143.846,190.231,146.291,190.231,151.179z M200,189.834c-10.2,0-19.516-3.855-26.57-10.183h5.36v-16.625
		c3.445,2.488,7.056,3.732,10.831,3.732c4.007,0,6.998-1.549,8.973-4.646c0.673-1.046,1.23-2.123,1.675-3.231
		c1.085,2.201,2.778,4.034,5.08,5.496c2.538,1.587,6.074,2.382,10.606,2.382l5.33-0.262l5.46-0.639l5.721-0.784v-38.131
		c4.638,6.511,7.368,14.471,7.368,23.057C239.834,171.965,221.965,189.834,200,189.834z"/>
</g>
</svg>
