<?xml version="1.0" standalone="no"?>
<!DOCTYPE svg PUBLIC "-//W3C//DTD SVG 1.1//EN" "http://www.w3.org/Graphics/SVG/1.1/DTD/svg11.dtd" >
<svg xmlns="http://www.w3.org/2000/svg">
<metadata></metadata>
<defs>
<font id="pind_dmdregular" horiz-adv-x="1384" >
<font-face units-per-em="2048" ascent="1536" descent="-512" />
<missing-glyph horiz-adv-x="500" />
<glyph horiz-adv-x="0" />
<glyph unicode="&#xd;" horiz-adv-x="1024" />
<glyph horiz-adv-x="0" />
<glyph horiz-adv-x="0" />
<glyph unicode=" " />
<glyph unicode="!" d="M-29 80q0 45 32 76.5t77 31.5t76.5 -31.5t31.5 -76.5t-31.5 -77t-76.5 -32t-77 32t-32 77zM-29 489q0 35 20.5 63t51.5 40q-31 10 -51.5 37.5t-20.5 62.5t20.5 63.5t51.5 39.5q-31 12 -51.5 39.5t-20.5 62.5t20.5 63.5t51.5 38.5q-31 12 -51.5 40t-20.5 63t20.5 63.5 t51.5 38.5q-31 10 -51.5 39t-20.5 64q0 45 32 76.5t77 31.5t76.5 -31.5t31.5 -76.5q0 -35 -20.5 -64t-50.5 -39q31 -10 51 -38.5t20 -63.5t-20.5 -62.5t-50.5 -40.5q31 -10 51 -38.5t20 -63.5t-20.5 -62.5t-50.5 -39.5q31 -10 51 -39t20 -64t-20.5 -62.5t-50.5 -37.5 q31 -12 51 -40t20 -63q0 -47 -31.5 -77.5t-76.5 -30.5t-77 30.5t-32 77.5z" />
<glyph unicode="&#x22;" d="M-29 1102q0 35 20.5 63.5t51.5 38.5q-31 10 -51.5 39t-20.5 64q0 45 32 76.5t77 31.5t76.5 -31.5t31.5 -76.5q0 -35 -20.5 -64t-50.5 -39q31 -10 51 -38.5t20 -63.5q0 -45 -31.5 -77t-76.5 -32t-77 32t-32 77zM379 1102q0 35 20.5 63.5t53.5 38.5q-33 10 -53.5 39 t-20.5 64q0 45 31.5 76.5t76.5 31.5q47 0 78 -31.5t31 -76.5q0 -35 -19.5 -64t-52.5 -39q33 -10 52.5 -38.5t19.5 -63.5q0 -45 -30.5 -77t-78.5 -32q-45 0 -76.5 32t-31.5 77z" />
<glyph unicode="#" horiz-adv-x="1179" d="M-29 489q0 45 32 77t77 32q35 0 62.5 -20.5t39.5 -51.5q16 45 66 66q-33 10 -52.5 37.5t-19.5 62.5t19.5 63.5t52.5 39.5q-51 20 -66 65q-12 -31 -39.5 -51.5t-62.5 -20.5q-45 0 -77 32t-32 77q0 47 32 78t77 31q35 0 62.5 -19.5t39.5 -52.5q16 49 66 65q-33 12 -52.5 40 t-19.5 63t19.5 63.5t52.5 38.5q-33 10 -52.5 39t-19.5 64q0 45 31 76.5t78 31.5q45 0 76.5 -31.5t31.5 -76.5q0 -35 -20.5 -64t-50.5 -39q31 -10 51 -38.5t20 -63.5t-20.5 -62.5t-50.5 -40.5q45 -16 65 -65q10 33 38 52.5t62 19.5q35 0 64 -19.5t39 -52.5q20 51 65 65 q-31 12 -51 40t-20 63t20.5 63.5t50.5 38.5q-31 10 -51 39t-20 64q0 45 31.5 76.5t76.5 31.5t77 -31.5t32 -76.5q0 -35 -19.5 -64t-52.5 -39q33 -10 52.5 -38.5t19.5 -63.5t-19.5 -62.5t-52.5 -40.5q49 -16 66 -65q10 33 38.5 52.5t63.5 19.5q45 0 77 -31t32 -78 q0 -45 -32 -77t-77 -32q-35 0 -63.5 20.5t-38.5 51.5q-14 -45 -66 -65q33 -10 52.5 -39t19.5 -64t-19.5 -62.5t-52.5 -37.5q49 -20 66 -66q10 31 38.5 51.5t63.5 20.5q45 0 77 -31.5t32 -77.5q0 -47 -32 -77.5t-77 -30.5q-35 0 -63.5 19.5t-38.5 52.5q-16 -49 -66 -66 q33 -12 52.5 -40t19.5 -62q0 -35 -19.5 -63.5t-52.5 -39.5q33 -10 52.5 -38.5t19.5 -63.5q0 -45 -32 -77t-77 -32t-76.5 32t-31.5 77q0 35 20.5 63.5t50.5 38.5q-31 10 -51 39t-20 64t20.5 62.5t50.5 39.5q-45 14 -65 66q-10 -33 -39 -52.5t-64 -19.5t-62.5 19.5t-37.5 52.5 q-20 -49 -65 -66q31 -12 51 -40t20 -62q0 -35 -20.5 -63.5t-50.5 -39.5q31 -10 51 -38.5t20 -63.5q0 -45 -31.5 -77t-76.5 -32q-47 0 -78 32t-31 77q0 35 19.5 63.5t52.5 38.5q-33 10 -52.5 39t-19.5 64t19.5 62.5t52.5 39.5q-49 16 -66 66q-12 -33 -39.5 -52.5t-62.5 -19.5 q-45 0 -77 30.5t-32 77.5zM322 592q45 -20 65 -66q10 31 38 51.5t62 20.5q35 0 64 -20.5t39 -51.5q20 47 65 66q-31 10 -51 37.5t-20 62.5t20.5 63.5t50.5 39.5q-47 18 -65 65q-10 -31 -39 -51.5t-64 -20.5t-62.5 20.5t-37.5 51.5q-18 -45 -65 -65q31 -10 51 -39t20 -64 t-20.5 -62.5t-50.5 -37.5z" />
<glyph unicode="$" d="M-29 285q0 45 32 76.5t77 31.5q35 0 62.5 -20.5t39.5 -50.5q10 31 39 51t64 20t62.5 -20.5t39.5 -50.5q14 45 66 65q-33 10 -53.5 39t-20.5 63q0 35 20.5 63t53.5 40q-49 16 -66 63q-12 -31 -40 -51t-62 -20q-47 0 -78 31.5t-31 76.5q0 47 31 78t78 31q35 0 62.5 -19.5 t39.5 -52.5q16 49 66 66q-33 12 -53.5 39.5t-20.5 62.5t20.5 63.5t53.5 38.5q-51 20 -66 66q-12 -31 -40 -51.5t-62 -20.5q-47 0 -78 32t-31 77t31 76.5t78 31.5q35 0 62.5 -19.5t39.5 -51.5q16 49 66 65q-33 10 -53.5 39t-20.5 64q0 45 31.5 76.5t76.5 31.5q47 0 78 -31.5 t31 -76.5q0 -35 -19.5 -64t-52.5 -39q49 -16 66 -65q12 33 39.5 52t62.5 19t63.5 -19.5t39.5 -51.5q10 33 38.5 52t63.5 19q45 0 77 -31.5t32 -76.5t-32 -77t-77 -32q-35 0 -63.5 20.5t-38.5 51.5q-10 -31 -39 -51.5t-64 -20.5t-62.5 20.5t-39.5 51.5q-14 -45 -66 -66 q33 -10 52.5 -38.5t19.5 -63.5t-19.5 -62.5t-52.5 -39.5q49 -16 66 -66q12 33 39.5 52.5t62.5 19.5q45 0 77 -31t32 -78q0 -45 -32 -76.5t-77 -31.5q-35 0 -62.5 20.5t-39.5 50.5q-16 -47 -66 -63q33 -12 52.5 -40t19.5 -63t-19.5 -63.5t-52.5 -38.5q51 -20 66 -65 q12 31 39.5 51t62.5 20q45 0 77 -31.5t32 -76.5t-32 -77t-77 -32q-35 0 -62.5 19.5t-39.5 52.5q-16 -49 -66 -66q33 -10 52.5 -38.5t19.5 -63.5q0 -45 -30.5 -77t-78.5 -32q-45 0 -76.5 32t-31.5 77q0 35 20.5 63.5t53.5 38.5q-49 16 -66 66q-12 -33 -40 -52.5t-62 -19.5 q-35 0 -63.5 19.5t-39.5 52.5q-12 -33 -39.5 -52.5t-62.5 -19.5q-45 0 -77 32t-32 77zM-29 897q0 47 32 78t77 31t76.5 -31t31.5 -78q0 -45 -31.5 -77t-76.5 -32t-77 32t-32 77zM788 489q0 45 32 77t77 32t77 -31.5t32 -77.5q0 -47 -32 -77.5t-77 -30.5t-77 30.5t-32 77.5z " />
<glyph unicode="%" d="M-29 80q0 -45 32 -77t77 -32t76.5 32t31.5 77t-31.5 76.5t-76.5 31.5t-77 -31.5t-32 -76.5zM-29 692q0 35 20.5 64t51.5 39q-31 12 -51.5 39.5t-20.5 62.5q0 47 32 78t77 31q35 0 62.5 -19.5t39.5 -52.5q10 33 39 52.5t64 19.5q45 0 76.5 -31t31.5 -78q0 -35 -20.5 -62.5 t-50.5 -39.5q31 -10 51 -39t20 -64q0 -45 -31.5 -76.5t-76.5 -31.5q-35 0 -63.5 20.5t-39.5 50.5q-12 -31 -39.5 -51t-62.5 -20q-45 0 -77 31.5t-32 76.5zM117 795q45 -14 65 -66q16 49 66 66q-51 20 -66 65q-18 -47 -65 -65zM176 285q0 -45 31 -77t78 -32q45 0 76.5 32 t31.5 77t-31.5 76.5t-76.5 31.5q-47 0 -78 -31.5t-31 -76.5zM379 489q0 -47 31.5 -77.5t76.5 -30.5q47 0 78 30.5t31 77.5q0 45 -31 77t-78 32q-45 0 -76.5 -31.5t-31.5 -77.5zM584 80q0 35 20.5 63.5t50.5 38.5q-31 10 -51 39t-20 64q0 45 31.5 76.5t76.5 31.5 q35 0 63.5 -20.5t39.5 -50.5q10 31 38.5 51t63.5 20q45 0 77 -31.5t32 -76.5q0 -35 -20.5 -64t-51.5 -39q31 -10 51.5 -38.5t20.5 -63.5q0 -45 -32 -77t-77 -32q-35 0 -63.5 20.5t-38.5 51.5q-10 -31 -39 -51.5t-64 -20.5q-45 0 -76.5 32t-31.5 77zM584 692 q0 -45 31.5 -76.5t76.5 -31.5t77 31.5t32 76.5q0 47 -32 78t-77 31t-76.5 -31t-31.5 -78zM729 182q49 -16 66 -65q16 49 65 65q-49 16 -65 66q-16 -49 -66 -66zM788 897q0 -45 32 -77t77 -32t77 32t32 77q0 47 -32 78t-77 31t-77 -31t-32 -78z" />
<glyph unicode="&#x26;" d="M-29 285q0 35 20.5 62.5t51.5 39.5q-31 10 -51.5 39t-20.5 63q0 45 32 77t77 32t76.5 -31.5t31.5 -77.5q0 -35 -20 -63.5t-51 -38.5q31 -12 51 -40t20 -62q0 -45 -31.5 -77t-76.5 -32t-77 32t-32 77zM-29 897q0 35 20.5 63.5t51.5 38.5q-31 12 -51.5 40t-20.5 63 q0 45 32 76.5t77 31.5t76.5 -31.5t31.5 -76.5q0 -35 -20.5 -62.5t-50.5 -40.5q31 -10 51 -38.5t20 -63.5q0 -45 -31.5 -77t-76.5 -32t-77 32t-32 77zM176 80q0 45 31 76.5t78 31.5q35 0 62.5 -20.5t39.5 -50.5q10 31 37.5 51t62.5 20q47 0 78 -31.5t31 -76.5t-30.5 -77 t-78.5 -32q-35 0 -62.5 20.5t-37.5 51.5q-12 -31 -40 -51.5t-62 -20.5q-47 0 -78 32t-31 77zM176 692q0 47 31 78t78 31q45 0 76.5 -31t31.5 -78q0 -45 -31.5 -76.5t-76.5 -31.5q-47 0 -78 31.5t-31 76.5zM176 1307q0 45 31 76.5t78 31.5q45 0 76.5 -31.5t31.5 -76.5 t-31.5 -77t-76.5 -32q-47 0 -78 32t-31 77zM379 489q0 45 31.5 77t76.5 32q47 0 78 -31.5t31 -77.5q0 -47 -31 -77.5t-78 -30.5q-45 0 -76.5 30.5t-31.5 77.5zM379 897q0 35 20.5 63.5t53.5 38.5q-33 12 -53.5 40t-20.5 63q0 45 31.5 76.5t76.5 31.5q47 0 78 -31.5t31 -76.5 q0 -35 -19.5 -62.5t-52.5 -40.5q33 -10 52.5 -38.5t19.5 -63.5q0 -45 -30.5 -77t-78.5 -32q-45 0 -76.5 32t-31.5 77zM584 285q0 45 31.5 76.5t76.5 31.5t77 -31.5t32 -76.5t-32 -77t-77 -32t-76.5 32t-31.5 77zM788 80q0 45 32 76.5t77 31.5t77 -31.5t32 -76.5t-32 -77 t-77 -32t-77 32t-32 77zM788 489q0 45 32 77t77 32t77 -31.5t32 -77.5q0 -47 -32 -77.5t-77 -30.5t-77 30.5t-32 77.5z" />
<glyph unicode="'" d="M578 1104q0 35 20 63.5t51 38.5q-31 10 -51 39t-20 64q0 45 31.5 76.5t76.5 31.5t77 -31.5t32 -76.5q0 -35 -20.5 -64t-51.5 -39q31 -10 51.5 -38.5t20.5 -63.5q0 -45 -32 -77t-77 -32t-76.5 32t-31.5 77z" />
<glyph unicode="(" d="M375 489q0 35 20.5 63t50.5 40q-31 10 -51 37.5t-20 62.5t20.5 63.5t50.5 39.5q-31 12 -51 39.5t-20 62.5q0 47 31.5 78t76.5 31t77 -31t32 -78q0 -35 -20.5 -62.5t-51.5 -39.5q31 -10 51.5 -39t20.5 -64t-20.5 -62.5t-51.5 -37.5q31 -12 51.5 -40t20.5 -63 q0 -47 -32 -77.5t-77 -30.5t-76.5 30.5t-31.5 77.5zM580 285q0 45 30.5 76.5t77.5 31.5q45 0 77 -31.5t32 -76.5t-32 -77t-77 -32q-47 0 -77.5 32t-30.5 77zM580 1102q0 45 30.5 76.5t77.5 31.5q45 0 77 -31.5t32 -76.5t-32 -77t-77 -32q-47 0 -77.5 32t-30.5 77zM782 80 q0 45 32 76.5t77 31.5q47 0 77.5 -31.5t30.5 -76.5t-30.5 -77t-77.5 -32q-45 0 -77 32t-32 77zM782 1307q0 45 32 76.5t77 31.5q47 0 77.5 -31.5t30.5 -76.5t-30.5 -77t-77.5 -32q-45 0 -77 32t-32 77z" />
<glyph unicode=")" d="M-29 80q0 45 32 76.5t77 31.5t76.5 -31.5t31.5 -76.5t-31.5 -77t-76.5 -32t-77 32t-32 77zM-29 1307q0 45 32 76.5t77 31.5t76.5 -31.5t31.5 -76.5t-31.5 -77t-76.5 -32t-77 32t-32 77zM176 285q0 45 31 76.5t78 31.5q45 0 76.5 -31.5t31.5 -76.5t-31.5 -77t-76.5 -32 q-47 0 -78 32t-31 77zM176 1102q0 45 31 76.5t78 31.5q45 0 76.5 -31.5t31.5 -76.5t-31.5 -77t-76.5 -32q-47 0 -78 32t-31 77zM379 489q0 35 20.5 63t53.5 40q-33 10 -53.5 37.5t-20.5 62.5t20.5 63.5t53.5 39.5q-33 12 -53.5 39.5t-20.5 62.5q0 47 31.5 78t76.5 31 q47 0 78 -31t31 -78q0 -35 -19.5 -62.5t-52.5 -39.5q33 -10 52.5 -39t19.5 -64t-19.5 -62.5t-52.5 -37.5q33 -12 52.5 -40t19.5 -63q0 -47 -30.5 -77.5t-78.5 -30.5q-45 0 -76.5 30.5t-31.5 77.5z" />
<glyph unicode="*" d="M-29 897q0 45 32 77t77 32q35 0 62.5 -20.5t39.5 -51.5q10 31 39 51.5t64 20.5t62.5 -20.5t39.5 -51.5q16 45 66 65q-33 10 -53.5 38t-20.5 63q0 47 31.5 77.5t76.5 30.5q47 0 78 -30.5t31 -77.5q0 -35 -19.5 -62.5t-52.5 -38.5q49 -20 66 -65q12 31 39.5 51.5t62.5 20.5 t63.5 -20.5t39.5 -51.5q10 31 38.5 51.5t63.5 20.5q45 0 77 -32t32 -77q0 -47 -32 -78t-77 -31q-35 0 -63.5 19.5t-38.5 52.5q-10 -33 -39 -52.5t-64 -19.5t-62.5 19.5t-39.5 52.5q-16 -49 -66 -65q33 -12 52.5 -40t19.5 -63q0 -45 -30.5 -76.5t-78.5 -31.5 q-45 0 -76.5 31.5t-31.5 76.5q0 35 20.5 62.5t53.5 40.5q-49 16 -66 65q-12 -33 -40 -52.5t-62 -19.5q-35 0 -63.5 19.5t-39.5 52.5q-12 -33 -39.5 -52.5t-62.5 -19.5q-45 0 -77 31t-32 78zM176 487q0 45 31 77t78 32q45 0 76.5 -32t31.5 -77t-31.5 -76.5t-76.5 -31.5 q-47 0 -78 31.5t-31 76.5zM176 1305q0 47 31 77.5t78 30.5q45 0 76.5 -30.5t31.5 -77.5q0 -45 -31.5 -77t-76.5 -32q-47 0 -78 32t-31 77zM584 487q0 45 31.5 77t76.5 32t77 -32t32 -77t-32 -76.5t-77 -31.5t-76.5 31.5t-31.5 76.5zM584 1305q0 47 31.5 77.5t76.5 30.5 t77 -30.5t32 -77.5q0 -45 -32 -77t-77 -32t-76.5 32t-31.5 77z" />
<glyph unicode="+" d="M-29 692q0 45 32 77t77 32q35 0 62.5 -20.5t39.5 -51.5q10 31 39 51.5t64 20.5t62.5 -20.5t39.5 -51.5q16 45 66 66q-33 10 -53.5 37.5t-20.5 62.5t20.5 63.5t53.5 38.5q-33 12 -53.5 40t-20.5 63q0 47 31.5 77.5t76.5 30.5q47 0 78 -30.5t31 -77.5q0 -35 -19.5 -62.5 t-52.5 -40.5q33 -10 52.5 -38.5t19.5 -63.5t-19.5 -62.5t-52.5 -37.5q49 -20 66 -66q12 31 39.5 51.5t62.5 20.5t63.5 -20.5t39.5 -51.5q10 31 38.5 51.5t63.5 20.5q45 0 77 -32t32 -77q0 -47 -32 -77.5t-77 -30.5q-35 0 -63.5 19.5t-38.5 51.5q-10 -33 -39 -52t-64 -19 t-62.5 19.5t-39.5 51.5q-16 -49 -66 -65q33 -12 52.5 -40t19.5 -63t-19.5 -63.5t-52.5 -38.5q33 -10 52.5 -39t19.5 -63q0 -45 -30.5 -77t-78.5 -32q-45 0 -76.5 32t-31.5 77q0 35 20.5 63.5t53.5 38.5q-33 10 -53.5 39t-20.5 63q0 35 20.5 63t53.5 40q-49 16 -66 65 q-12 -33 -40 -52t-62 -19q-35 0 -63.5 19.5t-39.5 51.5q-12 -33 -39.5 -52t-62.5 -19q-45 0 -77 30.5t-32 77.5z" />
<glyph unicode="," d="M-29 -125q0 45 32 77t77 32t76.5 -32t31.5 -77t-31.5 -76.5t-76.5 -31.5t-77 31.5t-32 76.5zM-29 285q0 35 20.5 62.5t51.5 39.5q-31 10 -51.5 38t-20.5 62q0 47 32 78t77 31q35 0 62.5 -19.5t39.5 -52.5q10 33 39 52.5t64 19.5q45 0 76.5 -30.5t31.5 -78.5 q0 -35 -20.5 -62.5t-50.5 -37.5q31 -12 51 -39.5t20 -62.5t-20.5 -63.5t-50.5 -39.5q31 -12 51 -39.5t20 -62.5q0 -45 -31.5 -77t-76.5 -32q-47 0 -78 32t-31 77q0 35 19.5 62.5t52.5 39.5q-49 16 -66 66q-12 -33 -39.5 -52.5t-62.5 -19.5q-45 0 -77 31t-32 78zM117 387 q45 -18 65 -65q16 45 66 65q-49 16 -66 64q-10 -23 -26.5 -39.5t-38.5 -24.5z" />
<glyph unicode="-" d="M-29 692q0 45 32 77t77 32q35 0 62.5 -20.5t39.5 -51.5q10 31 39 51.5t64 20.5t62.5 -20.5t39.5 -51.5q10 31 38 51.5t62 20.5q35 0 64 -20.5t39 -51.5q12 31 39.5 51.5t62.5 20.5t63.5 -20.5t39.5 -51.5q10 31 38.5 51.5t63.5 20.5q45 0 77 -32t32 -77t-32 -76.5 t-77 -31.5q-35 0 -63.5 20.5t-38.5 50.5q-10 -31 -39 -51t-64 -20t-62.5 20.5t-39.5 50.5q-10 -31 -39 -51t-64 -20t-62.5 20.5t-37.5 50.5q-12 -31 -40 -51t-62 -20q-35 0 -63.5 20.5t-39.5 50.5q-12 -31 -39.5 -51t-62.5 -20q-45 0 -77 31.5t-32 76.5z" />
<glyph unicode="." d="M-29 80q0 35 20.5 63.5t51.5 38.5q-31 10 -51.5 39t-20.5 64q0 45 32 76.5t77 31.5q35 0 62.5 -20.5t39.5 -50.5q10 31 39 51t64 20q45 0 76.5 -31.5t31.5 -76.5q0 -35 -20 -64t-51 -39q31 -10 51 -38.5t20 -63.5q0 -45 -31.5 -77t-76.5 -32q-35 0 -63.5 20.5t-39.5 51.5 q-12 -31 -39.5 -51.5t-62.5 -20.5q-45 0 -77 32t-32 77zM117 182q45 -14 65 -65q16 49 66 65q-49 16 -66 66q-20 -51 -65 -66z" />
<glyph unicode="/" d="M-29 80q0 45 32 76.5t77 31.5t76.5 -31.5t31.5 -76.5t-31.5 -77t-76.5 -32t-77 32t-32 77zM176 285q0 45 31 76.5t78 31.5q45 0 76.5 -31.5t31.5 -76.5t-31.5 -77t-76.5 -32q-47 0 -78 32t-31 77zM379 489q0 45 31.5 77t76.5 32q47 0 78 -32t31 -77q0 -47 -30.5 -77.5 t-78.5 -30.5q-45 0 -76.5 30.5t-31.5 77.5zM584 692q0 47 31.5 78t76.5 31t77 -31t32 -78q0 -45 -32 -76.5t-77 -31.5t-76.5 31.5t-31.5 76.5zM788 897q0 47 32 78t77 31t77 -31t32 -78q0 -45 -32 -77t-77 -32t-77 32t-32 77z" />
<glyph unicode="0" d="M-29 285q0 35 20.5 62.5t51.5 39.5q-31 10 -51.5 39t-20.5 63q0 35 20.5 63t51.5 40q-31 10 -51.5 37.5t-20.5 62.5t20.5 63.5t51.5 39.5q-31 12 -51.5 39.5t-20.5 62.5t20.5 63.5t51.5 38.5q-31 12 -51.5 40t-20.5 63q0 45 32 76.5t77 31.5t76.5 -31.5t31.5 -76.5 q0 -35 -20 -63t-51 -40q31 -10 51 -38.5t20 -63.5t-20.5 -62.5t-50.5 -39.5q31 -10 51 -39t20 -64t-20.5 -62.5t-50.5 -37.5q31 -12 51 -40t20 -63t-20.5 -63.5t-50.5 -38.5q31 -12 51 -40t20 -62q0 -45 -31.5 -77t-76.5 -32t-77 32t-32 77zM176 80q0 45 31 76.5t78 31.5 q35 0 62.5 -20.5t39.5 -50.5q10 31 38 51t62 20q35 0 64 -20.5t39 -50.5q12 31 39.5 51t62.5 20q45 0 77 -31.5t32 -76.5t-32 -77t-77 -32q-35 0 -62.5 20.5t-39.5 51.5q-10 -31 -39 -51.5t-64 -20.5t-62.5 20.5t-37.5 51.5q-12 -31 -40 -51.5t-62 -20.5q-47 0 -78 32 t-31 77zM176 1307q0 45 31 76.5t78 31.5q35 0 62.5 -20.5t39.5 -51.5q10 31 38 51.5t62 20.5q35 0 64 -20.5t39 -51.5q12 31 39.5 51.5t62.5 20.5q45 0 77 -31.5t32 -76.5t-32 -77t-77 -32q-35 0 -62.5 20.5t-39.5 51.5q-10 -31 -39 -51.5t-64 -20.5t-62.5 20.5t-37.5 51.5 q-12 -31 -40 -51.5t-62 -20.5q-47 0 -78 32t-31 77zM788 285q0 35 20.5 62.5t51.5 39.5q-31 10 -51.5 39t-20.5 63q0 35 20.5 63t51.5 40q-31 10 -51.5 37.5t-20.5 62.5t20.5 63.5t51.5 39.5q-31 12 -51.5 39.5t-20.5 62.5t20.5 63.5t51.5 38.5q-31 12 -51.5 40t-20.5 63 q0 45 32 76.5t77 31.5t77 -31.5t32 -76.5q0 -35 -20.5 -62.5t-51.5 -40.5q31 -10 51.5 -38.5t20.5 -63.5t-20.5 -62.5t-51.5 -39.5q31 -10 51.5 -39t20.5 -64t-20.5 -62.5t-51.5 -37.5q31 -12 51.5 -40t20.5 -63t-20.5 -63.5t-51.5 -38.5q31 -12 51.5 -40t20.5 -62 q0 -45 -32 -77t-77 -32t-77 32t-32 77z" />
<glyph unicode="1" d="M176 80q0 45 32 76.5t77 31.5q35 0 62.5 -20.5t39.5 -50.5q16 49 66 65q-33 10 -52.5 39t-19.5 64t19.5 62.5t52.5 39.5q-33 10 -52.5 39t-19.5 63q0 35 19.5 63t52.5 40q-33 10 -52.5 37.5t-19.5 62.5t19.5 63.5t52.5 39.5q-33 12 -52.5 39.5t-19.5 62.5t19.5 63.5 t52.5 38.5q-51 20 -66 66q-12 -31 -40 -51.5t-62 -20.5q-45 0 -77 32t-32 77t32 76.5t77 31.5q35 0 62.5 -19.5t39.5 -51.5q16 49 66 65q-33 10 -52.5 39t-19.5 64q0 45 30.5 76.5t77.5 31.5q45 0 77 -31.5t32 -76.5q0 -35 -20.5 -64t-51.5 -39q31 -10 51.5 -38.5 t20.5 -63.5t-20.5 -62.5t-51.5 -40.5q31 -10 51.5 -38.5t20.5 -63.5t-20.5 -62.5t-51.5 -39.5q31 -10 51.5 -39t20.5 -64t-20.5 -62.5t-51.5 -37.5q31 -12 51.5 -40t20.5 -63t-20.5 -63.5t-51.5 -38.5q31 -12 51.5 -40t20.5 -62q0 -35 -20.5 -63.5t-51.5 -39.5 q45 -16 66 -65q10 31 37.5 51t62.5 20q47 0 78 -31.5t31 -76.5t-31 -77t-78 -32q-35 0 -62.5 20.5t-37.5 51.5q-12 -31 -40 -51.5t-63 -20.5t-63.5 20.5t-38.5 51.5q-12 -31 -40 -51.5t-62 -20.5q-45 0 -77 32t-32 77z" />
<glyph unicode="2" d="M-29 80q0 35 20.5 63.5t51.5 38.5q-31 10 -51.5 39t-20.5 64q0 45 32 76.5t77 31.5t76.5 -31.5t31.5 -76.5q0 -35 -20.5 -63.5t-50.5 -39.5q45 -14 65 -65q10 31 39 51t64 20t62.5 -20.5t39.5 -50.5q10 31 38 51t62 20q35 0 64 -20.5t39 -50.5q12 31 39.5 51t62.5 20 t63.5 -20.5t39.5 -50.5q10 31 38.5 51t63.5 20q45 0 77 -31.5t32 -76.5t-32 -77t-77 -32q-35 0 -63.5 20.5t-38.5 51.5q-10 -31 -39 -51.5t-64 -20.5t-62.5 20.5t-39.5 51.5q-10 -31 -39 -51.5t-64 -20.5t-62.5 20.5t-37.5 51.5q-12 -31 -40 -51.5t-62 -20.5 q-35 0 -63.5 20.5t-39.5 51.5q-12 -31 -39.5 -51.5t-62.5 -20.5q-45 0 -77 32t-32 77zM-29 1102q0 45 32 76.5t77 31.5t76.5 -31.5t31.5 -76.5t-31.5 -77t-76.5 -32t-77 32t-32 77zM176 489q0 45 31 77t78 32q45 0 76.5 -31.5t31.5 -77.5q0 -47 -31.5 -77.5t-76.5 -30.5 q-47 0 -78 30.5t-31 77.5zM176 1307q0 45 31 76.5t78 31.5q35 0 62.5 -20.5t39.5 -51.5q10 31 38 51.5t62 20.5q35 0 64 -20.5t39 -51.5q12 31 39.5 51.5t62.5 20.5q45 0 77 -31.5t32 -76.5t-32 -77t-77 -32q-35 0 -62.5 20.5t-39.5 51.5q-10 -31 -39 -51.5t-64 -20.5 t-62.5 20.5t-37.5 51.5q-12 -31 -39.5 -51.5t-62.5 -20.5q-47 0 -78 32t-31 77zM379 692q0 47 31.5 78t76.5 31q35 0 64 -19.5t39 -52.5q12 33 39.5 52.5t62.5 19.5q45 0 77 -31t32 -78q0 -45 -32 -76.5t-77 -31.5q-35 0 -62.5 20.5t-39.5 50.5q-10 -31 -39 -51t-64 -20 q-45 0 -76.5 31.5t-31.5 76.5zM788 897q0 35 20.5 63.5t51.5 38.5q-31 12 -51.5 40t-20.5 63q0 45 32 76.5t77 31.5t77 -31.5t32 -76.5q0 -35 -20.5 -63t-51.5 -40q31 -10 51.5 -38.5t20.5 -63.5q0 -45 -32 -77t-77 -32t-77 32t-32 77z" />
<glyph unicode="3" d="M-29 285q0 45 32 76.5t77 31.5t76.5 -31.5t31.5 -76.5t-31.5 -77t-76.5 -32t-77 32t-32 77zM-29 1102q0 45 32 76.5t77 31.5t76.5 -31.5t31.5 -76.5t-31.5 -77t-76.5 -32t-77 32t-32 77zM176 80q0 45 31 76.5t78 31.5q35 0 62.5 -20.5t39.5 -50.5q10 31 38 51t62 20 q35 0 64 -20.5t39 -50.5q12 31 39.5 51t62.5 20q45 0 77 -31.5t32 -76.5t-32 -77t-77 -32q-35 0 -62.5 20.5t-39.5 51.5q-10 -31 -39 -51.5t-64 -20.5t-62.5 20.5t-37.5 51.5q-12 -31 -40 -51.5t-62 -20.5q-47 0 -78 32t-31 77zM176 1307q0 45 31 76.5t78 31.5 q35 0 62.5 -20.5t39.5 -51.5q10 31 38 51.5t62 20.5q35 0 64 -20.5t39 -51.5q12 31 39.5 51.5t62.5 20.5q45 0 77 -31.5t32 -76.5t-32 -77t-77 -32q-35 0 -62.5 20.5t-39.5 51.5q-10 -31 -39 -51.5t-64 -20.5t-62.5 20.5t-37.5 51.5q-12 -31 -39.5 -51.5t-62.5 -20.5 q-47 0 -78 32t-31 77zM379 692q0 47 31.5 78t76.5 31q35 0 64 -19.5t39 -52.5q12 33 39.5 52.5t62.5 19.5q45 0 77 -31t32 -78q0 -45 -32 -76.5t-77 -31.5q-35 0 -62.5 20.5t-39.5 50.5q-10 -31 -39 -51t-64 -20q-45 0 -76.5 31.5t-31.5 76.5zM788 285q0 35 20.5 62.5 t51.5 39.5q-31 10 -51.5 39t-20.5 63q0 45 32 77t77 32t77 -32t32 -77q0 -35 -20.5 -63.5t-51.5 -38.5q31 -12 51.5 -40t20.5 -62q0 -45 -32 -77t-77 -32t-77 32t-32 77zM788 897q0 35 20.5 63.5t51.5 38.5q-31 12 -51.5 40t-20.5 63q0 45 32 76.5t77 31.5t77 -31.5 t32 -76.5q0 -35 -20.5 -63t-51.5 -40q31 -10 51.5 -38.5t20.5 -63.5q0 -45 -32 -77t-77 -32t-77 32t-32 77z" />
<glyph unicode="4" d="M-29 489q0 35 20.5 63t51.5 40q-31 10 -51.5 37.5t-20.5 62.5q0 47 32 78t77 31t76.5 -31t31.5 -78q0 -35 -20.5 -62.5t-50.5 -37.5q45 -18 65 -66q10 31 39 51.5t64 20.5t62.5 -20.5t39.5 -51.5q10 31 38 51.5t62 20.5q35 0 64 -20.5t39 -51.5q20 47 65 66 q-31 10 -51 37.5t-20 62.5t20.5 63.5t50.5 39.5q-31 12 -51 39.5t-20 62.5t20.5 63.5t50.5 38.5q-47 18 -65 66q-10 -31 -39 -51.5t-64 -20.5q-45 0 -76.5 32t-31.5 77t31.5 76.5t76.5 31.5q35 0 64 -19.5t39 -51.5q20 51 65 65q-31 10 -51 39t-20 64q0 45 31.5 76.5 t76.5 31.5t77 -31.5t32 -76.5q0 -35 -19.5 -64t-52.5 -39q33 -10 52.5 -38.5t19.5 -63.5t-19.5 -62.5t-52.5 -40.5q33 -10 52.5 -38.5t19.5 -63.5t-19.5 -62.5t-52.5 -39.5q33 -10 52.5 -39t19.5 -64t-19.5 -62.5t-52.5 -37.5q49 -20 66 -66q10 31 38.5 51.5t63.5 20.5 q45 0 77 -31.5t32 -77.5q0 -47 -32 -77.5t-77 -30.5q-35 0 -63.5 19.5t-38.5 52.5q-16 -49 -66 -66q33 -12 52.5 -40t19.5 -62q0 -35 -19.5 -63.5t-52.5 -39.5q33 -10 52.5 -38.5t19.5 -63.5q0 -45 -32 -77t-77 -32t-76.5 32t-31.5 77q0 35 20.5 63.5t50.5 38.5 q-31 10 -51 39t-20 64t20.5 62.5t50.5 39.5q-45 14 -65 66q-10 -33 -39 -52.5t-64 -19.5t-62.5 19.5t-37.5 52.5q-12 -33 -40 -52.5t-62 -19.5q-35 0 -63.5 19.5t-39.5 52.5q-12 -33 -39.5 -52.5t-62.5 -19.5q-45 0 -77 30.5t-32 77.5zM176 897q0 47 31 78t78 31 q45 0 76.5 -31t31.5 -78q0 -45 -31.5 -77t-76.5 -32q-47 0 -78 32t-31 77z" />
<glyph unicode="5" d="M-29 285q0 45 32 76.5t77 31.5t76.5 -31.5t31.5 -76.5t-31.5 -77t-76.5 -32t-77 32t-32 77zM-29 897q0 35 20.5 63.5t51.5 38.5q-31 12 -51.5 40t-20.5 63t20.5 63.5t51.5 38.5q-31 10 -51.5 39t-20.5 64q0 45 32 76.5t77 31.5q35 0 62.5 -20.5t39.5 -51.5q10 31 39 51.5 t64 20.5t62.5 -20.5t39.5 -51.5q10 31 38 51.5t62 20.5q35 0 64 -20.5t39 -51.5q12 31 39.5 51.5t62.5 20.5t63.5 -20.5t39.5 -51.5q10 31 38.5 51.5t63.5 20.5q45 0 77 -31.5t32 -76.5t-32 -77t-77 -32q-35 0 -63.5 20.5t-38.5 51.5q-10 -31 -39 -51.5t-64 -20.5 t-62.5 20.5t-39.5 51.5q-10 -31 -39 -51.5t-64 -20.5t-62.5 20.5t-37.5 51.5q-12 -31 -40 -51.5t-62 -20.5q-35 0 -63.5 20.5t-39.5 51.5q-20 -51 -65 -66q31 -10 51 -38.5t20 -63.5t-20.5 -62.5t-50.5 -40.5q45 -14 65 -65q10 33 39 52.5t64 19.5t62.5 -19.5t39.5 -52.5 q10 33 38 52.5t62 19.5q35 0 64 -19.5t39 -52.5q12 33 39.5 52.5t62.5 19.5q45 0 77 -31t32 -78q0 -45 -32 -77t-77 -32q-35 0 -62.5 20.5t-39.5 51.5q-10 -31 -39 -51.5t-64 -20.5t-62.5 20.5t-37.5 51.5q-12 -31 -40 -51.5t-62 -20.5q-35 0 -63.5 20.5t-39.5 51.5 q-12 -31 -39.5 -51.5t-62.5 -20.5q-45 0 -77 32t-32 77zM176 80q0 45 31 76.5t78 31.5q35 0 62.5 -20.5t39.5 -50.5q10 31 38 51t62 20q35 0 64 -20.5t39 -50.5q12 31 39.5 51t62.5 20q45 0 77 -31.5t32 -76.5t-32 -77t-77 -32q-35 0 -62.5 20.5t-39.5 51.5 q-10 -31 -39 -51.5t-64 -20.5t-62.5 20.5t-37.5 51.5q-12 -31 -40 -51.5t-62 -20.5q-47 0 -78 32t-31 77zM788 285q0 35 20.5 62.5t51.5 39.5q-31 10 -51.5 39t-20.5 63q0 35 20.5 63t51.5 40q-31 10 -51.5 37.5t-20.5 62.5q0 47 32 78t77 31t77 -31t32 -78 q0 -35 -20.5 -62.5t-51.5 -37.5q31 -12 51.5 -40t20.5 -63t-20.5 -63.5t-51.5 -38.5q31 -12 51.5 -40t20.5 -62q0 -45 -32 -77t-77 -32t-77 32t-32 77z" />
<glyph unicode="6" d="M-29 285q0 35 20.5 62.5t51.5 39.5q-31 10 -51.5 39t-20.5 63q0 35 20.5 63t51.5 40q-31 10 -51.5 37.5t-20.5 62.5t20.5 63.5t51.5 39.5q-31 12 -51.5 39.5t-20.5 62.5q0 47 32 78t77 31t76.5 -31t31.5 -78q0 -35 -20.5 -62.5t-50.5 -39.5q45 -14 65 -66q10 33 39 52.5 t64 19.5t62.5 -19.5t39.5 -52.5q10 33 38 52.5t62 19.5q35 0 64 -19.5t39 -52.5q12 33 39.5 52.5t62.5 19.5q45 0 77 -31t32 -78q0 -45 -32 -76.5t-77 -31.5q-35 0 -62.5 20.5t-39.5 50.5q-10 -31 -39 -51t-64 -20t-62.5 20.5t-37.5 50.5q-12 -31 -40 -51t-62 -20 q-35 0 -63.5 20.5t-39.5 50.5q-10 -23 -26.5 -39t-38.5 -24q31 -12 51 -40t20 -63t-20 -63.5t-51 -38.5q31 -12 51 -40t20 -62q0 -45 -31.5 -77t-76.5 -32t-77 32t-32 77zM176 80q0 45 31 76.5t78 31.5q35 0 62.5 -20.5t39.5 -50.5q10 31 38 51t62 20q35 0 64 -20.5 t39 -50.5q12 31 39.5 51t62.5 20q45 0 77 -31.5t32 -76.5t-32 -77t-77 -32q-35 0 -62.5 20.5t-39.5 51.5q-10 -31 -39 -51.5t-64 -20.5t-62.5 20.5t-37.5 51.5q-12 -31 -40 -51.5t-62 -20.5q-47 0 -78 32t-31 77zM176 1102q0 45 31 76.5t78 31.5q45 0 76.5 -31.5t31.5 -76.5 t-31.5 -77t-76.5 -32q-47 0 -78 32t-31 77zM379 1307q0 45 31.5 76.5t76.5 31.5q35 0 64 -20.5t39 -51.5q12 31 39.5 51.5t62.5 20.5q45 0 77 -31.5t32 -76.5t-32 -77t-77 -32q-35 0 -62.5 20.5t-39.5 51.5q-10 -31 -39 -51.5t-64 -20.5q-45 0 -76.5 32t-31.5 77zM788 285 q0 35 20.5 62.5t51.5 39.5q-31 10 -51.5 39t-20.5 63q0 45 32 77t77 32t77 -31.5t32 -77.5q0 -35 -20.5 -63.5t-51.5 -38.5q31 -12 51.5 -40t20.5 -62q0 -45 -32 -77t-77 -32t-77 32t-32 77z" />
<glyph unicode="7" d="M-29 1307q0 45 32 76.5t77 31.5q35 0 62.5 -20.5t39.5 -51.5q10 31 39 51.5t64 20.5t62.5 -20.5t39.5 -51.5q10 31 38 51.5t62 20.5q35 0 64 -20.5t39 -51.5q12 31 39.5 51.5t62.5 20.5t63.5 -20.5t39.5 -51.5q10 31 38.5 51.5t63.5 20.5q45 0 77 -31.5t32 -76.5 q0 -35 -20.5 -64t-51.5 -39q31 -10 51.5 -38.5t20.5 -63.5q0 -45 -32 -77t-77 -32t-77 32t-32 77q0 35 20.5 63.5t51.5 38.5q-49 16 -65 66q-10 -31 -39 -51.5t-64 -20.5t-62.5 20.5t-39.5 51.5q-10 -31 -39 -51.5t-64 -20.5t-62.5 20.5t-37.5 51.5q-12 -31 -40 -51.5 t-62 -20.5q-35 0 -63.5 20.5t-39.5 51.5q-12 -31 -39.5 -51.5t-62.5 -20.5q-45 0 -77 32t-32 77zM176 80q0 35 19.5 63.5t52.5 38.5q-33 10 -52.5 39t-19.5 64t19.5 62.5t52.5 39.5q-33 10 -52.5 39t-19.5 63q0 45 31 77t78 32q45 0 76.5 -32t31.5 -77q0 -35 -20.5 -63.5 t-50.5 -38.5q31 -12 51 -40t20 -62q0 -35 -20.5 -63.5t-50.5 -39.5q31 -10 51 -38.5t20 -63.5q0 -45 -31.5 -77t-76.5 -32q-47 0 -78 32t-31 77zM379 692q0 47 31.5 78t76.5 31q47 0 78 -31t31 -78q0 -45 -30.5 -76.5t-78.5 -31.5q-45 0 -76.5 31.5t-31.5 76.5zM584 897 q0 47 31.5 78t76.5 31t77 -31t32 -78q0 -45 -32 -77t-77 -32t-76.5 32t-31.5 77z" />
<glyph unicode="8" d="M-29 285q0 35 20.5 62.5t51.5 39.5q-31 10 -51.5 38.5t-20.5 63.5q0 45 32 77t77 32t76.5 -31.5t31.5 -77.5q0 -35 -20.5 -63.5t-50.5 -38.5q31 -12 51 -40t20 -62q0 -45 -31.5 -77t-76.5 -32t-77 32t-32 77zM-29 897q0 35 20.5 63.5t51.5 38.5q-31 12 -51.5 40t-20.5 63 q0 45 32 76.5t77 31.5t76.5 -31.5t31.5 -76.5q0 -35 -20 -63t-51 -40q31 -10 51 -38.5t20 -63.5q0 -45 -31.5 -77t-76.5 -32t-77 32t-32 77zM176 80q0 45 31 76.5t78 31.5q35 0 62.5 -20.5t39.5 -50.5q10 31 38 51t62 20q35 0 64 -20.5t39 -50.5q12 31 39.5 51t62.5 20 q45 0 77 -31.5t32 -76.5t-32 -77t-77 -32q-35 0 -62.5 20.5t-39.5 51.5q-10 -31 -39 -51.5t-64 -20.5t-62.5 20.5t-37.5 51.5q-12 -31 -40 -51.5t-62 -20.5q-47 0 -78 32t-31 77zM176 692q0 47 31 78t78 31q35 0 62.5 -19.5t39.5 -52.5q10 33 38 52.5t62 19.5q35 0 64 -19.5 t39 -52.5q12 33 39.5 52.5t62.5 19.5q45 0 77 -31t32 -78q0 -45 -32 -76.5t-77 -31.5q-35 0 -62.5 20t-39.5 51q-10 -31 -39 -51t-64 -20t-62.5 20.5t-37.5 50.5q-12 -31 -40 -51t-62 -20q-47 0 -78 31.5t-31 76.5zM176 1307q0 45 31 76.5t78 31.5q35 0 62.5 -20.5 t39.5 -51.5q10 31 38 51.5t62 20.5q35 0 64 -20.5t39 -51.5q12 31 39.5 51.5t62.5 20.5q45 0 77 -31.5t32 -76.5t-32 -77t-77 -32q-35 0 -62.5 20.5t-39.5 51.5q-10 -31 -39 -51.5t-64 -20.5t-62.5 20.5t-37.5 51.5q-12 -31 -40 -51.5t-62 -20.5q-47 0 -78 32t-31 77z M788 285q0 35 20.5 62.5t51.5 39.5q-31 10 -51.5 39t-20.5 63q0 45 32 77t77 32t77 -31.5t32 -77.5q0 -35 -20.5 -63.5t-51.5 -38.5q31 -12 51.5 -40t20.5 -62q0 -45 -32 -77t-77 -32t-77 32t-32 77zM788 897q0 35 20.5 63.5t51.5 38.5q-31 12 -51.5 40t-20.5 63 q0 45 32 76.5t77 31.5t77 -31.5t32 -76.5q0 -35 -20.5 -62.5t-51.5 -40.5q31 -10 51.5 -38.5t20.5 -63.5q0 -45 -32 -77t-77 -32t-77 32t-32 77z" />
<glyph unicode="9" d="M-29 897q0 35 20.5 63.5t51.5 38.5q-31 12 -51.5 40t-20.5 63q0 45 32 76.5t77 31.5t76.5 -31.5t31.5 -76.5q0 -35 -20 -63t-51 -40q31 -10 51 -38.5t20 -63.5q0 -45 -31.5 -77t-76.5 -32t-77 32t-32 77zM176 80q0 45 31 76.5t78 31.5q35 0 62.5 -20.5t39.5 -50.5 q10 31 37.5 51t62.5 20q47 0 78 -31.5t31 -76.5t-30.5 -77t-78.5 -32q-35 0 -62.5 20.5t-37.5 51.5q-12 -31 -40 -51.5t-62 -20.5q-47 0 -78 32t-31 77zM176 692q0 47 31 78t78 31q35 0 62.5 -19.5t39.5 -52.5q10 33 38 52.5t62 19.5q35 0 64 -19.5t39 -52.5 q12 33 39.5 52.5t62.5 19.5t63.5 -19.5t39.5 -52.5q16 49 65 66q-31 12 -51.5 39.5t-20.5 62.5t20.5 63.5t51.5 38.5q-31 12 -51.5 40t-20.5 63q0 45 32 76.5t77 31.5t77 -31.5t32 -76.5q0 -35 -20.5 -62.5t-51.5 -40.5q31 -10 51.5 -38.5t20.5 -63.5t-20.5 -62.5 t-51.5 -39.5q31 -10 51.5 -39t20.5 -64t-20.5 -62.5t-51.5 -37.5q31 -12 51.5 -40t20.5 -63q0 -47 -32 -77.5t-77 -30.5t-77 30.5t-32 77.5q0 35 20.5 63t51.5 40q-49 16 -65 63q-10 -31 -39 -51t-64 -20t-62.5 20.5t-39.5 50.5q-10 -31 -39 -51t-64 -20t-62.5 20.5 t-37.5 50.5q-12 -31 -40 -51t-62 -20q-47 0 -78 31.5t-31 76.5zM176 1307q0 45 31 76.5t78 31.5q35 0 62.5 -20.5t39.5 -51.5q10 31 38 51.5t62 20.5q35 0 64 -20.5t39 -51.5q12 31 39.5 51.5t62.5 20.5q45 0 77 -31.5t32 -76.5t-32 -77t-77 -32q-35 0 -62.5 20.5 t-39.5 51.5q-10 -31 -39 -51.5t-64 -20.5t-62.5 20.5t-37.5 51.5q-12 -31 -39.5 -51.5t-62.5 -20.5q-47 0 -78 32t-31 77zM584 285q0 45 31.5 76.5t76.5 31.5t77 -31.5t32 -76.5t-32 -77t-77 -32t-76.5 32t-31.5 77z" />
<glyph unicode=":" d="M381 487q0 45 31.5 77t76.5 32t77 -32t32 -77t-31.5 -76.5t-77.5 -31.5q-45 0 -76.5 31.5t-31.5 76.5zM381 897q0 45 31.5 77t76.5 32t77 -32t32 -77q0 -47 -31.5 -78t-77.5 -31q-45 0 -76.5 31t-31.5 78z" />
<glyph unicode=";" d="M176 285q0 45 32 76.5t77 31.5t76.5 -31.5t31.5 -76.5t-31.5 -77t-76.5 -32t-77 32t-32 77zM381 489q0 45 30.5 77t77.5 32q45 0 77 -31.5t32 -77.5q0 -45 -31.5 -76.5t-77.5 -31.5q-47 0 -77.5 31.5t-30.5 76.5zM381 897q0 47 30.5 78t77.5 31q45 0 77 -31t32 -78 q0 -45 -32 -77t-77 -32q-47 0 -77.5 32t-30.5 77z" />
<glyph unicode="&#x3c;" d="M176 694q0 45 32 77t77 32t76.5 -32t31.5 -77q0 -47 -31.5 -77.5t-76.5 -30.5t-77 30.5t-32 77.5zM381 489q0 45 30.5 77t77.5 32q45 0 77 -32t32 -77t-31.5 -76.5t-77.5 -31.5q-47 0 -77.5 31.5t-30.5 76.5zM381 897q0 47 30.5 78t77.5 31q45 0 77 -31t32 -78 q0 -45 -31.5 -77t-77.5 -32q-47 0 -77.5 32t-30.5 77zM584 285q0 45 31.5 76.5t76.5 31.5q47 0 78 -31.5t31 -76.5t-31 -77t-78 -32q-45 0 -76.5 32t-31.5 77zM584 1102q0 47 31.5 77.5t76.5 30.5q47 0 78 -30.5t31 -77.5q0 -45 -31 -77t-78 -32q-45 0 -76.5 32t-31.5 77z " />
<glyph unicode="=" d="M-29 489q0 45 32 77t77 32q35 0 62.5 -20.5t39.5 -51.5q10 31 39 51.5t64 20.5t62.5 -20.5t39.5 -51.5q10 31 38 51.5t62 20.5q35 0 64 -20.5t39 -51.5q12 31 39.5 51.5t62.5 20.5t63.5 -20.5t39.5 -51.5q10 31 38.5 51.5t63.5 20.5q45 0 77 -31.5t32 -77.5 q0 -45 -32 -76.5t-77 -31.5q-35 0 -63.5 20.5t-38.5 51.5q-10 -31 -39 -51.5t-64 -20.5t-62.5 20.5t-39.5 51.5q-10 -31 -39 -51.5t-64 -20.5t-62.5 20.5t-37.5 51.5q-12 -31 -40 -51.5t-62 -20.5q-35 0 -63.5 20.5t-39.5 51.5q-12 -31 -39.5 -51.5t-62.5 -20.5 q-45 0 -77 31.5t-32 76.5zM-29 899q0 45 32 77t77 32q35 0 62.5 -20.5t39.5 -51.5q10 31 39 51.5t64 20.5t62.5 -20.5t39.5 -51.5q10 31 38 51.5t62 20.5q35 0 64 -20.5t39 -51.5q12 31 39.5 51.5t62.5 20.5t63.5 -20.5t39.5 -51.5q10 31 38.5 51.5t63.5 20.5q45 0 77 -32 t32 -77q0 -47 -32 -77.5t-77 -30.5q-35 0 -63.5 19t-38.5 52q-10 -33 -39 -52t-64 -19t-62.5 19t-39.5 52q-10 -33 -39 -52t-64 -19t-62.5 19t-37.5 52q-12 -33 -40 -52t-62 -19q-35 0 -63.5 19t-39.5 52q-12 -33 -39.5 -52t-62.5 -19q-45 0 -77 30.5t-32 77.5z" />
<glyph unicode="&#x3e;" d="M176 285q0 45 32 76.5t77 31.5t76.5 -31.5t31.5 -76.5t-31.5 -77t-76.5 -32t-77 32t-32 77zM176 1102q0 47 32 77.5t77 30.5t76.5 -30.5t31.5 -77.5q0 -45 -31.5 -77t-76.5 -32t-77 32t-32 77zM381 489q0 45 30.5 77t77.5 32q45 0 77 -32t32 -77t-31.5 -76.5t-77.5 -31.5 q-47 0 -77.5 31.5t-30.5 76.5zM381 897q0 47 30.5 78t77.5 31q45 0 77 -31t32 -78q0 -45 -31.5 -77t-77.5 -32q-47 0 -77.5 32t-30.5 77zM584 694q0 45 31.5 77t76.5 32q47 0 78 -32t31 -77q0 -47 -31 -77.5t-78 -30.5q-45 0 -76.5 30.5t-31.5 77.5z" />
<glyph unicode="?" horiz-adv-x="1179" d="M-29 1307q0 45 32 76.5t77 31.5q35 0 62.5 -20.5t39.5 -51.5q10 31 39 51.5t64 20.5t62.5 -20.5t39.5 -51.5q10 31 38 51.5t62 20.5q47 0 78 -31.5t31 -76.5t-30.5 -77t-78.5 -32q-35 0 -62.5 20.5t-37.5 51.5q-12 -31 -39.5 -51.5t-62.5 -20.5t-63.5 20.5t-39.5 51.5 q-12 -31 -39.5 -51.5t-62.5 -20.5q-45 0 -77 32t-32 77zM176 80q0 45 31 76.5t78 31.5q45 0 76.5 -31.5t31.5 -76.5t-31.5 -77t-76.5 -32q-47 0 -78 32t-31 77zM176 489q0 35 19.5 63t52.5 40q-33 10 -52.5 37.5t-19.5 62.5q0 47 31 78t78 31q35 0 62.5 -19.5t39.5 -52.5 q10 33 37.5 52.5t62.5 19.5q47 0 78 -31t31 -78q0 -45 -30.5 -76.5t-78.5 -31.5q-35 0 -62.5 20.5t-37.5 50.5q-20 -47 -65 -63q31 -12 51 -40t20 -63q0 -47 -31.5 -77.5t-76.5 -30.5q-47 0 -78 30.5t-31 77.5zM584 897q0 35 20.5 63.5t50.5 38.5q-31 12 -51 40t-20 63 q0 45 31.5 76.5t76.5 31.5t77 -31.5t32 -76.5q0 -35 -19.5 -63t-52.5 -40q33 -10 52.5 -38.5t19.5 -63.5q0 -45 -32 -77t-77 -32t-76.5 32t-31.5 77z" />
<glyph unicode="@" d="M-29 285q0 35 20.5 62.5t51.5 39.5q-31 10 -51.5 39t-20.5 63q0 35 20.5 63t51.5 40q-31 10 -51.5 37.5t-20.5 62.5t20.5 63.5t51.5 39.5q-31 12 -51.5 39.5t-20.5 62.5t20.5 63.5t51.5 38.5q-31 12 -51.5 40t-20.5 63q0 45 32 76.5t77 31.5t76.5 -31.5t31.5 -76.5 q0 -35 -20.5 -62.5t-50.5 -40.5q31 -10 51 -38.5t20 -63.5t-20.5 -62.5t-50.5 -39.5q45 -14 65 -66q10 33 39 52.5t64 19.5q45 0 76.5 -31t31.5 -78q0 -35 -20.5 -62.5t-50.5 -37.5q45 -20 65 -66q10 31 38 51.5t62 20.5q35 0 64 -20.5t39 -51.5q20 47 65 66 q-31 10 -51 37.5t-20 62.5t20.5 63.5t50.5 39.5q-47 18 -65 65q-10 -31 -39 -51.5t-64 -20.5q-45 0 -76.5 32t-31.5 77q0 47 31.5 78t76.5 31q35 0 64 -19.5t39 -52.5q12 33 39.5 52.5t62.5 19.5t63.5 -19.5t39.5 -52.5q16 49 65 65q-31 12 -51.5 40t-20.5 63q0 45 32 76.5 t77 31.5t77 -31.5t32 -76.5q0 -35 -20.5 -62.5t-51.5 -40.5q31 -10 51.5 -38.5t20.5 -63.5t-20.5 -62.5t-51.5 -39.5q31 -10 51.5 -39t20.5 -64t-20.5 -62.5t-51.5 -37.5q31 -12 51.5 -40t20.5 -63q0 -47 -32 -77.5t-77 -30.5q-35 0 -63.5 19.5t-38.5 52.5 q-10 -33 -39 -52.5t-64 -19.5t-62.5 19.5t-39.5 52.5q-10 -33 -39 -52.5t-64 -19.5t-62.5 19.5t-37.5 52.5q-12 -33 -40 -52.5t-62 -19.5q-35 0 -63.5 19.5t-39.5 52.5q-20 -51 -65 -66q31 -12 51 -40t20 -62q0 -45 -31.5 -77t-76.5 -32t-77 32t-32 77zM117 592 q45 -18 65 -66q17 46 66 66q-49 16 -66 63q-10 -23 -26.5 -39t-38.5 -24zM176 80q0 45 31 76.5t78 31.5q35 0 62.5 -20.5t39.5 -50.5q10 31 38 51t62 20q35 0 64 -20.5t39 -50.5q12 31 39.5 51t62.5 20t63.5 -20.5t39.5 -50.5q10 31 38.5 51t63.5 20q45 0 77 -31.5t32 -76.5 t-32 -77t-77 -32q-35 0 -63.5 20.5t-38.5 51.5q-10 -31 -39 -51.5t-64 -20.5t-62.5 20.5t-39.5 51.5q-10 -31 -39 -51.5t-64 -20.5t-62.5 20.5t-37.5 51.5q-12 -31 -40 -51.5t-62 -20.5q-47 0 -78 32t-31 77zM176 1307q0 45 31 76.5t78 31.5q35 0 62.5 -20.5t39.5 -51.5 q10 31 38 51.5t62 20.5q35 0 64 -20.5t39 -51.5q12 31 39.5 51.5t62.5 20.5q45 0 77 -31.5t32 -76.5t-32 -77t-77 -32q-35 0 -62.5 20.5t-39.5 51.5q-10 -31 -39 -51.5t-64 -20.5t-62.5 20.5t-37.5 51.5q-12 -31 -39.5 -51.5t-62.5 -20.5q-47 0 -78 32t-31 77zM729 592 q49 -20 66 -66q16 46 65 66q-49 16 -65 63q-16 -47 -66 -63zM729 795q49 -16 66 -66q16 49 65 66q-51 20 -65 65q-15 -45 -66 -65z" />
<glyph unicode="A" d="M-29 80q0 35 20.5 63.5t51.5 38.5q-31 10 -51.5 39t-20.5 64t20.5 62.5t51.5 39.5q-31 10 -51.5 39t-20.5 63q0 35 20.5 63t51.5 40q-31 10 -51.5 37.5t-20.5 62.5t20.5 63.5t51.5 39.5q-31 12 -51.5 39.5t-20.5 62.5t20.5 63.5t51.5 38.5q-31 12 -51.5 40t-20.5 63 q0 45 32 76.5t77 31.5t76.5 -31.5t31.5 -76.5q0 -35 -20.5 -62.5t-50.5 -40.5q31 -10 51 -38.5t20 -63.5t-20.5 -62.5t-50.5 -39.5q45 -14 65 -66q10 33 39 52.5t64 19.5t62.5 -19.5t39.5 -52.5q10 33 38 52.5t62 19.5q35 0 64 -19.5t39 -52.5q12 33 39.5 52.5t62.5 19.5 t63.5 -19.5t39.5 -52.5q16 49 65 66q-31 12 -51.5 39.5t-20.5 62.5t20.5 63.5t51.5 38.5q-31 12 -51.5 40t-20.5 63q0 45 32 76.5t77 31.5t77 -31.5t32 -76.5q0 -35 -20.5 -62.5t-51.5 -40.5q31 -10 51.5 -38.5t20.5 -63.5t-20.5 -62.5t-51.5 -39.5q31 -10 51.5 -39 t20.5 -64t-20.5 -62.5t-51.5 -37.5q31 -12 51.5 -40t20.5 -63t-20.5 -63.5t-51.5 -38.5q31 -12 51.5 -40t20.5 -62q0 -35 -20.5 -63.5t-51.5 -39.5q31 -10 51.5 -38.5t20.5 -63.5q0 -45 -32 -77t-77 -32t-77 32t-32 77q0 35 20.5 63.5t51.5 38.5q-31 10 -51.5 39t-20.5 64 t20.5 62.5t51.5 39.5q-31 10 -51.5 39t-20.5 63q0 35 20.5 63t51.5 40q-49 16 -65 63q-10 -31 -39 -51t-64 -20t-62.5 20.5t-39.5 50.5q-10 -31 -39 -51t-64 -20t-62.5 20.5t-37.5 50.5q-12 -31 -40 -51t-62 -20q-35 0 -63.5 20.5t-39.5 50.5q-10 -23 -26.5 -39t-38.5 -24 q31 -12 51 -40t20 -63t-20.5 -63.5t-50.5 -38.5q31 -12 51 -40t20 -62q0 -35 -20.5 -63.5t-50.5 -39.5q31 -10 51 -38.5t20 -63.5q0 -45 -31.5 -77t-76.5 -32t-77 32t-32 77zM176 1307q0 45 31 76.5t78 31.5q35 0 62.5 -20.5t39.5 -51.5q10 31 38 51.5t62 20.5 q35 0 64 -20.5t39 -51.5q12 31 39.5 51.5t62.5 20.5q45 0 77 -31.5t32 -76.5t-32 -77t-77 -32q-35 0 -62.5 20.5t-39.5 51.5q-10 -31 -39 -51.5t-64 -20.5t-62.5 20.5t-37.5 51.5q-12 -31 -40 -51.5t-62 -20.5q-47 0 -78 32t-31 77z" />
<glyph unicode="B" d="M-29 80q0 35 20.5 63.5t51.5 38.5q-31 10 -51.5 39t-20.5 64t20.5 62.5t51.5 39.5q-31 10 -51.5 39t-20.5 63q0 35 20.5 63t51.5 40q-31 10 -51.5 37.5t-20.5 62.5t20.5 63.5t51.5 39.5q-31 12 -51.5 39.5t-20.5 62.5t20.5 63.5t51.5 38.5q-31 12 -51.5 40t-20.5 63 t20.5 63.5t51.5 38.5q-31 10 -51.5 39t-20.5 64q0 45 32 76.5t77 31.5q35 0 62.5 -20.5t39.5 -51.5q10 31 39 51.5t64 20.5t62.5 -20.5t39.5 -51.5q10 31 38 51.5t62 20.5q35 0 64 -20.5t39 -51.5q12 31 39.5 51.5t62.5 20.5q45 0 77 -31.5t32 -76.5t-32 -77t-77 -32 q-35 0 -62.5 20.5t-39.5 51.5q-10 -31 -39 -51.5t-64 -20.5t-62.5 20.5t-37.5 51.5q-12 -31 -40 -51.5t-62 -20.5q-35 0 -63.5 20.5t-39.5 51.5q-20 -51 -65 -66q31 -10 51 -38.5t20 -63.5t-20.5 -62.5t-50.5 -40.5q31 -10 51 -38.5t20 -63.5t-20.5 -62.5t-50.5 -39.5 q45 -14 65 -66q10 33 39 52.5t64 19.5t62.5 -19.5t39.5 -52.5q10 33 38 52.5t62 19.5q35 0 64 -19.5t39 -52.5q12 33 39.5 52.5t62.5 19.5q45 0 77 -31t32 -78q0 -45 -32 -76.5t-77 -31.5q-35 0 -62.5 20.5t-39.5 50.5q-10 -31 -39 -51t-64 -20t-62.5 20.5t-37.5 50.5 q-12 -31 -40 -51t-62 -20q-35 0 -63.5 20.5t-39.5 50.5q-10 -23 -26.5 -39t-38.5 -24q31 -12 51 -40t20 -63t-20.5 -63.5t-50.5 -38.5q31 -12 51 -40t20 -62q0 -35 -20.5 -63.5t-50.5 -39.5q45 -14 65 -65q10 31 39 51t64 20t62.5 -20.5t39.5 -50.5q10 31 38 51t62 20 q35 0 64 -20.5t39 -50.5q12 31 39.5 51t62.5 20q45 0 77 -31.5t32 -76.5t-32 -77t-77 -32q-35 0 -62.5 20.5t-39.5 51.5q-10 -31 -39 -51.5t-64 -20.5t-62.5 20.5t-37.5 51.5q-12 -31 -40 -51.5t-62 -20.5q-35 0 -63.5 20.5t-39.5 51.5q-12 -31 -39.5 -51.5t-62.5 -20.5 q-45 0 -77 32t-32 77zM788 285q0 35 20.5 62.5t51.5 39.5q-31 10 -51.5 39t-20.5 63q0 45 32 77t77 32t77 -31.5t32 -77.5q0 -35 -20.5 -63.5t-51.5 -38.5q31 -12 51.5 -40t20.5 -62q0 -45 -32 -77t-77 -32t-77 32t-32 77zM788 897q0 35 20.5 63.5t51.5 38.5 q-31 12 -51.5 40t-20.5 63q0 45 32 76.5t77 31.5t77 -31.5t32 -76.5q0 -35 -20.5 -62.5t-51.5 -40.5q31 -10 51.5 -38.5t20.5 -63.5q0 -45 -32 -77t-77 -32t-77 32t-32 77z" />
<glyph unicode="C" d="M-29 285q0 35 20.5 62.5t51.5 39.5q-31 10 -51.5 39t-20.5 63q0 35 20.5 63t51.5 40q-31 10 -51.5 37.5t-20.5 62.5t20.5 63.5t51.5 39.5q-31 12 -51.5 39.5t-20.5 62.5t20.5 63.5t51.5 38.5q-31 12 -51.5 40t-20.5 63q0 45 32 76.5t77 31.5t76.5 -31.5t31.5 -76.5 q0 -35 -20 -63t-51 -40q31 -10 51 -38.5t20 -63.5t-20.5 -62.5t-50.5 -39.5q31 -10 51 -39t20 -64t-20.5 -62.5t-50.5 -37.5q31 -12 51 -40t20 -63t-20.5 -63.5t-50.5 -38.5q31 -12 51 -40t20 -62q0 -45 -31.5 -77t-76.5 -32t-77 32t-32 77zM176 80q0 45 31 76.5t78 31.5 q35 0 62.5 -20.5t39.5 -50.5q10 31 38 51t62 20q35 0 64 -20.5t39 -50.5q12 31 39.5 51t62.5 20t63.5 -20.5t39.5 -50.5q10 31 38.5 51t63.5 20q45 0 77 -31.5t32 -76.5t-32 -77t-77 -32q-35 0 -63.5 20.5t-38.5 51.5q-10 -31 -39 -51.5t-64 -20.5t-62.5 20.5t-39.5 51.5 q-10 -31 -39 -51.5t-64 -20.5t-62.5 20.5t-37.5 51.5q-12 -31 -40 -51.5t-62 -20.5q-47 0 -78 32t-31 77zM176 1307q0 45 31 76.5t78 31.5q35 0 62.5 -20.5t39.5 -51.5q10 31 38 51.5t62 20.5q35 0 64 -20.5t39 -51.5q12 31 39.5 51.5t62.5 20.5t63.5 -20.5t39.5 -51.5 q10 31 38.5 51.5t63.5 20.5q45 0 77 -31.5t32 -76.5t-32 -77t-77 -32q-35 0 -63.5 20.5t-38.5 51.5q-10 -31 -39 -51.5t-64 -20.5t-62.5 20.5t-39.5 51.5q-10 -31 -39 -51.5t-64 -20.5t-62.5 20.5t-37.5 51.5q-12 -31 -40 -51.5t-62 -20.5q-47 0 -78 32t-31 77z" />
<glyph unicode="D" d="M-29 80q0 35 20.5 63.5t51.5 38.5q-31 10 -51.5 39t-20.5 64t20.5 62.5t51.5 39.5q-31 10 -51.5 39t-20.5 63q0 35 20.5 63t51.5 40q-31 10 -51.5 37.5t-20.5 62.5t20.5 63.5t51.5 39.5q-31 12 -51.5 39.5t-20.5 62.5t20.5 63.5t51.5 38.5q-31 12 -51.5 40t-20.5 63 t20.5 63.5t51.5 38.5q-31 10 -51.5 39t-20.5 64q0 45 32 76.5t77 31.5q35 0 62.5 -20.5t39.5 -51.5q10 31 39 51.5t64 20.5t62.5 -20.5t39.5 -51.5q10 31 38 51.5t62 20.5q35 0 64 -20.5t39 -51.5q12 31 39.5 51.5t62.5 20.5q45 0 77 -31.5t32 -76.5t-32 -77t-77 -32 q-35 0 -62.5 20.5t-39.5 51.5q-10 -31 -39 -51.5t-64 -20.5t-62.5 20.5t-37.5 51.5q-12 -31 -40 -51.5t-62 -20.5q-35 0 -63.5 20.5t-39.5 51.5q-20 -51 -65 -66q31 -10 51 -38.5t20 -63.5t-20.5 -62.5t-50.5 -40.5q31 -10 51 -38.5t20 -63.5t-20.5 -62.5t-50.5 -39.5 q31 -10 51 -39t20 -64t-20.5 -62.5t-50.5 -37.5q31 -12 51 -40t20 -63t-20.5 -63.5t-50.5 -38.5q31 -12 51 -40t20 -62q0 -35 -20.5 -63.5t-50.5 -39.5q45 -14 65 -65q10 31 39 51t64 20t62.5 -20.5t39.5 -50.5q10 31 38 51t62 20q35 0 64 -20.5t39 -50.5q12 31 39.5 51 t62.5 20q45 0 77 -31.5t32 -76.5t-32 -77t-77 -32q-35 0 -62.5 20.5t-39.5 51.5q-10 -31 -39 -51.5t-64 -20.5t-62.5 20.5t-37.5 51.5q-12 -31 -40 -51.5t-62 -20.5q-35 0 -63.5 20.5t-39.5 51.5q-12 -31 -39.5 -51.5t-62.5 -20.5q-45 0 -77 32t-32 77zM788 285 q0 35 20.5 62.5t51.5 39.5q-31 10 -51.5 39t-20.5 63q0 35 20.5 63t51.5 40q-31 10 -51.5 37.5t-20.5 62.5t20.5 63.5t51.5 39.5q-31 12 -51.5 39.5t-20.5 62.5t20.5 63.5t51.5 38.5q-31 12 -51.5 40t-20.5 63q0 45 32 76.5t77 31.5t77 -31.5t32 -76.5q0 -35 -20.5 -62.5 t-51.5 -40.5q31 -10 51.5 -38.5t20.5 -63.5t-20.5 -62.5t-51.5 -39.5q31 -10 51.5 -39t20.5 -64t-20.5 -62.5t-51.5 -37.5q31 -12 51.5 -40t20.5 -63t-20.5 -63.5t-51.5 -38.5q31 -12 51.5 -40t20.5 -62q0 -45 -32 -77t-77 -32t-77 32t-32 77z" />
<glyph unicode="E" d="M-29 80q0 35 20.5 63.5t51.5 38.5q-31 10 -51.5 39t-20.5 64t20.5 62.5t51.5 39.5q-31 10 -51.5 39t-20.5 63q0 35 20.5 63t51.5 40q-31 10 -51.5 37.5t-20.5 62.5t20.5 63.5t51.5 39.5q-31 12 -51.5 39.5t-20.5 62.5t20.5 63.5t51.5 38.5q-31 12 -51.5 40t-20.5 63 t20.5 63.5t51.5 38.5q-31 10 -51.5 39t-20.5 64q0 45 32 76.5t77 31.5q35 0 62.5 -20.5t39.5 -51.5q10 31 39 51.5t64 20.5t62.5 -20.5t39.5 -51.5q10 31 38 51.5t62 20.5q35 0 64 -20.5t39 -51.5q12 31 39.5 51.5t62.5 20.5t63.5 -20.5t39.5 -51.5q10 31 38.5 51.5 t63.5 20.5q45 0 77 -31.5t32 -76.5t-32 -77t-77 -32q-35 0 -63.5 20.5t-38.5 51.5q-10 -31 -39 -51.5t-64 -20.5t-62.5 20.5t-39.5 51.5q-10 -31 -39 -51.5t-64 -20.5t-62.5 20.5t-37.5 51.5q-12 -31 -40 -51.5t-62 -20.5q-35 0 -63.5 20.5t-39.5 51.5q-20 -51 -65 -66 q31 -10 51 -38.5t20 -63.5t-20.5 -62.5t-50.5 -40.5q31 -10 51 -38.5t20 -63.5t-20.5 -62.5t-50.5 -39.5q45 -14 65 -66q10 33 39 52.5t64 19.5t62.5 -19.5t39.5 -52.5q10 33 38 52.5t62 19.5q35 0 64 -19.5t39 -52.5q12 33 39.5 52.5t62.5 19.5q45 0 77 -31t32 -78 q0 -45 -32 -76.5t-77 -31.5q-35 0 -62.5 20.5t-39.5 50.5q-10 -31 -39 -51t-64 -20t-62.5 20.5t-37.5 50.5q-12 -31 -40 -51t-62 -20q-35 0 -63.5 20.5t-39.5 50.5q-10 -23 -26.5 -39t-38.5 -24q31 -12 51 -40t20 -63t-20.5 -63.5t-50.5 -38.5q31 -12 51 -40t20 -62 q0 -35 -20.5 -63.5t-50.5 -39.5q45 -14 65 -65q10 31 39 51t64 20t62.5 -20.5t39.5 -50.5q10 31 38 51t62 20q35 0 64 -20.5t39 -50.5q12 31 39.5 51t62.5 20t63.5 -20.5t39.5 -50.5q10 31 38.5 51t63.5 20q45 0 77 -31.5t32 -76.5t-32 -77t-77 -32q-35 0 -63.5 20.5 t-38.5 51.5q-10 -31 -39 -51.5t-64 -20.5t-62.5 20.5t-39.5 51.5q-10 -31 -39 -51.5t-64 -20.5t-62.5 20.5t-37.5 51.5q-12 -31 -40 -51.5t-62 -20.5q-35 0 -63.5 20.5t-39.5 51.5q-12 -31 -39.5 -51.5t-62.5 -20.5q-45 0 -77 32t-32 77z" />
<glyph unicode="F" d="M-29 80q0 35 20.5 63.5t51.5 38.5q-31 10 -51.5 39t-20.5 64t20.5 62.5t51.5 39.5q-31 10 -51.5 39t-20.5 63q0 35 20.5 63t51.5 40q-31 10 -51.5 37.5t-20.5 62.5t20.5 63.5t51.5 39.5q-31 12 -51.5 39.5t-20.5 62.5t20.5 63.5t51.5 38.5q-31 12 -51.5 40t-20.5 63 t20.5 63.5t51.5 38.5q-31 10 -51.5 39t-20.5 64q0 45 32 76.5t77 31.5q35 0 62.5 -20.5t39.5 -51.5q10 31 39 51.5t64 20.5t62.5 -20.5t39.5 -51.5q10 31 38 51.5t62 20.5q35 0 64 -20.5t39 -51.5q12 31 39.5 51.5t62.5 20.5t63.5 -20.5t39.5 -51.5q10 31 38.5 51.5 t63.5 20.5q45 0 77 -31.5t32 -76.5t-32 -77t-77 -32q-35 0 -63.5 20.5t-38.5 51.5q-10 -31 -39 -51.5t-64 -20.5t-62.5 20.5t-39.5 51.5q-10 -31 -39 -51.5t-64 -20.5t-62.5 20.5t-37.5 51.5q-12 -31 -40 -51.5t-62 -20.5q-35 0 -63.5 20.5t-39.5 51.5q-20 -51 -65 -66 q31 -10 51 -38.5t20 -63.5t-20.5 -62.5t-50.5 -40.5q31 -10 51 -38.5t20 -63.5t-20.5 -62.5t-50.5 -39.5q45 -14 65 -66q10 33 39 52.5t64 19.5t62.5 -19.5t39.5 -52.5q10 33 38 52.5t62 19.5q35 0 64 -19.5t39 -52.5q12 33 39.5 52.5t62.5 19.5q45 0 77 -31t32 -78 q0 -45 -32 -76.5t-77 -31.5q-35 0 -62.5 20.5t-39.5 50.5q-10 -31 -39 -51t-64 -20t-62.5 20.5t-37.5 50.5q-12 -31 -40 -51t-62 -20q-35 0 -63.5 20.5t-39.5 50.5q-10 -23 -26.5 -39t-38.5 -24q31 -12 51 -40t20 -63t-20.5 -63.5t-50.5 -38.5q31 -12 51 -40t20 -62 q0 -35 -20.5 -63.5t-50.5 -39.5q31 -10 51 -38.5t20 -63.5q0 -45 -31.5 -77t-76.5 -32t-77 32t-32 77z" />
<glyph unicode="G" d="M-29 285q0 35 20.5 62.5t51.5 39.5q-31 10 -51.5 39t-20.5 63q0 35 20.5 63t51.5 40q-31 10 -51.5 37.5t-20.5 62.5t20.5 63.5t51.5 39.5q-31 12 -51.5 39.5t-20.5 62.5t20.5 63.5t51.5 38.5q-31 12 -51.5 40t-20.5 63q0 45 32 76.5t77 31.5t76.5 -31.5t31.5 -76.5 q0 -35 -20.5 -62.5t-50.5 -40.5q31 -10 51 -38.5t20 -63.5t-20.5 -62.5t-50.5 -39.5q31 -10 51 -39t20 -64t-20.5 -62.5t-50.5 -37.5q31 -12 51 -40t20 -63t-20 -63.5t-51 -38.5q31 -12 51 -40t20 -62q0 -45 -31.5 -77t-76.5 -32t-77 32t-32 77zM176 80q0 45 31 76.5 t78 31.5q35 0 62.5 -20.5t39.5 -50.5q10 31 38 51t62 20q35 0 64 -20.5t39 -50.5q12 31 39.5 51t62.5 20t63.5 -20.5t39.5 -50.5q16 49 65 65q-31 10 -51.5 39t-20.5 64t20.5 62.5t51.5 39.5q-49 16 -65 66q-10 -33 -39 -52.5t-64 -19.5q-45 0 -76.5 30.5t-31.5 77.5 q0 45 31.5 77t76.5 32q35 0 63.5 -20.5t39.5 -51.5q10 31 38.5 51.5t63.5 20.5q45 0 77 -32t32 -77q0 -35 -20.5 -63.5t-51.5 -38.5q31 -12 51.5 -40t20.5 -62q0 -35 -20.5 -63.5t-51.5 -39.5q31 -10 51.5 -38.5t20.5 -63.5q0 -45 -32 -77t-77 -32q-35 0 -63.5 20.5 t-38.5 51.5q-10 -31 -39 -51.5t-64 -20.5t-62.5 20.5t-39.5 51.5q-10 -31 -39 -51.5t-64 -20.5t-62.5 20.5t-37.5 51.5q-12 -31 -40 -51.5t-62 -20.5q-47 0 -78 32t-31 77zM176 1307q0 45 31 76.5t78 31.5q35 0 62.5 -20.5t39.5 -51.5q10 31 38 51.5t62 20.5q35 0 64 -20.5 t39 -51.5q12 31 39.5 51.5t62.5 20.5q45 0 77 -31.5t32 -76.5t-32 -77t-77 -32q-35 0 -62.5 20.5t-39.5 51.5q-10 -31 -39 -51.5t-64 -20.5t-62.5 20.5t-37.5 51.5q-12 -31 -39.5 -51.5t-62.5 -20.5q-47 0 -78 32t-31 77zM788 1102q0 45 32 76.5t77 31.5t77 -31.5t32 -76.5 t-32 -77t-77 -32t-77 32t-32 77z" />
<glyph unicode="H" d="M-29 80q0 35 20.5 63.5t51.5 38.5q-31 10 -51.5 39t-20.5 64t20.5 62.5t51.5 39.5q-31 10 -51.5 39t-20.5 63q0 35 20.5 63t51.5 40q-31 10 -51.5 37.5t-20.5 62.5t20.5 63.5t51.5 39.5q-31 12 -51.5 39.5t-20.5 62.5t20.5 63.5t51.5 38.5q-31 12 -51.5 40t-20.5 63 t20.5 63.5t51.5 38.5q-31 10 -51.5 39t-20.5 64q0 45 32 76.5t77 31.5t76.5 -31.5t31.5 -76.5q0 -35 -20.5 -64t-50.5 -39q31 -10 51 -38.5t20 -63.5t-20.5 -62.5t-50.5 -40.5q31 -10 51 -38.5t20 -63.5t-20.5 -62.5t-50.5 -39.5q45 -14 65 -66q10 33 39 52.5t64 19.5 t62.5 -19.5t39.5 -52.5q10 33 38 52.5t62 19.5q35 0 64 -19.5t39 -52.5q12 33 39.5 52.5t62.5 19.5t63.5 -19.5t39.5 -52.5q16 49 65 66q-31 12 -51.5 39.5t-20.5 62.5t20.5 63.5t51.5 38.5q-31 12 -51.5 40t-20.5 63t20.5 63.5t51.5 38.5q-31 10 -51.5 39t-20.5 64 q0 45 32 76.5t77 31.5t77 -31.5t32 -76.5q0 -35 -20.5 -64t-51.5 -39q31 -10 51.5 -38.5t20.5 -63.5t-20.5 -62.5t-51.5 -40.5q31 -10 51.5 -38.5t20.5 -63.5t-20.5 -62.5t-51.5 -39.5q31 -10 51.5 -39t20.5 -64t-20.5 -62.5t-51.5 -37.5q31 -12 51.5 -40t20.5 -63 t-20.5 -63.5t-51.5 -38.5q31 -12 51.5 -39.5t20.5 -62.5t-20.5 -63.5t-51.5 -39.5q31 -10 51.5 -38.5t20.5 -63.5q0 -45 -32 -77t-77 -32t-77 32t-32 77q0 35 20.5 63.5t51.5 38.5q-31 10 -51.5 39t-20.5 64t20.5 62.5t51.5 39.5q-31 10 -51.5 39t-20.5 63q0 35 20.5 63 t51.5 40q-49 16 -65 63q-10 -31 -39 -51t-64 -20t-62.5 20.5t-39.5 50.5q-10 -31 -39 -51t-64 -20t-62.5 20.5t-37.5 50.5q-12 -31 -40 -51t-62 -20q-35 0 -63.5 20.5t-39.5 50.5q-10 -23 -26.5 -39t-38.5 -24q31 -12 51 -40t20 -63t-20.5 -63.5t-50.5 -38.5q31 -12 51 -40 t20 -62q0 -35 -20.5 -63.5t-50.5 -39.5q31 -10 51 -38.5t20 -63.5q0 -45 -31.5 -77t-76.5 -32t-77 32t-32 77z" />
<glyph unicode="I" d="M176 80q0 45 32 76.5t77 31.5q35 0 62.5 -20.5t39.5 -50.5q16 49 66 65q-33 10 -52.5 39t-19.5 64t19.5 62.5t52.5 39.5q-33 10 -52.5 39t-19.5 63q0 35 19.5 63t52.5 40q-33 10 -52.5 37.5t-19.5 62.5t19.5 63.5t52.5 39.5q-33 12 -52.5 39.5t-19.5 62.5t19.5 63.5 t52.5 38.5q-33 12 -52.5 40t-19.5 63t19.5 63.5t52.5 38.5q-49 16 -66 66q-12 -31 -40 -51.5t-62 -20.5q-45 0 -77 32t-32 77t32 76.5t77 31.5q35 0 62.5 -20.5t39.5 -51.5q10 31 39 51.5t63 20.5q35 0 63 -20.5t40 -51.5q10 31 37.5 51.5t62.5 20.5q47 0 78 -31.5t31 -76.5 t-31 -77t-78 -32q-35 0 -62.5 20.5t-37.5 51.5q-20 -49 -66 -66q31 -10 51.5 -38.5t20.5 -63.5t-20.5 -62.5t-51.5 -40.5q31 -10 51.5 -38.5t20.5 -63.5t-20.5 -62.5t-51.5 -39.5q31 -10 51.5 -39t20.5 -64t-20.5 -62.5t-51.5 -37.5q31 -12 51.5 -40t20.5 -63t-20.5 -63.5 t-51.5 -38.5q31 -12 51.5 -40t20.5 -62q0 -35 -20.5 -63.5t-51.5 -39.5q45 -16 66 -65q10 31 37.5 51t62.5 20q47 0 78 -31.5t31 -76.5t-31 -77t-78 -32q-35 0 -62.5 20.5t-37.5 51.5q-12 -31 -40 -51.5t-63 -20.5t-63.5 20.5t-38.5 51.5q-12 -31 -40 -51.5t-62 -20.5 q-45 0 -77 32t-32 77z" />
<glyph unicode="J" d="M-29 285q0 45 32 76.5t77 31.5t76.5 -31.5t31.5 -76.5t-31.5 -77t-76.5 -32t-77 32t-32 77zM176 80q0 45 31 76.5t78 31.5q35 0 62.5 -20.5t39.5 -50.5q10 31 38 51t62 20q35 0 64 -20.5t39 -50.5q12 31 39.5 51t62.5 20q45 0 77 -31.5t32 -76.5t-32 -77t-77 -32 q-35 0 -62.5 20.5t-39.5 51.5q-10 -31 -39 -51.5t-64 -20.5t-62.5 20.5t-37.5 51.5q-12 -31 -40 -51.5t-62 -20.5q-47 0 -78 32t-31 77zM788 285q0 35 20.5 62.5t51.5 39.5q-31 10 -51.5 39t-20.5 63q0 35 20.5 63t51.5 40q-31 10 -51.5 37.5t-20.5 62.5t20.5 63.5 t51.5 39.5q-31 12 -51.5 39.5t-20.5 62.5t20.5 63.5t51.5 38.5q-31 12 -51.5 40t-20.5 63t20.5 63.5t51.5 38.5q-31 10 -51.5 39t-20.5 64q0 45 32 76.5t77 31.5t77 -31.5t32 -76.5q0 -35 -20.5 -64t-51.5 -39q31 -10 51.5 -38.5t20.5 -63.5t-20.5 -62.5t-51.5 -40.5 q31 -10 51.5 -38.5t20.5 -63.5t-20.5 -62.5t-51.5 -39.5q31 -10 51.5 -39t20.5 -64t-20.5 -62.5t-51.5 -37.5q31 -12 51.5 -40t20.5 -63t-20.5 -63.5t-51.5 -38.5q31 -12 51.5 -40t20.5 -62q0 -45 -32 -77t-77 -32t-77 32t-32 77z" />
<glyph unicode="K" d="M-29 80q0 35 20.5 63.5t51.5 38.5q-31 10 -51.5 39t-20.5 64t20.5 62.5t51.5 39.5q-31 10 -51.5 39t-20.5 63q0 35 20.5 63t51.5 40q-31 10 -51.5 37.5t-20.5 62.5t20.5 63.5t51.5 39.5q-31 12 -51.5 39.5t-20.5 62.5t20.5 63.5t51.5 38.5q-31 12 -51.5 40t-20.5 63 t20.5 63.5t51.5 38.5q-31 10 -51.5 39t-20.5 64q0 45 32 76.5t77 31.5t76.5 -31.5t31.5 -76.5q0 -35 -20.5 -64t-50.5 -39q31 -10 51 -38.5t20 -63.5t-20.5 -62.5t-50.5 -40.5q31 -10 51 -38.5t20 -63.5t-20.5 -62.5t-50.5 -39.5q45 -14 65 -66q10 33 39 52.5t64 19.5 q45 0 76.5 -31t31.5 -78q0 -45 -31.5 -76.5t-76.5 -31.5q-35 0 -63.5 20.5t-39.5 50.5q-10 -23 -26.5 -39t-38.5 -24q31 -12 51 -40t20 -63t-20.5 -63.5t-50.5 -38.5q31 -12 51 -40t20 -62q0 -35 -20.5 -63.5t-50.5 -39.5q31 -10 51 -38.5t20 -63.5q0 -45 -31.5 -77 t-76.5 -32t-77 32t-32 77zM379 489q0 45 31.5 77t76.5 32q47 0 78 -31.5t31 -77.5q0 -47 -30.5 -77.5t-78.5 -30.5q-45 0 -76.5 30.5t-31.5 77.5zM379 897q0 47 31.5 78t76.5 31q47 0 78 -31t31 -78q0 -45 -31 -77t-78 -32q-45 0 -76.5 32t-31.5 77zM584 285q0 45 31.5 76.5 t76.5 31.5t77 -31.5t32 -76.5t-32 -77t-77 -32t-76.5 32t-31.5 77zM584 1102q0 45 31.5 76.5t76.5 31.5t77 -31.5t32 -76.5t-32 -77t-77 -32t-76.5 32t-31.5 77zM788 80q0 45 32 76.5t77 31.5t77 -31.5t32 -76.5t-32 -77t-77 -32t-77 32t-32 77zM788 1307q0 45 32 76.5 t77 31.5t77 -31.5t32 -76.5t-32 -77t-77 -32t-77 32t-32 77z" />
<glyph unicode="L" d="M-29 80q0 35 20.5 63.5t51.5 38.5q-31 10 -51.5 39t-20.5 64t20.5 62.5t51.5 39.5q-31 10 -51.5 39t-20.5 63q0 35 20.5 63t51.5 40q-31 10 -51.5 37.5t-20.5 62.5t20.5 63.5t51.5 39.5q-31 12 -51.5 39.5t-20.5 62.5t20.5 63.5t51.5 38.5q-31 12 -51.5 40t-20.5 63 t20.5 63.5t51.5 38.5q-31 10 -51.5 39t-20.5 64q0 45 32 76.5t77 31.5t76.5 -31.5t31.5 -76.5q0 -35 -20.5 -64t-50.5 -39q31 -10 51 -38.5t20 -63.5t-20.5 -62.5t-50.5 -40.5q31 -10 51 -38.5t20 -63.5t-20.5 -62.5t-50.5 -39.5q31 -10 51 -39t20 -64t-20.5 -62.5 t-50.5 -37.5q31 -12 51 -40t20 -63t-20.5 -63.5t-50.5 -38.5q31 -12 51 -40t20 -62q0 -35 -20.5 -63.5t-50.5 -39.5q45 -14 65 -65q10 31 39 51t64 20t62.5 -20.5t39.5 -50.5q10 31 38 51t62 20q35 0 64 -20.5t39 -50.5q12 31 39.5 51t62.5 20t63.5 -20.5t39.5 -50.5 q10 31 38.5 51t63.5 20q45 0 77 -31.5t32 -76.5t-32 -77t-77 -32q-35 0 -63.5 20.5t-38.5 51.5q-10 -31 -39 -51.5t-64 -20.5t-62.5 20.5t-39.5 51.5q-10 -31 -39 -51.5t-64 -20.5t-62.5 20.5t-37.5 51.5q-12 -31 -40 -51.5t-62 -20.5q-35 0 -63.5 20.5t-39.5 51.5 q-12 -31 -39.5 -51.5t-62.5 -20.5q-45 0 -77 32t-32 77z" />
<glyph unicode="M" d="M-29 80q0 35 20.5 63.5t51.5 38.5q-31 10 -51.5 39t-20.5 64t20.5 62.5t51.5 39.5q-31 10 -51.5 39t-20.5 63q0 35 20.5 63t51.5 40q-31 10 -51.5 37.5t-20.5 62.5t20.5 63.5t51.5 39.5q-31 12 -51.5 39.5t-20.5 62.5t20.5 63.5t51.5 38.5q-31 12 -51.5 40t-20.5 63 t20.5 63.5t51.5 38.5q-31 10 -51.5 39t-20.5 64q0 45 32 76.5t77 31.5t76.5 -31.5t31.5 -76.5q0 -35 -20.5 -64t-50.5 -39q45 -14 65 -65q10 33 39 52t64 19q45 0 76.5 -31.5t31.5 -76.5t-31.5 -77t-76.5 -32q-35 0 -63.5 20.5t-39.5 51.5q-18 -47 -65 -66q31 -10 51 -38.5 t20 -63.5t-20.5 -62.5t-50.5 -39.5q31 -10 51 -39t20 -64t-20.5 -62.5t-50.5 -37.5q31 -12 51 -40t20 -63t-20.5 -63.5t-50.5 -38.5q31 -12 51 -40t20 -62q0 -35 -20.5 -63.5t-50.5 -39.5q31 -10 51 -38.5t20 -63.5q0 -45 -31.5 -77t-76.5 -32t-77 32t-32 77zM379 692 q0 35 20.5 63.5t53.5 39.5q-33 12 -53.5 39.5t-20.5 62.5q0 47 31.5 78t76.5 31q47 0 78 -31t31 -78q0 -35 -19.5 -62.5t-52.5 -39.5q33 -10 52.5 -39t19.5 -64q0 -45 -30.5 -76.5t-78.5 -31.5q-45 0 -76.5 31.5t-31.5 76.5zM584 1102q0 45 31.5 76.5t76.5 31.5 q35 0 63.5 -19.5t39.5 -51.5q16 49 65 65q-31 10 -51.5 39t-20.5 64q0 45 32 76.5t77 31.5t77 -31.5t32 -76.5q0 -35 -20.5 -64t-51.5 -39q31 -10 51.5 -38.5t20.5 -63.5t-20.5 -62.5t-51.5 -40.5q31 -10 51.5 -38.5t20.5 -63.5t-20.5 -62.5t-51.5 -39.5q31 -10 51.5 -39 t20.5 -64t-20.5 -62.5t-51.5 -37.5q31 -12 51.5 -40t20.5 -63t-20.5 -63.5t-51.5 -38.5q31 -12 51.5 -40t20.5 -62q0 -35 -20.5 -63.5t-51.5 -39.5q31 -10 51.5 -38.5t20.5 -63.5q0 -45 -32 -77t-77 -32t-77 32t-32 77q0 35 20.5 63.5t51.5 38.5q-31 10 -51.5 39t-20.5 64 t20.5 62.5t51.5 39.5q-31 10 -51.5 39t-20.5 63q0 35 20.5 63t51.5 40q-31 10 -51.5 37.5t-20.5 62.5t20.5 63.5t51.5 39.5q-31 12 -51.5 39.5t-20.5 62.5t20.5 63.5t51.5 38.5q-51 20 -65 66q-10 -31 -39 -51.5t-64 -20.5q-45 0 -76.5 32t-31.5 77z" />
<glyph unicode="N" d="M-29 80q0 35 20.5 63.5t51.5 38.5q-31 10 -51.5 39t-20.5 64t20.5 62.5t51.5 39.5q-31 10 -51.5 39t-20.5 63q0 35 20.5 63t51.5 40q-31 10 -51.5 37.5t-20.5 62.5t20.5 63.5t51.5 39.5q-31 12 -51.5 39.5t-20.5 62.5t20.5 63.5t51.5 38.5q-31 12 -51.5 40t-20.5 63 t20.5 63.5t51.5 38.5q-31 10 -51.5 39t-20.5 64q0 45 32 76.5t77 31.5t76.5 -31.5t31.5 -76.5q0 -35 -20.5 -64t-50.5 -39q31 -10 51 -38.5t20 -63.5t-20.5 -62.5t-50.5 -40.5q45 -14 65 -65q10 33 39 52.5t64 19.5q45 0 76.5 -31t31.5 -78q0 -45 -31.5 -77t-76.5 -32 q-35 0 -63.5 20.5t-39.5 51.5q-18 -47 -65 -65q31 -10 51 -39t20 -64t-20.5 -62.5t-50.5 -37.5q31 -12 51 -40t20 -63t-20.5 -63.5t-50.5 -38.5q31 -12 51 -40t20 -62q0 -35 -20.5 -63.5t-50.5 -39.5q31 -10 51 -38.5t20 -63.5q0 -45 -31.5 -77t-76.5 -32t-77 32t-32 77z M379 692q0 47 31.5 78t76.5 31q47 0 78 -31t31 -78q0 -45 -30.5 -76.5t-78.5 -31.5q-45 0 -76.5 31.5t-31.5 76.5zM584 489q0 45 31.5 77t76.5 32q35 0 63.5 -20.5t39.5 -51.5q16 45 65 66q-31 10 -51.5 37.5t-20.5 62.5t20.5 63.5t51.5 39.5q-31 12 -51.5 39.5t-20.5 62.5 t20.5 63.5t51.5 38.5q-31 12 -51.5 40t-20.5 63t20.5 63.5t51.5 38.5q-31 10 -51.5 39t-20.5 64q0 45 32 76.5t77 31.5t77 -31.5t32 -76.5q0 -35 -20.5 -64t-51.5 -39q31 -10 51.5 -38.5t20.5 -63.5t-20.5 -62.5t-51.5 -40.5q31 -10 51.5 -38.5t20.5 -63.5t-20.5 -62.5 t-51.5 -39.5q31 -10 51.5 -39t20.5 -64t-20.5 -62.5t-51.5 -37.5q31 -12 51.5 -40t20.5 -63t-20.5 -63.5t-51.5 -38.5q31 -12 51.5 -40t20.5 -62q0 -35 -20.5 -63.5t-51.5 -39.5q31 -10 51.5 -38.5t20.5 -63.5q0 -45 -32 -77t-77 -32t-77 32t-32 77q0 35 20.5 63.5 t51.5 38.5q-31 10 -51.5 39t-20.5 64t20.5 62.5t51.5 39.5q-49 16 -65 66q-10 -33 -39 -52.5t-64 -19.5q-45 0 -76.5 30.5t-31.5 77.5z" />
<glyph unicode="O" d="M-29 285q0 35 20.5 62.5t51.5 39.5q-31 10 -51.5 39t-20.5 63q0 35 20.5 63t51.5 40q-31 10 -51.5 37.5t-20.5 62.5t20.5 63.5t51.5 39.5q-31 12 -51.5 39.5t-20.5 62.5t20.5 63.5t51.5 38.5q-31 12 -51.5 40t-20.5 63q0 45 32 76.5t77 31.5t76.5 -31.5t31.5 -76.5 q0 -35 -20 -63t-51 -40q31 -10 51 -38.5t20 -63.5t-20.5 -62.5t-50.5 -39.5q31 -10 51 -39t20 -64t-20.5 -62.5t-50.5 -37.5q31 -12 51 -40t20 -63t-20.5 -63.5t-50.5 -38.5q31 -12 51 -40t20 -62q0 -45 -31.5 -77t-76.5 -32t-77 32t-32 77zM176 80q0 45 31 76.5t78 31.5 q35 0 62.5 -20.5t39.5 -50.5q10 31 38 51t62 20q35 0 64 -20.5t39 -50.5q12 31 39.5 51t62.5 20q45 0 77 -31.5t32 -76.5t-32 -77t-77 -32q-35 0 -62.5 20.5t-39.5 51.5q-10 -31 -39 -51.5t-64 -20.5t-62.5 20.5t-37.5 51.5q-12 -31 -40 -51.5t-62 -20.5q-47 0 -78 32 t-31 77zM176 1307q0 45 31 76.5t78 31.5q35 0 62.5 -20.5t39.5 -51.5q10 31 38 51.5t62 20.5q35 0 64 -20.5t39 -51.5q12 31 39.5 51.5t62.5 20.5q45 0 77 -31.5t32 -76.5t-32 -77t-77 -32q-35 0 -62.5 20.5t-39.5 51.5q-10 -31 -39 -51.5t-64 -20.5t-62.5 20.5t-37.5 51.5 q-12 -31 -40 -51.5t-62 -20.5q-47 0 -78 32t-31 77zM788 285q0 35 20.5 62.5t51.5 39.5q-31 10 -51.5 39t-20.5 63q0 35 20.5 63t51.5 40q-31 10 -51.5 37.5t-20.5 62.5t20.5 63.5t51.5 39.5q-31 12 -51.5 39.5t-20.5 62.5t20.5 63.5t51.5 38.5q-31 12 -51.5 40t-20.5 63 q0 45 32 76.5t77 31.5t77 -31.5t32 -76.5q0 -35 -20.5 -62.5t-51.5 -40.5q31 -10 51.5 -38.5t20.5 -63.5t-20.5 -62.5t-51.5 -39.5q31 -10 51.5 -39t20.5 -64t-20.5 -62.5t-51.5 -37.5q31 -12 51.5 -40t20.5 -63t-20.5 -63.5t-51.5 -38.5q31 -12 51.5 -40t20.5 -62 q0 -45 -32 -77t-77 -32t-77 32t-32 77z" />
<glyph unicode="P" d="M-29 80q0 35 20.5 63.5t51.5 38.5q-31 10 -51.5 39t-20.5 64t20.5 62.5t51.5 39.5q-31 10 -51.5 39t-20.5 63q0 35 20.5 63t51.5 40q-31 10 -51.5 37.5t-20.5 62.5t20.5 63.5t51.5 39.5q-31 12 -51.5 39.5t-20.5 62.5t20.5 63.5t51.5 38.5q-31 12 -51.5 40t-20.5 63 t20.5 63.5t51.5 38.5q-31 10 -51.5 39t-20.5 64q0 45 32 76.5t77 31.5q35 0 62.5 -20.5t39.5 -51.5q10 31 39 51.5t64 20.5t62.5 -20.5t39.5 -51.5q10 31 38 51.5t62 20.5q35 0 64 -20.5t39 -51.5q12 31 39.5 51.5t62.5 20.5q45 0 77 -31.5t32 -76.5t-32 -77t-77 -32 q-35 0 -62.5 20.5t-39.5 51.5q-10 -31 -39 -51.5t-64 -20.5t-62.5 20.5t-37.5 51.5q-12 -31 -40 -51.5t-62 -20.5q-35 0 -63.5 20.5t-39.5 51.5q-20 -51 -65 -66q31 -10 51 -38.5t20 -63.5t-20.5 -62.5t-50.5 -40.5q31 -10 51 -38.5t20 -63.5t-20.5 -62.5t-50.5 -39.5 q45 -14 65 -66q10 33 39 52.5t64 19.5t62.5 -19.5t39.5 -52.5q10 33 38 52.5t62 19.5q35 0 64 -19.5t39 -52.5q12 33 39.5 52.5t62.5 19.5q45 0 77 -31t32 -78q0 -45 -32 -76.5t-77 -31.5q-35 0 -62.5 20.5t-39.5 50.5q-10 -31 -39 -51t-64 -20t-62.5 20.5t-37.5 50.5 q-12 -31 -40 -51t-62 -20q-35 0 -63.5 20.5t-39.5 50.5q-10 -23 -26.5 -39t-38.5 -24q31 -12 51 -40t20 -63t-20.5 -63.5t-50.5 -38.5q31 -12 51 -40t20 -62q0 -35 -20.5 -63.5t-50.5 -39.5q31 -10 51 -38.5t20 -63.5q0 -45 -31.5 -77t-76.5 -32t-77 32t-32 77zM788 897 q0 35 20.5 63.5t51.5 38.5q-31 12 -51.5 40t-20.5 63q0 45 32 76.5t77 31.5t77 -31.5t32 -76.5q0 -35 -20.5 -63t-51.5 -40q31 -10 51.5 -38.5t20.5 -63.5q0 -45 -32 -77t-77 -32t-77 32t-32 77z" />
<glyph unicode="Q" d="M-29 285q0 35 20.5 62.5t51.5 39.5q-31 10 -51.5 39t-20.5 63q0 35 20.5 63t51.5 40q-31 10 -51.5 37.5t-20.5 62.5t20.5 63.5t51.5 39.5q-31 12 -51.5 39.5t-20.5 62.5t20.5 63.5t51.5 38.5q-31 12 -51.5 40t-20.5 63q0 45 32 76.5t77 31.5t76.5 -31.5t31.5 -76.5 q0 -35 -20.5 -62.5t-50.5 -40.5q31 -10 51 -38.5t20 -63.5t-20.5 -62.5t-50.5 -39.5q31 -10 51 -39t20 -64t-20.5 -62.5t-50.5 -37.5q31 -12 51 -40t20 -63t-20 -63.5t-51 -38.5q31 -12 51 -40t20 -62q0 -45 -31.5 -77t-76.5 -32t-77 32t-32 77zM176 80q0 45 31 76.5 t78 31.5q35 0 62.5 -20.5t39.5 -50.5q10 31 37.5 51t62.5 20q47 0 78 -31.5t31 -76.5t-30.5 -77t-78.5 -32q-35 0 -62.5 20.5t-37.5 51.5q-12 -31 -40 -51.5t-62 -20.5q-47 0 -78 32t-31 77zM176 1307q0 45 31 76.5t78 31.5q35 0 62.5 -20.5t39.5 -51.5q10 31 38 51.5 t62 20.5q35 0 64 -20.5t39 -51.5q12 31 39.5 51.5t62.5 20.5q45 0 77 -31.5t32 -76.5t-32 -77t-77 -32q-35 0 -62.5 20.5t-39.5 51.5q-10 -31 -39 -51.5t-64 -20.5t-62.5 20.5t-37.5 51.5q-12 -31 -39.5 -51.5t-62.5 -20.5q-47 0 -78 32t-31 77zM379 489q0 45 31.5 77 t76.5 32q47 0 78 -31.5t31 -77.5q0 -47 -30.5 -77.5t-78.5 -30.5q-45 0 -76.5 30.5t-31.5 77.5zM584 285q0 45 31.5 76.5t76.5 31.5t77 -31.5t32 -76.5t-32 -77t-77 -32t-76.5 32t-31.5 77zM788 80q0 45 32 76.5t77 31.5t77 -31.5t32 -76.5t-32 -77t-77 -32t-77 32t-32 77z M788 489q0 35 20.5 63t51.5 40q-31 10 -51.5 37.5t-20.5 62.5t20.5 63.5t51.5 39.5q-31 12 -51.5 39.5t-20.5 62.5t20.5 63.5t51.5 38.5q-31 12 -51.5 40t-20.5 63q0 45 32 76.5t77 31.5t77 -31.5t32 -76.5q0 -35 -20.5 -62.5t-51.5 -40.5q31 -10 51.5 -38.5t20.5 -63.5 t-20.5 -62.5t-51.5 -39.5q31 -10 51.5 -39t20.5 -64t-20.5 -62.5t-51.5 -37.5q31 -12 51.5 -40t20.5 -63q0 -47 -32 -77.5t-77 -30.5t-77 30.5t-32 77.5z" />
<glyph unicode="R" d="M-29 80q0 35 20.5 63.5t51.5 38.5q-31 10 -51.5 39t-20.5 64t20.5 62.5t51.5 39.5q-31 10 -51.5 39t-20.5 63q0 35 20.5 63t51.5 40q-31 10 -51.5 37.5t-20.5 62.5t20.5 63.5t51.5 39.5q-31 12 -51.5 39.5t-20.5 62.5t20.5 63.5t51.5 38.5q-31 12 -51.5 40t-20.5 63 t20.5 63.5t51.5 38.5q-31 10 -51.5 39t-20.5 64q0 45 32 76.5t77 31.5q35 0 62.5 -20.5t39.5 -51.5q10 31 39 51.5t64 20.5t62.5 -20.5t39.5 -51.5q10 31 38 51.5t62 20.5q35 0 64 -20.5t39 -51.5q12 31 39.5 51.5t62.5 20.5q45 0 77 -31.5t32 -76.5t-32 -77t-77 -32 q-35 0 -62.5 20.5t-39.5 51.5q-10 -31 -39 -51.5t-64 -20.5t-62.5 20.5t-37.5 51.5q-12 -31 -40 -51.5t-62 -20.5q-35 0 -63.5 20.5t-39.5 51.5q-20 -51 -65 -66q31 -10 51 -38.5t20 -63.5t-20.5 -62.5t-50.5 -40.5q31 -10 51 -38.5t20 -63.5t-20.5 -62.5t-50.5 -39.5 q45 -14 65 -66q10 33 39 52.5t64 19.5t62.5 -19.5t39.5 -52.5q10 33 38 52.5t62 19.5q35 0 64 -19.5t39 -52.5q12 33 39.5 52.5t62.5 19.5q45 0 77 -31t32 -78q0 -45 -32 -76.5t-77 -31.5q-35 0 -62.5 20.5t-39.5 50.5q-17 -47 -66 -63q33 -12 52.5 -40t19.5 -63 q0 -47 -30.5 -77.5t-78.5 -30.5q-45 0 -76.5 30.5t-31.5 77.5q0 35 20.5 63t53.5 40q-49 16 -66 63q-12 -31 -40 -51t-62 -20q-35 0 -63.5 20.5t-39.5 50.5q-10 -23 -26.5 -39t-38.5 -24q31 -12 51 -40t20 -63t-20.5 -63.5t-50.5 -38.5q31 -12 51 -40t20 -62 q0 -35 -20.5 -63.5t-50.5 -39.5q31 -10 51 -38.5t20 -63.5q0 -45 -31.5 -77t-76.5 -32t-77 32t-32 77zM584 285q0 45 31.5 76.5t76.5 31.5t77 -31.5t32 -76.5t-32 -77t-77 -32t-76.5 32t-31.5 77zM788 80q0 45 32 76.5t77 31.5t77 -31.5t32 -76.5t-32 -77t-77 -32t-77 32 t-32 77zM788 897q0 35 20.5 63.5t51.5 38.5q-31 12 -51.5 40t-20.5 63q0 45 32 76.5t77 31.5t77 -31.5t32 -76.5q0 -35 -20.5 -63t-51.5 -40q31 -10 51.5 -38.5t20.5 -63.5q0 -45 -32 -77t-77 -32t-77 32t-32 77z" />
<glyph unicode="S" d="M-29 80q0 45 32 76.5t77 31.5q35 0 62.5 -20.5t39.5 -50.5q10 31 39 51t64 20t62.5 -20.5t39.5 -50.5q10 31 38 51t62 20q35 0 64 -20.5t39 -50.5q12 31 39.5 51t62.5 20q45 0 77 -31.5t32 -76.5t-32 -77t-77 -32q-35 0 -62.5 20.5t-39.5 51.5q-10 -31 -39 -51.5 t-64 -20.5t-62.5 20.5t-37.5 51.5q-12 -31 -40 -51.5t-62 -20.5q-35 0 -63.5 20.5t-39.5 51.5q-12 -31 -39.5 -51.5t-62.5 -20.5q-45 0 -77 32t-32 77zM-29 897q0 35 20.5 63.5t51.5 38.5q-31 12 -51.5 40t-20.5 63q0 45 32 76.5t77 31.5t76.5 -31.5t31.5 -76.5 q0 -35 -20.5 -62.5t-50.5 -40.5q31 -10 51 -38.5t20 -63.5q0 -45 -31.5 -77t-76.5 -32t-77 32t-32 77zM176 692q0 47 31 78t78 31q35 0 62.5 -19.5t39.5 -52.5q10 33 38 52.5t62 19.5q35 0 64 -19.5t39 -52.5q12 33 39.5 52.5t62.5 19.5q45 0 77 -31t32 -78q0 -45 -32 -76.5 t-77 -31.5q-35 0 -62.5 20.5t-39.5 50.5q-10 -31 -39 -51t-64 -20t-62.5 20.5t-37.5 50.5q-12 -31 -40 -51t-62 -20q-47 0 -78 31.5t-31 76.5zM176 1307q0 45 31 76.5t78 31.5q35 0 62.5 -20.5t39.5 -51.5q10 31 38 51.5t62 20.5q35 0 64 -20.5t39 -51.5q12 31 39.5 51.5 t62.5 20.5t63.5 -20.5t39.5 -51.5q10 31 38.5 51.5t63.5 20.5q45 0 77 -31.5t32 -76.5t-32 -77t-77 -32q-35 0 -63.5 20.5t-38.5 51.5q-10 -31 -39 -51.5t-64 -20.5t-62.5 20.5t-39.5 51.5q-10 -31 -39 -51.5t-64 -20.5t-62.5 20.5t-37.5 51.5q-12 -31 -39.5 -51.5 t-62.5 -20.5q-47 0 -78 32t-31 77zM788 285q0 35 20.5 62.5t51.5 39.5q-31 10 -51.5 39t-20.5 63q0 45 32 77t77 32t77 -32t32 -77q0 -35 -20.5 -63.5t-51.5 -38.5q31 -12 51.5 -40t20.5 -62q0 -45 -32 -77t-77 -32t-77 32t-32 77z" />
<glyph unicode="T" d="M-29 1307q0 45 32 76.5t77 31.5q35 0 62.5 -20.5t39.5 -51.5q10 31 39 51.5t64 20.5t62.5 -20.5t39.5 -51.5q10 31 38 51.5t62 20.5q35 0 64 -20.5t39 -51.5q12 31 39.5 51.5t62.5 20.5t63.5 -20.5t39.5 -51.5q10 31 38.5 51.5t63.5 20.5q45 0 77 -31.5t32 -76.5t-32 -77 t-77 -32q-35 0 -63.5 20.5t-38.5 51.5q-10 -31 -39 -51.5t-64 -20.5t-62.5 20.5t-39.5 51.5q-16 -49 -66 -66q33 -10 52.5 -38.5t19.5 -63.5t-19.5 -62.5t-52.5 -40.5q33 -10 52.5 -38.5t19.5 -63.5t-19.5 -62.5t-52.5 -39.5q33 -10 52.5 -39t19.5 -64t-19.5 -62.5 t-52.5 -37.5q33 -12 52.5 -40t19.5 -63t-19.5 -63.5t-52.5 -38.5q33 -12 52.5 -40t19.5 -62q0 -35 -19.5 -63.5t-52.5 -39.5q33 -10 52.5 -38.5t19.5 -63.5q0 -45 -30.5 -77t-78.5 -32q-45 0 -76.5 32t-31.5 77q0 35 20.5 63.5t53.5 38.5q-33 10 -53.5 39t-20.5 64 t20.5 62.5t53.5 39.5q-33 10 -53.5 39t-20.5 63q0 35 20.5 63t53.5 40q-33 10 -53.5 37.5t-20.5 62.5t20.5 63.5t53.5 39.5q-33 12 -53.5 39.5t-20.5 62.5t20.5 63.5t53.5 38.5q-33 12 -53.5 40t-20.5 63t20.5 63.5t53.5 38.5q-49 16 -66 66q-12 -31 -40 -51.5t-62 -20.5 q-35 0 -63.5 20.5t-39.5 51.5q-12 -31 -39.5 -51.5t-62.5 -20.5q-45 0 -77 32t-32 77z" />
<glyph unicode="U" d="M-29 285q0 35 20.5 62.5t51.5 39.5q-31 10 -51.5 39t-20.5 63q0 35 20.5 63t51.5 40q-31 10 -51.5 37.5t-20.5 62.5t20.5 63.5t51.5 39.5q-31 12 -51.5 39.5t-20.5 62.5t20.5 63.5t51.5 38.5q-31 12 -51.5 40t-20.5 63t20.5 63.5t51.5 38.5q-31 10 -51.5 39t-20.5 64 q0 45 32 76.5t77 31.5t76.5 -31.5t31.5 -76.5q0 -35 -20.5 -64t-50.5 -39q31 -10 51 -38.5t20 -63.5t-20.5 -62.5t-50.5 -40.5q31 -10 51 -38.5t20 -63.5t-20.5 -62.5t-50.5 -39.5q31 -10 51 -39t20 -64t-20.5 -62.5t-50.5 -37.5q31 -12 51 -40t20 -63t-20 -63.5t-51 -38.5 q31 -12 51 -40t20 -62q0 -45 -31.5 -77t-76.5 -32t-77 32t-32 77zM176 80q0 45 31 76.5t78 31.5q35 0 62.5 -20.5t39.5 -50.5q10 31 38 51t62 20q35 0 64 -20.5t39 -50.5q12 31 39.5 51t62.5 20q45 0 77 -31.5t32 -76.5t-32 -77t-77 -32q-35 0 -62.5 20.5t-39.5 51.5 q-10 -31 -39 -51.5t-64 -20.5t-62.5 20.5t-37.5 51.5q-12 -31 -40 -51.5t-62 -20.5q-47 0 -78 32t-31 77zM788 285q0 35 20.5 62.5t51.5 39.5q-31 10 -51.5 39t-20.5 63q0 35 20.5 63t51.5 40q-31 10 -51.5 37.5t-20.5 62.5t20.5 63.5t51.5 39.5q-31 12 -51.5 39.5 t-20.5 62.5t20.5 63.5t51.5 38.5q-31 12 -51.5 40t-20.5 63t20.5 63.5t51.5 38.5q-31 10 -51.5 39t-20.5 64q0 45 32 76.5t77 31.5t77 -31.5t32 -76.5q0 -35 -20.5 -64t-51.5 -39q31 -10 51.5 -38.5t20.5 -63.5t-20.5 -62.5t-51.5 -40.5q31 -10 51.5 -38.5t20.5 -63.5 t-20.5 -62.5t-51.5 -39.5q31 -10 51.5 -39t20.5 -64t-20.5 -62.5t-51.5 -37.5q31 -12 51.5 -40t20.5 -63t-20.5 -63.5t-51.5 -38.5q31 -12 51.5 -40t20.5 -62q0 -45 -32 -77t-77 -32t-77 32t-32 77z" />
<glyph unicode="V" d="M-29 897q0 35 20.5 63.5t51.5 38.5q-31 12 -51.5 40t-20.5 63t20.5 63.5t51.5 38.5q-31 10 -51.5 39t-20.5 64q0 45 32 76.5t77 31.5t76.5 -31.5t31.5 -76.5q0 -35 -20.5 -64t-50.5 -39q31 -10 51 -38.5t20 -63.5t-20 -63t-51 -40q31 -10 51 -38.5t20 -63.5 q0 -45 -31.5 -77t-76.5 -32t-77 32t-32 77zM176 489q0 35 19.5 63t52.5 40q-33 10 -52.5 37.5t-19.5 62.5q0 47 31 78t78 31q45 0 76.5 -31t31.5 -78q0 -35 -20 -62.5t-51 -37.5q31 -12 51 -40t20 -63q0 -47 -31.5 -77.5t-76.5 -30.5q-47 0 -78 30.5t-31 77.5zM379 80 q0 35 20.5 63.5t53.5 38.5q-33 10 -53.5 39t-20.5 64q0 45 31.5 76.5t76.5 31.5q47 0 78 -31.5t31 -76.5q0 -35 -19.5 -63.5t-52.5 -39.5q33 -10 52.5 -38.5t19.5 -63.5q0 -45 -30.5 -77t-78.5 -32q-45 0 -76.5 32t-31.5 77zM584 489q0 35 20.5 63t50.5 40q-31 10 -51 37.5 t-20 62.5q0 47 31.5 78t76.5 31t77 -31t32 -78q0 -35 -19.5 -62.5t-52.5 -37.5q33 -12 52.5 -40t19.5 -63q0 -47 -32 -77.5t-77 -30.5t-76.5 30.5t-31.5 77.5zM788 897q0 35 20.5 63.5t51.5 38.5q-31 12 -51.5 40t-20.5 63t20.5 63.5t51.5 38.5q-31 10 -51.5 39t-20.5 64 q0 45 32 76.5t77 31.5t77 -31.5t32 -76.5q0 -35 -20.5 -64t-51.5 -39q31 -10 51.5 -38.5t20.5 -63.5t-20.5 -62.5t-51.5 -40.5q31 -10 51.5 -38.5t20.5 -63.5q0 -45 -32 -77t-77 -32t-77 32t-32 77z" />
<glyph unicode="W" d="M-29 80q0 35 20.5 63.5t51.5 38.5q-31 10 -51.5 39t-20.5 64t20.5 62.5t51.5 39.5q-31 10 -51.5 39t-20.5 63q0 35 20.5 63t51.5 40q-31 10 -51.5 37.5t-20.5 62.5t20.5 63.5t51.5 39.5q-31 12 -51.5 39.5t-20.5 62.5t20.5 63.5t51.5 38.5q-31 12 -51.5 40t-20.5 63 t20.5 63.5t51.5 38.5q-31 10 -51.5 39t-20.5 64q0 45 32 76.5t77 31.5t76.5 -31.5t31.5 -76.5q0 -35 -20.5 -64t-50.5 -39q31 -10 51 -38.5t20 -63.5t-20.5 -62.5t-50.5 -40.5q31 -10 51 -38.5t20 -63.5t-20.5 -62.5t-50.5 -39.5q31 -10 51 -39t20 -64t-20.5 -62.5 t-50.5 -37.5q31 -12 51 -40t20 -63t-20.5 -63.5t-50.5 -38.5q47 -18 65 -65q10 31 39 51t64 20q45 0 76.5 -31.5t31.5 -76.5t-31.5 -77t-76.5 -32q-35 0 -63.5 19.5t-39.5 52.5q-20 -51 -65 -66q31 -10 51 -38.5t20 -63.5q0 -45 -31.5 -77t-76.5 -32t-77 32t-32 77zM379 489 q0 35 20.5 63t53.5 40q-33 10 -53.5 37.5t-20.5 62.5q0 47 31.5 78t76.5 31q47 0 78 -31t31 -78q0 -35 -19.5 -62.5t-52.5 -37.5q33 -12 52.5 -40t19.5 -63q0 -47 -30.5 -77.5t-78.5 -30.5q-45 0 -76.5 30.5t-31.5 77.5zM584 285q0 45 31.5 76.5t76.5 31.5q35 0 63.5 -20.5 t39.5 -50.5q14 45 65 65q-31 10 -51.5 39t-20.5 63q0 35 20.5 63t51.5 40q-31 10 -51.5 37.5t-20.5 62.5t20.5 63.5t51.5 39.5q-31 12 -51.5 39.5t-20.5 62.5t20.5 63.5t51.5 38.5q-31 12 -51.5 40t-20.5 63t20.5 63.5t51.5 38.5q-31 10 -51.5 39t-20.5 64q0 45 32 76.5 t77 31.5t77 -31.5t32 -76.5q0 -35 -20.5 -64t-51.5 -39q31 -10 51.5 -38.5t20.5 -63.5t-20.5 -62.5t-51.5 -40.5q31 -10 51.5 -38.5t20.5 -63.5t-20.5 -62.5t-51.5 -39.5q31 -10 51.5 -39t20.5 -64t-20.5 -62.5t-51.5 -37.5q31 -12 51.5 -40t20.5 -63t-20.5 -63.5 t-51.5 -38.5q31 -12 51.5 -40t20.5 -62q0 -35 -20.5 -63.5t-51.5 -39.5q31 -10 51.5 -38.5t20.5 -63.5q0 -45 -32 -77t-77 -32t-77 32t-32 77q0 35 20.5 63.5t51.5 38.5q-49 16 -65 66q-10 -33 -39 -52.5t-64 -19.5q-45 0 -76.5 32t-31.5 77z" />
<glyph unicode="X" d="M-29 80q0 35 20.5 63.5t51.5 38.5q-31 10 -51.5 39t-20.5 64q0 45 32 76.5t77 31.5t76.5 -31.5t31.5 -76.5q0 -35 -20.5 -63.5t-50.5 -39.5q31 -10 51 -38.5t20 -63.5q0 -45 -31.5 -77t-76.5 -32t-77 32t-32 77zM-29 1102q0 35 20.5 63.5t51.5 38.5q-31 10 -51.5 39 t-20.5 64q0 45 32 76.5t77 31.5t76.5 -31.5t31.5 -76.5q0 -35 -20.5 -64t-50.5 -39q31 -10 51 -38.5t20 -63.5q0 -45 -31.5 -77t-76.5 -32t-77 32t-32 77zM176 489q0 45 31 77t78 32q45 0 76.5 -31.5t31.5 -77.5q0 -47 -31.5 -77.5t-76.5 -30.5q-47 0 -78 30.5t-31 77.5z M176 897q0 47 31 78t78 31q45 0 76.5 -31t31.5 -78q0 -45 -31.5 -77t-76.5 -32q-47 0 -78 32t-31 77zM379 692q0 47 31.5 78t76.5 31q47 0 78 -31t31 -78q0 -45 -31 -76.5t-78 -31.5q-45 0 -76.5 31.5t-31.5 76.5zM584 489q0 45 31.5 77t76.5 32t77 -31.5t32 -77.5 q0 -47 -32 -77.5t-77 -30.5t-76.5 30.5t-31.5 77.5zM584 897q0 47 31.5 78t76.5 31t77 -31t32 -78q0 -45 -32 -77t-77 -32t-76.5 32t-31.5 77zM788 80q0 35 20.5 63.5t51.5 38.5q-31 10 -51.5 39t-20.5 64q0 45 32 76.5t77 31.5t77 -31.5t32 -76.5q0 -35 -20.5 -64 t-51.5 -39q31 -10 51.5 -38.5t20.5 -63.5q0 -45 -32 -77t-77 -32t-77 32t-32 77zM788 1102q0 35 20.5 63.5t51.5 38.5q-31 10 -51.5 39t-20.5 64q0 45 32 76.5t77 31.5t77 -31.5t32 -76.5q0 -35 -20.5 -64t-51.5 -39q31 -10 51.5 -38.5t20.5 -63.5q0 -45 -32 -77t-77 -32 t-77 32t-32 77z" />
<glyph unicode="Y" d="M-29 1102q0 35 20.5 63.5t51.5 38.5q-31 10 -51.5 39t-20.5 64q0 45 32 76.5t77 31.5t76.5 -31.5t31.5 -76.5q0 -35 -20 -64t-51 -39q31 -10 51 -38.5t20 -63.5q0 -45 -31.5 -77t-76.5 -32t-77 32t-32 77zM176 897q0 47 31 78t78 31q45 0 76.5 -31t31.5 -78 q0 -45 -31.5 -77t-76.5 -32q-47 0 -78 32t-31 77zM379 80q0 35 20.5 63.5t53.5 38.5q-33 10 -53.5 39t-20.5 64t20.5 62.5t53.5 39.5q-33 10 -53.5 39t-20.5 63q0 35 20.5 63t53.5 40q-33 10 -53.5 37.5t-20.5 62.5q0 47 31.5 78t76.5 31q47 0 78 -31t31 -78 q0 -35 -19.5 -62.5t-52.5 -37.5q33 -12 52.5 -40t19.5 -63t-19.5 -63.5t-52.5 -38.5q33 -12 52.5 -40t19.5 -62q0 -35 -19.5 -63.5t-52.5 -39.5q33 -10 52.5 -38.5t19.5 -63.5q0 -45 -30.5 -77t-78.5 -32q-45 0 -76.5 32t-31.5 77zM584 897q0 47 31.5 78t76.5 31t77 -31 t32 -78q0 -45 -32 -77t-77 -32t-76.5 32t-31.5 77zM788 1102q0 35 20.5 63.5t51.5 38.5q-31 10 -51.5 39t-20.5 64q0 45 32 76.5t77 31.5t77 -31.5t32 -76.5q0 -35 -20.5 -64t-51.5 -39q31 -10 51.5 -38.5t20.5 -63.5q0 -45 -32 -77t-77 -32t-77 32t-32 77z" />
<glyph unicode="Z" d="M-29 80q0 35 20.5 63.5t51.5 38.5q-31 10 -51.5 39t-20.5 64q0 45 32 76.5t77 31.5t76.5 -31.5t31.5 -76.5q0 -35 -20.5 -63.5t-50.5 -39.5q45 -14 65 -65q10 31 39 51t64 20t62.5 -20.5t39.5 -50.5q10 31 38 51t62 20q35 0 64 -20.5t39 -50.5q12 31 39.5 51t62.5 20 t63.5 -20.5t39.5 -50.5q10 31 38.5 51t63.5 20q45 0 77 -31.5t32 -76.5t-32 -77t-77 -32q-35 0 -63.5 20.5t-38.5 51.5q-10 -31 -39 -51.5t-64 -20.5t-62.5 20.5t-39.5 51.5q-10 -31 -39 -51.5t-64 -20.5t-62.5 20.5t-37.5 51.5q-12 -31 -40 -51.5t-62 -20.5 q-35 0 -63.5 20.5t-39.5 51.5q-12 -31 -39.5 -51.5t-62.5 -20.5q-45 0 -77 32t-32 77zM-29 1307q0 45 32 76.5t77 31.5q35 0 62.5 -20.5t39.5 -51.5q10 31 39 51.5t64 20.5t62.5 -20.5t39.5 -51.5q10 31 38 51.5t62 20.5q35 0 64 -20.5t39 -51.5q12 31 39.5 51.5t62.5 20.5 t63.5 -20.5t39.5 -51.5q10 31 38.5 51.5t63.5 20.5q45 0 77 -31.5t32 -76.5q0 -35 -20.5 -64t-51.5 -39q31 -10 51.5 -38.5t20.5 -63.5q0 -45 -32 -77t-77 -32t-77 32t-32 77q0 35 20.5 63.5t51.5 38.5q-49 16 -65 66q-10 -31 -39 -51.5t-64 -20.5t-62.5 20.5t-39.5 51.5 q-10 -31 -39 -51.5t-64 -20.5t-62.5 20.5t-37.5 51.5q-12 -31 -40 -51.5t-62 -20.5q-35 0 -63.5 20.5t-39.5 51.5q-12 -31 -39.5 -51.5t-62.5 -20.5q-45 0 -77 32t-32 77zM176 489q0 45 31 77t78 32q45 0 76.5 -31.5t31.5 -77.5q0 -47 -31.5 -77.5t-76.5 -30.5 q-47 0 -78 30.5t-31 77.5zM379 692q0 47 31.5 78t76.5 31q47 0 78 -31t31 -78q0 -45 -30.5 -76.5t-78.5 -31.5q-45 0 -76.5 31.5t-31.5 76.5zM584 897q0 47 31.5 78t76.5 31t77 -31t32 -78q0 -45 -32 -77t-77 -32t-76.5 32t-31.5 77z" />
<glyph unicode="[" d="M381 80q0 35 20.5 63.5t51.5 38.5q-31 10 -51.5 39t-20.5 64t20.5 62.5t51.5 39.5q-31 10 -51.5 39t-20.5 63q0 35 20.5 63t51.5 40q-31 10 -51.5 37.5t-20.5 62.5t20.5 63.5t51.5 39.5q-31 12 -51.5 39.5t-20.5 62.5t20.5 63.5t51.5 38.5q-31 12 -51.5 40t-20.5 63 t20.5 63.5t51.5 38.5q-31 10 -51.5 39t-20.5 64q0 45 31.5 76.5t76.5 31.5q35 0 63 -20.5t40 -51.5q10 31 38.5 51.5t63.5 20.5t62.5 -20.5t40.5 -51.5q10 31 37.5 51.5t62.5 20.5q47 0 78 -31.5t31 -76.5t-31 -77t-78 -32q-35 0 -62.5 20.5t-37.5 51.5q-12 -31 -40 -51.5 t-63 -20.5t-63.5 20.5t-38.5 51.5q-20 -51 -66 -66q31 -10 51.5 -38.5t20.5 -63.5t-20.5 -62.5t-51.5 -40.5q31 -10 51.5 -38.5t20.5 -63.5t-20.5 -62.5t-51.5 -39.5q31 -10 51.5 -39t20.5 -64t-20.5 -62.5t-51.5 -37.5q31 -12 51.5 -40t20.5 -63t-20.5 -63.5t-51.5 -38.5 q31 -12 51.5 -40t20.5 -62q0 -35 -20.5 -63.5t-51.5 -39.5q45 -14 66 -65q10 31 38.5 51t63.5 20t62.5 -20.5t40.5 -50.5q10 31 37.5 51t62.5 20q47 0 78 -31.5t31 -76.5t-31 -77t-78 -32q-35 0 -62.5 20.5t-37.5 51.5q-12 -31 -40 -51.5t-63 -20.5t-63.5 20.5t-38.5 51.5 q-12 -31 -40 -51.5t-63 -20.5q-45 0 -76.5 32t-31.5 77z" />
<glyph unicode="\" d="M-29 897q0 47 32 78t77 31t76.5 -31t31.5 -78q0 -45 -31.5 -77t-76.5 -32t-77 32t-32 77zM176 692q0 47 31 78t78 31q45 0 76.5 -31t31.5 -78q0 -45 -31.5 -76.5t-76.5 -31.5q-47 0 -78 31.5t-31 76.5zM379 489q0 45 31.5 77t76.5 32q47 0 78 -32t31 -77 q0 -47 -30.5 -77.5t-78.5 -30.5q-45 0 -76.5 30.5t-31.5 77.5zM584 285q0 45 31.5 76.5t76.5 31.5t77 -31.5t32 -76.5t-32 -77t-77 -32t-76.5 32t-31.5 77zM788 80q0 45 32 76.5t77 31.5t77 -31.5t32 -76.5t-32 -77t-77 -32t-77 32t-32 77z" />
<glyph unicode="]" d="M-29 80q0 45 32 76.5t77 31.5q35 0 62.5 -20.5t39.5 -50.5q10 31 39 51t64 20t62.5 -20.5t39.5 -50.5q16 49 66 65q-33 10 -53.5 39t-20.5 64t20.5 62.5t53.5 39.5q-33 10 -53.5 39t-20.5 63q0 35 20.5 63t53.5 40q-33 10 -53.5 37.5t-20.5 62.5t20.5 63.5t53.5 39.5 q-33 12 -53.5 39.5t-20.5 62.5t20.5 63.5t53.5 38.5q-33 12 -53.5 40t-20.5 63t20.5 63.5t53.5 38.5q-49 16 -66 66q-12 -31 -40 -51.5t-62 -20.5q-35 0 -63.5 20.5t-39.5 51.5q-12 -31 -39.5 -51.5t-62.5 -20.5q-45 0 -77 32t-32 77t32 76.5t77 31.5q35 0 62.5 -20.5 t39.5 -51.5q10 31 39 51.5t64 20.5t62.5 -20.5t39.5 -51.5q10 31 38 51.5t62 20.5q47 0 78 -31.5t31 -76.5q0 -35 -19.5 -64t-52.5 -39q33 -10 52.5 -38.5t19.5 -63.5t-19.5 -62.5t-52.5 -40.5q33 -10 52.5 -38.5t19.5 -63.5t-19.5 -62.5t-52.5 -39.5q33 -10 52.5 -39 t19.5 -64t-19.5 -62.5t-52.5 -37.5q33 -12 52.5 -40t19.5 -63t-19.5 -63.5t-52.5 -38.5q33 -12 52.5 -39.5t19.5 -62.5t-19.5 -63.5t-52.5 -39.5q33 -10 52.5 -38.5t19.5 -63.5q0 -45 -30.5 -77t-78.5 -32q-35 0 -62.5 20.5t-37.5 51.5q-12 -31 -40 -51.5t-62 -20.5 q-35 0 -63.5 20.5t-39.5 51.5q-12 -31 -39.5 -51.5t-62.5 -20.5q-45 0 -77 32t-32 77z" />
<glyph unicode="^" d="M176 899q0 47 32 78t77 31t76.5 -31t31.5 -78q0 -45 -31.5 -76.5t-76.5 -31.5t-77 31.5t-32 76.5zM381 1104q0 45 31.5 76.5t76.5 31.5t77 -31.5t32 -76.5t-31.5 -77t-77.5 -32q-45 0 -76.5 32t-31.5 77zM586 1309q0 45 30.5 76.5t77.5 31.5q45 0 77 -31.5t32 -76.5 t-32 -77t-77 -32q-47 0 -77.5 32t-30.5 77zM788 1104q0 45 32 76.5t77 31.5q47 0 78 -31.5t31 -76.5t-31 -77t-78 -32q-45 0 -77 32t-32 77zM993 899q0 47 32 78t77 31t76.5 -31t31.5 -78q0 -45 -31.5 -76.5t-76.5 -31.5t-77 31.5t-32 76.5z" />
<glyph unicode="_" d="M-29 80q0 45 32 76.5t77 31.5q35 0 62.5 -20.5t39.5 -50.5q10 31 39 51t64 20t62.5 -20.5t39.5 -50.5q10 31 38 51t62 20q35 0 64 -20.5t39 -50.5q12 31 39.5 51t62.5 20t63.5 -20.5t39.5 -50.5q10 31 38.5 51t63.5 20q45 0 77 -31.5t32 -76.5t-32 -77t-77 -32 q-35 0 -63.5 20.5t-38.5 51.5q-10 -31 -39 -51.5t-64 -20.5t-62.5 20.5t-39.5 51.5q-10 -31 -39 -51.5t-64 -20.5t-62.5 20.5t-37.5 51.5q-12 -31 -40 -51.5t-62 -20.5q-35 0 -63.5 20.5t-39.5 51.5q-12 -31 -39.5 -51.5t-62.5 -20.5q-45 0 -77 32t-32 77z" />
<glyph unicode="`" d="M176 1104q0 35 20.5 63.5t51.5 38.5q-31 10 -51.5 39t-20.5 64q0 45 32 76.5t77 31.5t76.5 -31.5t31.5 -76.5q0 -35 -20 -64t-51 -39q31 -10 51 -38.5t20 -63.5q0 -45 -31.5 -77t-76.5 -32t-77 32t-32 77zM381 899q0 47 30.5 78t77.5 31q45 0 77 -31t32 -78 q0 -45 -31.5 -76.5t-77.5 -31.5q-47 0 -77.5 31.5t-30.5 76.5z" />
<glyph unicode="a" d="M-29 285q0 45 32 76.5t77 31.5t76.5 -31.5t31.5 -76.5t-31.5 -77t-76.5 -32t-77 32t-32 77zM176 80q0 45 31 76.5t78 31.5q35 0 62.5 -20.5t39.5 -50.5q10 31 38 51t62 20q35 0 64 -20.5t39 -50.5q12 31 39.5 51t62.5 20t63.5 -20.5t39.5 -50.5q16 49 65 65 q-31 10 -51.5 39t-20.5 64t20.5 62.5t51.5 39.5q-49 16 -65 66q-10 -33 -39 -52.5t-64 -19.5t-62.5 19.5t-39.5 52.5q-10 -33 -39 -52.5t-64 -19.5t-62.5 19.5t-37.5 52.5q-12 -33 -40 -52.5t-62 -19.5q-47 0 -78 30.5t-31 77.5q0 45 31 77t78 32q35 0 62.5 -20.5 t39.5 -51.5q10 31 38 51.5t62 20.5q35 0 64 -20.5t39 -51.5q12 31 39.5 51.5t62.5 20.5t63.5 -20.5t39.5 -51.5q16 45 65 66q-31 10 -51.5 37.5t-20.5 62.5q0 47 32 78t77 31t77 -31t32 -78q0 -35 -20.5 -62.5t-51.5 -37.5q31 -12 51.5 -40t20.5 -63t-20.5 -63.5 t-51.5 -38.5q31 -12 51.5 -40t20.5 -62q0 -35 -20.5 -63.5t-51.5 -39.5q31 -10 51.5 -38.5t20.5 -63.5q0 -45 -32 -77t-77 -32q-35 0 -63.5 20.5t-38.5 51.5q-10 -31 -39 -51.5t-64 -20.5t-62.5 20.5t-39.5 51.5q-10 -31 -39 -51.5t-64 -20.5t-62.5 20.5t-37.5 51.5 q-12 -31 -40 -51.5t-62 -20.5q-47 0 -78 32t-31 77zM176 897q0 47 31 78t78 31q35 0 62.5 -19.5t39.5 -52.5q10 33 38 52.5t62 19.5q35 0 64 -19.5t39 -52.5q12 33 39.5 52.5t62.5 19.5q45 0 77 -31t32 -78q0 -45 -32 -77t-77 -32q-35 0 -62.5 20.5t-39.5 51.5 q-10 -31 -39 -51.5t-64 -20.5t-62.5 20.5t-37.5 51.5q-12 -31 -39.5 -51.5t-62.5 -20.5q-47 0 -78 32t-31 77z" />
<glyph unicode="b" d="M-29 80q0 35 20.5 63.5t51.5 38.5q-31 10 -51.5 39t-20.5 64t20.5 62.5t51.5 39.5q-31 10 -51.5 39t-20.5 63q0 35 20.5 63t51.5 40q-31 10 -51.5 38.5t-20.5 63.5t20.5 62.5t51.5 38.5q-31 12 -51.5 39.5t-20.5 62.5t20.5 63.5t51.5 38.5q-31 12 -51.5 40t-20.5 63 t20.5 63.5t51.5 38.5q-31 10 -51.5 39t-20.5 64q0 45 32 76.5t77 31.5t76.5 -31.5t31.5 -76.5q0 -35 -20.5 -64t-50.5 -39q31 -10 51 -38.5t20 -63.5t-20.5 -62.5t-50.5 -40.5q45 -14 65 -65q10 33 39 52.5t64 19.5t62.5 -19.5t39.5 -52.5q10 33 38 52.5t62 19.5 q35 0 64 -19.5t39 -52.5q12 33 39.5 52.5t62.5 19.5q45 0 77 -31t32 -78q0 -45 -32 -77t-77 -32q-35 0 -62.5 20.5t-39.5 51.5q-10 -31 -39 -51.5t-64 -20.5t-62.5 20.5t-37.5 51.5q-12 -31 -40 -51.5t-62 -20.5q-35 0 -63.5 20.5t-39.5 51.5q-20 -47 -65 -65q31 -10 51 -38 t20 -63t-20.5 -63.5t-50.5 -38.5q31 -12 51 -40t20 -63t-20.5 -63.5t-50.5 -38.5q31 -12 51 -40t20 -62q0 -35 -20.5 -63.5t-50.5 -39.5q45 -14 65 -65q10 31 39 51t64 20t62.5 -20.5t39.5 -50.5q10 31 38 51t62 20q35 0 64 -20.5t39 -50.5q12 31 39.5 51t62.5 20 q45 0 77 -31.5t32 -76.5t-32 -77t-77 -32q-35 0 -62.5 20.5t-39.5 51.5q-10 -31 -39 -51.5t-64 -20.5t-62.5 20.5t-37.5 51.5q-12 -31 -40 -51.5t-62 -20.5q-35 0 -63.5 20.5t-39.5 51.5q-12 -31 -39.5 -51.5t-62.5 -20.5q-45 0 -77 32t-32 77zM788 285q0 35 20.5 62.5 t51.5 39.5q-31 10 -51.5 39t-20.5 63q0 35 20.5 63t51.5 40q-31 10 -51.5 38.5t-20.5 63.5q0 45 32 77t77 32t77 -32t32 -77q0 -35 -20.5 -63.5t-51.5 -38.5q31 -12 51.5 -40t20.5 -63t-20.5 -63.5t-51.5 -38.5q31 -12 51.5 -40t20.5 -62q0 -45 -32 -77t-77 -32t-77 32 t-32 77z" />
<glyph unicode="c" d="M-29 285q0 35 20.5 62.5t51.5 39.5q-31 10 -51.5 39t-20.5 63q0 35 20.5 63t51.5 40q-31 10 -51.5 37.5t-20.5 62.5q0 47 32 78t77 31t76.5 -31t31.5 -78q0 -35 -20.5 -62.5t-50.5 -37.5q31 -12 51 -40t20 -63t-20 -63.5t-51 -38.5q31 -12 51 -40t20 -62q0 -45 -31.5 -77 t-76.5 -32t-77 32t-32 77zM176 80q0 45 31 76.5t78 31.5q35 0 62.5 -20.5t39.5 -50.5q10 31 38 51t62 20q35 0 64 -20.5t39 -50.5q12 31 39.5 51t62.5 20t63.5 -20.5t39.5 -50.5q10 31 38.5 51t63.5 20q45 0 77 -31.5t32 -76.5t-32 -77t-77 -32q-35 0 -63.5 20.5t-38.5 51.5 q-10 -31 -39 -51.5t-64 -20.5t-62.5 20.5t-39.5 51.5q-10 -31 -39 -51.5t-64 -20.5t-62.5 20.5t-37.5 51.5q-12 -31 -40 -51.5t-62 -20.5q-47 0 -78 32t-31 77zM176 897q0 47 31 78t78 31q35 0 62.5 -19.5t39.5 -52.5q10 33 38 52.5t62 19.5q35 0 64 -19.5t39 -52.5 q12 33 39.5 52.5t62.5 19.5t63.5 -19.5t39.5 -52.5q10 33 38.5 52.5t63.5 19.5q45 0 77 -31t32 -78q0 -45 -32 -77t-77 -32q-35 0 -63.5 20.5t-38.5 51.5q-10 -31 -39 -51.5t-64 -20.5t-62.5 20.5t-39.5 51.5q-10 -31 -39 -51.5t-64 -20.5t-62.5 20.5t-37.5 51.5 q-12 -31 -39.5 -51.5t-62.5 -20.5q-47 0 -78 32t-31 77z" />
<glyph unicode="d" d="M-29 285q0 35 20.5 62.5t51.5 39.5q-31 10 -51.5 39t-20.5 63q0 35 20.5 63t51.5 40q-31 10 -51.5 37.5t-20.5 62.5q0 47 32 78t77 31t76.5 -31t31.5 -78q0 -35 -20.5 -62.5t-50.5 -37.5q31 -12 51 -40t20 -63t-20 -63.5t-51 -38.5q31 -12 51 -40t20 -62q0 -45 -31.5 -77 t-76.5 -32t-77 32t-32 77zM176 80q0 45 31 76.5t78 31.5q35 0 62.5 -20.5t39.5 -50.5q10 31 38 51t62 20q35 0 64 -20.5t39 -50.5q12 31 39.5 51t62.5 20t63.5 -20.5t39.5 -50.5q16 49 65 65q-31 10 -51.5 39t-20.5 64t20.5 62.5t51.5 39.5q-31 10 -51.5 39t-20.5 63 q0 35 20.5 63t51.5 40q-31 10 -51.5 37.5t-20.5 62.5t20.5 63.5t51.5 39.5q-51 20 -65 65q-10 -31 -39 -51.5t-64 -20.5t-62.5 20.5t-39.5 51.5q-10 -31 -39 -51.5t-64 -20.5t-62.5 20.5t-37.5 51.5q-12 -31 -40 -51.5t-62 -20.5q-47 0 -78 32t-31 77q0 47 31 78t78 31 q35 0 62.5 -19.5t39.5 -52.5q10 33 38 52.5t62 19.5q35 0 64 -19.5t39 -52.5q12 33 39.5 52.5t62.5 19.5t63.5 -19.5t39.5 -52.5q16 49 65 65q-31 12 -51.5 40t-20.5 63t20.5 63.5t51.5 38.5q-31 10 -51.5 39t-20.5 64q0 45 32 76.5t77 31.5t77 -31.5t32 -76.5 q0 -35 -20.5 -64t-51.5 -39q31 -10 51.5 -38.5t20.5 -63.5t-20.5 -62.5t-51.5 -40.5q31 -10 51.5 -38.5t20.5 -63.5t-20.5 -62.5t-51.5 -39.5q31 -10 51.5 -39t20.5 -64t-20.5 -62.5t-51.5 -37.5q31 -12 51.5 -40t20.5 -63t-20.5 -63.5t-51.5 -38.5q31 -12 51.5 -40 t20.5 -62q0 -35 -20.5 -63.5t-51.5 -39.5q31 -10 51.5 -38.5t20.5 -63.5q0 -45 -32 -77t-77 -32q-35 0 -63.5 20.5t-38.5 51.5q-10 -31 -39 -51.5t-64 -20.5t-62.5 20.5t-39.5 51.5q-10 -31 -39 -51.5t-64 -20.5t-62.5 20.5t-37.5 51.5q-12 -31 -40 -51.5t-62 -20.5 q-47 0 -78 32t-31 77z" />
<glyph unicode="e" d="M-29 285q0 35 20.5 62.5t51.5 39.5q-31 10 -51.5 39t-20.5 63q0 35 20.5 63t51.5 40q-31 10 -51.5 37.5t-20.5 62.5q0 47 32 78t77 31t76.5 -31t31.5 -78q0 -35 -20.5 -62.5t-50.5 -37.5q45 -18 65 -66q10 31 39 51.5t64 20.5t62.5 -20.5t39.5 -51.5q10 31 38 51.5 t62 20.5q35 0 64 -20.5t39 -51.5q12 31 39.5 51.5t62.5 20.5t63.5 -20.5t39.5 -51.5q16 45 65 66q-31 10 -51.5 37.5t-20.5 62.5q0 47 32 78t77 31t77 -31t32 -78q0 -35 -20.5 -62.5t-51.5 -37.5q31 -12 51.5 -40t20.5 -63q0 -47 -32 -77.5t-77 -30.5q-35 0 -63.5 19.5 t-38.5 52.5q-10 -33 -39 -52.5t-64 -19.5t-62.5 19.5t-39.5 52.5q-10 -33 -39 -52.5t-64 -19.5t-62.5 19.5t-37.5 52.5q-12 -33 -40 -52.5t-62 -19.5q-35 0 -63.5 19.5t-39.5 52.5q-20 -51 -65 -66q31 -12 51 -40t20 -62q0 -45 -31.5 -77t-76.5 -32t-77 32t-32 77zM176 80 q0 45 31 76.5t78 31.5q35 0 62.5 -20.5t39.5 -50.5q10 31 38 51t62 20q35 0 64 -20.5t39 -50.5q12 31 39.5 51t62.5 20t63.5 -20.5t39.5 -50.5q10 31 38.5 51t63.5 20q45 0 77 -31.5t32 -76.5t-32 -77t-77 -32q-35 0 -63.5 20.5t-38.5 51.5q-10 -31 -39 -51.5t-64 -20.5 t-62.5 20.5t-39.5 51.5q-10 -31 -39 -51.5t-64 -20.5t-62.5 20.5t-37.5 51.5q-12 -31 -40 -51.5t-62 -20.5q-47 0 -78 32t-31 77zM176 897q0 47 31 78t78 31q35 0 62.5 -19.5t39.5 -52.5q10 33 38 52.5t62 19.5q35 0 64 -19.5t39 -52.5q12 33 39.5 52.5t62.5 19.5 q45 0 77 -31t32 -78q0 -45 -32 -77t-77 -32q-35 0 -62.5 20.5t-39.5 51.5q-10 -31 -39 -51.5t-64 -20.5t-62.5 20.5t-37.5 51.5q-12 -31 -39.5 -51.5t-62.5 -20.5q-47 0 -78 32t-31 77z" />
<glyph unicode="f" d="M176 692q0 47 32 78t77 31q35 0 62.5 -19.5t39.5 -52.5q16 49 66 66q-33 12 -52.5 39.5t-19.5 62.5t19.5 63.5t52.5 38.5q-33 12 -52.5 40t-19.5 63q0 45 30.5 76.5t77.5 31.5q45 0 77 -31.5t32 -76.5q0 -35 -20.5 -62.5t-51.5 -40.5q31 -10 51.5 -38.5t20.5 -63.5 t-20.5 -62.5t-51.5 -39.5q45 -16 66 -66q10 33 37.5 52.5t62.5 19.5q47 0 78 -31t31 -78q0 -45 -31 -76.5t-78 -31.5q-35 0 -62.5 20.5t-37.5 50.5q-20 -47 -66 -63q31 -12 51.5 -40t20.5 -63t-20.5 -63.5t-51.5 -38.5q31 -12 51.5 -40t20.5 -62q0 -35 -20.5 -63.5 t-51.5 -39.5q31 -10 51.5 -38.5t20.5 -63.5q0 -45 -31.5 -77t-77.5 -32q-47 0 -77.5 32t-30.5 77q0 35 19.5 63.5t52.5 38.5q-33 10 -52.5 39t-19.5 64t19.5 62.5t52.5 39.5q-33 10 -52.5 39t-19.5 63q0 35 19.5 63t52.5 40q-49 16 -66 63q-12 -31 -40 -51t-62 -20 q-45 0 -77 31.5t-32 76.5zM584 1307q0 45 31.5 76.5t76.5 31.5q47 0 78 -31.5t31 -76.5t-31 -77t-78 -32q-45 0 -76.5 32t-31.5 77zM788 1102q0 45 32 76.5t77 31.5t77 -31.5t32 -76.5t-32 -77t-77 -32t-77 32t-32 77z" />
<glyph unicode="g" d="M-29 487q0 35 20.5 64t51.5 39q-31 12 -51.5 39.5t-20.5 62.5t20.5 63.5t51.5 39.5q-31 12 -51.5 39.5t-20.5 62.5q0 45 32 77t77 32t76.5 -32t31.5 -77q0 -35 -20.5 -62.5t-50.5 -39.5q31 -10 51 -39t20 -64t-20 -62.5t-51 -39.5q31 -10 51 -39t20 -64 q0 -45 -31.5 -76.5t-76.5 -31.5t-77 31.5t-32 76.5zM176 -125q0 45 31 77t78 32q35 0 62.5 -20.5t39.5 -51.5q10 31 38 51.5t62 20.5q35 0 64 -20.5t39 -51.5q12 31 39.5 51.5t62.5 20.5q45 0 77 -32t32 -77t-32 -76.5t-77 -31.5q-35 0 -62.5 20t-39.5 51q-10 -31 -39 -51 t-64 -20t-62.5 20t-37.5 51q-12 -31 -40 -51t-62 -20q-47 0 -78 31.5t-31 76.5zM176 285q0 45 31 76.5t78 31.5q35 0 62.5 -20.5t39.5 -50.5q10 31 38 51t62 20q35 0 64 -20.5t39 -50.5q12 31 39.5 51t62.5 20t63.5 -20.5t39.5 -50.5q16 45 65 65q-31 10 -51.5 38t-20.5 62 q0 35 20.5 64t51.5 39q-31 12 -51.5 39.5t-20.5 62.5t20.5 63.5t51.5 39.5q-31 12 -51.5 39.5t-20.5 62.5q0 45 32 77t77 32t77 -32t32 -77q0 -35 -20.5 -62.5t-51.5 -39.5q31 -10 51.5 -39t20.5 -64t-20.5 -62.5t-51.5 -39.5q31 -10 51.5 -39t20.5 -64t-20.5 -62.5 t-51.5 -37.5q31 -12 51.5 -40t20.5 -62q0 -35 -20.5 -63.5t-51.5 -39.5q31 -12 51.5 -39.5t20.5 -62.5q0 -45 -32 -77t-77 -32t-77 32t-32 77q0 35 20.5 62.5t51.5 39.5q-49 16 -65 66q-10 -33 -39 -52.5t-64 -19.5t-62.5 19.5t-39.5 52.5q-10 -33 -39 -52.5t-64 -19.5 t-62.5 19.5t-37.5 52.5q-12 -33 -40 -52.5t-62 -19.5q-47 0 -78 31t-31 78zM176 1102q0 45 31 76.5t78 31.5q35 0 62.5 -20.5t39.5 -50.5q10 31 38 51t62 20q35 0 64 -20.5t39 -50.5q12 31 39.5 51t62.5 20q45 0 77 -31.5t32 -76.5t-32 -77t-77 -32q-35 0 -62.5 20.5 t-39.5 51.5q-10 -31 -39 -51.5t-64 -20.5t-62.5 20.5t-37.5 51.5q-12 -31 -39.5 -51.5t-62.5 -20.5q-47 0 -78 32t-31 77z" />
<glyph unicode="h" d="M-29 80q0 35 20.5 63.5t51.5 38.5q-31 10 -51.5 39t-20.5 64t20.5 62.5t51.5 39.5q-31 10 -51.5 39t-20.5 63q0 35 20.5 63t51.5 40q-31 10 -51.5 37.5t-20.5 62.5t20.5 63.5t51.5 39.5q-31 12 -51.5 39.5t-20.5 62.5t20.5 63.5t51.5 38.5q-31 12 -51.5 40t-20.5 63 t20.5 63.5t51.5 38.5q-31 10 -51.5 39t-20.5 64q0 45 32 76.5t77 31.5t76.5 -31.5t31.5 -76.5q0 -35 -20.5 -64t-50.5 -39q31 -10 51 -38.5t20 -63.5t-20.5 -62.5t-50.5 -40.5q45 -14 65 -65q10 33 39 52.5t64 19.5t62.5 -19.5t39.5 -52.5q10 33 38 52.5t62 19.5 q35 0 64 -19.5t39 -52.5q12 33 39.5 52.5t62.5 19.5q45 0 77 -31t32 -78q0 -45 -32 -77t-77 -32q-35 0 -62.5 20.5t-39.5 51.5q-10 -31 -39 -51.5t-64 -20.5t-62.5 20.5t-37.5 51.5q-12 -31 -40 -51.5t-62 -20.5q-35 0 -63.5 20.5t-39.5 51.5q-18 -47 -65 -65q31 -10 51 -39 t20 -64t-20.5 -62.5t-50.5 -37.5q31 -12 51 -40t20 -63t-20.5 -63.5t-50.5 -38.5q31 -12 51 -40t20 -62q0 -35 -20.5 -63.5t-50.5 -39.5q31 -10 51 -38.5t20 -63.5q0 -45 -31.5 -77t-76.5 -32t-77 32t-32 77zM788 80q0 35 20.5 63.5t51.5 38.5q-31 10 -51.5 39t-20.5 64 t20.5 62.5t51.5 39.5q-31 10 -51.5 39t-20.5 63q0 35 20.5 63t51.5 40q-31 10 -51.5 37.5t-20.5 62.5q0 47 32 78t77 31t77 -31t32 -78q0 -35 -20.5 -62.5t-51.5 -37.5q31 -12 51.5 -40t20.5 -63t-20.5 -63.5t-51.5 -38.5q31 -12 51.5 -40t20.5 -62q0 -35 -20.5 -63.5 t-51.5 -39.5q31 -10 51.5 -38.5t20.5 -63.5q0 -45 -32 -77t-77 -32t-77 32t-32 77z" />
<glyph unicode="i" d="M176 80q0 45 32 76.5t77 31.5q35 0 62.5 -20.5t39.5 -50.5q16 49 66 65q-33 10 -52.5 39t-19.5 64t19.5 62.5t52.5 39.5q-33 10 -52.5 39t-19.5 63q0 35 19.5 63t52.5 40q-33 10 -52.5 37.5t-19.5 62.5t19.5 63.5t52.5 39.5q-33 12 -52.5 39.5t-19.5 62.5q0 47 30.5 78 t77.5 31q45 0 77 -31t32 -78q0 -35 -20.5 -62.5t-51.5 -39.5q31 -10 51.5 -39t20.5 -64t-20.5 -62.5t-51.5 -37.5q31 -12 51.5 -40t20.5 -63t-20.5 -63.5t-51.5 -38.5q31 -12 51.5 -40t20.5 -62q0 -35 -20.5 -63.5t-51.5 -39.5q45 -16 66 -65q10 31 37.5 51t62.5 20 q47 0 78 -31.5t31 -76.5t-31 -77t-78 -32q-35 0 -62.5 20.5t-37.5 51.5q-12 -31 -40 -51.5t-63 -20.5t-63.5 20.5t-38.5 51.5q-12 -31 -40 -51.5t-62 -20.5q-45 0 -77 32t-32 77zM381 1307q0 45 30.5 76.5t77.5 31.5q45 0 77 -31.5t32 -76.5t-32 -77t-77 -32q-47 0 -77.5 32 t-30.5 77z" />
<glyph unicode="j" d="M176 80q0 45 31 76.5t78 31.5q45 0 76.5 -31.5t31.5 -76.5t-31.5 -77t-76.5 -32q-47 0 -78 32t-31 77zM379 -125q0 45 31.5 77t76.5 32q35 0 64 -20.5t39 -51.5q12 31 39.5 51.5t62.5 20.5q45 0 77 -32t32 -77t-32 -76.5t-77 -31.5q-35 0 -62.5 20t-39.5 51 q-10 -31 -39 -51t-64 -20q-45 0 -76.5 31.5t-31.5 76.5zM584 897q0 45 31.5 77t76.5 32q35 0 63.5 -19.5t39.5 -52.5q10 33 38.5 52.5t63.5 19.5q45 0 77 -32t32 -77q0 -35 -20.5 -62.5t-51.5 -39.5q31 -10 51.5 -39t20.5 -64t-20.5 -62.5t-51.5 -39.5q31 -10 51.5 -39 t20.5 -64t-20.5 -62.5t-51.5 -37.5q31 -12 51.5 -40t20.5 -62q0 -35 -20.5 -63.5t-51.5 -39.5q31 -12 51.5 -39.5t20.5 -62.5q0 -45 -32 -77t-77 -32t-77 32t-32 77q0 35 20.5 62.5t51.5 39.5q-31 10 -51.5 39t-20.5 64t20.5 62.5t51.5 39.5q-31 10 -51.5 38t-20.5 62 q0 35 20.5 64t51.5 39q-31 12 -51.5 39.5t-20.5 62.5t20.5 63.5t51.5 39.5q-51 20 -65 65q-10 -31 -39 -51.5t-64 -20.5q-45 0 -76.5 32t-31.5 77zM788 1307q0 45 32 76.5t77 31.5t77 -31.5t32 -76.5t-32 -77t-77 -32t-77 32t-32 77z" />
<glyph unicode="k" d="M-29 80q0 35 20.5 63.5t51.5 38.5q-31 10 -51.5 39t-20.5 64t20.5 62.5t51.5 39.5q-31 10 -51.5 39t-20.5 63q0 35 20.5 63t51.5 40q-31 10 -51.5 37.5t-20.5 62.5t20.5 63.5t51.5 39.5q-31 12 -51.5 39.5t-20.5 62.5t20.5 63.5t51.5 38.5q-31 12 -51.5 40t-20.5 63 t20.5 63.5t51.5 38.5q-31 10 -51.5 39t-20.5 64q0 45 32 76.5t77 31.5t76.5 -31.5t31.5 -76.5q0 -35 -20.5 -64t-50.5 -39q31 -10 51 -38.5t20 -63.5t-20.5 -62.5t-50.5 -40.5q31 -10 51 -38.5t20 -63.5t-20.5 -62.5t-50.5 -39.5q31 -10 51 -39t20 -64t-20.5 -62.5 t-50.5 -37.5q45 -18 65 -66q10 31 39 51.5t64 20.5q45 0 76.5 -31.5t31.5 -77.5q0 -47 -31.5 -77.5t-76.5 -30.5q-35 0 -63.5 19.5t-39.5 52.5q-20 -51 -65 -66q31 -12 51 -40t20 -62q0 -35 -20.5 -63.5t-50.5 -39.5q31 -10 51 -38.5t20 -63.5q0 -45 -31.5 -77t-76.5 -32 t-77 32t-32 77zM379 285q0 45 31.5 76.5t76.5 31.5q47 0 78 -31.5t31 -76.5t-30.5 -77t-78.5 -32q-45 0 -76.5 32t-31.5 77zM379 692q0 47 31.5 78t76.5 31q47 0 78 -31t31 -78q0 -45 -31 -76.5t-78 -31.5q-45 0 -76.5 31.5t-31.5 76.5zM584 80q0 45 31.5 76.5t76.5 31.5 t77 -31.5t32 -76.5t-32 -77t-77 -32t-76.5 32t-31.5 77zM584 897q0 47 31.5 78t76.5 31t77 -31t32 -78q0 -45 -32 -77t-77 -32t-76.5 32t-31.5 77z" />
<glyph unicode="l" d="M176 80q0 45 32 76.5t77 31.5q35 0 62.5 -20.5t39.5 -50.5q16 49 66 65q-33 10 -52.5 39t-19.5 64t19.5 62.5t52.5 39.5q-33 10 -52.5 39t-19.5 63q0 35 19.5 63t52.5 40q-33 10 -52.5 37.5t-19.5 62.5t19.5 63.5t52.5 39.5q-33 12 -52.5 39.5t-19.5 62.5t19.5 63.5 t52.5 38.5q-33 12 -52.5 40t-19.5 63t19.5 63.5t52.5 38.5q-49 16 -66 66q-12 -31 -40 -51.5t-62 -20.5q-45 0 -77 32t-32 77t32 76.5t77 31.5q35 0 62.5 -20.5t39.5 -51.5q10 31 39 51.5t63 20.5q45 0 77 -31.5t32 -76.5q0 -35 -20.5 -64t-51.5 -39q31 -10 51.5 -38.5 t20.5 -63.5t-20.5 -62.5t-51.5 -40.5q31 -10 51.5 -38.5t20.5 -63.5t-20.5 -62.5t-51.5 -39.5q31 -10 51.5 -39t20.5 -64t-20.5 -62.5t-51.5 -37.5q31 -12 51.5 -40t20.5 -63t-20.5 -63.5t-51.5 -38.5q31 -12 51.5 -40t20.5 -62q0 -35 -20.5 -63.5t-51.5 -39.5 q45 -16 66 -65q10 31 37.5 51t62.5 20q47 0 78 -31.5t31 -76.5t-31 -77t-78 -32q-35 0 -62.5 20.5t-37.5 51.5q-12 -31 -40 -51.5t-63 -20.5t-63.5 20.5t-38.5 51.5q-12 -31 -40 -51.5t-62 -20.5q-45 0 -77 32t-32 77z" />
<glyph unicode="m" d="M-29 80q0 35 20.5 63.5t51.5 38.5q-31 10 -51.5 39t-20.5 64t20.5 62.5t51.5 39.5q-31 10 -51.5 39t-20.5 63q0 35 20.5 63t51.5 40q-31 10 -51.5 37.5t-20.5 62.5t20.5 63.5t51.5 39.5q-31 12 -51.5 39.5t-20.5 62.5q0 47 32 78t77 31q35 0 62.5 -19.5t39.5 -52.5 q10 33 39 52.5t64 19.5q45 0 76.5 -31t31.5 -78q0 -45 -31.5 -77t-76.5 -32q-35 0 -63.5 20.5t-39.5 51.5q-18 -47 -65 -65q31 -10 51 -39t20 -64t-20.5 -62.5t-50.5 -37.5q31 -12 51 -40t20 -63t-20.5 -63.5t-50.5 -38.5q31 -12 51 -40t20 -62q0 -35 -20.5 -63.5 t-50.5 -39.5q31 -10 51 -38.5t20 -63.5q0 -45 -31.5 -77t-76.5 -32t-77 32t-32 77zM379 285q0 35 20.5 62.5t53.5 39.5q-33 10 -53.5 39t-20.5 63q0 35 20.5 63t53.5 40q-33 10 -53.5 37.5t-20.5 62.5q0 47 31.5 78t76.5 31q47 0 78 -31t31 -78q0 -35 -19.5 -62.5 t-52.5 -37.5q33 -12 52.5 -40t19.5 -63t-19.5 -63.5t-52.5 -38.5q33 -12 52.5 -40t19.5 -62q0 -45 -30.5 -77t-78.5 -32q-45 0 -76.5 32t-31.5 77zM584 897q0 47 31.5 78t76.5 31q35 0 63.5 -19.5t39.5 -52.5q10 33 38.5 52.5t63.5 19.5q45 0 77 -31t32 -78 q0 -35 -20.5 -62.5t-51.5 -39.5q31 -10 51.5 -39t20.5 -64t-20.5 -62.5t-51.5 -37.5q31 -12 51.5 -40t20.5 -63t-20.5 -63.5t-51.5 -38.5q31 -12 51.5 -40t20.5 -62q0 -35 -20.5 -63.5t-51.5 -39.5q31 -10 51.5 -38.5t20.5 -63.5q0 -45 -32 -77t-77 -32t-77 32t-32 77 q0 35 20.5 63.5t51.5 38.5q-31 10 -51.5 39t-20.5 64t20.5 62.5t51.5 39.5q-31 10 -51.5 39t-20.5 63q0 35 20.5 63t51.5 40q-31 10 -51.5 37.5t-20.5 62.5t20.5 63.5t51.5 39.5q-51 20 -65 65q-10 -31 -39 -51.5t-64 -20.5q-45 0 -76.5 32t-31.5 77z" />
<glyph unicode="n" d="M-29 80q0 35 20.5 63.5t51.5 38.5q-31 10 -51.5 39t-20.5 64t20.5 62.5t51.5 39.5q-31 10 -51.5 39t-20.5 63q0 35 20.5 63t51.5 40q-31 10 -51.5 37.5t-20.5 62.5t20.5 63.5t51.5 39.5q-31 12 -51.5 39.5t-20.5 62.5q0 47 32 78t77 31q35 0 62.5 -19.5t39.5 -52.5 q10 33 39 52.5t64 19.5t62.5 -19.5t39.5 -52.5q10 33 38 52.5t62 19.5q35 0 64 -19.5t39 -52.5q12 33 39.5 52.5t62.5 19.5q45 0 77 -31t32 -78q0 -45 -32 -77t-77 -32q-35 0 -62.5 20.5t-39.5 51.5q-10 -31 -39 -51.5t-64 -20.5t-62.5 20.5t-37.5 51.5q-12 -31 -40 -51.5 t-62 -20.5q-35 0 -63.5 20.5t-39.5 51.5q-18 -47 -65 -65q31 -10 51 -39t20 -64t-20.5 -62.5t-50.5 -37.5q31 -12 51 -40t20 -63t-20.5 -63.5t-50.5 -38.5q31 -12 51 -40t20 -62q0 -35 -20.5 -63.5t-50.5 -39.5q31 -10 51 -38.5t20 -63.5q0 -45 -31.5 -77t-76.5 -32t-77 32 t-32 77zM788 80q0 35 20.5 63.5t51.5 38.5q-31 10 -51.5 39t-20.5 64t20.5 62.5t51.5 39.5q-31 10 -51.5 39t-20.5 63q0 35 20.5 63t51.5 40q-31 10 -51.5 37.5t-20.5 62.5q0 47 32 78t77 31t77 -31t32 -78q0 -35 -20.5 -62.5t-51.5 -37.5q31 -12 51.5 -40t20.5 -63 t-20.5 -63.5t-51.5 -38.5q31 -12 51.5 -40t20.5 -62q0 -35 -20.5 -63.5t-51.5 -39.5q31 -10 51.5 -38.5t20.5 -63.5q0 -45 -32 -77t-77 -32t-77 32t-32 77z" />
<glyph unicode="o" d="M-29 285q0 35 20.5 62.5t51.5 39.5q-31 10 -51.5 39t-20.5 63q0 35 20.5 63t51.5 40q-31 10 -51.5 37.5t-20.5 62.5q0 47 32 78t77 31t76.5 -31t31.5 -78q0 -35 -20.5 -62.5t-50.5 -37.5q31 -12 51 -40t20 -63t-20 -63.5t-51 -38.5q31 -12 51 -40t20 -62q0 -45 -31.5 -77 t-76.5 -32t-77 32t-32 77zM176 80q0 45 31 76.5t78 31.5q35 0 62.5 -20.5t39.5 -50.5q10 31 38 51t62 20q35 0 64 -20.5t39 -50.5q12 31 39.5 51t62.5 20q45 0 77 -31.5t32 -76.5t-32 -77t-77 -32q-35 0 -62.5 20.5t-39.5 51.5q-10 -31 -39 -51.5t-64 -20.5t-62.5 20.5 t-37.5 51.5q-12 -31 -40 -51.5t-62 -20.5q-47 0 -78 32t-31 77zM176 897q0 47 31 78t78 31q35 0 62.5 -19.5t39.5 -52.5q10 33 38 52.5t62 19.5q35 0 64 -19.5t39 -52.5q12 33 39.5 52.5t62.5 19.5q45 0 77 -31t32 -78q0 -45 -32 -77t-77 -32q-35 0 -62.5 20.5t-39.5 51.5 q-10 -31 -39 -51.5t-64 -20.5t-62.5 20.5t-37.5 51.5q-12 -31 -39.5 -51.5t-62.5 -20.5q-47 0 -78 32t-31 77zM788 285q0 35 20.5 62.5t51.5 39.5q-31 10 -51.5 39t-20.5 63q0 35 20.5 63t51.5 40q-31 10 -51.5 37.5t-20.5 62.5q0 47 32 78t77 31t77 -31t32 -78 q0 -35 -20.5 -62.5t-51.5 -37.5q31 -12 51.5 -40t20.5 -63t-20.5 -63.5t-51.5 -38.5q31 -12 51.5 -40t20.5 -62q0 -45 -32 -77t-77 -32t-77 32t-32 77z" />
<glyph unicode="p" d="M-29 80q0 35 20.5 62.5t51.5 39.5q-31 10 -51.5 39t-20.5 64t20.5 62.5t51.5 39.5q-31 10 -51.5 38t-20.5 62q0 35 20.5 64t51.5 39q-31 12 -51.5 39.5t-20.5 62.5t20.5 63.5t51.5 39.5q-31 12 -51.5 39.5t-20.5 62.5q0 45 32 77t77 32q35 0 62.5 -19.5t39.5 -52.5 q10 33 39 52.5t64 19.5t62.5 -19.5t39.5 -52.5q10 33 38 52.5t62 19.5q35 0 64 -19.5t39 -52.5q12 33 39.5 52.5t62.5 19.5q45 0 77 -32t32 -77t-32 -77t-77 -32q-35 0 -62.5 20.5t-39.5 51.5q-10 -31 -39 -51.5t-64 -20.5t-62.5 20.5t-37.5 51.5q-12 -31 -40 -51.5 t-62 -20.5q-35 0 -63.5 20.5t-39.5 51.5q-18 -47 -65 -65q31 -10 51 -39t20 -64t-20.5 -62.5t-50.5 -39.5q31 -10 51 -39t20 -64t-20.5 -62.5t-50.5 -37.5q45 -18 65 -65q10 31 39 51t64 20t62.5 -20.5t39.5 -50.5q10 31 38 51t62 20q35 0 64 -20.5t39 -50.5q12 31 39.5 51 t62.5 20q45 0 77 -31.5t32 -76.5q0 -47 -32 -78t-77 -31q-35 0 -62.5 19.5t-39.5 52.5q-10 -33 -39 -52.5t-64 -19.5t-62.5 19.5t-37.5 52.5q-12 -33 -40 -52.5t-62 -19.5q-35 0 -63.5 19.5t-39.5 52.5q-20 -51 -65 -66q31 -12 51 -39.5t20 -62.5t-20.5 -63.5t-50.5 -39.5 q31 -10 51 -38.5t20 -63.5q0 -45 -31.5 -76.5t-76.5 -31.5t-77 31.5t-32 76.5q0 35 20.5 63.5t51.5 38.5q-31 10 -51.5 39t-20.5 64zM788 487q0 35 20.5 64t51.5 39q-31 12 -51.5 39.5t-20.5 62.5q0 47 32 78t77 31t77 -31t32 -78q0 -35 -20.5 -62.5t-51.5 -39.5 q31 -10 51.5 -39t20.5 -64q0 -45 -32 -76.5t-77 -31.5t-77 31.5t-32 76.5z" />
<glyph unicode="q" d="M-29 487q0 35 20.5 64t51.5 39q-31 12 -51.5 39.5t-20.5 62.5q0 47 32 78t77 31t76.5 -31t31.5 -78q0 -35 -20.5 -62.5t-50.5 -39.5q31 -10 51 -39t20 -64q0 -45 -31.5 -76.5t-76.5 -31.5t-77 31.5t-32 76.5zM176 285q0 45 31 76.5t78 31.5q35 0 62.5 -20.5t39.5 -50.5 q10 31 38 51t62 20q35 0 64 -20.5t39 -50.5q12 31 39.5 51t62.5 20t63.5 -20.5t39.5 -50.5q16 45 65 65q-31 10 -51.5 38t-20.5 62q0 35 20.5 64t51.5 39q-31 12 -51.5 39.5t-20.5 62.5t20.5 63.5t51.5 39.5q-51 20 -65 65q-10 -31 -39 -51.5t-64 -20.5t-62.5 20.5 t-39.5 51.5q-10 -31 -39 -51.5t-64 -20.5t-62.5 20.5t-37.5 51.5q-12 -31 -40 -51.5t-62 -20.5q-47 0 -78 32t-31 77t31 77t78 32q35 0 62.5 -19.5t39.5 -52.5q10 33 38 52.5t62 19.5q35 0 64 -19.5t39 -52.5q12 33 39.5 52.5t62.5 19.5t63.5 -19.5t39.5 -52.5 q10 33 38.5 52.5t63.5 19.5q45 0 77 -32t32 -77q0 -35 -20.5 -62.5t-51.5 -39.5q31 -10 51.5 -39t20.5 -64t-20.5 -62.5t-51.5 -39.5q31 -10 51.5 -39t20.5 -64t-20.5 -62.5t-51.5 -37.5q31 -12 51.5 -40t20.5 -62q0 -35 -20.5 -63.5t-51.5 -39.5q31 -12 51.5 -39.5 t20.5 -62.5t-20.5 -63.5t-51.5 -39.5q31 -10 51.5 -38.5t20.5 -63.5q0 -45 -32 -76.5t-77 -31.5t-77 31.5t-32 76.5q0 35 20.5 63.5t51.5 38.5q-31 10 -51.5 39t-20.5 64t20.5 62.5t51.5 39.5q-49 16 -65 66q-10 -33 -39 -52.5t-64 -19.5t-62.5 19.5t-39.5 52.5 q-10 -33 -39 -52.5t-64 -19.5t-62.5 19.5t-37.5 52.5q-12 -33 -40 -52.5t-62 -19.5q-47 0 -78 31t-31 78z" />
<glyph unicode="r" d="M-29 80q0 35 20.5 63.5t51.5 38.5q-31 10 -51.5 39t-20.5 64t20.5 62.5t51.5 39.5q-31 10 -51.5 39t-20.5 63q0 35 20.5 63t51.5 40q-31 10 -51.5 37.5t-20.5 62.5t20.5 63.5t51.5 39.5q-31 12 -51.5 39.5t-20.5 62.5q0 47 32 78t77 31t76.5 -31t31.5 -78 q0 -35 -20.5 -62.5t-50.5 -39.5q45 -14 65 -66q10 33 39 52.5t64 19.5q45 0 76.5 -31t31.5 -78q0 -45 -31.5 -76.5t-76.5 -31.5q-35 0 -63.5 20.5t-39.5 50.5q-10 -23 -26.5 -39t-38.5 -24q31 -12 51 -40t20 -63t-20.5 -63.5t-50.5 -38.5q31 -12 51 -40t20 -62 q0 -35 -20.5 -63.5t-50.5 -39.5q31 -10 51 -38.5t20 -63.5q0 -45 -31.5 -77t-76.5 -32t-77 32t-32 77zM379 897q0 47 31.5 78t76.5 31q35 0 64 -19.5t39 -52.5q12 33 39.5 52.5t62.5 19.5t63.5 -19.5t39.5 -52.5q10 33 38.5 52.5t63.5 19.5q45 0 77 -31t32 -78 q0 -45 -32 -77t-77 -32q-35 0 -63.5 20.5t-38.5 51.5q-10 -31 -39 -51.5t-64 -20.5t-62.5 20.5t-39.5 51.5q-10 -31 -39 -51.5t-64 -20.5q-45 0 -76.5 32t-31.5 77z" />
<glyph unicode="s" d="M-29 80q0 45 32 76.5t77 31.5q35 0 62.5 -20.5t39.5 -50.5q10 31 39 51t64 20t62.5 -20.5t39.5 -50.5q10 31 38 51t62 20q35 0 64 -20.5t39 -50.5q12 31 39.5 51t62.5 20q45 0 77 -31.5t32 -76.5t-32 -77t-77 -32q-35 0 -62.5 20.5t-39.5 51.5q-10 -31 -39 -51.5 t-64 -20.5t-62.5 20.5t-37.5 51.5q-12 -31 -40 -51.5t-62 -20.5q-35 0 -63.5 20.5t-39.5 51.5q-12 -31 -39.5 -51.5t-62.5 -20.5q-45 0 -77 32t-32 77zM-29 692q0 47 32 78t77 31t76.5 -31t31.5 -78q0 -45 -31.5 -76.5t-76.5 -31.5t-77 31.5t-32 76.5zM176 489q0 45 31 77 t78 32q35 0 62.5 -20.5t39.5 -51.5q10 31 38 51.5t62 20.5q35 0 64 -20.5t39 -51.5q12 31 39.5 51.5t62.5 20.5q45 0 77 -31.5t32 -77.5q0 -47 -32 -77.5t-77 -30.5q-35 0 -62.5 19.5t-39.5 52.5q-10 -33 -39 -52.5t-64 -19.5t-62.5 19.5t-37.5 52.5q-12 -33 -40 -52.5 t-62 -19.5q-47 0 -78 30.5t-31 77.5zM176 897q0 47 31 78t78 31q35 0 62.5 -19.5t39.5 -52.5q10 33 38 52.5t62 19.5q35 0 64 -19.5t39 -52.5q12 33 39.5 52.5t62.5 19.5t63.5 -19.5t39.5 -52.5q10 33 38.5 52.5t63.5 19.5q45 0 77 -31t32 -78q0 -45 -32 -77t-77 -32 q-35 0 -63.5 20.5t-38.5 51.5q-10 -31 -39 -51.5t-64 -20.5t-62.5 20.5t-39.5 51.5q-10 -31 -39 -51.5t-64 -20.5t-62.5 20.5t-37.5 51.5q-12 -31 -39.5 -51.5t-62.5 -20.5q-47 0 -78 32t-31 77zM788 285q0 45 32 76.5t77 31.5t77 -31.5t32 -76.5t-32 -77t-77 -32t-77 32 t-32 77z" />
<glyph unicode="t" d="M176 897q0 47 32 78t77 31q35 0 62.5 -19.5t39.5 -52.5q16 49 66 65q-33 12 -52.5 40t-19.5 63t19.5 63.5t52.5 38.5q-33 10 -52.5 39t-19.5 64q0 45 30.5 76.5t77.5 31.5q45 0 77 -31.5t32 -76.5q0 -35 -20.5 -64t-51.5 -39q31 -10 51.5 -38.5t20.5 -63.5t-20.5 -62.5 t-51.5 -40.5q45 -16 66 -65q10 33 37.5 52.5t62.5 19.5q47 0 78 -31t31 -78q0 -45 -31 -77t-78 -32q-35 0 -62.5 20.5t-37.5 51.5q-18 -45 -66 -65q31 -10 51.5 -39t20.5 -64t-20.5 -62.5t-51.5 -37.5q31 -12 51.5 -40t20.5 -63t-20.5 -63.5t-51.5 -38.5q31 -12 51.5 -40 t20.5 -62q0 -45 -31.5 -77t-77.5 -32q-47 0 -77.5 32t-30.5 77q0 35 19.5 62.5t52.5 39.5q-33 10 -52.5 39t-19.5 63q0 35 19.5 63t52.5 40q-33 10 -52.5 37.5t-19.5 62.5t19.5 63.5t52.5 39.5q-51 20 -66 65q-12 -31 -40 -51.5t-62 -20.5q-45 0 -77 32t-32 77zM584 80 q0 45 31.5 76.5t76.5 31.5q47 0 78 -31.5t31 -76.5t-31 -77t-78 -32q-45 0 -76.5 32t-31.5 77zM788 285q0 45 32 76.5t77 31.5t77 -31.5t32 -76.5t-32 -77t-77 -32t-77 32t-32 77z" />
<glyph unicode="u" d="M-29 285q0 35 20.5 62.5t51.5 39.5q-31 10 -51.5 39t-20.5 63q0 35 20.5 63t51.5 40q-31 10 -51.5 37.5t-20.5 62.5t20.5 63.5t51.5 39.5q-31 12 -51.5 39.5t-20.5 62.5q0 47 32 78t77 31t76.5 -31t31.5 -78q0 -35 -20.5 -62.5t-50.5 -39.5q31 -10 51 -39t20 -64 t-20.5 -62.5t-50.5 -37.5q31 -12 51 -40t20 -63t-20 -63.5t-51 -38.5q31 -12 51 -40t20 -62q0 -45 -31.5 -77t-76.5 -32t-77 32t-32 77zM176 80q0 45 31 76.5t78 31.5q35 0 62.5 -20.5t39.5 -50.5q10 31 38 51t62 20q35 0 64 -20.5t39 -50.5q12 31 39.5 51t62.5 20 q45 0 77 -31.5t32 -76.5t-32 -77t-77 -32q-35 0 -62.5 20.5t-39.5 51.5q-10 -31 -39 -51.5t-64 -20.5t-62.5 20.5t-37.5 51.5q-12 -31 -40 -51.5t-62 -20.5q-47 0 -78 32t-31 77zM788 285q0 35 20.5 62.5t51.5 39.5q-31 10 -51.5 39t-20.5 63q0 35 20.5 63t51.5 40 q-31 10 -51.5 37.5t-20.5 62.5t20.5 63.5t51.5 39.5q-31 12 -51.5 39.5t-20.5 62.5q0 47 32 78t77 31t77 -31t32 -78q0 -35 -20.5 -62.5t-51.5 -39.5q31 -10 51.5 -39t20.5 -64t-20.5 -62.5t-51.5 -37.5q31 -12 51.5 -40t20.5 -63t-20.5 -63.5t-51.5 -38.5q31 -12 51.5 -40 t20.5 -62q0 -45 -32 -77t-77 -32t-77 32t-32 77z" />
<glyph unicode="v" d="M-29 489q0 35 20.5 63t51.5 40q-31 10 -51.5 37.5t-20.5 62.5t20.5 63.5t51.5 39.5q-31 12 -51.5 39.5t-20.5 62.5q0 47 32 78t77 31t76.5 -31t31.5 -78q0 -35 -20.5 -62.5t-50.5 -39.5q31 -10 51 -39t20 -64t-20 -62.5t-51 -37.5q31 -12 51 -40t20 -63 q0 -47 -31.5 -77.5t-76.5 -30.5t-77 30.5t-32 77.5zM176 285q0 45 31 76.5t78 31.5q45 0 76.5 -31.5t31.5 -76.5t-31.5 -77t-76.5 -32q-47 0 -78 32t-31 77zM379 80q0 45 31.5 76.5t76.5 31.5q47 0 78 -31.5t31 -76.5t-30.5 -77t-78.5 -32q-45 0 -76.5 32t-31.5 77zM584 285 q0 45 31.5 76.5t76.5 31.5t77 -31.5t32 -76.5t-32 -77t-77 -32t-76.5 32t-31.5 77zM788 489q0 35 20.5 63t51.5 40q-31 10 -51.5 37.5t-20.5 62.5t20.5 63.5t51.5 39.5q-31 12 -51.5 39.5t-20.5 62.5q0 47 32 78t77 31t77 -31t32 -78q0 -35 -20.5 -62.5t-51.5 -39.5 q31 -10 51.5 -39t20.5 -64t-20.5 -62.5t-51.5 -37.5q31 -12 51.5 -40t20.5 -63q0 -47 -32 -77.5t-77 -30.5t-77 30.5t-32 77.5z" />
<glyph unicode="w" d="M-29 285q0 35 20.5 62.5t51.5 39.5q-31 10 -51.5 39t-20.5 63q0 35 20.5 63t51.5 40q-31 10 -51.5 37.5t-20.5 62.5t20.5 63.5t51.5 39.5q-31 12 -51.5 39.5t-20.5 62.5q0 47 32 78t77 31t76.5 -31t31.5 -78q0 -35 -20.5 -62.5t-50.5 -39.5q31 -10 51 -39t20 -64 t-20.5 -62.5t-50.5 -37.5q31 -12 51 -40t20 -63t-20 -63.5t-51 -38.5q31 -12 51 -40t20 -62q0 -45 -31.5 -77t-76.5 -32t-77 32t-32 77zM176 80q0 45 31 76.5t78 31.5q45 0 76.5 -31.5t31.5 -76.5t-31.5 -77t-76.5 -32q-47 0 -78 32t-31 77zM379 285q0 35 20.5 62.5 t53.5 39.5q-33 10 -53.5 39t-20.5 63q0 45 31.5 77t76.5 32q47 0 78 -31.5t31 -77.5q0 -35 -19.5 -63.5t-52.5 -38.5q33 -12 52.5 -40t19.5 -62q0 -45 -30.5 -77t-78.5 -32q-45 0 -76.5 32t-31.5 77zM584 80q0 45 31.5 76.5t76.5 31.5t77 -31.5t32 -76.5t-32 -77t-77 -32 t-76.5 32t-31.5 77zM788 285q0 35 20.5 62.5t51.5 39.5q-31 10 -51.5 39t-20.5 63q0 35 20.5 63t51.5 40q-31 10 -51.5 37.5t-20.5 62.5t20.5 63.5t51.5 39.5q-31 12 -51.5 39.5t-20.5 62.5q0 47 32 78t77 31t77 -31t32 -78q0 -35 -20.5 -62.5t-51.5 -39.5q31 -10 51.5 -39 t20.5 -64t-20.5 -62.5t-51.5 -37.5q31 -12 51.5 -40t20.5 -63t-20.5 -63.5t-51.5 -38.5q31 -12 51.5 -40t20.5 -62q0 -45 -32 -77t-77 -32t-77 32t-32 77z" />
<glyph unicode="x" d="M-29 80q0 45 32 76.5t77 31.5t76.5 -31.5t31.5 -76.5t-31.5 -77t-76.5 -32t-77 32t-32 77zM-29 897q0 47 32 78t77 31t76.5 -31t31.5 -78q0 -45 -31.5 -77t-76.5 -32t-77 32t-32 77zM176 285q0 45 31 76.5t78 31.5q45 0 76.5 -31.5t31.5 -76.5t-31.5 -77t-76.5 -32 q-47 0 -78 32t-31 77zM176 692q0 47 31 78t78 31q45 0 76.5 -31t31.5 -78q0 -45 -31.5 -76.5t-76.5 -31.5q-47 0 -78 31.5t-31 76.5zM379 489q0 45 31.5 77t76.5 32q47 0 78 -32t31 -77q0 -47 -30.5 -77.5t-78.5 -30.5q-45 0 -76.5 30.5t-31.5 77.5zM584 285q0 45 31.5 76.5 t76.5 31.5t77 -31.5t32 -76.5t-32 -77t-77 -32t-76.5 32t-31.5 77zM584 692q0 47 31.5 78t76.5 31t77 -31t32 -78q0 -45 -32 -76.5t-77 -31.5t-76.5 31.5t-31.5 76.5zM788 80q0 45 32 76.5t77 31.5t77 -31.5t32 -76.5t-32 -77t-77 -32t-77 32t-32 77zM788 897q0 47 32 78 t77 31t77 -31t32 -78q0 -45 -32 -77t-77 -32t-77 32t-32 77z" />
<glyph unicode="y" d="M-29 487q0 35 20.5 64t51.5 39q-31 12 -51.5 39.5t-20.5 62.5t20.5 63.5t51.5 39.5q-31 12 -51.5 39.5t-20.5 62.5q0 45 32 77t77 32t76.5 -32t31.5 -77q0 -35 -20.5 -62.5t-50.5 -39.5q31 -10 51 -39t20 -64t-20 -62.5t-51 -39.5q31 -10 51 -39t20 -64 q0 -45 -31.5 -76.5t-76.5 -31.5t-77 31.5t-32 76.5zM176 -125q0 45 31 77t78 32q35 0 62.5 -20.5t39.5 -51.5q10 31 38 51.5t62 20.5q35 0 64 -20.5t39 -51.5q12 31 39.5 51.5t62.5 20.5q45 0 77 -32t32 -77t-32 -76.5t-77 -31.5q-35 0 -62.5 20t-39.5 51q-10 -31 -39 -51 t-64 -20t-62.5 20t-37.5 51q-12 -31 -40 -51t-62 -20q-47 0 -78 31.5t-31 76.5zM176 285q0 45 31 76.5t78 31.5q35 0 62.5 -20.5t39.5 -50.5q10 31 38 51t62 20q35 0 64 -20.5t39 -50.5q12 31 39.5 51t62.5 20t63.5 -20.5t39.5 -50.5q16 45 65 65q-31 10 -51.5 38t-20.5 62 q0 35 20.5 64t51.5 39q-31 12 -51.5 39.5t-20.5 62.5t20.5 63.5t51.5 39.5q-31 12 -51.5 39.5t-20.5 62.5q0 45 32 77t77 32t77 -32t32 -77q0 -35 -20.5 -62.5t-51.5 -39.5q31 -10 51.5 -39t20.5 -64t-20.5 -62.5t-51.5 -39.5q31 -10 51.5 -39t20.5 -64t-20.5 -62.5 t-51.5 -37.5q31 -12 51.5 -40t20.5 -62q0 -35 -20.5 -63.5t-51.5 -39.5q31 -12 51.5 -39.5t20.5 -62.5q0 -45 -32 -77t-77 -32t-77 32t-32 77q0 35 20.5 62.5t51.5 39.5q-49 16 -65 66q-10 -33 -39 -52.5t-64 -19.5t-62.5 19.5t-39.5 52.5q-10 -33 -39 -52.5t-64 -19.5 t-62.5 19.5t-37.5 52.5q-12 -33 -40 -52.5t-62 -19.5q-47 0 -78 31t-31 78z" />
<glyph unicode="z" d="M-29 80q0 45 32 76.5t77 31.5q35 0 62.5 -20.5t39.5 -50.5q16 49 66 65q-33 10 -52.5 39t-19.5 64q0 45 31 76.5t78 31.5q45 0 76.5 -31.5t31.5 -76.5q0 -35 -20.5 -63.5t-50.5 -39.5q45 -16 65 -65q10 31 38 51t62 20q35 0 64 -20.5t39 -50.5q12 31 39.5 51t62.5 20 t63.5 -20.5t39.5 -50.5q10 31 38.5 51t63.5 20q45 0 77 -31.5t32 -76.5t-32 -77t-77 -32q-35 0 -63.5 20.5t-38.5 51.5q-10 -31 -39 -51.5t-64 -20.5t-62.5 20.5t-39.5 51.5q-10 -31 -39 -51.5t-64 -20.5t-62.5 20.5t-37.5 51.5q-12 -31 -40 -51.5t-62 -20.5 q-35 0 -63.5 20.5t-39.5 51.5q-12 -31 -39.5 -51.5t-62.5 -20.5q-45 0 -77 32t-32 77zM-29 897q0 47 32 78t77 31q35 0 62.5 -19.5t39.5 -52.5q10 33 39 52.5t64 19.5t62.5 -19.5t39.5 -52.5q10 33 38 52.5t62 19.5q35 0 64 -19.5t39 -52.5q12 33 39.5 52.5t62.5 19.5 t63.5 -19.5t39.5 -52.5q10 33 38.5 52.5t63.5 19.5q45 0 77 -31t32 -78q0 -45 -32 -77t-77 -32q-35 0 -63.5 20.5t-38.5 51.5q-14 -45 -66 -65q33 -10 52.5 -39t19.5 -64q0 -45 -32 -76.5t-77 -31.5t-76.5 31.5t-31.5 76.5q0 35 20.5 63.5t50.5 39.5q-47 18 -65 65 q-10 -31 -39 -51.5t-64 -20.5t-62.5 20.5t-37.5 51.5q-12 -31 -40 -51.5t-62 -20.5q-35 0 -63.5 20.5t-39.5 51.5q-12 -31 -39.5 -51.5t-62.5 -20.5q-45 0 -77 32t-32 77zM379 489q0 45 31.5 77t76.5 32q47 0 78 -31.5t31 -77.5q0 -47 -30.5 -77.5t-78.5 -30.5 q-45 0 -76.5 30.5t-31.5 77.5z" />
<glyph unicode="{" d="M176 692q0 47 32 78t77 31t76.5 -31t31.5 -78q0 -45 -31.5 -76.5t-76.5 -31.5t-77 31.5t-32 76.5zM381 285q0 35 19.5 62.5t52.5 39.5q-33 10 -52.5 38.5t-19.5 63.5q0 45 30.5 77t77.5 32q45 0 77 -31.5t32 -77.5q0 -35 -20.5 -63.5t-51.5 -38.5q31 -12 51.5 -40 t20.5 -62q0 -45 -31.5 -77t-77.5 -32q-47 0 -77.5 32t-30.5 77zM381 897q0 35 19.5 63.5t52.5 38.5q-33 12 -52.5 40t-19.5 63q0 45 30.5 76.5t77.5 31.5q45 0 77 -31.5t32 -76.5q0 -35 -20.5 -63t-51.5 -40q31 -10 51.5 -38.5t20.5 -63.5q0 -45 -31.5 -77t-77.5 -32 q-47 0 -77.5 32t-30.5 77zM584 80q0 45 31.5 76.5t76.5 31.5q35 0 63.5 -20.5t39.5 -50.5q12 31 39.5 51t62.5 20q45 0 77 -31.5t32 -76.5t-32 -77t-77 -32q-35 0 -62.5 20.5t-39.5 51.5q-10 -31 -39 -51.5t-64 -20.5q-45 0 -76.5 32t-31.5 77zM584 1307q0 45 31.5 76.5 t76.5 31.5q35 0 63.5 -20.5t39.5 -51.5q12 31 39.5 51.5t62.5 20.5q45 0 77 -31.5t32 -76.5t-32 -77t-77 -32q-35 0 -62.5 20.5t-39.5 51.5q-10 -31 -39 -51.5t-64 -20.5q-45 0 -76.5 32t-31.5 77z" />
<glyph unicode="|" d="M381 80q0 35 20.5 63.5t51.5 38.5q-31 10 -51.5 39t-20.5 64t20.5 62.5t51.5 39.5q-31 10 -51.5 39t-20.5 63q0 35 20.5 63t51.5 40q-31 10 -51.5 37.5t-20.5 62.5t20.5 63.5t51.5 39.5q-31 12 -51.5 39.5t-20.5 62.5t20.5 63.5t51.5 38.5q-31 12 -51.5 40t-20.5 63 t20.5 63.5t51.5 38.5q-31 10 -51.5 39t-20.5 64q0 45 31.5 76.5t76.5 31.5t77 -31.5t32 -76.5q0 -35 -20.5 -64t-51.5 -39q31 -10 51.5 -38.5t20.5 -63.5t-20.5 -62.5t-51.5 -40.5q31 -10 51.5 -38.5t20.5 -63.5t-20.5 -62.5t-51.5 -39.5q31 -10 51.5 -39t20.5 -64 t-20.5 -62.5t-51.5 -37.5q31 -12 51.5 -40t20.5 -63t-20.5 -63.5t-51.5 -38.5q31 -12 51.5 -39.5t20.5 -62.5t-20.5 -63.5t-51.5 -39.5q31 -10 51.5 -38.5t20.5 -63.5q0 -45 -31.5 -77t-77.5 -32q-45 0 -76.5 32t-31.5 77z" />
<glyph unicode="}" d="M-29 80q0 45 32 76.5t77 31.5q35 0 62.5 -20.5t39.5 -50.5q10 31 39 51t64 20q45 0 76.5 -31.5t31.5 -76.5t-31.5 -77t-76.5 -32q-35 0 -63.5 20.5t-39.5 51.5q-12 -31 -39.5 -51.5t-62.5 -20.5q-45 0 -77 32t-32 77zM-29 1307q0 45 32 76.5t77 31.5q35 0 62.5 -20.5 t39.5 -51.5q10 31 39 51.5t64 20.5q45 0 76.5 -31.5t31.5 -76.5t-31.5 -77t-76.5 -32q-35 0 -63.5 20.5t-39.5 51.5q-12 -31 -39.5 -51.5t-62.5 -20.5q-45 0 -77 32t-32 77zM379 285q0 35 20.5 62.5t53.5 39.5q-33 10 -53.5 39t-20.5 63q0 45 31.5 77t76.5 32q47 0 78 -31.5 t31 -77.5q0 -35 -19.5 -63.5t-52.5 -38.5q33 -12 52.5 -40t19.5 -62q0 -45 -30.5 -77t-78.5 -32q-45 0 -76.5 32t-31.5 77zM379 897q0 35 20.5 63.5t53.5 38.5q-33 12 -53.5 40t-20.5 63q0 45 31.5 76.5t76.5 31.5q47 0 78 -31.5t31 -76.5q0 -35 -19.5 -62.5t-52.5 -40.5 q33 -10 52.5 -38.5t19.5 -63.5q0 -45 -30.5 -77t-78.5 -32q-45 0 -76.5 32t-31.5 77zM584 692q0 47 31.5 78t76.5 31t77 -31t32 -78q0 -45 -32 -76.5t-77 -31.5t-76.5 31.5t-31.5 76.5z" />
<glyph unicode="~" d="M-29 1102q0 45 32 76.5t77 31.5t76.5 -31.5t31.5 -76.5t-31.5 -77t-76.5 -32t-77 32t-32 77zM176 1307q0 45 31 76.5t78 31.5q45 0 76.5 -31.5t31.5 -76.5q0 -47 -31.5 -78t-76.5 -31q-47 0 -78 31t-31 78zM379 1102q0 45 31.5 76.5t76.5 31.5q47 0 78 -31.5t31 -76.5 t-30.5 -77t-78.5 -32q-45 0 -76.5 32t-31.5 77zM584 897q0 45 31.5 77t76.5 32t77 -32t32 -77t-32 -77t-77 -32t-76.5 32t-31.5 77zM788 1102q0 45 32 76.5t77 31.5t77 -31.5t32 -76.5t-32 -77t-77 -32t-77 32t-32 77z" />
<glyph unicode="&#xa0;" />
<glyph unicode="&#xa9;" d="M-29 489q0 35 20.5 63t51.5 40q-31 10 -51.5 38.5t-20.5 63.5t20.5 62.5t51.5 40.5q-31 10 -51.5 37.5t-20.5 62.5q0 47 32 78t77 31t76.5 -31t31.5 -78q0 -35 -20 -62.5t-51 -37.5q45 -18 65 -66q10 31 39 51.5t64 20.5q45 0 76.5 -32t31.5 -77q0 -47 -31.5 -77.5 t-76.5 -30.5q-35 0 -63.5 19.5t-39.5 51.5q-20 -51 -65 -65q31 -12 51 -40t20 -63q0 -45 -31.5 -76.5t-76.5 -31.5t-77 31.5t-32 76.5zM176 285q0 45 31 76.5t78 31.5q35 0 62.5 -20.5t39.5 -50.5q16 49 66 65q-33 10 -53.5 39t-20.5 63q0 45 31.5 77t76.5 32q35 0 64 -20.5 t39 -51.5q12 31 39.5 51.5t62.5 20.5t63.5 -20.5t39.5 -51.5q14 45 65 66q-31 10 -51.5 38.5t-20.5 63.5t20.5 62.5t51.5 40.5q-49 16 -65 63q-10 -31 -39 -51.5t-64 -20.5t-62.5 20.5t-39.5 51.5q-10 -31 -39 -51.5t-64 -20.5q-45 0 -76.5 32t-31.5 77q0 35 20.5 63.5 t53.5 38.5q-51 20 -66 66q-12 -31 -40 -51.5t-62 -20.5q-47 0 -78 32t-31 77q0 47 31 77.5t78 30.5q35 0 62.5 -19.5t39.5 -51.5q10 33 38 52t62 19q35 0 64 -19.5t39 -51.5q12 33 39.5 52t62.5 19q45 0 77 -30.5t32 -77.5q0 -35 -19.5 -62.5t-52.5 -40.5q49 -16 66 -65 q10 33 38.5 52.5t63.5 19.5q45 0 77 -31t32 -78q0 -35 -20.5 -62.5t-51.5 -37.5q31 -12 51.5 -40t20.5 -63t-20.5 -63.5t-51.5 -38.5q31 -12 51.5 -40t20.5 -63q0 -45 -32 -76.5t-77 -31.5q-35 0 -63.5 19.5t-38.5 52.5q-16 -49 -66 -66q33 -10 52.5 -39t19.5 -63 q0 -45 -32 -77t-77 -32q-35 0 -62.5 20.5t-39.5 51.5q-10 -31 -39 -51.5t-64 -20.5t-62.5 20.5t-37.5 51.5q-12 -31 -40 -51.5t-62 -20.5q-47 0 -78 32t-31 77zM524 387q49 -16 66 -65q20 51 65 65q-45 15 -65 66q-16 -49 -66 -66zM524 999q49 -16 66 -65q20 51 65 65 q-47 19 -65 66q-14 -45 -66 -66z" />
<glyph unicode="&#xad;" d="M-29 692q0 45 32 77t77 32q35 0 62.5 -20.5t39.5 -51.5q10 31 39 51.5t64 20.5t62.5 -20.5t39.5 -51.5q10 31 38 51.5t62 20.5q35 0 64 -20.5t39 -51.5q12 31 39.5 51.5t62.5 20.5t63.5 -20.5t39.5 -51.5q10 31 38.5 51.5t63.5 20.5q45 0 77 -32t32 -77t-32 -76.5 t-77 -31.5q-35 0 -63.5 20.5t-38.5 50.5q-10 -31 -39 -51t-64 -20t-62.5 20.5t-39.5 50.5q-10 -31 -39 -51t-64 -20t-62.5 20.5t-37.5 50.5q-12 -31 -40 -51t-62 -20q-35 0 -63.5 20.5t-39.5 50.5q-12 -31 -39.5 -51t-62.5 -20q-45 0 -77 31.5t-32 76.5z" />
<glyph unicode="&#xb4;" d="M176 899q0 45 32 77t77 32t76.5 -32t31.5 -77t-31.5 -76.5t-76.5 -31.5t-77 31.5t-32 76.5zM381 1104q0 45 30.5 76.5t77.5 31.5q45 0 77 -31.5t32 -76.5t-31.5 -77t-77.5 -32q-47 0 -77.5 32t-30.5 77zM584 1309q0 45 31.5 76.5t76.5 31.5q47 0 78 -31.5t31 -76.5 q0 -47 -31 -78t-78 -31q-45 0 -76.5 31t-31.5 78z" />
<glyph unicode="&#x2dc;" d="M-29 1102q0 45 32 76.5t77 31.5t76.5 -31.5t31.5 -76.5t-31.5 -77t-76.5 -32t-77 32t-32 77zM176 1307q0 45 31 76.5t78 31.5q45 0 76.5 -31.5t31.5 -76.5q0 -47 -31.5 -78t-76.5 -31q-47 0 -78 31t-31 78zM379 1102q0 45 31.5 76.5t76.5 31.5q47 0 78 -31.5t31 -76.5 t-30.5 -77t-78.5 -32q-45 0 -76.5 32t-31.5 77zM584 897q0 45 31.5 77t76.5 32t77 -32t32 -77t-32 -77t-77 -32t-76.5 32t-31.5 77zM788 1102q0 45 32 76.5t77 31.5t77 -31.5t32 -76.5t-32 -77t-77 -32t-77 32t-32 77z" />
<glyph unicode="&#x2000;" horiz-adv-x="708" />
<glyph unicode="&#x2001;" horiz-adv-x="1417" />
<glyph unicode="&#x2002;" horiz-adv-x="708" />
<glyph unicode="&#x2003;" horiz-adv-x="1417" />
<glyph unicode="&#x2004;" horiz-adv-x="472" />
<glyph unicode="&#x2005;" horiz-adv-x="354" />
<glyph unicode="&#x2006;" horiz-adv-x="236" />
<glyph unicode="&#x2007;" horiz-adv-x="236" />
<glyph unicode="&#x2008;" horiz-adv-x="177" />
<glyph unicode="&#x2009;" horiz-adv-x="283" />
<glyph unicode="&#x200a;" horiz-adv-x="78" />
<glyph unicode="&#x2010;" d="M-29 692q0 45 32 77t77 32q35 0 62.5 -20.5t39.5 -51.5q10 31 39 51.5t64 20.5t62.5 -20.5t39.5 -51.5q10 31 38 51.5t62 20.5q35 0 64 -20.5t39 -51.5q12 31 39.5 51.5t62.5 20.5t63.5 -20.5t39.5 -51.5q10 31 38.5 51.5t63.5 20.5q45 0 77 -32t32 -77t-32 -76.5 t-77 -31.5q-35 0 -63.5 20.5t-38.5 50.5q-10 -31 -39 -51t-64 -20t-62.5 20.5t-39.5 50.5q-10 -31 -39 -51t-64 -20t-62.5 20.5t-37.5 50.5q-12 -31 -40 -51t-62 -20q-35 0 -63.5 20.5t-39.5 50.5q-12 -31 -39.5 -51t-62.5 -20q-45 0 -77 31.5t-32 76.5z" />
<glyph unicode="&#x2011;" d="M-29 692q0 45 32 77t77 32q35 0 62.5 -20.5t39.5 -51.5q10 31 39 51.5t64 20.5t62.5 -20.5t39.5 -51.5q10 31 38 51.5t62 20.5q35 0 64 -20.5t39 -51.5q12 31 39.5 51.5t62.5 20.5t63.5 -20.5t39.5 -51.5q10 31 38.5 51.5t63.5 20.5q45 0 77 -32t32 -77t-32 -76.5 t-77 -31.5q-35 0 -63.5 20.5t-38.5 50.5q-10 -31 -39 -51t-64 -20t-62.5 20.5t-39.5 50.5q-10 -31 -39 -51t-64 -20t-62.5 20.5t-37.5 50.5q-12 -31 -40 -51t-62 -20q-35 0 -63.5 20.5t-39.5 50.5q-12 -31 -39.5 -51t-62.5 -20q-45 0 -77 31.5t-32 76.5z" />
<glyph unicode="&#x2012;" d="M-29 692q0 45 32 77t77 32q35 0 62.5 -20.5t39.5 -51.5q10 31 39 51.5t64 20.5t62.5 -20.5t39.5 -51.5q10 31 38 51.5t62 20.5q35 0 64 -20.5t39 -51.5q12 31 39.5 51.5t62.5 20.5t63.5 -20.5t39.5 -51.5q10 31 38.5 51.5t63.5 20.5q45 0 77 -32t32 -77t-32 -76.5 t-77 -31.5q-35 0 -63.5 20.5t-38.5 50.5q-10 -31 -39 -51t-64 -20t-62.5 20.5t-39.5 50.5q-10 -31 -39 -51t-64 -20t-62.5 20.5t-37.5 50.5q-12 -31 -40 -51t-62 -20q-35 0 -63.5 20.5t-39.5 50.5q-12 -31 -39.5 -51t-62.5 -20q-45 0 -77 31.5t-32 76.5z" />
<glyph unicode="&#x2013;" d="M-29 694q0 45 32 77t77 32q35 0 62.5 -20.5t39.5 -51.5q10 31 39 51.5t64 20.5t62.5 -20.5t39.5 -51.5q10 31 38 51.5t62 20.5q47 0 78 -32t31 -77t-31 -76.5t-78 -31.5q-35 0 -62.5 20.5t-37.5 50.5q-12 -31 -40 -51t-62 -20q-35 0 -63.5 20.5t-39.5 50.5 q-12 -31 -39.5 -51t-62.5 -20q-45 0 -77 31.5t-32 76.5z" />
<glyph unicode="&#x2014;" d="M-29 692q0 45 32 77t77 32q35 0 62.5 -20.5t39.5 -51.5q10 31 39 51.5t64 20.5t62.5 -20.5t39.5 -51.5q10 31 38 51.5t62 20.5q35 0 64 -20.5t39 -51.5q12 31 39.5 51.5t62.5 20.5t63.5 -20.5t39.5 -51.5q10 31 38.5 51.5t63.5 20.5q45 0 77 -32t32 -77t-32 -76.5 t-77 -31.5q-35 0 -63.5 20.5t-38.5 50.5q-10 -31 -39 -51t-64 -20t-62.5 20.5t-39.5 50.5q-10 -31 -39 -51t-64 -20t-62.5 20.5t-37.5 50.5q-12 -31 -40 -51t-62 -20q-35 0 -63.5 20.5t-39.5 50.5q-12 -31 -39.5 -51t-62.5 -20q-45 0 -77 31.5t-32 76.5z" />
<glyph unicode="&#x2018;" d="M176 899q0 35 20.5 63.5t51.5 38.5q-31 10 -51.5 39t-20.5 64q0 45 32 76.5t77 31.5t76.5 -31.5t31.5 -76.5q0 -35 -20.5 -63.5t-50.5 -39.5q31 -10 51 -38.5t20 -63.5q0 -45 -31.5 -76.5t-76.5 -31.5t-77 31.5t-32 76.5zM381 1309q0 45 30.5 76.5t77.5 31.5 q45 0 77 -31.5t32 -76.5q0 -47 -31.5 -78t-77.5 -31q-47 0 -77.5 31t-30.5 78z" />
<glyph unicode="&#x2019;" d="M174 899q0 45 32 77t77 32q47 0 77.5 -32t30.5 -77t-30.5 -76.5t-77.5 -31.5q-45 0 -77 31.5t-32 76.5zM379 1104q0 35 20.5 62.5t51.5 39.5q-31 10 -51.5 39t-20.5 64q0 45 31.5 76.5t76.5 31.5t77 -31.5t32 -76.5q0 -35 -19.5 -64t-52.5 -39q33 -12 52.5 -39.5 t19.5 -62.5q0 -45 -32 -77t-77 -32t-76.5 32t-31.5 77z" />
<glyph unicode="&#x201c;" d="M176 899q0 35 20.5 63.5t51.5 38.5q-31 10 -51.5 39t-20.5 64q0 45 32 76.5t77 31.5t76.5 -31.5t31.5 -76.5q0 -35 -20.5 -63.5t-50.5 -39.5q31 -10 51 -38.5t20 -63.5q0 -45 -31.5 -76.5t-76.5 -31.5t-77 31.5t-32 76.5zM381 1309q0 45 30.5 76.5t77.5 31.5 q45 0 77 -31.5t32 -76.5q0 -47 -31.5 -78t-77.5 -31q-47 0 -77.5 31t-30.5 78zM584 899q0 35 20.5 63.5t52.5 38.5q-33 10 -53 39t-20 64q0 45 31.5 76.5t76.5 31.5q47 0 78 -31.5t31 -76.5q0 -35 -19.5 -63.5t-52.5 -39.5q33 -10 52.5 -38.5t19.5 -63.5q0 -45 -31 -76.5 t-78 -31.5q-45 0 -76.5 31.5t-31.5 76.5zM788 1309q0 45 32 76.5t77 31.5t77 -31.5t32 -76.5q0 -47 -32 -78t-77 -31t-77 31t-32 78z" />
<glyph unicode="&#x201d;" d="M176 899q0 45 32 77t77 32t76.5 -32t31.5 -77t-31.5 -76.5t-76.5 -31.5t-77 31.5t-32 76.5zM381 1104q0 35 19.5 62.5t52.5 39.5q-33 10 -52.5 39t-19.5 64q0 45 30.5 76.5t77.5 31.5q45 0 77 -31.5t32 -76.5q0 -35 -20.5 -64t-51.5 -39q31 -12 51.5 -39.5t20.5 -62.5 q0 -45 -31.5 -77t-77.5 -32q-47 0 -77.5 32t-30.5 77zM584 899q0 45 31.5 77t76.5 32q47 0 78 -32t31 -77t-31 -76.5t-78 -31.5q-45 0 -76.5 31.5t-31.5 76.5zM788 1104q0 35 20.5 62.5t51.5 39.5q-31 10 -51.5 39t-20.5 64q0 45 32 76.5t77 31.5t77 -31.5t32 -76.5 q0 -35 -19.5 -64t-52.5 -39q33 -12 52.5 -39.5t19.5 -62.5q0 -45 -32 -77t-77 -32t-77 32t-32 77z" />
<glyph unicode="&#x2022;" d="M176 694q0 45 32 77t77 32q35 0 62.5 -20.5t39.5 -51.5q14 45 66 66q-33 10 -52.5 38.5t-19.5 63.5q0 45 30.5 77t77.5 32q45 0 77 -32t32 -77q0 -35 -20.5 -63.5t-51.5 -38.5q47 -20 66 -66q10 31 37.5 51.5t62.5 20.5q47 0 78 -32t31 -77t-31 -76.5t-78 -31.5 q-35 0 -62.5 19.5t-37.5 51.5q-20 -49 -66 -65q31 -10 51.5 -39t20.5 -64q0 -45 -31.5 -76.5t-77.5 -31.5q-47 0 -77.5 31.5t-30.5 76.5q0 35 19.5 64t52.5 39q-49 16 -66 65q-12 -33 -40 -52t-62 -19q-45 0 -77 31.5t-32 76.5z" />
<glyph unicode="&#x2026;" d="M-29 80q0 45 32 76.5t77 31.5t76.5 -31.5t31.5 -76.5t-31.5 -77t-76.5 -32t-77 32t-32 77zM379 80q0 45 31.5 76.5t76.5 31.5q47 0 78 -31.5t31 -76.5t-31 -77t-78 -32q-45 0 -76.5 32t-31.5 77zM788 80q0 45 32 76.5t77 31.5t77 -31.5t32 -76.5t-32 -77t-77 -32t-77 32 t-32 77z" />
<glyph unicode="&#x202f;" horiz-adv-x="283" />
<glyph unicode="&#x205f;" horiz-adv-x="354" />
<glyph unicode="&#x20ac;" d="M-29 489q0 45 32 77t77 32q35 0 62.5 -20.5t39.5 -51.5q16 45 66 66q-33 10 -52.5 37.5t-19.5 62.5t19.5 63.5t52.5 39.5q-51 20 -66 65q-12 -31 -39.5 -51.5t-62.5 -20.5q-45 0 -77 32t-32 77q0 47 32 78t77 31q35 0 62.5 -19.5t39.5 -52.5q16 49 66 65q-33 12 -52.5 40 t-19.5 63q0 45 31 76.5t78 31.5q45 0 76.5 -31.5t31.5 -76.5q0 -35 -20 -63t-51 -40q45 -16 65 -65q10 33 38 52.5t62 19.5q35 0 64 -19.5t39 -52.5q12 33 39.5 52.5t62.5 19.5q45 0 77 -31t32 -78q0 -45 -32 -77t-77 -32q-35 0 -62.5 20.5t-39.5 51.5q-10 -31 -39 -51.5 t-64 -20.5t-62.5 20.5t-37.5 51.5q-18 -45 -65 -65q31 -10 51 -39t20 -64t-20.5 -62.5t-50.5 -37.5q45 -20 65 -66q10 31 38 51.5t62 20.5q35 0 64 -20.5t39 -51.5q12 31 39.5 51.5t62.5 20.5q45 0 77 -31.5t32 -77.5q0 -47 -32 -77.5t-77 -30.5q-35 0 -62.5 19.5 t-39.5 52.5q-10 -33 -39 -52.5t-64 -19.5t-62.5 19.5t-37.5 52.5q-20 -49 -65 -66q31 -12 51 -40t20 -62q0 -45 -31.5 -77t-76.5 -32q-47 0 -78 32t-31 77q0 35 19.5 62.5t52.5 39.5q-49 16 -66 66q-12 -33 -39.5 -52.5t-62.5 -19.5q-45 0 -77 30.5t-32 77.5zM379 80 q0 45 31.5 76.5t76.5 31.5q35 0 64 -20.5t39 -50.5q12 31 39.5 51t62.5 20t63.5 -20.5t39.5 -50.5q10 31 38.5 51t63.5 20q45 0 77 -31.5t32 -76.5t-32 -77t-77 -32q-35 0 -63.5 20.5t-38.5 51.5q-10 -31 -39 -51.5t-64 -20.5t-62.5 20.5t-39.5 51.5q-10 -31 -39 -51.5 t-64 -20.5q-45 0 -76.5 32t-31.5 77zM379 1307q0 45 31.5 76.5t76.5 31.5q35 0 64 -20.5t39 -51.5q12 31 39.5 51.5t62.5 20.5t63.5 -20.5t39.5 -51.5q10 31 38.5 51.5t63.5 20.5q45 0 77 -31.5t32 -76.5t-32 -77t-77 -32q-35 0 -63.5 20.5t-38.5 51.5q-10 -31 -39 -51.5 t-64 -20.5t-62.5 20.5t-39.5 51.5q-10 -31 -39 -51.5t-64 -20.5q-45 0 -76.5 32t-31.5 77z" />
<glyph unicode="&#x2122;" d="M-29 1309q0 45 32 76.5t77 31.5q35 0 62.5 -20.5t39.5 -50.5q10 31 39 51t64 20t62.5 -20.5t39.5 -50.5q10 31 38 51t62 20q35 0 64 -20.5t39 -50.5q12 31 39.5 51t62.5 20q45 0 77 -31.5t32 -76.5q0 -35 -19.5 -63.5t-52.5 -39.5q51 -20 66 -65q10 31 38.5 51t63.5 20 t62.5 -20.5t39.5 -50.5q14 45 66 65q-33 10 -52.5 39t-19.5 64q0 45 31 76.5t78 31.5q45 0 76.5 -31.5t31.5 -76.5q0 -35 -20.5 -63.5t-50.5 -39.5q31 -12 51 -39.5t20 -62.5t-20.5 -63.5t-50.5 -39.5q31 -10 51 -38.5t20 -63.5q0 -45 -31.5 -76.5t-76.5 -31.5 q-47 0 -78 31.5t-31 76.5q0 35 19.5 63.5t52.5 38.5q-49 16 -66 66q-12 -33 -39.5 -52.5t-62.5 -19.5t-63.5 19.5t-38.5 52.5q-16 -49 -66 -66q33 -10 52.5 -38.5t19.5 -63.5q0 -45 -32 -76.5t-77 -31.5t-76.5 31.5t-31.5 76.5q0 35 20.5 63.5t50.5 38.5q-31 10 -51 39 t-20 64t20.5 62.5t50.5 39.5q-45 14 -65 66q-10 -33 -39 -52.5t-64 -19.5t-62.5 19.5t-37.5 52.5q-20 -49 -65 -66q31 -12 51 -39.5t20 -62.5t-20.5 -63.5t-50.5 -39.5q31 -10 51 -38.5t20 -63.5q0 -45 -31.5 -76.5t-76.5 -31.5q-47 0 -78 31.5t-31 76.5q0 35 19.5 63.5 t52.5 38.5q-33 10 -52.5 39t-19.5 64t19.5 62.5t52.5 39.5q-49 16 -66 66q-12 -33 -39.5 -52.5t-62.5 -19.5q-45 0 -77 31t-32 78z" />
<glyph unicode="&#xe000;" horiz-adv-x="1003" d="M0 0v1004h1004v-1004h-1004z" />
</font>
</defs>
</svg>
