<?xml version="1.0" standalone="no"?>
<!DOCTYPE svg PUBLIC "-//W3C//DTD SVG 1.1//EN" "http://www.w3.org/Graphics/SVG/1.1/DTD/svg11.dtd" >
<svg xmlns="http://www.w3.org/2000/svg">
<metadata>
This is a custom SVG font generated by IcoMoon.
<iconset grid="14"></iconset>
</metadata>
<defs>
<font id="pind-symbols" horiz-adv-x="448" >
<font-face units-per-em="448" ascent="384" descent="-64" />
<missing-glyph horiz-adv-x="448" />
<glyph unicode="&#x61;" d="M 4.011,379.232C 5.365,377.045, 6.752,374.88, 8.117,372.693c 5.397-8.651, 10.837-17.291, 16.213-25.952c 1.259-2.048, 3.019-3.616, 4.565-5.365
		c 5.557-6.229, 11.317-12.256, 16.885-18.453c 6.101-6.773, 12.224-13.557, 18.059-20.533C 68.043,297.419, 72.491,292.629, 76.693,287.648
		c 9.163-10.88, 19.509-20.661, 29.355-30.891c 7.84-8.128, 15.669-16.288, 23.669-24.299c 2.005-2.005, 3.915-4.085, 5.824-6.187
		c 4.757-5.205, 10.613-9.12, 16.085-13.493c 10.443-8.277, 21.024-16.395, 31.499-24.651c 13.845-10.891, 27.776-21.675, 41.472-32.789
		c 11.488-9.344, 24.085-17.077, 36.501-25.109c 12.043-7.808, 24.171-15.541, 36.277-23.211c 3.285-2.059, 6.997-3.307, 10.56-4.768
		c 8.459-3.541, 16.811-7.349, 25.003-11.456c 11.499-5.792, 23.339-10.816, 35.211-15.712c 18.272-7.499, 37.003-13.621, 55.979-19.061
		c 18.315-5.227, 36.608-10.603, 54.891-15.936c 4.373-1.291, 8.917-1.269, 13.376-1.963c 2.603-0.416, 5.077-1.163, 7.189-2.741
		c 0.853-0.608, 1.451-1.109-0.021-2.005c-7.648-4.672-15.776-8.085-24.544-9.899c-4.107-0.853-8.288-0.683-12.459-0.309
		c-14.624,1.312-28.043,6.837-41.547,11.979c-9.579,3.691-19.20,7.275-28.725,11.083c-12.309,4.96-24.48,10.272-36.608,15.627
		c-16.704,7.339-33.12,15.253-49.525,23.275c-13.248,6.453-26.421,13.099-39.104,20.576c-8.672,5.131-16.896,11.008-25.355,16.523
		c-7.851,5.109-14.859,11.339-22.187,17.109c-3.915,3.104-8.384,5.248-13.579,5.312c-0.341,0.021-0.683,0.16-1.056,0.224
		c-0.341,0.085-0.683,0.192-0.885,0.064c 2.027-2.144, 4.00-4.437, 6.123-6.496c 4.683-4.608, 9.685-8.917, 14.795-13.088
		c 5.536-4.544, 11.285-8.853, 17.141-13.003c 15.253-10.805, 31.339-20.245, 47.819-28.971c 14.517-7.712, 29.365-14.731, 44.416-21.312
		c 17.248-7.563, 34.581-14.859, 52.011-21.963c 19.701-7.979, 39.435-15.829, 59.243-23.541c 5.856-2.293, 11.84-4.064, 17.877-5.728
		c 6.603-1.835, 11.125-5.835, 13.269-12.416c 0.629-1.877, 0.587-1.963-1.333-1.984c-4.48-0.021-8.896,0.672-13.269,1.547
		c-14.229,2.848-28.331,6.336-42.517,9.397c-12.128,2.603-24.149,5.867-35.819,10.08c-12.373,4.48-24.704,8.96-36.875,14.005
		c-7.787,3.253-15.435,6.837-23.189,10.251c-6.453,2.837-12.949,5.611-19.413,8.437c-8.683,3.776-17.163,8.064-25.483,12.587
		c-8.853,4.789-17.643,9.749-26.347,14.891c-9.376,5.557-18.752,11.20-27.979,17.035c-12.107,7.627-24.043,15.541-35.755,23.755
		c-7.915,5.579-15.339,11.723-22.475,18.251c-6.667,6.101-13.643,11.893-20.331,17.984c-6.891,6.272-14.091,12.128-21.184,18.112
		c-9.099,7.68-16.832,16.64-24.907,25.312c-4.427,4.757-8.80,9.589-13.045,14.549c-5.60,6.56-10.923,13.333-16.043,20.299
		c-9.963,13.664-20.107,27.168-29.365,41.312C 34.496,284.768, 28.053,295.552, 22.357,306.752C 16.427,318.379, 11.328,330.368, 7.264,342.773
		C 4.736,350.517, 2.784,358.40, 2.624,366.656C 2.549,370.869, 2.517,375.04, 3.52,379.136C 3.691,379.168, 3.851,379.20, 4.011,379.232zM 385.856,78.443c 1.408,1.515, 3.083,2.208, 4.619,3.104c 15.083,8.768, 30.229,17.44, 45.291,26.187
		c 7.211,4.224, 14.581,8.085, 21.504,12.747c 6.40,4.277, 11.915,9.419, 14.933,16.981c-2.059,0.00-3.915-0.672-5.771-1.184
		c-5.376-1.504-10.123-4.299-14.581-7.467c-7.275-5.248-15.019-9.685-22.816-14.059c-10.475-5.856-20.949-11.765-31.413-17.643
		c-7.872-4.459-15.605-9.205-24.181-12.309c-1.44-0.544-2.795-0.587-4.213,0.053c-5.024,2.251-10.229,3.979-14.933,6.88
		c-0.779,0.459-2.069,0.789-1.984,1.856c 0.085,0.896, 1.333,1.077, 2.123,1.472c 13.003,6.357, 26.144,12.405, 39.317,18.485
		c 9.109,4.224, 17.995,8.875, 26.581,14.016c 21.461,12.853, 41.92,27.221, 62.144,41.92c 10.837,7.861, 21.557,15.872, 32.192,24.032
		c 8.352,6.432, 16.747,12.821, 25.013,19.413c 9.109,7.328, 18.251,14.688, 26.965,22.485c 3.083,2.784, 6.336,5.408, 9.291,8.309
		c 2.731,2.635, 5.163,5.557, 7.712,8.416c 3.499,3.904, 6.933,7.851, 10.443,11.787c 4.651,5.227, 9.205,10.528, 13.941,15.691
		c 4.896,5.344, 9.429,10.997, 14.187,16.459c 3.787,4.373, 7.456,8.853, 11.211,13.259c 3.872,4.555, 7.787,9.035, 11.68,13.589
		c 4.395,5.184, 8.811,10.421, 13.109,15.691c 6.496,7.915, 12.875,15.936, 19.061,24.117c 2.059,2.752, 4.064,5.557, 6.123,8.309
		c 0.309,0.395, 0.459,1.131, 1.131,0.939c 0.597-0.192, 0.352-0.832, 0.437-1.28c 0.811-5.451-0.651-10.667-1.963-15.84
		c-4.267-16.693-10.165-32.811-18.037-48.192c-2.944-5.813-6.688-11.189-9.792-16.939c-3.072-5.739-6.069-11.541-9.109-17.291
		c-6.976-13.195-14.165-26.272-23.339-38.08c-5.835-7.531-11.627-15.125-18.112-22.101c-6.272-6.752-12.789-13.195-19.563-19.403
		c-6.187-5.621-12.224-11.349-18.251-17.109c-9.536-9.088-19.349-17.856-29.408-26.347c-7.083-6.016-14.251-11.957-21.568-17.664
		c-4.832-3.776-10.123-6.997-15.328-10.336c-7.52-4.832-14.837-9.973-22.155-15.061c-10.347-7.232-20.992-13.995-31.851-20.395
		c-8.00-4.725-16.149-9.205-24.224-13.792c-0.853-0.48-1.792-0.789-2.645-1.205c-4.128-2.005-8.128-2.091-12.501-0.213
		c-5.792,2.464-11.915,4.256-17.877,6.40C 388.171,77.483, 387.125,77.941, 385.856,78.443zM 456.245-57.301c-8.064-0.021-15.371,2.144-21.621,7.339c-1.483,1.227-2.485,2.709-2.859,4.672
		c-0.267,1.728-1.536,3.189-1.035,5.173c 1.227,5.077, 4.768,7.477, 9.909,6.496c 3.125-0.608, 6.144-1.397, 9.024-2.624
		c 5.227-2.251, 10.453-2.005, 15.712-0.171c 8.48,2.976, 15.307,8.107, 20.096,15.776c 4.523,7.221, 5.259,14.709, 1.877,22.603
		c-1.579,3.691-3.52,7.168-5.376,10.667c-0.747,1.419-0.437,1.995, 1.045,2.443c 7.04,2.272, 13.771,5.173, 19.712,9.675
		c 9.557,7.221, 16.416,16.395, 20.075,27.893c 1.611,5.184, 3.339,10.389, 5.941,15.147c 4.107,7.435, 10.357,12.416, 18.336,15.019
		c 5.109,1.664, 10.016,0.171, 14.752-2.208c 4.48-2.229, 6.731-6.443, 9.664-10.048c 2.496-3.104, 2.432-3.349-1.44-4.416
		c-8.725-2.443-14.891-8.117-20.064-15.20c-6.272-8.608-11.168-18.069-17.056-26.923c-3.648-5.557-7.669-10.848-12.896-15.061
		c-3.776-3.083-5.173-7.275-5.835-12.021c-0.811-5.952-1.333-11.957-3.211-17.728c-2.059-6.539-5.504-12.245-10.229-17.291
		c-4.704-5.003-10.603-8.288-16.523-11.541c-6.752-3.669-13.931-6.027-21.515-7.168C 460.587-57.099, 458.40-57.141, 456.245-57.301zM 215.755-49.664c-8.213-0.309-15.349,2.475-22.144,6.315c-5.973,3.339-11.776,6.891-16.683,11.744
		c-8.256,8.171-13.749,17.856-15.776,29.312c-0.501,2.709-0.661,5.525-0.501,8.299c 0.277,5.227-1.909,9.472-5.387,13.163
		c-3.744,3.957-7.776,7.648-11.413,11.669c-3.957,4.373-6.485,9.557-8.939,14.837c-3.211,6.955-6.091,14.08-10.709,20.309
		c-4.949,6.667-11.424,11.125-19.307,13.664c-2.976,0.981-3.04,0.981-1.621,3.776c 3.819,7.616, 9.792,12.64, 18.325,13.728
		c 7.701,1.013, 15.829-1.963, 19.307-11.296c 1.952-5.227, 3.179-10.624, 4.373-16.043c 2.592-11.744, 9.323-20.725, 18.176-28.459
		c 6.048-5.269, 12.736-9.557, 19.861-13.184c 2.005-1.003, 4.043-1.92, 6.112-2.667c 1.248-0.459, 1.557-1.067, 1.163-2.293
		c-1.557-5.376-2.976-10.816-4.651-16.149c-0.757-2.432-0.64-4.768-0.064-7.125c 1.397-6.187, 4.523-11.499, 8.544-16.352
		c 3.456-4.224, 7.456-7.744, 12.309-10.208c 2.411-1.248, 4.96-1.643, 7.552-1.291c 4.416,0.565, 8.768,1.525, 13.205,1.941
		c 2.891,0.288, 5.973,0.853, 8.661-0.939c 3.605-2.443, 4.693-9.003, 2.251-12.96c-2.411-3.829-6.08-5.984-10.123-7.52
		C 224.235-48.971, 219.989-49.952, 215.755-49.664zM 324.064,32.011c-6.667-1.835-12.523-4.395-18.357-7.04c-3.36-1.536-7.061-2.005-10.603-2.933
		c-11.84-3.008-23.733-5.963-35.584-8.939c-10.229-2.56-20.544-4.693-30.923-6.379c-6.539-1.077-13.12-1.643-19.723-2.336
		c-4.213-0.437-8.469,0.021-12.651-0.661c-1.397-0.224-1.835,0.331-1.419,1.728c 1.589,5.376, 4.875,9.291, 9.856,11.915
		c 6.40,3.36, 13.333,5.109, 20.256,6.923c 20.501,5.429, 41.035,10.805, 61.205,17.387c 3.211,1.045, 6.453,1.984, 9.664,3.008
		c 0.736,0.224, 1.355,0.224, 2.027-0.171c 6.432-3.776, 13.472-6.272, 20.181-9.397C 319.968,34.261, 321.941,33.429, 324.064,32.011zM 207.403,30.592c-7.232-0.203-13.397,1.653-19.232,4.779c-3.403,1.792-7.019,3.264-10.016,5.771
		c-0.981,0.811-1.877,1.707-2.773,2.581c-0.48,0.459-1.163,1.003-0.875,1.643c 0.149,0.373, 1.003,0.544, 1.557,0.651
		c 5.024,1.013, 10.037,1.973, 15.061,2.976c 9.141,1.856, 18.251,3.915, 27.413,5.579c 13.419,2.421, 26.539,6.005, 39.691,9.557
		c 1.12,0.288, 2.144,0.395, 3.285-0.288c 6.272-3.957, 12.587-7.84, 18.891-11.776c 0.501-0.288, 1.227-0.565, 1.163-1.248
		c-0.107-0.704-0.939-0.672-1.493-0.832c-12.917-4.00-25.696-8.235-38.731-11.893c-9.109-2.507-18.112-5.461-27.477-7.008
		C 211.573,30.699, 209.237,30.379, 207.403,30.592zM 130.357,6.613c-8.501,0.416-18.304-0.811-28.128-1.141c-3.136-0.128-6.229-0.309-9.365,0.00
		c-4.939,0.459-8.363,2.667-10.464,7.296c-2.709,5.867-5.344,11.744-7.776,17.728c-0.619,1.557-0.032,2.123, 1.323,2.432
		c 4.704,1.067, 9.504,1.131, 14.229,0.672c 3.712-0.32, 7.392-0.277, 10.987,0.352c 10.912,1.92, 21.323,0.725, 30.88-5.088
		c 7.701-4.661, 12.128-11.264, 11.445-20.661c-0.085-1.312-0.619-1.611-1.781-1.589C 138.389,6.656, 135.051,6.613, 130.357,6.613zM 553.92,18.325c 8.587,0.523, 17.173,1.141, 25.813,1.557c 4.021,0.181, 8.107,0.459, 12.107-0.341c 6.187-1.227, 7.232-4.245, 6.101-9.227
		c-1.408-6.101-4.437-11.627-9.312-15.787c-2.997-2.571-6.848-2.965-10.624-2.624c-2.389,0.224-4.811,0.245-7.211,0.533
		c-9.792,1.045-19.659,0.715-29.515,0.832c-3.915,0.043-7.776,0.80-11.477,2.176c-1.173,0.437-1.44,1.109-1.088,2.208
		c 1.547,4.992, 3.957,9.472, 7.253,13.493c 0.96,1.195, 2.037,2.379, 3.125,3.477c 3.125,3.189, 7.104,3.584, 11.147,3.861
		c 1.205,0.117, 2.443,0.021, 3.659,0.021C 553.899,18.443, 553.899,18.379, 553.92,18.325zM 72.896,38.613c-1.557-1.227-3.243-1.973-4.48-3.477c-1.771-2.187-1.835-4.501-1.376-6.976
		c 0.565-2.997, 1.781-5.749, 2.827-8.608c 1.589-4.224, 2.805-8.501, 1.717-13.077c-1.269-5.419-6.336-9.707-11.893-10.027
		c-5.536-0.331-10.72,0.715-15.307,3.957c-5.344,3.797-8.309,9.131-9.355,15.541C 33.803,23.403, 35.20,30.261, 40.00,36.192
		c 2.891,3.563, 6.859,5.312, 11.339,5.792c 5.291,0.597, 10.603,0.725, 15.797-0.651C 69.163,40.80, 71.115,39.989, 72.896,38.613zM 613.877,27.179c 3.264,0.235, 6.496-0.043, 9.579-1.227c 7.851-3.061, 12.683-8.747, 14.251-17.067
		c 1.333-7.285-1.024-13.643-5.109-19.541c-3.339-4.832-8.16-6.891-13.707-7.829c-3.307-0.544-6.453-0.256-9.621,0.747
		c-6.88,2.229-9.205,8.608-8.224,14.688c 1.067,6.88, 4.651,12.747, 7.819,18.773c 1.291,2.432, 1.376,2.336-0.896,3.712
		c-2.443,1.515-4.811,3.019-7.211,4.576c-0.331,0.213-0.853,0.352-0.768,0.875c 0.085,0.544, 0.619,0.501, 1.003,0.587
		C 605.205,26.485, 609.44,27.467, 613.877,27.179zM 600.811-31.157c-2.123,0.149-4.352,1.557-6.421,3.275c-3.168,2.603-5.792,5.60-6.805,9.749
		c-0.437,1.835, 0.992,2.165, 2.059,2.88c 1.067,0.683, 1.899,0.725, 2.773-0.363c 3.392-4.352, 7.893-7.20, 12.917-9.291
		c 1.333-0.555, 1.557-1.184, 1.035-2.443C 605.269-30.037, 603.872-31.157, 600.811-31.157zM 66.411-16.843c-0.373-0.107-0.704,0.00-0.949,0.277c-0.352,0.437-0.107,0.789, 0.139,1.141c 4.395,6.688, 9.899,12.085, 17.355,15.253
		c 0.64,0.267, 1.429,0.811, 2.048,0.245c 0.715-0.64, 0.203-1.461, 0.021-2.187c-1.664-6.496-6.176-10.272-12.117-12.672
		C 70.805-15.595, 68.683-16.491, 66.411-16.843z" horiz-adv-x="693.3333333333333" data-tags="swords" />
<glyph unicode="&#x62;" d="M 71.562,368.775c 0.169,3.937-0.059,8.483, 2.402,12.397c 1.99,3.165, 3.231,4.289, 6.536,0.066c 6.852-8.82, 4.766-19.058, 5.589-28.532
	c 3.217-37.397-0.154-74.765-2.233-112.11c-0.264-4.833-0.14-9.144, 3.29-13.117c 5.824-6.786, 5.817-14.299, 1.08-21.622
	c-3.312-5.126-4.135-9.827-0.353-15.085c 2.938-4.105, 2.49-8.358-0.867-12.147c-3.092-3.518-2.078-6.779, 0.654-9.716
	c 3.32-3.562, 5.868-0.147, 7.917,1.645c 6.889,5.978, 13.469,12.331, 20.123,18.566c 1.359,1.278, 2.548,2.806, 4.649,1.704
	c 1.608-0.823, 1.417-2.424, 1.748-3.966c 3.32-15.768-3.973-25.382-17.773-31.50c-4.987-2.211-8.879-5.435-8.549-11.751
	c 0.11-2.137-0.852-4.304-2.534-5.53c-8.204-6.052-6.50-13.535-4.032-21.717c 9.738-32.337, 20.931-64.27, 27.651-97.466
	c 4.274-21.122, 0.397-40.731-10.737-59.077c-18.50-30.479-61.479-28.944-82.072-7.454c-22.011,23.002-27.695,50.837-22.025,81.705
	c 4.957,26.968, 15.137,51.226, 34.092,71.445c 3.914,4.164, 7.374,8.784, 9.90,13.976c 1.381,2.857, 3.826,6.529, 4.34,9.503
	c 0.514,2.974-0.925,5.266-1.946,8.519c-2.056,6.61-4.972,13.308-1.476,20.424c 0.764,1.564-0.382,2.908-1.30,4.223
	c-5.53,7.983-5.20,16.128, 0.029,23.994c 1.674,2.526, 2.262,4.37, 0.485,6.955c-4.436,6.456-2.431,12.404, 1.917,17.905
	c 2.681,3.386, 3.518,6.272, 1.08,10.502c-6.309,11.016-2.791,21.342, 8.857,26.777c 3.283,1.535, 5.662,2.908, 5.927,7.117
	c 1.829,29.105, 3.246,58.211-1.829,87.103C 60.818,349.923, 60.172,357.333, 59.283,364.751C 59.195,365.514, 59.231,366.308, 59.151,367.079
	C 58.49,372.844, 60.59,377.405, 66.583,377.757C 73.891,378.198, 69.477,371.559, 71.562,368.775z M 67.597,111.19c-9.922-11.068-18.118-22.951-25.536-35.399
	c-12.544-21.129-19.08-43.72-16.378-68.478c 1.506-13.925, 6.558-26.168, 17.905-35.062c 14.622-11.479, 36.134-6.419, 44.301,10.355
	c 7.352,15.078, 8.527,30.706, 4.598,46.989C 85.84,57.107, 72.605,82.621, 67.597,111.19z" horiz-adv-x="124.85245901639344" data-tags="rope" />
<glyph unicode="&#x63;" d="M 143.927,78.844c-3.367,16.068-27.035,35.693-32.036,38.87c-5.004,3.171-14.336,7.211-19.147,1.73
		c-4.545-5.186, 0.603-15.061, 1.181-16.131c-0.024-0.054-0.046-0.09-0.062-0.106c-12.628-10.48-58.631-48.694-61.745-50.825
		c-3.657-2.503-6.734-5.96-10.198-11.545c-3.462-5.58-16.739-26.551-19.05-28.477c-0.768-0.578-4.618-4.423-1.922-6.353
		c 2.693-1.92, 4.328-0.733, 6.136,0.701c 1.811,1.436, 9.161,9.115, 12.623,10.076c 3.465,0.964, 24.811,12.126, 33.383,14.244
		c 5.675,1.404, 8.786,3.473, 20.939,3.266c 1.187-0.022, 3.497-0.578, 7.923,2.886c 3.258,2.547, 23.31,19.707, 33.657,28.574
		c0.00,0.00, 3.741,3.323, 7.689,6.829c-0.334-0.429-0.701-0.88-1.149-1.265c 4.195-3.008, 5.172-4.149, 9.935-6.231
		c 4.075-1.778, 7.692-0.739, 9.918,0.961C 144.864,68.239, 144.796,74.698, 143.927,78.844z M 57.863,59.561
		c-1.225-1.024-2.454-1.526-3.084-1.23c-11.862-8.968-23.223-20.985-33.03-29.522c 10.584,11.55, 27.534,27.279, 31.029,30.434
		c-0.57,0.722-0.163,2.237, 1.227,3.405c 1.529,1.284, 3.627,1.635, 4.694,0.779C 59.763,62.575, 59.389,60.845, 57.863,59.561z
		 M 95.693,104.934c-1.10,2.514-0.261,7.372, 5.802,4.79L 95.693,104.934z M 130.775,73.436c-0.339-0.339-2.90-2.528-6.207,0.277
		c 3.074,2.731, 6.047,5.362, 7.252,6.41c0.00,0.005, 0.003,0.005, 0.003,0.005C 132.722,77.22, 132.358,74.999, 130.775,73.436zM 480.769,417.475C 467.299,410.549, 207.161,211.976, 202.472,208.131c-4.689-3.85-2.623-5.387-3.391-8.083
		c0.00,0.00-65.422-56.565-69.652-60.415c-4.236-3.85-2.693-3.462-6.541-5.381c-1.757-0.885-8.716-2.90-11.681-6.21
		c-1.23-1.379-2.123-2.71-2.786-3.956c 1.911-0.844, 3.671-1.819, 5.107-2.731c 5.208-3.304, 28.458-22.517, 34.735-39.655
		c 3.728,2.11, 6.981,5.457, 7.719,7.912c 0.768,1.537, 83.504,63.111, 83.504,63.111s 4.331-2.438, 9.237,5.387
		c 76.195,57.719, 252.056,222.808, 258.214,230.12C 506.55,410.16, 491.926,417.858, 480.769,417.475z" horiz-adv-x="507.73333333333335" data-tags="pen" />
<glyph unicode="&#x64;" d="M 6.548,284.476C 4.112,276.235, 2.332,267.815, 1.252,259.431c-7.677-59.756, 20.669-113.166, 67.39-126.974
	c 26.905-7.966, 55.896-2.179, 81.64,16.257c 6.069,4.363, 11.789,9.316, 17.11,14.79c0.00-0.006,0.00-0.012, 0.012-0.012
	c 0.037,0.043, 0.074,0.092, 0.117,0.135c 1.362,1.405, 2.627,2.94, 3.952,4.419c 34.846,36.939, 76.933,24.149, 76.933,24.149l-0.221,0.147
	L 1149.948-63.055c 9.733-2.756, 19.841,2.891, 22.609,12.618c 0.233,0.896, 0.417,1.78, 0.534,2.682c 1.148,8.843-4.327,17.429-13.17,19.921
	l-20.786,5.898c-31.366,8.641-34.582,19.994-36.233,28.261c-1.436,7.456, 4.376,17.417, 5.431,24.689c 2.16,14.716-14.612,13.244-20.418,23.609
	c-5.223,9.353, 11.666,10.924, 18.656,11.286c 7.18,10.009, 12.121,23.578, 15.036,35.417c 2.498,10.101, 7.469,22.222, 8.469,32.422
	c 1.319,13.25-7.229,23.051-18.804,27.911c-8.561,3.615-23.388,11.139-29.286,2.393c-3.701-5.468-5.91-13.661-8.267-19.816
	c 6.26-3.019, 20.528-6.211, 23.634-12.832c 2.891-6.119-2.436-20.442-7.542-24.419c-5.026,0.957-9.746,3.40-14.612,5.241
	c-3.725-8.144-8.892-15.827-13.471-23.345c-3.455-5.683-8.862-12.495-10.74-18.926c 14.446-12.249, 27.991-20.614, 20.301-41.106
	c-2.037-5.394-10.635-15.447-10.089-20.583c 0.54-4.854, 3.406-4.775, 2.111-8.727l-74.30,21.05c 0.025,2.792, 5.229,6.076, 6.162,7.027
	c 3.633,3.694, 0.675,17.19, 1.632,22.873c 3.615,21.584, 19.522,22.044, 38.178,25.395c 1.608,6.493, 0.325,15.085, 0.203,21.749
	c-0.196,8.776-0.804,18.03, 0.049,26.948c-5.131,0.859-10.427,1.105-15.244,2.805c-2.43,5.996, 0.16,21.074, 5.72,24.922
	c 6.008,4.155, 19.964-0.245, 26.868-0.779c 1.074,6.524, 3.253,14.716, 2.805,21.289c-0.718,10.531-17.306,11.464-26.536,12.661
	c-12.446,1.589-24.732-2.59-30.261-14.71c-4.241-9.334-6.051-22.308-8.942-32.293c-3.418-11.722-5.971-25.929-4.768-38.203
	c 5.867-3.811, 19.675-13.655, 10.457-19.104c-10.212-6.051-23.965,3.639-29.531-10.175c-2.719-6.824-2.694-18.368-7.684-24.082
	c-5.597-6.358-14.962-12.937-40.909-5.947L 247.314,230.655c-14.017,6.517-32.06,20.178-37.657,48.347C 206.902,326.914, 180.685,366.632, 141.341,378.28
	C 87.065,394.329, 26.592,352.253, 6.548,284.476z M 133.921,353.198c 34.361-10.157, 54.914-51.606, 48.875-98.56c-0.896-7.015-2.387-14.066-4.437-20.982
	c-7.904-26.702-23.271-49.323-43.315-63.677c-19.037-13.655-39.995-18.067-58.976-12.452c-34.361,10.163-54.908,51.618-48.875,98.572
	c 0.902,7.008, 2.393,14.066, 4.437,20.964C 47.586,331.013, 93.466,365.166, 133.921,353.198z" horiz-adv-x="1178.3013698630136" data-tags="key" />
<glyph unicode="&#x21;" d="M 112.00,244.00A112.00,112.00 12780.00 1 1 336.00,244A112.00,112.00 12780.00 1 1 112.00,244zM 336.00,104.00L 112.00,104.00 C 50.145,104.00,0.00,53.855,0.00-8.00l0.00-28.00 l 3.529,0.00 l 440.942,0.00 L 448.00-36.00 l0.00,28.00 C 448.00,53.855, 397.856,104.00, 336.00,104.00z" data-tags="user, profile, avatar, person, talk, member" />
<glyph unicode="&#x22;" d="M 406.00-64.00L 42.00-64.00 c-7.728,0.00-14.00,6.258-14.00,14.00L 28.00,174.00 c0.00,7.742, 6.272,14.00, 14.00,14.00l 42.00,0.00 l0.00,56.00 C 84.00,321.322, 146.678,384.00, 224.00,384.00
	s 140.00-62.678, 140.00-140.00l0.00-56.00 l 42.00,0.00 c 7.742,0.00, 14.00-6.258, 14.00-14.00l0.00-224.00 C 420.00-57.742, 413.742-64.00, 406.00-64.00z M 308.00,251.00C 308.00,293.532, 270.382,328.00, 224.00,328.00s-84.00-34.468-84.00-77.00L 140.00,188.00 l 168.00,0.00 L 308.00,251.00 z" data-tags="locked, encryption, login, log in" />
<glyph unicode="&#x23;" d="M 255.186,268.524l0.00-73.807 c-1.734,6.304-3.903,12.478-6.528,18.513c-7.629,17.598-20.387,32.079-38.275,43.448
		c-18.173,11.363-43.482,17.048-75.931,17.048l-38.154-1.874l-39.081-4.572L 16.27,261.664l0.00-303.494 l 80.861,0.00 l0.00,119.015 
		c 24.664-17.812, 50.513-26.717, 77.538-26.717c 28.685,0.00, 50.097,11.084, 64.233,33.26c 7.302,11.337, 12.718,23.193, 16.286,35.547l0.00-63.613 l 80.867,0.00 
		L 336.055,268.524 L 255.186,268.524 z M 167.628,121.791c-8.159-9.30-17.351-13.957-27.576-13.957c-11.063,0.00-21.222,5.136-30.48,15.419
		c-8.296,9.853-12.441,22.487-12.441,37.906L 97.132,210.102 c 10.23,2.917, 20.729,4.375, 31.515,4.375c 33.589,0.00, 50.384-17.496, 50.384-52.485
		C 179.031,144.634, 175.229,131.233, 167.628,121.791zM 255.186,343.567A40.433,40.433 180.00 1 1 336.053,343.567A40.433,40.433 180.00 1 1 255.186,343.567zM 755.937,343.567l0.00-73.298 c0.00,0.00-42.289,8.412-75.746,6.746c-28.648-1.428-51.889-14.381-66.025-36.554
		c-6.551-10.178-11.582-20.771-15.127-31.771c-1.579,19.18-8.238,34.42-19.999,45.701c-13.862,12.892-34.438,19.335-61.74,19.335
		c-34.09,0.00-62.153-12.27-84.182-36.794l-1.868,1.036L 431.25,268.524 l-76.084,0.00 l0.00-212.858 l 81.275,0.00 l0.00,73.999 c0.00,23.836, 4.09,42.747, 12.265,56.754
		c 8.038,13.577, 19.954,20.368, 35.753,20.368c 11.366,0.00, 19.604-3.40, 24.738-10.188c 5.679-6.791, 8.517-16.007, 8.517-27.644l0.00-113.291 l 81.697,0.00 L 599.411,124.273 
		c 1.436-4.509, 3.096-8.949, 4.997-13.314c 7.627-17.601, 20.387-32.085, 38.275-43.448c 18.168-11.363, 43.482-17.042, 75.931-17.042l 38.154,1.868
		l 39.076,4.57l 40.955,5.616L 836.798,343.567 L 755.937,343.567 z M 755.937,114.085c-10.23-2.915-20.734-4.375-31.515-4.375
		c-33.589,0.00-50.384,17.498-50.384,52.485c0.00,17.359, 3.80,30.759, 11.40,40.199c 8.162,9.305, 17.351,13.972, 27.578,13.959
		c 23.185-0.04, 42.921-5.081, 42.921-5.081L 755.937,114.085 z" horiz-adv-x="856.4705882352941" data-tags="pind" />
<glyph unicode="&#x24;" d="M 336.00,104.00 L 336.00,160.00 L 196.00,160.00 L 196.00,216.00 L 336.00,216.00 L 336.00,272.00 L 420.00,188.00 ZM 308.00,132.00 L 308.00,20.00 L 168.00,20.00 L 168.00-64.00 L 0.00,20.00 L 0.00,384.00 L 308.00,384.00 L 308.00,244.00 L 280.00,244.00 L 280.00,356.00 L 56.00,356.00 L 168.00,300.00 L 168.00,48.00 L 280.00,48.00 L 280.00,132.00 Z" data-tags="exit, sign out, log out, quit, close, logout" />
<glyph unicode="&#x25;" d="M 392.00,188.00l 7.00,0.00 c 11.55,0.00 21.00,9.45 21.00,21.00l0.00,70.00 c0.00,11.55-9.45,21.00-21.00,21.00l-7.00,0.00 L 392.00,384.00 l-56.00,0.00 l 0.00-84.00 l-7.00,0.00 c-11.55,0.00, -21.00-9.45, -21.00-21.00l 0.00-70.00 c 0.00-11.55, 9.45-21.00, 21.00-21.00l 7.00,0.00 
		l 0.00-252.00 L 392.00-64.00 L 392.00,188.00 z M 336.00,272.00L 392.00,272.00 l 0.00-56.00 l-56.00,0.00 L 336.00,272.00 zM 259.00,20.00c 11.55,0.00 21.00,9.45 21.00,21.00l0.00,70.00 c0.00,11.55-9.45,21.00-21.00,21.00l-7.00,0.00 L 252.00,384.00 l-56.00,0.00 l 0.00-252.00 l-7.00,0.00 c-11.55,0.00, -21.00-9.45, -21.00-21.00l 0.00-70.00 c 0.00-11.55, 9.45-21.00, 21.00-21.00l 7.00,0.00 
		l 0.00-84.00 l 56.00,0.00 l0.00,84.00 L 259.00,20.00 z M 196.00,104.00l 56.00,0.00 l 0.00-56.00 l-56.00,0.00 L 196.00,104.00 zM 119.00,188.00c 11.55,0.00 21.00,9.45 21.00,21.00l0.00,70.00 c0.00,11.55-9.45,21.00-21.00,21.00l-7.00,0.00 L 112.00,384.00 l-56.00,0.00 l 0.00-84.00 l-7.00,0.00 c-11.55,0.00, -21.00-9.45, -21.00-21.00l 0.00-70.00 c 0.00-11.55, 9.45-21.00, 21.00-21.00l 7.00,0.00 
		l 0.00-252.00 l 56.00,0.00 L 112.00,188.00 L 119.00,188.00 z M 56.00,272.00l 56.00,0.00 l 0.00-56.00 l-56.00,0.00 L 56.00,272.00 z" data-tags="equalizer, control, options, settings, dashboard" />
<glyph unicode="&#x26;" d="M 329.00,132.00c0.00-61.852-50.148-112.00-112.00-112.00s-112.00,50.148-112.00,112.00c0.00,57.19, 54.838,92.33, 112.00,97.314L 217.00,160.00 l 140.00,98.00
		L 357.00,272.00 l-140.00,112.00l0.00-70.588 C 114.142,307.364, 21.00,235.558, 21.00,132.00c0.00-108.248, 87.752-196.00, 196.00-196.00s 196.00,87.752, 196.00,196.00L 329.00,132.00 z" data-tags="refresh, reload" />
<glyph unicode="&#xf030;" d="M 240.00,216.00q 29.75,0.00 50.875-21.125t 21.125-50.875t-21.125-50.875t-50.875-21.125t-50.875,21.125t-21.125,50.875t 21.125,50.875t 50.875,21.125zM 416.00,320.00q 26.50,0.00 45.25-18.75t 18.75-45.25l0.00-224.00 q0.00-26.50 -18.75-45.25t-45.25-18.75l-352.00,0.00 q-26.50,0.00 -45.25,18.75t-18.75,45.25l0.00,224.00 q0.00,26.50 18.75,45.25t 45.25,18.75l 56.00,0.00 l 12.75,34.00 q 4.75,12.25 17.375,21.125t 25.875,8.875l 128.00,0.00 q 13.25,0.00 25.875-8.875t 17.375-21.125l 12.75-34.00l 56.00,0.00 zM 240.00,32.00q 46.25,0.00 79.125,32.875t 32.875,79.125t-32.875,79.125t-79.125,32.875t-79.125-32.875t-32.875-79.125t 32.875-79.125t 79.125-32.875z" horiz-adv-x="480" data-tags="camera, photo, picture, image" />
<glyph unicode="&#xe000;" d="M 442.75,188.868c-7.112,0.00-24.234-7.882-36.442-14.00l-27.79,0.00 
	c-1.68,35.602-15.974,67.83-38.57,92.40l 18.368,18.382c 13.048,4.27, 32.228,11.186, 37.506,16.464c 8.204,8.204, 8.204,21.504,0.00,29.708
	c-8.204,8.19-21.49,8.19-29.694,0.00c-5.026-5.026-11.564-22.736-15.862-35.672l-19.642-19.628C 305.942,298.992, 273.644,313.09, 238.00,314.574L 238.00,340.572 
	c 6.188,12.25, 14.868,30.716, 14.868,38.178c0.00,11.592-9.408,21.00-21.00,21.00s-21.00-9.408-21.00-21.00c0.00-7.112, 7.882-24.234, 14.00-36.442l0.00-27.79 
	c-35.602-1.68-67.844-15.96-92.414-38.57L 114.086,294.33c-4.27,13.048-11.20,32.242-16.478,37.52c-8.19,8.19-21.49,8.19-29.694,0.00
	c-8.204-8.204-8.204-21.504,0.00-29.708C 72.94,297.102, 90.636,290.578, 103.572,286.28l 19.642-19.642c-22.274-24.486-36.316-56.462-37.982-91.756L 57.442,174.882 
	c-12.194,6.118-29.316,14.00-36.442,14.00c-11.606,0.00-21.00-9.408-21.00-21.00s 9.394-21.00, 21.00-21.00c 7.462,0.00, 25.928,8.68, 38.178,14.868l 26.012,0.00 
	c 1.47-35.644, 15.582-67.942, 38.038-92.624l-19.628-19.642c-12.95-4.298-30.632-10.822-35.672-15.862c-8.204-8.204-8.204-21.504,0.00-29.694
	c 8.204-8.204, 21.504-8.204, 29.694,0.00c 5.278,5.264, 12.194,24.444, 16.478,37.492l 18.382,18.382c 24.57-22.596, 56.798-36.89, 92.40-38.57l0.00-27.79 
	c-6.118-12.194-14.00-29.33-14.00-36.442c0.00-11.592, 9.408-21.00, 21.00-21.00s 21.00,9.408, 21.00,21.00c0.00,7.462-8.68,25.928-14.868,38.178l0.00,26.012 
	c 35.644,1.456, 67.942,15.568, 92.624,38.024l 19.642-19.628c 4.298-12.936, 10.822-30.632, 15.862-35.658c 8.204-8.204, 21.49-8.204, 29.694,0.00
	c 8.204,8.19, 8.204,21.49,0.00,29.694c-5.278,5.278-24.458,12.194-37.506,16.478l-18.368,18.368c 22.792,24.78, 37.128,57.33, 38.612,93.282l 26.012,0.00 
	c 12.25-6.202, 30.702-14.868, 38.178-14.868c 11.592,0.00, 21.00,9.408, 21.00,21.00S 454.342,188.868, 442.75,188.868z M 143.01,246.828l 49.728-49.728
	c-4.788-6.398-7.966-13.958-9.17-22.218L 113.232,174.882 C 114.842,202.448, 125.776,227.452, 143.01,246.828z M 113.176,161.75l 70.308,0.00 
	c 1.092-8.61, 4.312-16.492, 9.268-23.10l-49.742-49.728C 125.608,108.494, 114.618,133.834, 113.176,161.75z M 224.868,49.232
	c-27.888,1.624-53.13,12.796-72.604,30.38l 49.70,49.70c 6.538-5.068, 14.322-8.484, 22.904-9.716L 224.868,49.232 z M 224.868,216.168
	c-8.582-1.232-16.366-4.662-22.904-9.73l-49.70,49.70c 19.474,17.57, 44.716,28.756, 72.604,30.38L 224.868,216.168 z M 350.518,174.868l-70.35,0.00 
	c-1.232,8.568-4.648,16.366-9.716,22.904l 49.70,49.70C 337.722,228.012, 348.894,202.756, 350.518,174.868z M 310.828,256.74l-49.728-49.742
	c-6.622,4.956-14.49,8.176-23.10,9.268L 238.00,286.574 C 265.916,285.132, 291.256,274.142, 310.828,256.74z M 238.00,49.19l0.00,70.294 
	c 8.61,1.092, 16.492,4.312, 23.10,9.254l 49.728-49.728C 291.256,61.608, 265.916,50.618, 238.00,49.19z M 320.138,88.278l-49.70,49.70
	c 5.25,6.748, 8.694,14.868, 9.814,23.772l 70.294,0.00 C 349.132,133.512, 337.904,107.934, 320.138,88.278z" horiz-adv-x="462" data-tags="navigation, nautical vessel, vessel, wheel" />
<glyph unicode="&#xe001;" d="M 420.00,384.00L 28.00,384.00 C 12.537,384.00,0.00,371.477,0.00,356.00l0.00-392.00 c0.00-15.477, 12.537-28.00, 28.00-28.00l 392.00,0.00 
			c 15.463,0.00, 28.00,12.523, 28.00,28.00L 448.00,356.00 C 448.00,371.477, 435.463,384.00, 420.00,384.00z M 392.00,48.00L 56.00,48.00 L 56.00,328.00 l 336.00,0.00 L 392.00,48.00 z" data-tags="ipad, tablet, mobile" />
<glyph unicode="&#xf03d;" d="M 475.00,319.50q 5.00-2.00 5.00-7.50l0.00-304.00 q0.00-5.50 -5.00-7.50q-2.00-0.50 -3.00-0.50q-3.00,0.00 -5.75,2.25l-146.25,146.50l0.00-76.75 q0.00-29.75 -21.125-50.875t-50.875-21.125l-176.00,0.00 q-29.75,0.00 -50.875,21.125t-21.125,50.875l0.00,176.00 q0.00,29.75 21.125,50.875t 50.875,21.125l 176.00,0.00 q 29.75,0.00 50.875-21.125t 21.125-50.875l0.00-76.75 l 146.25,146.50q 4.00,3.75 8.75,1.75z" horiz-adv-x="480" data-tags="facetime-video, video, movie, camera, film" />
<glyph unicode="&#xf024;" d="M 80.00,320.00q0.00-18.00 -16.00-27.50l0.00-316.50 q0.00-3.25 -2.375-5.625t-5.625-2.375l-16.00,0.00 q-3.25,0.00 -5.625,2.375t-2.375,5.625l0.00,316.50 q-16.00,9.50 -16.00,27.50q0.00,13.25 9.375,22.625t 22.625,9.375t 22.625-9.375t 9.375-22.625zM 448.00,304.00l0.00-190.75 q0.00-6.25 -3.125-9.625t-9.875-6.875q-53.75-29.00 -92.25-29.00q-15.25,0.00 -30.875,5.50t-27.125,12.00 t-28.875,12.00t-35.625,5.50q-48.00,0.00 -116.00-36.50q-4.25-2.25 -8.25-2.25q-6.50,0.00 -11.25,4.75t-4.75,11.25l0.00,185.50 q0.00,8.00 7.75,13.75q 5.25,3.50 19.75,10.75q 59.00,30.00 105.25,30.00q 26.75,0.00 50.00-7.25t 54.75-22.00q 9.50-4.75 22.00-4.75q 13.50,0.00 29.375,5.25t 27.50,11.75t 22.00,11.75t 13.625,5.25q 6.50,0.00 11.25-4.75t 4.75-11.25z" data-tags="flag, report" />
<glyph unicode="&#xe003;" d="M 336.00,361.60L 112.00,361.60 C 87.36,361.60, 67.20,341.44, 67.20,316.80l0.00-313.60 c0.00-24.64, 20.16-44.80, 44.80-44.80l 224.00,0.00 c 24.64,0.00, 44.80,20.16, 44.80,44.80L 380.80,316.80 C 380.80,341.44, 360.64,361.60, 336.00,361.60z M 130.189,268.214l 187.60,0.00 l0.00-39.20 L 130.189,229.014 L 130.189,268.214 
	z M 317.789,53.152L 130.189,53.152 l0.00,39.20 l 187.60,0.00 L 317.789,53.152 z M 318.326,140.512L 130.726,140.512 l0.00,40.32 l 187.60,0.00 L 318.326,140.512 z" data-tags="text, file, document" />
<glyph unicode="&#xf09b;" d="M 352.00,160.00q0.00,32.50 -12.75,62.125t-34.125,51.00t-51.00,34.125t-62.125,12.75t-62.125-12.75t-51.00-34.125t-34.125-51.00t-12.75-62.125q0.00-52.25 31.125-94.625t 80.875-57.875l0.00,42.25 q-13.50-1.75 -17.25-1.75q-27.50,0.00 -38.25,25.00q-3.75,9.50 -9.00,15.75q-1.25,1.50 -5.25,4.75t-7.125,6.00t-3.125,4.00q0.00,3.00 7.00,3.00q 7.25,0.00 12.875-3.625t 9.50-8.75 t 7.875-10.375t 10.125-8.875t 14.125-3.625q 10.50,0.00 20.25,3.50q 4.00,14.25 15.75,22.25q-41.50,4.00 -61.50,20.875t-20.00,56.125q0.00,29.50 18.25,49.50q-3.50,10.50 -3.50,21.00q0.00,14.50 6.75,27.25q 14.25,0.00 25.25-4.875t 25.25-15.125q 19.00,4.50 42.25,4.50q 20.00,0.00 38.25-4.00q 14.25,10.00 25.125,14.75t 24.875,4.75q 6.75-12.75 6.75-27.25q0.00-10.75 -3.50-20.75q 18.25-20.50 18.25-49.75 q0.00-39.25 -20.00-56.375t-61.25-20.875q 17.25-11.75 17.25-32.75l0.00-56.50 q 49.75,15.50 80.875,57.875t 31.125,94.625zM 384.00,160.00q0.00-52.25 -25.75-96.375t-69.875-69.875t-96.375-25.75t-96.375,25.75t-69.875,69.875t-25.75,96.375t 25.75,96.375t 69.875,69.875t 96.375,25.75t 96.375-25.75t 69.875-69.875t 25.75-96.375z" horiz-adv-x="384" data-tags="github, social" />
<glyph unicode="&#xf113;" d="M 160.00,80.00q0.00-10.00 -3.125-20.50t-10.75-19.00t-18.125-8.50t-18.125,8.50t-10.75,19.00t-3.125,20.50t 3.125,20.50t 10.75,19.00t 18.125,8.50t 18.125-8.50t 10.75-19.00t 3.125-20.50zM 320.00,80.00q0.00-10.00 -3.125-20.50t-10.75-19.00t-18.125-8.50t-18.125,8.50t-10.75,19.00t-3.125,20.50t 3.125,20.50t 10.75,19.00t 18.125,8.50t 18.125-8.50t 10.75-19.00t 3.125-20.50zM 360.00,80.00 q0.00,30.00 -17.25,51.00t-46.75,21.00q-10.25,0.00 -48.75-5.25q-17.75-2.75 -39.25-2.75t-39.25,2.75q-38.00,5.25 -48.75,5.25q-29.50,0.00 -46.75-21.00t-17.25-51.00q0.00-22.00 8.00-38.375t 20.25-25.75t 30.50-15.00t 35.00-7.375t 37.25-1.75l 42.00,0.00 q 20.50,0.00 37.25,1.75t 35.00,7.375t 30.50,15.00t 20.25,25.75t 8.00,38.375zM 416.00,124.00q0.00-51.75 -15.25-82.75q-9.50-19.25 -26.375-33.25t-35.25-21.50 t-42.50-11.875t-42.875-5.50t-41.75-1.125q-19.50,0.00 -35.50,0.75t-36.875,3.125t-38.125,7.50t-34.25,12.875t-30.25,20.25t-21.50,28.75q-15.50,30.75 -15.50,82.75q0.00,59.25 34.00,99.00q-6.75,20.50 -6.75,42.50q0.00,29.00 12.75,54.50q 27.00,0.00 47.50-9.875t 47.25-30.875q 36.75,8.75 77.25,8.75q 37.00,0.00 70.00-8.00q 26.25,20.50 46.75,30.25t 47.25,9.75q 12.75-25.50 12.75-54.50 q0.00-21.75 -6.75-42.00q 34.00-40.00 34.00-99.50z" horiz-adv-x="416" data-tags="github-alt, social" />
<glyph unicode="&#xe004;" d="M 134.422,263.04L 134.40,56.96L 313.60,160.00 z" data-tags="arrow-right, triangle, right, next" />
<glyph unicode="&#xe005;" d="M 313.578,263.04L 313.60,56.96L 134.40,160.00 z" data-tags="arrow-left, left, triangle, previous" />
<glyph unicode="&#xe002;" d="M 377.433-68.841l 67.829,0.00 l0.00,71.073l 41.794,0.014c 20.362,0.00, 36.859,16.497, 36.866,36.852l-0.007,236.956
	c0.00,20.355-16.497,36.859-36.859,36.859l-41.801,0.00L 445.254,384.00 l-67.829,0.00l0.00-71.08 l-81.558,0.00L 295.868,383.993 L 228.046,383.993 l0.00-71.08 L 146.489,312.913 L 146.482,384.00l-67.829,0.00l0.00-71.087 L 36.866,312.913 
	C 16.497,312.913,0.00,296.409,0.00,276.054l0.00-236.956 c0.00-20.348, 16.497-36.852, 36.859-36.852l 41.801-0.014l0.00-71.073 l 67.836,0.00 l0.00,71.087 l 81.55-0.014l0.00-71.073 l 67.829,0.00 
	l0.00,71.087l 81.565,0.00 L 377.433-68.841z" horiz-adv-x="520.258064516129" data-tags="chip" />
<glyph unicode="&#xf00c;" d="M 417.75,242.50q0.00-10.00 -7.00-17.00l-181.00-181.00l-34.00-34.00q-7.00-7.00 -17.00-7.00t-17.00,7.00l-34.00,34.00l-90.50,90.50q-7.00,7.00 -7.00,17.00t 7.00,17.00l 34.00,34.00q 7.00,7.00 17.00,7.00t 17.00-7.00l 73.50-73.75l 164.00,164.25q 7.00,7.00 17.00,7.00t 17.00-7.00l 34.00-34.00q 7.00-7.00 7.00-17.00z" data-tags="ok, checkmark, tick, correct" />
<glyph unicode="&#xf00d;" d="M 324.50,53.50q0.00-10.00 -7.00-17.00l-34.00-34.00q-7.00-7.00 -17.00-7.00t-17.00,7.00l-73.50,73.50l-73.50-73.50q-7.00-7.00 -17.00-7.00t-17.00,7.00l-34.00,34.00q-7.00,7.00 -7.00,17.00t 7.00,17.00l 73.50,73.50l-73.50,73.50q-7.00,7.00 -7.00,17.00t 7.00,17.00l 34.00,34.00q 7.00,7.00 17.00,7.00t 17.00-7.00l 73.50-73.50l 73.50,73.50q 7.00,7.00 17.00,7.00t 17.00-7.00l 34.00-34.00q 7.00-7.00 7.00-17.00 t-7.00-17.00l-73.50-73.50l 73.50-73.50q 7.00-7.00 7.00-17.00z" horiz-adv-x="352" data-tags="remove, cancel, close, delete, mutiply" />
<glyph unicode="&#xf040;" d="M 90.75,0.00l 22.75,22.75l-58.75,58.75l-22.75-22.75l0.00-26.75 l 32.00,0.00 l0.00-32.00 l 26.75,0.00 zM 221.50,232.00q0.00,5.50 -5.50,5.50q-2.50,0.00 -4.25-1.75l-135.50-135.50q-1.75-1.75 -1.75-4.25q0.00-5.50 5.50-5.50q 2.50,0.00 4.25,1.75l 135.50,135.50q 1.75,1.75 1.75,4.25zM 208.00,280.00l 104.00-104.00l-208.00-208.00l-104.00,0.00 l0.00,104.00 zM 378.75,256.00q0.00-13.25 -9.25-22.50l-41.50-41.50l-104.00,104.00l 41.50,41.25q 9.00,9.50 22.50,9.50 q 13.25,0.00 22.75-9.50l 58.75-58.50q 9.25-9.75 9.25-22.75z" horiz-adv-x="384" data-tags="pencil, write, edit, blog" />
<glyph unicode="&#xf002;" d="M 288.00,176.00q0.00,46.25 -32.875,79.125t-79.125,32.875t-79.125-32.875t-32.875-79.125t 32.875-79.125t 79.125-32.875t 79.125,32.875t 32.875,79.125zM 416.00-32.00q0.00-13.00 -9.50-22.50t-22.50-9.50q-13.50,0.00 -22.50,9.50l-85.75,85.50q-44.75-31.00 -99.75-31.00q-35.75,0.00 -68.375,13.875t-56.25,37.50t-37.50,56.25t-13.875,68.375 t 13.875,68.375t 37.50,56.25t 56.25,37.50t 68.375,13.875t 68.375-13.875t 56.25-37.50t 37.50-56.25t 13.875-68.375q0.00-55.00 -31.00-99.75l 85.75-85.75q 9.25-9.25 9.25-22.50z" horiz-adv-x="416" data-tags="search, magnifier, lookup, find" />
<glyph unicode="&#xf01e;" d="M 384.00,320.00l0.00-112.00 q0.00-6.50 -4.75-11.25t-11.25-4.75l-112.00,0.00 q-10.50,0.00 -14.75,10.00q-4.25,9.75 3.50,17.25l 34.50,34.50q-37.00,34.25 -87.25,34.25q-26.00,0.00 -49.625-10.125t-40.875-27.375t-27.375-40.875t-10.125-49.625t 10.125-49.625t 27.375-40.875t 40.875-27.375t 49.625-10.125q 42.25,0.00 76.00,24.875t 46.25,65.375q 1.75,5.75 7.50,5.75l 49.75,0.00  q 4.00,0.00 6.25-3.00q 2.50-3.25 1.75-6.75q-9.75-43.75 -36.875-78.00t-66.50-53.25t-84.125-19.00q-39.00,0.00 -74.50,15.25t-61.25,41.00t-41.00,61.25t-15.25,74.50t 15.25,74.50t 41.00,61.25t 61.25,41.00t 74.50,15.25q 36.75,0.00 71.125-13.875t 61.125-39.125l 32.50,32.25q 7.25,7.75 17.50,3.50q 9.75-4.25 9.75-14.75z" horiz-adv-x="384" data-tags="repeat, loop, reload, refresh, synchronize" />
<glyph unicode="&#xe006;" d="M 431.262,247.198c-11.281,26.675-27.428,50.63-47.998,71.201C 362.706,338.957, 338.75,355.104, 312.076,366.385
	C 284.449,378.076, 255.111,384.00, 224.877,384.00s-59.565-5.924-87.192-17.615c-26.675-11.281-50.63-27.434-71.195-47.992
	c-20.571-20.571-36.711-44.52-47.998-71.201C 6.801,219.572, 0.884,190.234, 0.884,160.00s 5.924-59.565, 17.609-87.192
	c 11.281-26.681, 27.428-50.636, 47.998-71.201c 20.571-20.564, 44.52-36.711, 71.195-47.992c 27.627-11.685, 56.964-17.615, 87.192-17.615
	s 59.565,5.924, 87.192,17.615c 26.681,11.281, 50.63,27.428, 71.195,47.992c 20.571,20.571, 36.717,44.52, 47.998,71.201
	c 11.679,27.627, 17.609,56.964, 17.609,87.192S 442.954,219.572, 431.262,247.198z M 42.199,160.00c0.00,100.732, 81.953,182.684, 182.684,182.684
	c 60.138,0.00, 113.58-29.22, 146.888-74.20l-49.809,0.00 l0.00-44.52 c0.00,0.00-27.085,5.382-48.521,4.318c-18.349-0.908-33.245-9.215-42.299-23.414
	c-3.092-4.791-5.644-9.744-7.684-14.821c-4.984,10.092-12.737,18.499-23.296,25.206c-11.642,7.28-27.857,10.92-48.645,10.92l-24.441-1.201
	l-25.038-2.931L 75.805,218.452l0.00-163.924 C 54.65,84.344, 42.199,120.744, 42.199,160.00z M 321.956,186.164l0.00-62.26 
	c-6.546-1.873-13.272-2.80-20.185-2.80c-21.523,0.00-32.281,11.206-32.281,33.619c0.00,11.119, 2.439,19.70, 7.311,25.754
	c 5.233,5.961, 11.113,8.954, 17.671,8.941C 309.325,189.394, 321.956,186.164, 321.956,186.164z M 180.077,154.599c0.00-11.125-2.439-19.706-7.305-25.754
	c-5.227-5.961-11.113-8.941-17.671-8.941c-7.081,0.00-13.596,3.292-19.525,9.868c-5.314,6.316-7.964,14.411-7.964,24.279l0.00,31.36 
	c 6.546,1.873, 13.278,2.80, 20.185,2.80C 169.319,188.212, 180.077,177.012, 180.077,154.599z M 224.877-22.678
	c-46.779,0.00-89.494,17.684-121.85,46.698l 24.578,0.00 L 127.605,100.267 c 15.798-11.412, 32.362-17.111, 49.672-17.111c 18.374,0.00, 32.094,7.093, 41.148,21.305
	c 3.092,4.791, 5.644,9.738, 7.684,14.815c 4.978-10.092, 12.737-18.499, 23.296-25.20c 11.642-7.28, 27.857-10.92, 48.645-10.92l 24.447,1.195
	l 25.038,2.931l 26.233,3.603L 373.763,265.74 c 21.268-29.867, 33.787-66.366, 33.787-105.74C 407.556,59.268, 325.609-22.678, 224.877-22.678z" data-tags="pd-round" />
<glyph unicode="&#xf00e;" d="M 256.00,184.00l0.00-16.00 q0.00-3.25 -2.375-5.625t-5.625-2.375l-56.00,0.00 l0.00-56.00 q0.00-3.25 -2.375-5.625t-5.625-2.375l-16.00,0.00 q-3.25,0.00 -5.625,2.375t-2.375,5.625l0.00,56.00 l-56.00,0.00 q-3.25,0.00 -5.625,2.375t-2.375,5.625l0.00,16.00 q0.00,3.25 2.375,5.625t 5.625,2.375l 56.00,0.00 l0.00,56.00 q0.00,3.25 2.375,5.625t 5.625,2.375l 16.00,0.00 q 3.25,0.00 5.625-2.375t 2.375-5.625l0.00-56.00 l 56.00,0.00  q 3.25,0.00 5.625-2.375t 2.375-5.625zM 288.00,176.00q0.00,46.25 -32.875,79.125t-79.125,32.875t-79.125-32.875t-32.875-79.125t 32.875-79.125t 79.125-32.875t 79.125,32.875t 32.875,79.125zM 416.00-32.00q0.00-13.25 -9.375-22.625t-22.625-9.375q-13.50,0.00 -22.50,9.50l-85.75,85.50q-44.75-31.00 -99.75-31.00q-35.75,0.00 -68.375,13.875 t-56.25,37.50t-37.50,56.25t-13.875,68.375t 13.875,68.375t 37.50,56.25t 56.25,37.50t 68.375,13.875t 68.375-13.875t 56.25-37.50t 37.50-56.25t 13.875-68.375q0.00-55.00 -31.00-99.75l 85.75-85.75q 9.25-9.25 9.25-22.50z" horiz-adv-x="416" data-tags="zoom-in, magnifier, enlarge" />
<glyph unicode="&#xf010;" d="M 256.00,184.00l0.00-16.00 q0.00-3.25 -2.375-5.625t-5.625-2.375l-144.00,0.00 q-3.25,0.00 -5.625,2.375t-2.375,5.625l0.00,16.00 q0.00,3.25 2.375,5.625t 5.625,2.375l 144.00,0.00 q 3.25,0.00 5.625-2.375t 2.375-5.625zM 288.00,176.00q0.00,46.25 -32.875,79.125t-79.125,32.875t-79.125-32.875t-32.875-79.125t 32.875-79.125t 79.125-32.875t 79.125,32.875t 32.875,79.125z M 416.00-32.00q0.00-13.25 -9.375-22.625t-22.625-9.375q-13.50,0.00 -22.50,9.50l-85.75,85.50q-44.75-31.00 -99.75-31.00q-35.75,0.00 -68.375,13.875t-56.25,37.50t-37.50,56.25t-13.875,68.375t 13.875,68.375t 37.50,56.25t 56.25,37.50t 68.375,13.875t 68.375-13.875t 56.25-37.50t 37.50-56.25t 13.875-68.375q0.00-55.00 -31.00-99.75l 85.75-85.75q 9.25-9.25 9.25-22.50z " horiz-adv-x="416" data-tags="zoom-out, magnifier" />
<glyph unicode="&#xf019;" d="M 334.75,182.25q 4.25-10.25 -3.50-17.50l-112.00-112.00q-4.50-4.75 -11.25-4.75t-11.25,4.75l-112.00,112.00q-7.75,7.25 -3.50,17.50q 4.25,9.75 14.75,9.75l 64.00,0.00 l0.00,112.00 q0.00,6.50 4.75,11.25t 11.25,4.75l 64.00,0.00 q 6.50,0.00 11.25-4.75t 4.75-11.25l0.00-112.00 l 64.00,0.00 q 10.50,0.00 14.75-9.75zM 408.00,128.00q 3.50,0.00 5.75-2.25t 2.25-5.75l0.00-144.00 q0.00-3.50 -2.25-5.75t-5.75-2.25l-400.00,0.00 q-3.50,0.00 -5.75,2.25t-2.25,5.75l0.00,144.00 q0.00,3.50 2.25,5.75 t 5.75,2.25l 48.00,0.00 q 3.50,0.00 5.75-2.25t 2.25-5.75l0.00-88.00 l 288.00,0.00 l0.00,88.00 q0.00,3.50 2.25,5.75t 5.75,2.25l 48.00,0.00 z" horiz-adv-x="416" data-tags="download-alt, arrow, store, save" />
<glyph unicode="&#xe008;" d="M 224.00,357.12L 277.491,206.547L 421.12,206.547L 303.923,118.112L 345.811-37.12L 224.00,55.93L 102.189-37.12L 144.077,118.112L 26.88,206.547L 170.509,206.547 	z" data-tags="star, favorite, rate, bookmark" />
<glyph unicode="&#xe009;" d="M 421.12,206.547l-143.651,0.00 L 223.978,357.12L 170.509,206.547L 26.88,206.547 l 117.174-88.435l-41.888-155.232l 121.811,93.05l 121.811-93.05l-41.888,155.232L 421.12,206.547z
	 M 223.978,99.878l-67.469-56.022l 27.821,79.789l-63.862,51.52l 78.87-2.24l 24.618,90.496l 24.64-90.496l 78.87,2.24l-63.862-51.52l 27.843-79.789L 223.978,99.878z
	" data-tags="star, favorite, rate, bookmark" />
<glyph unicode="&#xe00a;" d="M 224.00,300.00C 126.298,300.00, 41.614,243.107,0.00,160.00c 41.614-83.107, 126.298-140.00, 224.00-140.00c 97.70,0.00, 182.384,56.893, 224.00,140.00
	C 406.387,243.107, 321.70,300.00, 224.00,300.00z M 334.447,225.755c 26.321-16.789, 48.625-39.276, 65.377-65.754
	c-16.753-26.478-39.057-48.966-65.378-65.755C 301.374,73.15, 263.182,62.00, 224.00,62.00c-39.183,0.00-77.374,11.15-110.447,32.245
	C 87.233,111.033, 64.929,133.521, 48.176,160.00c 16.753,26.479, 39.057,48.967, 65.377,65.754c 1.714,1.094, 3.446,2.153, 5.188,3.194
	C 114.384,216.992, 112.00,204.089, 112.00,190.625c0.00-61.855, 50.145-112.00, 112.00-112.00s 112.00,50.145, 112.00,112.00c0.00,13.464-2.384,26.367-6.741,38.324
	C 331.00,227.909, 332.732,226.848, 334.447,225.755z M 224.00,204.625c0.00-23.196-18.804-42.00-42.00-42.00s-42.00,18.804-42.00,42.00s 18.804,42.00, 42.00,42.00
	S 224.00,227.821, 224.00,204.625z" data-tags="eye, views, vision, visit" />
<glyph unicode="&#xf0ab;" d="M 321.00,159.75q0.00,6.75 -4.50,11.25l-22.75,22.75q-4.50,4.50 -11.25,4.50t-11.25-4.50l-47.25-47.25l0.00,125.50 q0.00,6.50 -4.75,11.25t-11.25,4.75l-32.00,0.00 q-6.50,0.00 -11.25-4.75t-4.75-11.25l0.00-125.50 l-47.25,47.25q-4.75,4.75 -11.25,4.75t-11.25-4.75l-22.75-22.75q-4.50-4.50 -4.50-11.25t 4.50-11.25l 90.50-90.50l 22.75-22.75q 4.50-4.50 11.25-4.50t 11.25,4.50l 22.75,22.75l 90.50,90.50q 4.50,4.50 4.50,11.25zM 384.00,160.00 q0.00-52.25 -25.75-96.375t-69.875-69.875t-96.375-25.75t-96.375,25.75t-69.875,69.875t-25.75,96.375t 25.75,96.375t 69.875,69.875t 96.375,25.75t 96.375-25.75t 69.875-69.875t 25.75-96.375z" horiz-adv-x="384" data-tags="circle-arrow-down, download, arrow, bottom" />
<glyph unicode="&#xf0c1;" d="M 364.00,80.00q0.00,10.00 -7.00,17.00l-52.00,52.00q-7.00,7.00 -17.00,7.00q-10.50,0.00 -18.00-8.00q 0.75-0.75 4.75-4.625t 5.375-5.375t 3.75-4.75t 3.25-6.375t 0.875-6.875q0.00-10.00 -7.00-17.00t-17.00-7.00q-3.75,0.00 -6.875,0.875t-6.375,3.25t-4.75,3.75t-5.375,5.375t-4.625,4.75q-8.25-7.75 -8.25-18.25q0.00-10.00 7.00-17.00l 51.50-51.75q 6.75-6.75 17.00-6.75q 10.00,0.00 17.00,6.50 l 36.75,36.50q 7.00,7.00 7.00,16.75zM 188.25,256.25q0.00,10.00 -7.00,17.00l-51.50,51.75q-7.00,7.00 -17.00,7.00q-9.75,0.00 -17.00-6.75l-36.75-36.50q-7.00-7.00 -7.00-16.75q0.00-10.00 7.00-17.00l 52.00-52.00q 6.75-6.75 17.00-6.75q 10.50,0.00 18.00,7.75q-0.75,0.75 -4.75,4.625t-5.375,5.375t-3.75,4.75t-3.25,6.375t-0.875,6.875q0.00,10.00 7.00,17.00t 17.00,7.00q 3.75,0.00 6.875-0.875t 6.375-3.25t 4.75-3.75 t 5.375-5.375t 4.625-4.75q 8.25,7.75 8.25,18.25zM 412.00,80.00q0.00-30.00 -21.25-50.75l-36.75-36.50q-20.75-20.75 -50.75-20.75q-30.25,0.00 -51.00,21.25l-51.50,51.75q-20.75,20.75 -20.75,50.75q0.00,30.75 22.00,52.25l-22.00,22.00q-21.50-22.00 -52.00-22.00q-30.00,0.00 -51.00,21.00l-52.00,52.00q-21.00,21.00 -21.00,51.00t 21.25,50.75l 36.75,36.50q 20.75,20.75 50.75,20.75q 30.25,0.00 51.00-21.25l 51.50-51.75 q 20.75-20.75 20.75-50.75q0.00-30.75 -22.00-52.25l 22.00-22.00q 21.50,22.00 52.00,22.00q 30.00,0.00 51.00-21.00l 52.00-52.00q 21.00-21.00 21.00-51.00z" horiz-adv-x="416" data-tags="link, chain, anchor" />
<glyph unicode="&#xf0b0;" d="M 350.75,310.25q 4.25-10.25 -3.50-17.50l-123.25-123.25l0.00-185.50 q0.00-10.50 -9.75-14.75q-3.25-1.25 -6.25-1.25q-6.75,0.00 -11.25,4.75l-64.00,64.00q-4.75,4.75 -4.75,11.25l0.00,121.50 l-123.25,123.25q-7.75,7.25 -3.50,17.50q 4.25,9.75 14.75,9.75l 320.00,0.00 q 10.50,0.00 14.75-9.75z" horiz-adv-x="352" data-tags="filter" />
<glyph unicode="&#xf0dc;" d="M 256.00,112.00q0.00-6.50 -4.75-11.25l-112.00-112.00q-4.75-4.75 -11.25-4.75t-11.25,4.75l-112.00,112.00q-4.75,4.75 -4.75,11.25t 4.75,11.25t 11.25,4.75l 224.00,0.00 q 6.50,0.00 11.25-4.75t 4.75-11.25zM 256.00,208.00q0.00-6.50 -4.75-11.25t-11.25-4.75l-224.00,0.00 q-6.50,0.00 -11.25,4.75t-4.75,11.25t 4.75,11.25l 112.00,112.00q 4.75,4.75 11.25,4.75t 11.25-4.75l 112.00-112.00q 4.75-4.75 4.75-11.25z" horiz-adv-x="256" data-tags="sort, menu, dropdown, arrows" />
<glyph unicode="&#xe007;" d="M 75.914,206.771l 24.685-217.482C 101.92-21.037, 151.782-54.995, 224.00-55.04c 72.218,0.045, 122.102,34.003, 123.424,44.33l 24.685,217.482
	C 334.387,185.67, 278.006,175.68, 224.00,175.68S 113.613,185.67, 75.914,206.771z M 294.941,341.171l-19.242,21.347C 268.285,373.069, 260.221,375.04, 244.518,375.04L 203.482,375.04 
	c-15.68,0.00-23.744-1.971-31.181-12.522L 153.082,341.171C 95.514,331.114, 53.76,304.435, 53.76,284.768l0.00-3.83 c0.00-34.63, 76.205-62.72, 170.24-62.72s 170.24,28.09, 170.24,62.72
	L 394.24,284.768 C 394.24,304.435, 352.509,331.114, 294.941,341.171z M 270.346,291.286L 242.301,321.28L 205.699,321.28 L 177.654,291.286L 139.574,291.286 c0.00,0.00, 41.709,49.728, 47.286,56.47
	C 191.117,352.909, 195.485,354.88, 201.13,354.88l 45.763,0.00 c 5.645,0.00, 9.99-1.971, 14.269-7.123c 5.555-6.742, 47.286-56.47, 47.286-56.47L 270.346,291.286 z" data-tags="trash, bin, delete, remove, can, clear" />
<glyph unicode="&#xe00b;" d="M 278.477,384.00c 30.016,0.00, 45.024-20.474, 45.024-43.859c0.00-29.21-26.074-56.246-59.987-56.246c-28.448,0.00-45.024,16.80-44.24,44.554
		C 219.274,351.856, 238.986,384.00, 278.477,384.00z M 186.122-64.00c-23.699,0.00-41.059,14.605-24.483,78.915l 27.194,114.038c 4.726,18.256, 5.51,25.581,0.00,25.581
		c-7.123,0.00-37.856-12.611-56.045-25.043L 120.96,149.226c 57.635,48.966, 123.917,77.661, 152.342,77.661c 23.677,0.00, 27.597-28.493, 15.792-72.33l-31.158-119.885
		c-5.51-21.19-3.158-28.493, 2.352-28.493c 7.123,0.00, 30.397,8.803, 53.29,27.059l 13.44-18.256C 270.995-42.048, 209.798-64.00, 186.122-64.00z" data-tags="info, about" />
<glyph unicode="&#x20;" horiz-adv-x="224" />
<glyph class="hidden" unicode="&#xf000;" d="M0,384L 448 -64L0 -64 z" horiz-adv-x="0" />
</font>
</defs>
</svg>
