<?xml version="1.0" encoding="utf-8"?>
<!-- Generator: Adobe Illustrator 16.2.0, SVG Export Plug-In . SVG Version: 6.00 Build 0)  -->
<!DOCTYPE svg PUBLIC "-//W3C//DTD SVG 1.1//EN" "http://www.w3.org/Graphics/SVG/1.1/DTD/svg11.dtd">
<svg version="1.1" id="Layer_1" xmlns="http://www.w3.org/2000/svg" xmlns:xlink="http://www.w3.org/1999/xlink" x="0px" y="0px"
	 width="192.175px" height="73.953px" viewBox="0 0.006 192.175 73.953" enable-background="new 0 0.006 192.175 73.953"
	 xml:space="preserve">
<path fill="#FFFFFF" d="M2.066,17.216c-0.397,1.343-0.687,2.715-0.863,4.081c-1.251,9.737,3.368,18.44,10.981,20.691
	c4.384,1.297,9.108,0.355,13.303-2.65c0.989-0.711,1.921-1.518,2.788-2.41c0,0.001,0,0.002,0.002,0.002
	c0.006-0.007,0.012-0.015,0.019-0.022c0.222-0.229,0.428-0.479,0.644-0.72c5.678-6.019,12.536-3.935,12.536-3.935l-0.036-0.024
	L188.38,73.844c1.586,0.449,3.234-0.471,3.684-2.056c0.038-0.145,0.068-0.29,0.087-0.437c0.187-1.441-0.705-2.84-2.145-3.246
	l-3.387-0.961c-5.111-1.408-5.635-3.257-5.904-4.605c-0.235-1.215,0.712-2.838,0.884-4.023c0.351-2.399-2.381-2.159-3.327-3.847
	c-0.851-1.524,1.901-1.78,3.04-1.839c1.17-1.631,1.974-3.841,2.45-5.772c0.407-1.646,1.217-3.621,1.38-5.282
	c0.215-2.16-1.178-3.757-3.064-4.549c-1.395-0.589-3.811-1.815-4.773-0.39c-0.603,0.891-0.963,2.225-1.347,3.229
	c1.02,0.492,3.345,1.012,3.851,2.091c0.471,0.998-0.398,3.331-1.23,3.979c-0.819-0.156-1.587-0.553-2.38-0.854
	c-0.608,1.327-1.45,2.58-2.196,3.804c-0.563,0.926-1.444,2.036-1.749,3.084c2.354,1.996,4.56,3.359,3.307,6.698
	c-0.332,0.879-1.734,2.517-1.644,3.354c0.089,0.791,0.555,0.779,0.344,1.423l-12.107-3.43c0.004-0.456,0.851-0.991,1.003-1.145
	c0.593-0.602,0.111-2.8,0.266-3.726c0.589-3.517,3.181-3.592,6.221-4.138c0.262-1.057,0.053-2.458,0.033-3.544
	c-0.032-1.43-0.13-2.938,0.008-4.391c-0.836-0.139-1.699-0.18-2.484-0.457c-0.396-0.976,0.026-3.433,0.931-4.06
	c0.98-0.677,3.253,0.04,4.378,0.127c0.175-1.063,0.531-2.398,0.457-3.469c-0.117-1.716-2.82-1.868-4.324-2.063
	c-2.028-0.259-4.03,0.422-4.931,2.397c-0.691,1.521-0.986,3.635-1.457,5.262c-0.557,1.91-0.973,4.225-0.777,6.224
	c0.956,0.621,3.206,2.225,1.704,3.114c-1.664,0.986-3.905-0.593-4.811,1.658c-0.444,1.112-0.44,2.993-1.253,3.923
	c-0.911,1.037-2.438,2.109-6.665,0.97L41.298,25.986c-2.284-1.062-5.224-3.288-6.136-7.878C34.713,10.301,30.441,3.829,24.03,1.931
	C15.186-0.684,5.332,6.172,2.066,17.216z M22.821,6.018c5.599,1.655,8.948,8.409,7.964,16.06c-0.146,1.143-0.389,2.292-0.723,3.419
	c-1.288,4.351-3.792,8.037-7.058,10.376c-3.102,2.225-6.517,2.944-9.61,2.029c-5.599-1.656-8.947-8.411-7.964-16.062
	c0.147-1.142,0.39-2.292,0.723-3.416C8.753,9.633,16.229,4.068,22.821,6.018z"/>
<path fill="#473522" d="M1.067,16.217c-0.397,1.343-0.687,2.715-0.863,4.081c-1.251,9.737,3.368,18.44,10.981,20.691
	c4.384,1.297,9.108,0.355,13.303-2.65c0.989-0.711,1.921-1.518,2.788-2.41c0,0.001,0,0.002,0.002,0.002
	c0.006-0.007,0.012-0.015,0.019-0.022c0.222-0.229,0.428-0.479,0.644-0.72c5.678-6.019,12.536-3.935,12.536-3.935l-0.036-0.024
	l146.939,41.616c1.586,0.449,3.234-0.471,3.684-2.056c0.038-0.145,0.068-0.29,0.087-0.437c0.187-1.441-0.705-2.84-2.145-3.246
	l-3.387-0.961c-5.111-1.408-5.635-3.257-5.904-4.605c-0.235-1.215,0.712-2.838,0.884-4.023c0.351-2.399-2.381-2.159-3.327-3.847
	c-0.851-1.524,1.901-1.78,3.04-1.839c1.17-1.631,1.974-3.841,2.45-5.772c0.407-1.646,1.217-3.621,1.38-5.282
	c0.215-2.16-1.178-3.757-3.064-4.549c-1.395-0.589-3.811-1.815-4.773-0.39c-0.603,0.891-0.963,2.225-1.347,3.229
	c1.02,0.492,3.345,1.012,3.851,2.091c0.471,0.998-0.398,3.331-1.23,3.979c-0.819-0.156-1.587-0.553-2.38-0.854
	c-0.608,1.327-1.45,2.58-2.196,3.804c-0.563,0.926-1.444,2.036-1.749,3.084c2.354,1.996,4.56,3.359,3.307,6.698
	c-0.332,0.879-1.734,2.517-1.644,3.354c0.089,0.791,0.555,0.779,0.344,1.423l-12.107-3.43c0.004-0.456,0.851-0.991,1.003-1.145
	c0.593-0.602,0.111-2.8,0.266-3.726c0.589-3.517,3.181-3.592,6.221-4.138c0.262-1.057,0.053-2.458,0.033-3.544
	c-0.032-1.43-0.13-2.938,0.008-4.391c-0.836-0.139-1.699-0.18-2.484-0.457c-0.396-0.976,0.026-3.433,0.931-4.06
	c0.98-0.677,3.253,0.04,4.378,0.127c0.175-1.063,0.531-2.398,0.457-3.469c-0.117-1.716-2.82-1.868-4.324-2.063
	c-2.028-0.259-4.03,0.422-4.931,2.397c-0.691,1.521-0.986,3.635-1.457,5.262c-0.557,1.91-0.973,4.225-0.777,6.224
	c0.956,0.621,3.206,2.225,1.704,3.114c-1.664,0.986-3.905-0.593-4.811,1.658c-0.444,1.112-0.44,2.993-1.253,3.923
	c-0.911,1.037-2.438,2.109-6.665,0.97L40.299,24.987c-2.284-1.062-5.224-3.288-6.136-7.878C33.714,9.302,29.442,2.83,23.031,0.932
	C14.187-1.683,4.333,5.173,1.067,16.217z M21.822,5.019c5.599,1.655,8.948,8.409,7.964,16.06c-0.146,1.143-0.389,2.292-0.723,3.419
	c-1.288,4.351-3.792,8.037-7.058,10.376c-3.102,2.225-6.517,2.944-9.61,2.029c-5.599-1.656-8.947-8.411-7.964-16.062
	c0.147-1.142,0.39-2.292,0.723-3.416C7.754,8.634,15.23,3.069,21.822,5.019z"/>
</svg>
