<?xml version="1.0" encoding="utf-8"?>
<!-- Generator: Adobe Illustrator 16.2.0, SVG Export Plug-In . SVG Version: 6.00 Build 0)  -->
<!DOCTYPE svg PUBLIC "-//W3C//DTD SVG 1.1//EN" "http://www.w3.org/Graphics/SVG/1.1/DTD/svg11.dtd">
<svg version="1.1" id="Layer_1" xmlns="http://www.w3.org/2000/svg" xmlns:xlink="http://www.w3.org/1999/xlink" x="0px" y="0px"
	 width="50.995px" height="86.668px" viewBox="0 0 50.995 86.668" enable-background="new 0 0 50.995 86.668" xml:space="preserve">
<g>
	<g>
		<path fill="#FFFFFF" d="M25.721,34.906C16.619,37.939,6.747,33.002,3.714,23.9C0.682,14.799,5.618,4.927,14.72,1.894
			s18.974,1.904,22.007,11.005S34.823,31.873,25.721,34.906z M15.407,3.957C7.444,6.611,3.122,15.25,5.777,23.213
			c2.654,7.965,11.293,12.283,19.257,9.629c7.963-2.654,12.284-11.292,9.629-19.254C32.009,5.623,23.371,1.302,15.407,3.957z"/>
	</g>
	<path fill="#FFFFFF" d="M25.856,28.676c0,0.018,0,0.025,0,0.025V28.676z"/>
	<path fill="#FFFFFF" d="M18.849,30.373c-0.001,0.006-0.002,0.012-0.002,0.012L18.849,30.373z"/>
	<path fill="#FFFFFF" d="M31.786,24.506c-0.439,0.07-0.875,0.18-1.291,0.316c-2.971,0.99-4.831,3.523-4.422,6.023
		c0.235,1.439,1.16,2.666,2.605,3.455c0.342,0.186,0.702,0.342,1.078,0.467l0,0c0.004,0.002,0.007,0.002,0.009,0.002
		c0.098,0.033,0.198,0.057,0.296,0.086c2.516,0.797,2.87,3.057,2.87,3.057l0.002-0.014l8.414,47.982
		c0.09,0.518,0.582,0.865,1.102,0.773c0.047-0.008,0.092-0.02,0.137-0.035c0.439-0.146,0.717-0.596,0.635-1.066l-0.193-1.105
		c-0.303-1.666,0.154-2.07,0.504-2.334c0.318-0.236,0.916-0.189,1.279-0.305c0.738-0.232,0.291-0.984,0.645-1.49
		c0.32-0.455,0.773,0.301,0.949,0.619c0.631,0.109,1.377,0.033,1.998-0.096c0.527-0.111,1.209-0.152,1.709-0.336
		c0.65-0.238,0.916-0.859,0.883-1.512c-0.025-0.482-0.008-1.346-0.551-1.426c-0.338-0.049-0.773,0.033-1.115,0.063
		c0.002,0.359,0.174,1.1-0.066,1.395c-0.221,0.273-1.012,0.348-1.313,0.199c-0.068-0.256-0.063-0.533-0.086-0.803
		c-0.465,0.008-0.941-0.059-1.396-0.104c-0.344-0.033-0.785-0.133-1.127-0.076c-0.248,0.955-0.336,1.777-1.467,1.879
		c-0.299,0.027-0.951-0.127-1.191-0.006c-0.307,0.152,0.063,0.66-0.262,0.873l-0.896-5.121c0.393,0.072,0.229,0.688,0.57,0.721
		c0.27,0.021,0.82-0.357,1.107-0.441c1.092-0.318,1.473,0.416,2.051,1.213c0.34-0.07,0.715-0.324,1.023-0.482
		c0.406-0.207,0.826-0.443,1.262-0.605c-0.076-0.26-0.184-0.514-0.213-0.777c0.225-0.248,0.99-0.469,1.295-0.295
		c0.332,0.188,0.441,0.939,0.57,1.275c0.33-0.098,0.764-0.18,1.063-0.35c0.475-0.271,0.143-1.068-0.01-1.527
		c-0.205-0.619-0.68-1.1-1.371-1.086c-0.533,0.012-1.182,0.221-1.713,0.311c-0.627,0.105-1.35,0.307-1.896,0.641
		c-0.045,0.359-0.193,1.23-0.658,0.922c-0.514-0.342-0.371-1.205-1.145-1.152c-0.381,0.025-0.92,0.287-1.299,0.184
		c-0.426-0.117-0.945-0.408-1.203-1.781l-6.25-35.643c-0.012-0.805,0.221-1.957,1.412-2.855c2.182-1.211,3.447-3.336,3.104-5.439
		C38.747,25.793,35.411,23.912,31.786,24.506z M37.88,28.914c0.303,1.84-1.174,3.738-3.51,4.516
		c-0.348,0.117-0.711,0.205-1.08,0.266c-1.43,0.234-2.836,0.025-3.96-0.588c-1.069-0.584-1.749-1.465-1.915-2.48
		c-0.301-1.838,1.176-3.736,3.51-4.514c0.35-0.117,0.713-0.207,1.08-0.268C34.891,25.375,37.528,26.752,37.88,28.914z"/>
	<path fill="#FFFFFF" d="M32.169,29.742c-1.156-1.008-2.726-1.611-4.419-1.705c-1.003-0.055-1.975,0.072-2.887,0.377
		c-2.263,0.754-3.737,2.457-3.846,4.443c-0.077,1.414,0.544,2.771,1.749,3.82c0.303,0.262,0.637,0.494,0.991,0.699
		c-0.001,0.002,0,0.004-0.002,0.008c0.042,0.018,0.079,0.039,0.117,0.061c0.055,0.029,0.107,0.059,0.162,0.088
		c2.162,1.234,2.114,3.35,2.103,3.582l-3.002,38.596c-0.041,0.523,0.352,0.982,0.874,1.021c0.132,0.012,0.258-0.006,0.375-0.045
		c0.353-0.117,0.618-0.436,0.648-0.83l0.229-2.951l0,0c0.151-1.025,0.278-1.203,0.416-1.416c0.157-0.246,0.313-0.309,0.604-0.371
		c0.478-0.107,0.97-0.043,1.478-0.068c0.964-0.049,1.895-0.086,2.827,0.045c0.383,0.057,1.107,0.324,1.291-0.152
		c0.082-0.215-0.004-0.494-0.008-0.727c-0.004-0.258,0.033-0.527,0.037-0.777c0.002-0.08,0.092-0.469,0.113-0.643
		c0.029-0.246,0.031-0.52,0.072-0.773c0.035-0.23,0.16-0.494,0.109-0.719c-0.113-0.498-0.869-0.334-1.256-0.334
		c-0.94,0-1.858-0.17-2.804-0.355c-0.499-0.098-0.996-0.104-1.453-0.275c-0.28-0.105-0.425-0.189-0.547-0.455
		c-0.104-0.229-0.233-0.715-0.23-1.34l0,0l2.146-27.586c0.071-0.557,0.483-2.197,2.837-3.283l0,0
		c1.793-0.859,2.93-2.379,3.023-4.113C33.997,32.148,33.376,30.791,32.169,29.742z M32.561,33.488
		c-0.078,1.416-1.195,2.654-2.917,3.229c-0.749,0.25-1.552,0.352-2.385,0.307c-1.391-0.076-2.671-0.563-3.601-1.371
		c-0.883-0.77-1.338-1.734-1.284-2.721c0.078-1.418,1.196-2.654,2.918-3.229c0.75-0.25,1.552-0.354,2.385-0.309
		c1.392,0.076,2.671,0.564,3.601,1.373C32.161,31.535,32.616,32.502,32.561,33.488z"/>
	<path fill="#FFFFFF" d="M27.054,32.564c-0.873-1.096-2.182-1.896-3.686-2.26c-1.291-0.311-2.591-0.27-3.758,0.119
		c-1.618,0.539-2.745,1.674-3.093,3.111c-0.304,1.266,0.031,2.592,0.944,3.736c0.094,0.121,0.196,0.234,0.301,0.346
		c0,0.002,0,0.002,0,0.004c2.007,2.018,1.558,4.229,1.558,4.229l0,0l-7.244,28.617c-0.13,0.508,0.179,1.027,0.688,1.156
		c0.183,0.047,0.366,0.035,0.533-0.02c0.298-0.1,0.54-0.344,0.623-0.67l0.557-2.201l0,0c0.171-0.469,0.331-0.699,0.951-0.416
		c0.371,0.17,1.421,0.813,1.737,0.346c0.309,0.164,0.516,0.492,0.848,0.635c0.321,0.139,0.681,0.189,1.037,0.238
		c0.608,0.084,1.53,0.289,2.045-0.182c0.595-0.543,1.044-1.166,1.401-1.861c-0.295-0.262-0.763-0.262-1.138-0.332
		c-0.293-0.051-0.281,0.053-0.5,0.25c-0.143,0.133-0.313,0.271-0.488,0.318c-0.195,0.051-0.375,0.016-0.534-0.092
		c-0.157-0.105-0.229-0.314-0.41-0.361c-0.225-0.057-0.578,0.043-0.819,0.029c-0.295-0.02-0.58-0.055-0.871-0.082
		c-0.838-0.076-1.463-0.098-1.85-0.973c-0.077-0.174-0.152-0.494,0.05-0.758c0.582-0.76,1.245-0.525,2.063-0.33
		c0.284,0.068,0.565,0.123,0.85,0.201c0.235,0.063,0.539,0.27,0.77,0.287c0.187,0.014,0.32-0.162,0.504-0.211
		c0.185-0.049,0.365-0.027,0.534,0.086c0.153,0.098,0.268,0.285,0.363,0.457c0.143,0.256,0.098,0.352,0.393,0.395
		c0.378,0.055,0.82,0.205,1.184,0.049c-0.117-0.771-0.344-1.506-0.732-2.211c-0.339-0.609-1.276-0.711-1.881-0.824
		c-0.354-0.068-0.709-0.133-1.058-0.105c-0.36,0.029-0.663,0.273-1.006,0.33c-0.15-0.543-2.014-0.295-1.777-1.457l5.112-20.195
		c0.309-0.82,1.038-1.973,2.745-2.322c0.007,0,0.014-0.002,0.021-0.004c0.059-0.012,0.117-0.023,0.178-0.033
		c0-0.002,0-0.002,0-0.004c0.239-0.051,0.476-0.109,0.706-0.186c1.618-0.539,2.745-1.674,3.093-3.113
		C28.301,35.037,27.966,33.711,27.054,32.564z M26.675,35.982c-0.233,0.973-1.036,1.754-2.2,2.143
		c-0.912,0.303-1.981,0.334-3.011,0.086c-1.21-0.291-2.254-0.926-2.94-1.785c-0.646-0.811-0.889-1.723-0.684-2.572
		c0.234-0.971,1.036-1.752,2.2-2.141c0.912-0.303,1.981-0.334,3.011-0.086c1.209,0.291,2.254,0.926,2.94,1.785
		C26.636,34.222,26.88,35.136,26.675,35.982z"/>
	<path fill="#FFFFFF" d="M21.523,33.236c-0.476-1.063-1.346-1.906-2.452-2.381c-1.073-0.457-2.255-0.512-3.327-0.154
		c-1.142,0.381-2.058,1.211-2.514,2.279c-0.448,1.053-0.43,2.227,0.055,3.309c0.072,0.16,0.156,0.316,0.247,0.467
		c-0.001,0.002,0,0.002-0.002,0.002c0.012,0.02,0.021,0.035,0.033,0.053c0.035,0.055,0.07,0.107,0.105,0.162
		c0.924,1.434,0.666,2.51,0.482,2.949l-0.108,0.217h-0.001h0.001l-9.216,18.43c-0.235,0.471-0.044,1.041,0.425,1.275
		c0.235,0.119,0.496,0.129,0.728,0.051c0.229-0.076,0.433-0.24,0.549-0.475l0.159-0.316c0.015-0.023,0.027-0.041,0.043-0.066
		c0.616-0.988,1.746-0.748,1.746-0.748s1.521,0.34,2.392,1.018c-0.223,1.52,1.461,1.375,1.779,0.719
		c0.155-0.316,0.608-1.014,1.068-2.027c0.453-0.994-0.962-1.723-1.684-0.859c0,0-1.189-0.916-1.995-1.688
		c-0.646-0.617-0.907-0.848-0.609-1.826l6.29-12.58l0.111-0.225c0.271-0.498,1.054-1.67,2.478-1.816v-0.002
		c0.257-0.039,0.511-0.098,0.759-0.18c1.159-0.387,2.051-1.195,2.514-2.279C22.028,35.49,22.008,34.316,21.523,33.236z
		 M20.328,36.01c-0.308,0.721-0.909,1.262-1.693,1.523c-0.757,0.252-1.597,0.211-2.364-0.117c-0.79-0.336-1.41-0.936-1.745-1.684
		c-0.328-0.73-0.344-1.52-0.046-2.219c0.308-0.721,0.909-1.262,1.693-1.523c0.758-0.252,1.598-0.211,2.364,0.117
		c0.791,0.336,1.41,0.936,1.746,1.684C20.612,34.521,20.626,35.308,20.328,36.01z"/>
	<path fill="#FFFFFF" d="M15.449,30.103c-1.184-0.914-2.712-1.219-3.986-0.793c-0.632,0.211-1.174,0.59-1.567,1.1
		c-0.608,0.785-0.818,1.799-0.591,2.848c0.006,0.023,0.015,0.047,0.021,0.072c-0.001,0-0.002,0-0.003,0.002
		c0.638,2.428-0.469,3.561-0.977,4.447l-7.109,9.623c-0.312,0.424-0.223,1.02,0.2,1.33c0.26,0.193,0.584,0.232,0.867,0.139
		c0.065-0.021,0.125-0.053,0.186-0.088c0.052-0.02,0.115-0.057,0.194-0.119c0.59-0.469,1.172-0.131,1.218-0.135
		c0.046-0.002,1.418,1.141,1.736,1.344c0.319,0.205,0.392,0.395,0.799,0.223c0.408-0.172,0.982-1.174,1.254-1.504
		c0.366-0.443-0.412-0.924-0.412-0.924c-1.026-0.877-1.063-0.746-1.604-1.305c-0.508-0.525-0.361-1.273-0.04-1.711l4.152-5.619l0,0
		l0.367-0.496c0.537-0.6,1.739-1.545,4.063-1.715c0.001-0.002,0.001-0.002,0.001-0.002c0.261-0.027,0.517-0.082,0.765-0.166
		c0.631-0.209,1.172-0.59,1.566-1.098c0.608-0.787,0.817-1.799,0.589-2.848C16.921,31.703,16.321,30.777,15.449,30.103z
		 M15.811,32.998c0.143,0.648,0.021,1.264-0.336,1.727c-0.232,0.299-0.542,0.514-0.922,0.641c-0.852,0.283-1.896,0.063-2.725-0.58
		c-0.619-0.477-1.044-1.123-1.195-1.816c-0.14-0.65-0.021-1.264,0.338-1.727c0.23-0.301,0.542-0.518,0.922-0.643
		c0.85-0.285,1.896-0.063,2.725,0.58C15.237,31.658,15.659,32.302,15.811,32.998z"/>
</g>
<g>
	<g>
		<path fill="#473522" d="M24.721,33.906C15.619,36.939,5.747,32.002,2.714,22.9C-0.318,13.799,4.618,3.927,13.72,0.894
			s18.974,1.904,22.007,11.005C38.76,21,33.823,30.873,24.721,33.906z M14.407,2.957C6.444,5.611,2.122,14.25,4.777,22.213
			c2.654,7.965,11.293,12.283,19.257,9.629s12.284-11.291,9.629-19.254C31.008,4.623,22.371,0.302,14.407,2.957z"/>
	</g>
	<path fill="#473522" d="M24.856,27.676c0,0.018,0,0.025,0,0.025V27.676z"/>
	<path fill="#473522" d="M17.849,29.373c-0.001,0.006-0.002,0.012-0.002,0.012L17.849,29.373z"/>
	<path fill="#473522" d="M30.786,23.506c-0.44,0.07-0.875,0.18-1.291,0.316c-2.972,0.99-4.831,3.523-4.423,6.023
		c0.235,1.439,1.16,2.666,2.605,3.455c0.342,0.186,0.702,0.342,1.078,0.467l0,0c0.004,0.002,0.007,0.002,0.009,0.002
		c0.098,0.033,0.198,0.057,0.296,0.086c2.517,0.797,2.869,3.057,2.869,3.057l0.002-0.014l8.415,47.982
		c0.09,0.518,0.582,0.865,1.102,0.773c0.047-0.008,0.092-0.02,0.137-0.035c0.439-0.146,0.717-0.596,0.635-1.066l-0.193-1.105
		c-0.303-1.666,0.154-2.07,0.504-2.334c0.318-0.236,0.916-0.189,1.279-0.305c0.738-0.232,0.291-0.984,0.645-1.49
		c0.32-0.455,0.773,0.301,0.949,0.619c0.631,0.109,1.377,0.033,1.998-0.096c0.527-0.111,1.209-0.152,1.709-0.336
		c0.65-0.238,0.916-0.859,0.883-1.512c-0.025-0.482-0.008-1.346-0.551-1.426c-0.338-0.049-0.773,0.033-1.115,0.063
		c0.002,0.359,0.174,1.1-0.066,1.395c-0.221,0.273-1.012,0.348-1.313,0.199c-0.068-0.256-0.063-0.533-0.086-0.803
		c-0.465,0.008-0.941-0.059-1.396-0.104c-0.344-0.033-0.785-0.133-1.127-0.076c-0.248,0.955-0.336,1.777-1.467,1.879
		c-0.299,0.027-0.951-0.127-1.191-0.006c-0.307,0.152,0.063,0.66-0.262,0.873l-0.896-5.121c0.393,0.072,0.229,0.688,0.57,0.721
		c0.27,0.021,0.82-0.357,1.107-0.441c1.092-0.318,1.473,0.416,2.051,1.213c0.34-0.07,0.715-0.324,1.023-0.482
		c0.406-0.207,0.826-0.443,1.262-0.605c-0.076-0.26-0.184-0.514-0.213-0.777c0.225-0.248,0.99-0.469,1.295-0.295
		c0.332,0.188,0.441,0.939,0.57,1.275c0.33-0.098,0.764-0.18,1.063-0.35c0.475-0.271,0.143-1.068-0.01-1.527
		c-0.205-0.619-0.68-1.1-1.371-1.086c-0.533,0.012-1.182,0.221-1.713,0.311c-0.627,0.105-1.35,0.307-1.896,0.641
		c-0.045,0.359-0.193,1.23-0.658,0.922c-0.514-0.342-0.371-1.205-1.145-1.152c-0.381,0.025-0.92,0.287-1.299,0.184
		c-0.426-0.117-0.945-0.408-1.203-1.781l-6.25-35.643c-0.012-0.805,0.221-1.957,1.412-2.855c2.182-1.211,3.447-3.336,3.104-5.439
		C37.747,24.793,34.411,22.912,30.786,23.506z M36.88,27.914c0.303,1.84-1.174,3.738-3.51,4.516
		c-0.348,0.117-0.711,0.205-1.081,0.266c-1.429,0.234-2.835,0.025-3.96-0.588c-1.069-0.584-1.749-1.465-1.915-2.48
		c-0.301-1.838,1.176-3.736,3.511-4.514c0.349-0.117,0.712-0.207,1.08-0.268C33.891,24.375,36.528,25.752,36.88,27.914z"/>
	<path fill="#473522" d="M31.169,28.742c-1.156-1.008-2.727-1.611-4.42-1.705c-1.003-0.055-1.975,0.072-2.887,0.377
		c-2.263,0.754-3.737,2.457-3.846,4.443c-0.077,1.414,0.544,2.771,1.749,3.82c0.303,0.262,0.637,0.494,0.991,0.699
		c-0.001,0.002,0,0.004-0.002,0.008c0.042,0.018,0.079,0.039,0.117,0.061c0.055,0.029,0.107,0.059,0.162,0.088
		c2.162,1.234,2.114,3.35,2.103,3.582l-3.002,38.596c-0.041,0.523,0.352,0.982,0.874,1.021c0.132,0.012,0.258-0.006,0.375-0.045
		c0.353-0.117,0.618-0.436,0.648-0.83l0.229-2.951l0,0c0.151-1.025,0.278-1.203,0.416-1.416c0.157-0.246,0.313-0.309,0.604-0.371
		c0.478-0.107,0.97-0.043,1.478-0.068c0.964-0.049,1.895-0.086,2.826,0.045c0.383,0.057,1.107,0.324,1.291-0.152
		c0.083-0.215-0.004-0.494-0.008-0.727c-0.003-0.258,0.033-0.527,0.038-0.777c0.002-0.08,0.091-0.469,0.113-0.643
		c0.028-0.246,0.031-0.52,0.071-0.773c0.036-0.23,0.161-0.494,0.11-0.719c-0.114-0.498-0.87-0.334-1.256-0.334
		c-0.94,0-1.858-0.17-2.805-0.355c-0.499-0.098-0.996-0.104-1.453-0.275c-0.28-0.105-0.425-0.189-0.547-0.455
		c-0.104-0.229-0.233-0.715-0.23-1.34l0,0l2.146-27.586c0.071-0.557,0.483-2.197,2.837-3.283l0,0
		c1.794-0.859,2.93-2.379,3.024-4.113C32.996,31.148,32.375,29.791,31.169,28.742z M31.561,32.488
		c-0.077,1.416-1.194,2.654-2.917,3.229c-0.749,0.25-1.552,0.352-2.385,0.307c-1.391-0.076-2.671-0.563-3.601-1.371
		c-0.883-0.77-1.338-1.734-1.284-2.721c0.078-1.418,1.196-2.654,2.918-3.229c0.75-0.25,1.552-0.354,2.385-0.309
		c1.392,0.076,2.671,0.564,3.601,1.373C31.16,30.535,31.615,31.502,31.561,32.488z"/>
	<path fill="#473522" d="M26.054,31.564c-0.873-1.096-2.182-1.896-3.686-2.26c-1.291-0.311-2.591-0.27-3.758,0.119
		c-1.618,0.539-2.745,1.674-3.093,3.111c-0.304,1.266,0.031,2.592,0.944,3.736c0.094,0.121,0.196,0.234,0.301,0.346
		c0,0.002,0,0.002,0,0.004c2.007,2.018,1.558,4.229,1.558,4.229l0,0l-7.244,28.617c-0.13,0.508,0.179,1.027,0.688,1.156
		c0.183,0.047,0.366,0.035,0.533-0.02c0.298-0.1,0.54-0.344,0.623-0.67l0.557-2.201l0,0c0.171-0.469,0.331-0.699,0.951-0.416
		c0.371,0.17,1.421,0.813,1.737,0.346c0.309,0.164,0.516,0.492,0.848,0.635c0.321,0.139,0.681,0.189,1.037,0.238
		c0.608,0.084,1.53,0.289,2.045-0.182c0.595-0.543,1.044-1.166,1.401-1.861c-0.295-0.262-0.763-0.262-1.138-0.332
		c-0.293-0.051-0.281,0.053-0.5,0.25c-0.143,0.133-0.313,0.271-0.488,0.318c-0.195,0.051-0.375,0.016-0.534-0.092
		c-0.157-0.105-0.229-0.314-0.41-0.361c-0.225-0.057-0.578,0.043-0.819,0.029c-0.295-0.02-0.58-0.055-0.871-0.082
		c-0.838-0.076-1.463-0.098-1.85-0.973c-0.077-0.174-0.152-0.494,0.05-0.758c0.582-0.76,1.245-0.525,2.063-0.33
		c0.284,0.068,0.565,0.123,0.85,0.201c0.235,0.063,0.539,0.27,0.77,0.287c0.187,0.014,0.32-0.162,0.504-0.211
		c0.185-0.049,0.365-0.027,0.534,0.086c0.153,0.098,0.268,0.285,0.363,0.457c0.143,0.256,0.098,0.352,0.393,0.395
		c0.378,0.055,0.82,0.205,1.184,0.049c-0.117-0.771-0.344-1.506-0.732-2.211c-0.339-0.609-1.276-0.711-1.881-0.824
		c-0.354-0.068-0.709-0.133-1.058-0.105c-0.36,0.029-0.663,0.273-1.006,0.33c-0.15-0.543-2.014-0.295-1.777-1.457l5.112-20.195
		c0.309-0.82,1.038-1.973,2.745-2.322c0.007,0,0.014-0.002,0.021-0.004c0.059-0.012,0.117-0.023,0.178-0.033
		c0-0.002,0-0.002,0-0.004c0.239-0.051,0.476-0.109,0.706-0.186c1.618-0.539,2.745-1.674,3.093-3.113
		C27.301,34.037,26.966,32.711,26.054,31.564z M25.675,34.982c-0.233,0.973-1.036,1.754-2.2,2.143
		c-0.912,0.303-1.981,0.334-3.011,0.086c-1.21-0.291-2.254-0.926-2.94-1.785c-0.646-0.811-0.889-1.723-0.684-2.572
		c0.234-0.971,1.036-1.752,2.2-2.141c0.912-0.303,1.981-0.334,3.011-0.086c1.209,0.291,2.254,0.926,2.94,1.785
		C25.636,33.222,25.88,34.136,25.675,34.982z"/>
	<path fill="#473522" d="M20.523,32.236c-0.476-1.063-1.346-1.906-2.452-2.381c-1.073-0.457-2.255-0.512-3.327-0.154
		c-1.142,0.381-2.058,1.211-2.514,2.279c-0.448,1.053-0.43,2.227,0.055,3.309c0.072,0.16,0.156,0.316,0.247,0.467
		c-0.001,0.002,0,0.002-0.002,0.002c0.012,0.02,0.021,0.035,0.033,0.053c0.035,0.055,0.07,0.107,0.105,0.162
		c0.924,1.434,0.666,2.51,0.482,2.949l-0.108,0.217h-0.001h0.001l-9.216,18.43c-0.235,0.471-0.044,1.041,0.425,1.275
		c0.235,0.119,0.496,0.129,0.728,0.051c0.229-0.076,0.433-0.24,0.549-0.475l0.159-0.316c0.015-0.023,0.027-0.041,0.043-0.066
		c0.616-0.988,1.746-0.748,1.746-0.748s1.521,0.34,2.392,1.018c-0.223,1.52,1.461,1.375,1.779,0.719
		c0.155-0.316,0.608-1.014,1.068-2.027c0.453-0.994-0.962-1.723-1.684-0.859c0,0-1.189-0.916-1.995-1.688
		c-0.646-0.617-0.907-0.848-0.609-1.826l6.29-12.58l0.111-0.225c0.271-0.498,1.054-1.67,2.478-1.816v-0.002
		c0.257-0.039,0.511-0.098,0.759-0.18c1.159-0.387,2.051-1.195,2.514-2.279C21.028,34.49,21.008,33.316,20.523,32.236z
		 M19.328,35.01c-0.308,0.721-0.909,1.262-1.693,1.523c-0.757,0.252-1.597,0.211-2.364-0.117c-0.79-0.336-1.41-0.936-1.745-1.684
		c-0.328-0.73-0.344-1.52-0.046-2.219c0.308-0.721,0.909-1.262,1.693-1.523c0.758-0.252,1.598-0.211,2.364,0.117
		c0.791,0.336,1.41,0.936,1.746,1.684C19.612,33.521,19.626,34.308,19.328,35.01z"/>
	<path fill="#473522" d="M14.449,29.103c-1.184-0.914-2.712-1.219-3.986-0.793c-0.632,0.211-1.174,0.59-1.567,1.1
		c-0.608,0.785-0.818,1.799-0.591,2.848c0.006,0.023,0.015,0.047,0.021,0.072c-0.001,0-0.002,0-0.003,0.002
		c0.638,2.428-0.469,3.561-0.977,4.447l-7.109,9.623c-0.312,0.424-0.223,1.02,0.2,1.33c0.26,0.193,0.584,0.232,0.867,0.139
		c0.065-0.021,0.125-0.053,0.186-0.088c0.052-0.02,0.115-0.057,0.194-0.119c0.59-0.469,1.172-0.131,1.218-0.135
		c0.046-0.002,1.418,1.141,1.736,1.344c0.319,0.205,0.392,0.395,0.799,0.223c0.408-0.172,0.982-1.174,1.254-1.504
		c0.366-0.443-0.412-0.924-0.412-0.924c-1.026-0.877-1.063-0.746-1.604-1.305c-0.508-0.525-0.361-1.273-0.04-1.711l4.152-5.619l0,0
		l0.367-0.496c0.537-0.6,1.739-1.545,4.063-1.715c0.001-0.002,0.001-0.002,0.001-0.002c0.261-0.027,0.517-0.082,0.765-0.166
		c0.631-0.209,1.172-0.59,1.566-1.098c0.608-0.787,0.817-1.799,0.589-2.848C15.921,30.703,15.321,29.777,14.449,29.103z
		 M14.811,31.998c0.143,0.648,0.021,1.264-0.336,1.727c-0.232,0.299-0.542,0.514-0.922,0.641c-0.852,0.283-1.896,0.063-2.725-0.58
		c-0.619-0.477-1.044-1.123-1.195-1.816c-0.14-0.65-0.021-1.264,0.338-1.727c0.23-0.301,0.542-0.518,0.922-0.643
		c0.85-0.285,1.896-0.063,2.725,0.58C14.237,30.658,14.659,31.302,14.811,31.998z"/>
</g>
</svg>
