<?xml version="1.0" encoding="utf-8"?>
<!-- Generator: Adobe Illustrator 16.2.0, SVG Export Plug-In . SVG Version: 6.00 Build 0)  -->
<!DOCTYPE svg PUBLIC "-//W3C//DTD SVG 1.1//EN" "http://www.w3.org/Graphics/SVG/1.1/DTD/svg11.dtd">
<svg version="1.1" id="Layer_1" xmlns="http://www.w3.org/2000/svg" xmlns:xlink="http://www.w3.org/1999/xlink" x="0px" y="0px"
	 width="187.706px" height="152.917px" viewBox="0 -12.334 187.706 152.917" enable-background="new 0 -12.334 187.706 152.917"
	 xml:space="preserve">
<g>
	<path fill="#FFFFFF" d="M54.009,113.389c-1.24-5.918-9.957-13.146-11.799-14.316c-1.843-1.168-5.28-2.656-7.052-0.637
		c-1.674,1.91,0.222,5.547,0.435,5.941c-0.009,0.02-0.017,0.033-0.023,0.039c-4.651,3.861-21.593,17.934-22.741,18.719
		c-1.347,0.922-2.48,2.195-3.756,4.252c-1.275,2.055-6.165,9.779-7.016,10.488c-0.283,0.213-1.701,1.629-0.708,2.34
		c0.992,0.707,1.594,0.27,2.26-0.258c0.667-0.529,3.374-3.357,4.649-3.711c1.276-0.355,9.138-4.465,12.295-5.246
		c2.09-0.516,3.236-1.279,7.712-1.203c0.437,0.008,1.288,0.213,2.918-1.063c1.2-0.939,8.584-7.258,12.395-10.525
		c0,0,1.378-1.223,2.832-2.514c-0.123,0.158-0.258,0.324-0.423,0.465c1.545,1.109,1.905,1.529,3.659,2.295
		c1.501,0.656,2.833,0.273,3.653-0.354C54.354,117.296,54.329,114.917,54.009,113.389z M22.311,120.491
		c-0.451,0.377-0.904,0.561-1.136,0.453c-4.369,3.303-8.553,7.729-12.165,10.873c3.898-4.254,10.141-10.047,11.428-11.209
		c-0.21-0.266-0.06-0.824,0.452-1.254c0.563-0.473,1.336-0.602,1.729-0.287C23.011,119.382,22.873,120.018,22.311,120.491z
		 M36.244,103.78c-0.405-0.926-0.096-2.715,2.137-1.764L36.244,103.78z M49.165,115.382c-0.125,0.125-1.068,0.93-2.286-0.102
		c1.132-1.006,2.227-1.975,2.671-2.361c0-0.002,0.001-0.002,0.001-0.002C49.882,113.987,49.748,114.805,49.165,115.382z"/>
	<path fill="#FFFFFF" d="M178.069-11.33C173.108-8.779,77.298,64.356,75.571,65.772c-1.727,1.418-0.966,1.984-1.249,2.977
		c0,0-24.095,20.834-25.653,22.252c-1.56,1.418-0.992,1.275-2.409,1.982c-0.647,0.326-3.21,1.068-4.302,2.287
		c-0.453,0.508-0.782,0.998-1.026,1.457c0.704,0.311,1.352,0.67,1.881,1.006c1.918,1.217,10.481,8.293,12.793,14.605
		c1.373-0.777,2.571-2.01,2.843-2.914c0.283-0.566,30.755-23.244,30.755-23.244s1.595,0.898,3.402-1.984
		c28.063-21.258,92.833-82.062,95.101-84.754C187.564-8.637,182.178-11.471,178.069-11.33z"/>
</g>
<g>
	<path fill="#473522" d="M53.009,112.39c-1.24-5.918-9.957-13.146-11.799-14.316c-1.843-1.168-5.28-2.656-7.052-0.637
		c-1.674,1.91,0.222,5.547,0.435,5.941c-0.009,0.02-0.017,0.033-0.023,0.039c-4.651,3.861-21.594,17.934-22.741,18.719
		c-1.347,0.922-2.48,2.195-3.756,4.252c-1.275,2.055-6.165,9.779-7.016,10.488c-0.283,0.213-1.701,1.629-0.708,2.34
		c0.992,0.707,1.594,0.27,2.26-0.258c0.667-0.529,3.374-3.357,4.649-3.711c1.276-0.355,9.138-4.465,12.295-5.246
		c2.09-0.516,3.236-1.279,7.712-1.203c0.437,0.008,1.288,0.213,2.918-1.063c1.2-0.939,8.585-7.258,12.396-10.525
		c0,0,1.378-1.223,2.832-2.514c-0.123,0.158-0.258,0.324-0.423,0.465c1.545,1.109,1.905,1.529,3.659,2.295
		c1.501,0.656,2.833,0.273,3.653-0.354C53.354,116.297,53.329,113.918,53.009,112.39z M21.311,119.492
		c-0.451,0.377-0.904,0.561-1.136,0.453c-4.369,3.303-8.553,7.729-12.165,10.873c3.898-4.254,10.141-10.047,11.428-11.209
		c-0.21-0.266-0.06-0.824,0.452-1.254c0.563-0.473,1.336-0.602,1.729-0.287C22.011,118.383,21.873,119.019,21.311,119.492z
		 M35.244,102.781c-0.405-0.926-0.096-2.715,2.137-1.764L35.244,102.781z M48.165,114.383c-0.125,0.125-1.068,0.93-2.286-0.102
		c1.132-1.006,2.227-1.975,2.671-2.361c0-0.002,0.001-0.002,0.001-0.002C48.882,112.988,48.748,113.806,48.165,114.383z"/>
	<path fill="#473522" d="M177.069-12.329C172.108-9.778,76.298,63.357,74.571,64.773c-1.727,1.418-0.966,1.984-1.249,2.977
		c0,0-24.095,20.834-25.653,22.252c-1.56,1.418-0.992,1.275-2.409,1.982c-0.647,0.326-3.21,1.068-4.302,2.287
		c-0.453,0.508-0.782,0.998-1.026,1.457c0.704,0.311,1.352,0.67,1.881,1.006c1.918,1.217,10.481,8.293,12.793,14.605
		c1.373-0.777,2.571-2.01,2.843-2.914c0.283-0.566,30.755-23.244,30.755-23.244s1.595,0.898,3.402-1.984
		c28.063-21.258,92.833-82.061,95.101-84.754C186.564-9.635,181.178-12.47,177.069-12.329z"/>
</g>
</svg>
