<?xml version="1.0" encoding="utf-8"?>
<!-- Generator: Adobe Illustrator 16.2.0, SVG Export Plug-In . SVG Version: 6.00 Build 0)  -->
<!DOCTYPE svg PUBLIC "-//W3C//DTD SVG 1.1//EN" "http://www.w3.org/Graphics/SVG/1.1/DTD/svg11.dtd">
<svg version="1.1" id="Layer_1" xmlns="http://www.w3.org/2000/svg" xmlns:xlink="http://www.w3.org/1999/xlink" x="0px" y="0px"
	 width="17.735px" height="61.926px" viewBox="0 0 17.735 61.926" enable-background="new 0 0 17.735 61.926" xml:space="preserve">
<path fill-rule="evenodd" clip-rule="evenodd" fill="#FFFFFF" d="M10.744,3.073c0.024-0.537-0.007-1.156,0.328-1.689
	c0.271-0.431,0.44-0.584,0.889-0.009c0.933,1.201,0.65,2.595,0.761,3.885c0.438,5.092-0.021,10.18-0.304,15.265
	c-0.036,0.658-0.018,1.245,0.448,1.786c0.793,0.924,0.792,1.947,0.148,2.944c-0.451,0.698-0.563,1.338-0.048,2.054
	c0.4,0.558,0.339,1.138-0.118,1.654c-0.421,0.479-0.283,0.923,0.089,1.323c0.452,0.486,0.799,0.02,1.078-0.223
	c0.938-0.815,1.834-1.679,2.74-2.529c0.185-0.173,0.347-0.381,0.633-0.232c0.219,0.112,0.193,0.33,0.238,0.54
	c0.452,2.148-0.541,3.456-2.42,4.289c-0.678,0.301-1.209,0.74-1.164,1.6c0.015,0.291-0.116,0.586-0.344,0.753
	c-1.118,0.824-0.885,1.842-0.549,2.957c1.326,4.403,2.849,8.751,3.764,13.271c0.582,2.876,0.054,5.546-1.462,8.044
	c-2.518,4.151-8.371,3.942-11.174,1.015c-2.997-3.132-3.771-6.922-2.999-11.125c0.674-3.672,2.06-6.975,4.641-9.728
	c0.533-0.567,1.004-1.196,1.348-1.903c0.188-0.389,0.521-0.889,0.591-1.294s-0.126-0.717-0.265-1.16
	c-0.28-0.901-0.677-1.812-0.201-2.781c0.104-0.213-0.052-0.396-0.177-0.576c-0.753-1.087-0.708-2.196,0.004-3.266
	c0.228-0.344,0.308-0.595,0.066-0.947c-0.604-0.879-0.331-1.69,0.261-2.438c0.365-0.461,0.48-0.854,0.148-1.43
	c-0.86-1.5-0.38-2.906,1.206-3.646c0.447-0.209,0.77-0.396,0.806-0.969c0.249-3.963,0.443-7.926-0.249-11.86
	C9.281,5.64,9.193,4.631,9.072,3.621C9.06,3.517,9.065,3.409,9.054,3.304C8.964,2.519,9.25,1.898,10.066,1.85
	C11.061,1.79,10.46,2.694,10.744,3.073z M10.204,38.146c-1.35,1.507-2.466,3.125-3.476,4.82C5.02,45.843,4.13,48.919,4.497,52.29
	c0.205,1.896,0.893,3.564,2.438,4.775c1.991,1.563,4.92,0.874,6.032-1.41c1.001-2.053,1.161-4.181,0.626-6.399
	C12.688,45.51,10.886,42.036,10.204,38.146z"/>
<path fill-rule="evenodd" clip-rule="evenodd" fill="#473522" d="M9.744,2.073c0.024-0.537-0.007-1.156,0.328-1.689
	c0.271-0.431,0.44-0.584,0.889-0.009c0.933,1.201,0.65,2.595,0.761,3.885c0.438,5.092-0.021,10.18-0.304,15.265
	c-0.036,0.658-0.018,1.245,0.448,1.786c0.793,0.924,0.792,1.947,0.148,2.944c-0.451,0.698-0.563,1.338-0.048,2.054
	c0.4,0.558,0.339,1.138-0.118,1.654c-0.421,0.479-0.283,0.923,0.089,1.323c0.452,0.486,0.799,0.02,1.078-0.223
	c0.938-0.815,1.834-1.679,2.74-2.529c0.185-0.173,0.347-0.381,0.633-0.232c0.219,0.112,0.193,0.33,0.238,0.54
	c0.452,2.148-0.541,3.456-2.42,4.289c-0.678,0.301-1.209,0.74-1.164,1.6c0.015,0.291-0.116,0.586-0.344,0.753
	c-1.118,0.824-0.885,1.842-0.549,2.957c1.326,4.403,2.849,8.751,3.764,13.271c0.582,2.876,0.054,5.546-1.462,8.044
	c-2.518,4.151-8.371,3.942-11.174,1.015c-2.997-3.132-3.771-6.922-2.999-11.125c0.674-3.672,2.06-6.975,4.641-9.728
	c0.533-0.567,1.004-1.196,1.348-1.903c0.188-0.389,0.521-0.889,0.591-1.294s-0.126-0.717-0.265-1.16
	c-0.28-0.901-0.677-1.812-0.201-2.781c0.104-0.213-0.052-0.396-0.177-0.576c-0.753-1.087-0.708-2.196,0.004-3.266
	c0.228-0.344,0.308-0.595,0.066-0.947c-0.604-0.879-0.331-1.69,0.261-2.438c0.365-0.461,0.48-0.854,0.148-1.43
	c-0.86-1.5-0.38-2.906,1.206-3.646c0.447-0.209,0.77-0.396,0.806-0.969c0.249-3.963,0.443-7.926-0.249-11.86
	C8.281,4.64,8.193,3.631,8.072,2.621C8.06,2.517,8.065,2.409,8.054,2.304C7.964,1.519,8.25,0.898,9.066,0.85
	C10.061,0.79,9.46,1.694,9.744,2.073z M9.204,37.146c-1.35,1.507-2.466,3.125-3.476,4.82C4.02,44.843,3.13,47.919,3.497,51.29
	c0.205,1.896,0.893,3.564,2.438,4.775c1.991,1.563,4.92,0.874,6.032-1.41c1.001-2.053,1.161-4.181,0.626-6.399
	C11.688,44.51,9.886,41.036,9.204,37.146z"/>
</svg>
