<?xml version="1.0" encoding="utf-8"?>
<!-- Generator: Adobe Illustrator 16.2.0, SVG Export Plug-In . SVG Version: 6.00 Build 0)  -->
<!DOCTYPE svg PUBLIC "-//W3C//DTD SVG 1.1//EN" "http://www.w3.org/Graphics/SVG/1.1/DTD/svg11.dtd">
<svg version="1.1" id="Layer_1" xmlns="http://www.w3.org/2000/svg" xmlns:xlink="http://www.w3.org/1999/xlink" x="0px" y="0px"
	 width="64.84px" height="40.313px" viewBox="0 0 64.84 40.313" enable-background="new 0 0 64.84 40.313" xml:space="preserve">
<g>
	<path fill="#FFFFFF" d="M42.777,34.368c-0.213,0-0.422-0.009-0.637-0.021c-0.211-0.018-0.438-0.039-0.68-0.07
		c0.029,0,0-0.045-0.092-0.137c-0.029-0.03-0.045-0.076-0.045-0.134h-0.908c-0.063-0.063-0.484-0.206-1.271-0.434
		c-0.787-0.227-1.688-0.491-2.699-0.794c-1.016-0.302-2-0.605-2.953-0.907c-0.953-0.303-1.594-0.562-1.928-0.772
		c-0.816-0.514-1.695-0.946-2.633-1.295c-0.939-0.347-1.832-0.732-2.68-1.156c-0.543-0.06-1.264-0.341-2.156-0.842
		c-0.891-0.498-1.869-1.125-2.926-1.882c-1.061-0.757-2.164-1.597-3.314-2.519c-1.151-0.922-2.248-1.825-3.292-2.703
		c-1.043-0.877-1.982-1.694-2.813-2.451c-0.833-0.756-1.462-1.361-1.885-1.816c-0.062-0.181-0.175-0.369-0.341-0.564
		c-0.165-0.197-0.347-0.404-0.544-0.613c-0.196-0.213-0.379-0.395-0.544-0.545c-0.166-0.151-0.295-0.273-0.386-0.363
		c-0.09-0.092-0.136-0.184-0.136-0.272c-0.06-0.061-0.09-0.12-0.09-0.183l-1.226-1.18c-0.272-0.665-0.674-1.317-1.203-1.951
		c-0.529-0.637-1.007-1.24-1.431-1.817C3.51,8.249,3.147,7.5,2.874,6.698C2.603,5.897,2.254,5.146,1.831,4.45
		c0-0.512-0.115-0.998-0.341-1.451S1.149,2.061,1.149,1.545v-0.09c0-0.029,0-0.101,0-0.205c0-0.106,0.03-0.188,0.091-0.25
		c0.181,0,0.438,0.236,0.772,0.704c0.332,0.47,0.681,0.991,1.042,1.567c0.365,0.574,0.728,1.129,1.091,1.654
		c0.363,0.531,0.682,0.84,0.953,0.934C5.128,5.92,5.22,6.025,5.371,6.175c0.152,0.152,0.317,0.31,0.5,0.479
		c0.182,0.165,0.348,0.333,0.5,0.498c0.149,0.167,0.256,0.278,0.317,0.34c1.452,1.483,2.929,2.907,4.425,4.269
		c1.498,1.361,3.019,2.739,4.563,4.131l0.136,0.044c1.422,1.213,2.98,2.445,4.676,3.7c1.695,1.258,3.404,2.264,5.131,3.021
		c0.119,0.151,0.498,0.415,1.133,0.794c0.637,0.38,1.34,0.771,2.111,1.18c0.771,0.409,1.512,0.771,2.225,1.091
		c0.711,0.315,1.203,0.491,1.475,0.521c1.422,0.727,2.883,1.385,4.381,1.973c1.5,0.592,3.004,1.069,4.518,1.432
		c0.15,0,0.271,0.084,0.363,0.248c0.088,0.169,0.166,0.252,0.227,0.252c0-0.03,0.004-0.045,0.023-0.045
		c0.014,0,0.021-0.016,0.021-0.046h0.318c0.211,0,0.65,0.061,1.316,0.183c0.664,0.12,1.338,0.258,2.02,0.408
		c0.682,0.151,1.295,0.292,1.838,0.431c0.545,0.136,0.82,0.233,0.82,0.295c0,0.091-0.07,0.189-0.207,0.294
		c-0.135,0.106-0.295,0.206-0.477,0.295c-0.182,0.092-0.355,0.168-0.521,0.229c-0.166,0.062-0.281,0.09-0.34,0.09
		c-0.186,0-0.342-0.008-0.479-0.021c-0.135-0.014-0.295-0.039-0.473-0.068c-0.096-0.091-0.17-0.137-0.23-0.137
		s-0.105,0.016-0.135,0.046c-0.033,0.03-0.078,0.045-0.137,0.045c-0.152,0-0.332-0.038-0.545-0.113
		c-0.213-0.079-0.35-0.113-0.41-0.113c0-0.092-0.076-0.157-0.223-0.206c-0.156-0.045-0.318-0.081-0.502-0.111
		c-0.182-0.03-0.357-0.055-0.523-0.069s-0.277-0.022-0.34-0.022c-0.063-0.15-0.156-0.242-0.297-0.271
		c-0.135-0.032-0.262-0.046-0.385-0.046c0-0.092,0.035-0.151,0.115-0.182c0.076-0.031,0.15-0.053,0.227-0.071
		c0.074-0.013,0.152-0.028,0.225-0.042c0.078-0.016,0.115-0.054,0.115-0.113c0-0.092-0.063-0.168-0.18-0.229
		c-0.123-0.058-0.258-0.11-0.41-0.159c-0.15-0.045-0.295-0.082-0.432-0.112c-0.135-0.028-0.219-0.044-0.248-0.044
		c-0.123,0-0.197,0.044-0.229,0.136c0.242,0.241,0.467,0.364,0.682,0.364v0.18c-0.152,0-0.273,0.021-0.365,0.069
		c-0.088,0.044-0.211,0.069-0.361,0.069c-0.182,0-0.363-0.086-0.545-0.252c-0.182-0.164-0.303-0.251-0.363-0.251h-0.77
		c-0.125-0.149-0.57-0.347-1.342-0.589s-1.619-0.514-2.543-0.816c-0.922-0.303-1.801-0.607-2.631-0.908
		c-0.832-0.302-1.355-0.607-1.566-0.908c-0.334-0.06-0.842-0.279-1.521-0.657c-0.682-0.379-1.383-0.778-2.109-1.203
		c-0.729-0.425-1.4-0.788-2.021-1.091c-0.621-0.301-1.037-0.424-1.248-0.363c-0.061-0.121-0.197-0.267-0.41-0.432
		c-0.211-0.166-0.436-0.338-0.68-0.521c-0.242-0.18-0.477-0.332-0.703-0.455c-0.227-0.121-0.4-0.195-0.521-0.226l-1.09-0.138v0.228
		c0.363,0.121,0.795,0.335,1.293,0.637c0.5,0.304,0.998,0.636,1.5,0.999c0.498,0.362,0.98,0.727,1.451,1.089
		c0.469,0.365,0.869,0.667,1.203,0.906c0.482,0.335,1.158,0.736,2.02,1.204c0.863,0.469,1.771,0.938,2.725,1.41
		c0.953,0.467,1.875,0.896,2.768,1.292c0.893,0.394,1.627,0.666,2.201,0.816c0.275,0.091,0.75,0.229,1.432,0.41
		c0.68,0.179,1.385,0.385,2.111,0.612c0.727,0.227,1.377,0.459,1.949,0.702c0.578,0.245,0.91,0.438,1.002,0.593
		c0-0.094,0.025-0.139,0.088-0.139h0.139c0.15,0,0.211,0.076,0.18,0.229h0.182c0.092-0.031,0.279-0.054,0.568-0.07
		c0.287-0.014,0.459-0.006,0.523,0.023c0.545,0.061,1.043,0.234,1.496,0.523c0.455,0.287,0.682,0.731,0.682,1.34
		c0,0.09-0.053,0.149-0.158,0.18c-0.105,0.031-0.189,0.045-0.25,0.045h-0.092c-0.121,0-0.355-0.021-0.703-0.066
		c-0.35-0.047-0.711-0.115-1.092-0.207c-0.375-0.088-0.729-0.188-1.063-0.293C43.08,34.604,42.867,34.487,42.777,34.368z
		 M5.099,36.182c0-0.453,0.105-0.863,0.318-1.225c0.211-0.364,0.478-0.674,0.796-0.932c0.317-0.256,0.672-0.462,1.067-0.611
		c0.391-0.152,0.786-0.229,1.179-0.229c0.362,0,0.628,0.121,0.794,0.362c0.167,0.243,0.25,0.53,0.25,0.862
		c0,0.455-0.257,0.863-0.771,1.227H8.413c-0.152,0-0.28-0.008-0.387-0.021C7.92,35.6,7.792,35.592,7.642,35.592
		c-0.243,0-0.515,0.054-0.816,0.158c-0.305,0.106-0.455,0.313-0.455,0.613c0,0.242,0.188,0.455,0.566,0.636
		c0.378,0.182,0.674,0.273,0.885,0.273c0.302,0,0.561-0.085,0.772-0.249c0.21-0.169,0.454-0.25,0.726-0.25
		c0,0.42-0.234,0.693-0.704,0.816c-0.469,0.119-0.885,0.182-1.247,0.182c-0.184,0-0.403-0.047-0.659-0.137
		c-0.257-0.093-0.506-0.203-0.75-0.341c-0.242-0.136-0.447-0.302-0.612-0.499C5.181,36.598,5.099,36.392,5.099,36.182z
		 M10.591,36.364c-0.18-0.122-0.27-0.271-0.27-0.453c0-0.122,0.013-0.295,0.044-0.523c0.031-0.227,0.075-0.461,0.137-0.703
		c0.061-0.243,0.136-0.453,0.226-0.637c0.091-0.18,0.182-0.301,0.272-0.361c0.515-0.241,1.12-0.432,1.815-0.567
		c0.697-0.138,1.317-0.204,1.861-0.204c0.212,0,0.402,0.074,0.567,0.229c0.167,0.148,0.296,0.321,0.387,0.521
		c0.091,0.196,0.159,0.407,0.203,0.636c0.047,0.227,0.069,0.417,0.069,0.566c0,0.273-0.084,0.5-0.249,0.683
		c-0.167,0.181-0.371,0.315-0.614,0.409c-0.242,0.09-0.498,0.156-0.771,0.203c-0.272,0.043-0.53,0.067-0.771,0.067
		c-0.061,0-0.1-0.009-0.113-0.024c-0.017-0.014-0.054-0.021-0.115-0.021c-0.242,0-0.506,0.055-0.795,0.16
		c-0.287,0.104-0.551,0.156-0.793,0.156c-0.181,0-0.356-0.02-0.523-0.066C10.993,36.386,10.804,36.364,10.591,36.364z
		 M14.859,28.782c-0.09-0.118-0.183-0.21-0.272-0.27c-0.09-0.061-0.183-0.115-0.272-0.159c-0.09-0.047-0.167-0.114-0.227-0.204
		c-0.062-0.092-0.091-0.227-0.091-0.412c0-0.27,0.173-0.506,0.522-0.703c0.348-0.194,0.597-0.385,0.748-0.565
		c0.03,0,0.092-0.007,0.183-0.024c0.09-0.014,0.15-0.021,0.181-0.021c0.272,0,0.522,0.031,0.749,0.09
		c0.227,0.063,0.416,0.213,0.568,0.455c0.393,0.697,0.711,1.415,0.953,2.157c0.242,0.741,0.559,1.476,0.953,2.2
		c0.119,0.182,0.287,0.379,0.5,0.591c0.211,0.212,0.422,0.415,0.635,0.612c0.211,0.197,0.393,0.402,0.545,0.615
		c0.15,0.207,0.227,0.421,0.227,0.634c0,0.181-0.029,0.371-0.09,0.569c-0.061,0.196-0.168,0.37-0.318,0.52v1.633
		c0,0.426,0.219,0.76,0.658,1.002c0.439,0.24,0.824,0.377,1.156,0.407c0.273,0.029,0.576,0.009,0.91-0.069
		c0.332-0.077,0.635-0.113,0.906-0.113c0.303,0,0.537,0.123,0.705,0.366c0.164,0.239,0.25,0.48,0.25,0.725
		c0,0.331-0.168,0.597-0.5,0.795c-0.334,0.197-0.635,0.308-0.908,0.339h-0.771c-1.482,0-2.68-0.361-3.586-1.088
		c-0.908-0.73-1.634-1.643-2.179-2.748c-0.543-1.104-0.969-2.314-1.271-3.631C15.418,31.167,15.13,29.932,14.859,28.782z
		 M20.943,31.371c0-0.062,0.232-0.181,0.701-0.362c0.469-0.183,0.992-0.363,1.566-0.545c0.576-0.183,1.127-0.349,1.658-0.5
		c0.529-0.15,0.84-0.229,0.93-0.229s0.221,0.017,0.387,0.046c0.164,0.032,0.332,0.069,0.5,0.112c0.164,0.05,0.316,0.116,0.451,0.207
		c0.137,0.089,0.205,0.181,0.205,0.272c-0.727,0.331-1.316,0.597-1.771,0.795c-0.451,0.196-0.883,0.386-1.293,0.566
		c-0.406,0.182-0.656,0.287-0.748,0.317h-0.682c-0.09,0-0.24,0-0.453,0c-0.211,0-0.424-0.022-0.635-0.066
		c-0.213-0.047-0.402-0.114-0.568-0.205S20.943,31.553,20.943,31.371z M21.941,34.821c0-0.425,0.295-0.838,0.885-1.249
		c0.59-0.409,1.285-0.776,2.088-1.11c0.801-0.334,1.596-0.599,2.383-0.797c0.787-0.195,1.363-0.294,1.725-0.294
		c0.031,0,0.143,0.021,0.34,0.069c0.197,0.044,0.4,0.097,0.615,0.158c0.209,0.059,0.406,0.143,0.588,0.25
		c0.184,0.102,0.273,0.203,0.273,0.294v0.046c-0.152,0.062-0.395,0.154-0.727,0.273c-0.334,0.121-0.561,0.256-0.682,0.406
		c-0.574,0.029-1.135,0.161-1.678,0.387c-0.547,0.227-1.098,0.463-1.658,0.703c-0.561,0.242-1.127,0.469-1.703,0.682
		c-0.572,0.212-1.164,0.318-1.77,0.318c-0.061,0-0.189,0-0.385,0C22.039,34.958,21.941,34.913,21.941,34.821z M38.781,27.376
		c-0.029,0-0.074-0.015-0.135-0.046c-0.063-0.031-0.109-0.047-0.137-0.047c-0.031,0-0.063-0.013-0.092-0.045v-0.044
		c0-0.06,0.273-0.249,0.818-0.569c0.545-0.317,1.227-0.726,2.041-1.225c0.818-0.5,1.703-1.037,2.658-1.611
		c0.953-0.574,1.836-1.15,2.654-1.723c0.816-0.577,1.498-1.105,2.043-1.59s0.816-0.877,0.816-1.184v-0.133
		c-0.361,0.061-0.709,0.219-1.041,0.475c-0.336,0.26-0.676,0.523-1.021,0.795c-0.35,0.271-0.709,0.514-1.07,0.727
		s-0.74,0.318-1.135,0.318c-0.059,0-0.096-0.024-0.113-0.069c-0.016-0.045-0.055-0.097-0.115-0.157l-0.088,0.09
		c0,0.151-0.016,0.326-0.045,0.521c-0.033,0.199-0.168,0.296-0.41,0.296c0-0.183,0.016-0.319,0.045-0.409
		c0.031-0.092,0.049-0.225,0.049-0.408c-0.063,0-0.176,0.015-0.342,0.043c-0.168,0.033-0.248,0.125-0.248,0.273
		c0,0.092,0.027,0.168,0.088,0.23c0.059,0.059,0.09,0.135,0.09,0.224v0.136c-0.09,0.123-0.197,0.242-0.316,0.363
		c-0.211,0.212-0.361,0.319-0.455,0.319c-0.059,0-0.09-0.044-0.09-0.136c0-0.091-0.029-0.136-0.09-0.136h-0.139
		c0,0.151-0.27,0.439-0.816,0.86c-0.543,0.424-1.158,0.857-1.836,1.295c-0.684,0.439-1.355,0.833-2.021,1.182
		c-0.666,0.348-1.119,0.52-1.363,0.52c-0.029-0.028-0.066-0.051-0.113-0.068c-0.047-0.014-0.066-0.006-0.066,0.024l-0.229,0.138
		c-0.18,0-0.35-0.07-0.498-0.206c-0.154-0.136-0.303-0.235-0.455-0.297v-0.18c0-0.028,0.236-0.196,0.703-0.501
		c0.471-0.301,1.061-0.672,1.771-1.112c0.711-0.436,1.49-0.914,2.338-1.427c0.846-0.516,1.648-1.008,2.406-1.478
		c0.756-0.468,1.42-0.884,1.998-1.247c0.574-0.363,0.936-0.606,1.092-0.729c0.662-0.543,1.357-1.088,2.084-1.633
		c0.729-0.545,1.453-1.098,2.18-1.658c0.729-0.559,1.432-1.141,2.113-1.747c0.68-0.606,1.307-1.24,1.883-1.905
		c0.301-0.152,0.566-0.371,0.793-0.658c0.229-0.289,0.463-0.569,0.701-0.839c0.096-0.093,0.246-0.243,0.457-0.456
		c0.211-0.211,0.439-0.431,0.68-0.658c0.244-0.227,0.469-0.443,0.684-0.658c0.209-0.211,0.361-0.362,0.453-0.452
		c0.121-0.06,0.369-0.296,0.75-0.704c0.377-0.409,0.807-0.893,1.291-1.453c0.486-0.563,1.002-1.16,1.545-1.795
		c0.545-0.635,1.045-1.225,1.498-1.768c0.455-0.547,0.832-0.991,1.135-1.341s0.469-0.524,0.498-0.524
		c0.092,0,0.137,0.034,0.137,0.094c0,0.029,0.008,0.081,0.025,0.158c0.012,0.076,0.021,0.129,0.021,0.16
		c0,0.757-0.166,1.604-0.5,2.541c-0.334,0.939-0.771,1.901-1.316,2.885C62.479,8,61.857,8.993,61.164,9.991
		c-0.697,0.999-1.402,1.943-2.113,2.836c-0.711,0.894-1.398,1.711-2.064,2.451c-0.668,0.742-1.242,1.355-1.725,1.838
		c-0.123,0.183-0.402,0.501-0.84,0.953c-0.443,0.455-0.969,0.963-1.59,1.522s-1.279,1.144-1.975,1.747
		c-0.695,0.605-1.369,1.159-2.021,1.658c-0.648,0.498-1.225,0.906-1.725,1.225c-0.498,0.318-0.857,0.477-1.066,0.477
		c-0.061,0-0.09-0.045-0.09-0.137c0-0.091-0.033-0.135-0.092-0.135l-0.047,0.044c-0.15,0.273-0.27,0.477-0.361,0.612
		c-0.09,0.138-0.203,0.252-0.342,0.34c-0.135,0.093-0.301,0.178-0.496,0.251c-0.199,0.076-0.449,0.19-0.75,0.342
		c-0.119-0.062-0.236-0.047-0.342,0.042c-0.105,0.094-0.211,0.207-0.318,0.343c-0.105,0.136-0.205,0.273-0.293,0.409
		c-0.092,0.137-0.182,0.203-0.273,0.203h-0.68c-0.094,0.183-0.281,0.313-0.568,0.386c-0.287,0.077-0.508,0.114-0.658,0.114
		c-0.092,0-0.197,0-0.318,0c-0.119,0-0.211-0.045-0.273-0.136H38.781z M39.236,29.963c0.059-0.031,0.09-0.06,0.09-0.093
		c0-0.027-0.031-0.043-0.09-0.043V29.963z M40.324,30.145c0.092,0.061,0.213,0.092,0.365,0.092v-0.183
		C40.537,30.054,40.416,30.084,40.324,30.145z M40.416,33.686c-0.063,0-0.092,0.014-0.092,0.045c0,0.029,0.029,0.046,0.092,0.046
		c0.029,0,0.047-0.017,0.047-0.046C40.463,33.7,40.445,33.686,40.416,33.686z M41.049,33.004c0,0.061,0.02,0.092,0.047,0.092
		c0.031,0,0.047-0.031,0.047-0.092H41.049z M41.324,33.278c-0.063,0.06-0.063,0.092,0,0.092c0.059,0,0.104,0,0.137,0
		c0.063,0,0.119,0,0.182,0c0.061,0,0.09-0.032,0.09-0.092h-0.047c0-0.092-0.074-0.182-0.225-0.273
		C41.369,33.096,41.324,33.186,41.324,33.278z M42.117,33.481c0.076,0.075,0.16,0.115,0.25,0.115c0.031,0,0.072-0.008,0.135-0.024
		c0.063-0.016,0.094-0.052,0.094-0.112s-0.01-0.122-0.025-0.182c-0.016-0.063-0.049-0.092-0.109-0.092h-0.549
		c0,0.029-0.014,0.047-0.045,0.047s-0.061,0.014-0.09,0.045v0.044C41.93,33.35,42.043,33.405,42.117,33.481z M42.051,25.604
		c0.061,0.063,0.098,0.146,0.111,0.25c0.018,0.109,0.023,0.191,0.023,0.249h0.045c0.184,0,0.303-0.028,0.365-0.088
		c0.059-0.062,0.104-0.13,0.137-0.204c0.029-0.076,0.066-0.145,0.113-0.207c0.045-0.059,0.143-0.089,0.295-0.089
		c0.027,0.03,0.061,0.047,0.09,0.047c0.031,0.028,0.061,0.042,0.09,0.042h0.047h0.09c0.031-0.059,0.082-0.208,0.16-0.451
		c0.074-0.243,0.113-0.393,0.113-0.455l-0.047-0.045c-0.029,0-0.061-0.016-0.09-0.047c-0.061,0-0.092,0.031-0.092,0.092
		c-0.029,0.03-0.045,0.063-0.045,0.09c-0.271-0.09-0.438-0.037-0.498,0.159c-0.061,0.199-0.168,0.357-0.318,0.476
		c-0.061-0.026-0.092-0.082-0.092-0.158c0-0.072-0.027-0.128-0.088-0.158c-0.031,0-0.078,0.068-0.139,0.205
		C42.262,25.446,42.17,25.545,42.051,25.604z M42.256,26.468c-0.047,0-0.07,0.016-0.07,0.044h0.092
		C42.309,26.484,42.301,26.468,42.256,26.468z M42.641,39.042c0-0.392,0.15-0.642,0.455-0.749c0.299-0.106,0.617-0.162,0.951-0.162
		c0.332,0,0.613,0.04,0.842,0.117c0.225,0.073,0.49,0.112,0.793,0.112c0.818,0,1.385-0.278,1.705-0.839
		c0.316-0.561,0.566-1.189,0.746-1.885v-0.183c0-0.331-0.045-0.665-0.137-0.997c-0.09-0.334-0.135-0.681-0.135-1.043
		c0-0.031,0.195-0.229,0.59-0.589c0.393-0.364,0.832-0.782,1.316-1.251s0.947-0.923,1.387-1.362
		c0.438-0.438,0.717-0.763,0.838-0.974c0.119-0.242,0.25-0.493,0.387-0.75c0.135-0.258,0.297-0.5,0.475-0.729
		c0.18-0.225,0.385-0.414,0.613-0.565s0.492-0.228,0.793-0.228c0.336,0,0.699,0.153,1.092,0.453c0.393,0.305,0.59,0.637,0.59,0.998
		c0,0.033-0.006,0.078-0.023,0.138c-0.012,0.062-0.021,0.124-0.021,0.182c-0.213,0.03-0.555,0.272-1.023,0.728
		c-0.469,0.453-0.951,0.982-1.453,1.59c-0.496,0.602-0.959,1.201-1.383,1.79s-0.697,1.022-0.814,1.294
		C51.158,35.049,50.941,36,50.561,37c-0.379,0.999-0.943,1.802-1.699,2.407c-0.182,0.15-0.494,0.277-0.932,0.385
		c-0.439,0.104-0.736,0.28-0.885,0.521H46c-0.184,0-0.453-0.008-0.818-0.021c-0.361-0.017-0.736-0.068-1.111-0.158
		c-0.379-0.092-0.709-0.222-0.998-0.388S42.641,39.344,42.641,39.042z M43.141,31.055v-0.229h-0.139L43.141,31.055z M43.164,33.686
		c-0.016,0-0.023,0.031-0.023,0.091h0.045C43.186,33.717,43.176,33.686,43.164,33.686z M43.277,21.885c0,0.059,0,0.135,0,0.224
		c0,0.094,0.014,0.169,0.043,0.228c0.152,0,0.219-0.082,0.205-0.248c-0.016-0.167,0.053-0.282,0.205-0.342h-0.229
		c-0.15,0-0.225,0.016-0.225,0.047V21.885z M43.502,31.055l0.092,0.043c0.029,0,0.061-0.015,0.09-0.043
		c0-0.064-0.029-0.124-0.09-0.184l-0.045,0.045c-0.031,0-0.047,0.015-0.047,0.045v0.047V31.055z M44.047,25.242
		c0.029,0,0.076,0.022,0.139,0.069c0.057,0.043,0.09,0.085,0.09,0.111l0.09-0.451c-0.123-0.062-0.18-0.151-0.18-0.273
		c0-0.15,0.012-0.256,0.047-0.318c0.025-0.059,0.043-0.151,0.043-0.271v-0.092c-0.121,0-0.25,0.154-0.385,0.454
		c-0.139,0.304-0.207,0.53-0.207,0.683c0,0.151,0.029,0.227,0.092,0.227h0.047c0.029,0,0.059-0.018,0.092-0.045
		C43.941,25.304,43.988,25.272,44.047,25.242z M43.684,25.604h0.184c0-0.059-0.031-0.089-0.092-0.089L43.684,25.604z M44.455,24.518
		l0.049-0.048H44.41L44.455,24.518z M44.682,23.926c0,0.09,0.018,0.152,0.047,0.182c0.031-0.029,0.045-0.061,0.045-0.092h0.047
		C44.82,23.956,44.773,23.926,44.682,23.926z M44.865,24.47l0.088,0.048c0.061,0,0.094-0.061,0.094-0.184
		c-0.033,0-0.053,0.006-0.068,0.023c-0.016,0.016-0.039,0.021-0.068,0.021h-0.045V24.47z M45.182,20.658v-0.136V20.43
		c0-0.029-0.016-0.06-0.043-0.092c0,0.032-0.016,0.047-0.045,0.047H45L45.182,20.658z M45.094,24.063
		c0,0.211,0.104,0.316,0.316,0.316l0.09-0.092c-0.031-0.027-0.072-0.072-0.135-0.135c-0.063-0.059-0.094-0.105-0.094-0.137v-0.137
		c0-0.027,0.018-0.059,0.049-0.09c0-0.09-0.049-0.134-0.139-0.134c-0.059,0-0.088,0.052-0.088,0.157
		C45.094,23.917,45.094,24.004,45.094,24.063z M45.547,23.472V23.29H45.32C45.32,23.413,45.395,23.472,45.547,23.472z M45.32,24.698
		l0.09,0.09h0.045H45.5l0.047-0.044v-0.046l-0.137-0.18l-0.09,0.088v0.047V24.698z M45.547,23.879h0.043l0.092-0.09v-0.045V23.7
		l-0.045-0.044H45.59L45.5,23.79L45.547,23.879z M45.912,31.371v-0.135h-0.096C45.816,31.295,45.848,31.338,45.912,31.371z
		 M52.719,35.637c-0.121,0-0.225-0.068-0.318-0.203c-0.09-0.138-0.135-0.25-0.135-0.342c0-0.542,0.15-0.991,0.453-1.338
		c0.301-0.35,0.666-0.674,1.088-0.977h0.275c0.057,0,0.135,0.018,0.225,0.048c0.094,0.028,0.166,0.042,0.229,0.042
		c0.209,0,0.455-0.042,0.727-0.135c0.059,0,0.219-0.008,0.479-0.023c0.254-0.018,0.428-0.021,0.52-0.021
		c0.211,0,0.445-0.009,0.705-0.023c0.254-0.016,0.49-0.008,0.703,0.023c0.213,0.029,0.393,0.107,0.547,0.227
		c0.148,0.121,0.227,0.318,0.227,0.592c0,0.541-0.133,0.968-0.387,1.27c-0.26,0.301-0.584,0.521-0.979,0.658
		c-0.393,0.135-0.816,0.212-1.271,0.228c-0.453,0.015-0.877,0.021-1.27,0.021c0-0.03-0.041-0.046-0.113-0.046
		c-0.078,0-0.131,0-0.162,0H52.719z M57.486,36.682c0-0.213,0.119-0.318,0.361-0.318c0.182,0,0.447,0.115,0.797,0.34
		c0.346,0.227,0.52,0.463,0.52,0.705c0,0.119-0.061,0.219-0.182,0.295c-0.121,0.075-0.242,0.112-0.361,0.112
		c-0.242,0-0.496-0.128-0.75-0.384C57.615,37.172,57.486,36.924,57.486,36.682z M59.164,34.958c0-0.334,0.084-0.635,0.25-0.91
		c0.166-0.271,0.25-0.574,0.25-0.904c0-0.094-0.023-0.168-0.066-0.229c-0.049-0.061-0.088-0.152-0.117-0.273
		c-0.057,0.029-0.164,0.029-0.316,0c-0.15-0.029-0.229-0.106-0.229-0.226c0-0.122,0.139-0.183,0.41-0.183h0.455
		c0.213,0,0.484,0.017,0.816,0.045c0.334,0.029,0.648,0.1,0.953,0.205c0.299,0.104,0.561,0.255,0.773,0.452s0.32,0.448,0.32,0.751
		v0.091c0,0.06-0.02,0.249-0.051,0.569c-0.029,0.315-0.057,0.52-0.088,0.611c-0.15,0.361-0.426,0.748-0.818,1.156
		c-0.395,0.406-0.803,0.614-1.229,0.614c-0.332,0-0.631-0.222-0.906-0.661C59.299,35.629,59.164,35.26,59.164,34.958z"/>
</g>
<g>
	<path fill="#473522" d="M41.777,33.367c-0.213,0-0.422-0.009-0.637-0.021c-0.211-0.018-0.438-0.039-0.68-0.07
		c0.029,0,0-0.045-0.092-0.137c-0.029-0.03-0.045-0.076-0.045-0.134h-0.908c-0.063-0.063-0.484-0.206-1.271-0.434
		c-0.787-0.227-1.688-0.491-2.699-0.794c-1.016-0.302-2-0.605-2.953-0.907c-0.953-0.303-1.594-0.562-1.928-0.772
		c-0.816-0.514-1.695-0.946-2.633-1.295c-0.939-0.347-1.832-0.732-2.68-1.156c-0.543-0.06-1.264-0.341-2.156-0.842
		c-0.891-0.498-1.869-1.125-2.926-1.882c-1.061-0.757-2.164-1.597-3.314-2.519c-1.151-0.922-2.248-1.825-3.292-2.703
		c-1.043-0.877-1.982-1.694-2.813-2.451c-0.833-0.756-1.462-1.361-1.885-1.816c-0.062-0.181-0.175-0.369-0.341-0.564
		c-0.165-0.197-0.347-0.404-0.544-0.613c-0.196-0.213-0.379-0.395-0.544-0.545c-0.166-0.151-0.295-0.273-0.386-0.363
		c-0.09-0.092-0.136-0.184-0.136-0.272c-0.06-0.061-0.09-0.12-0.09-0.183l-1.226-1.18c-0.272-0.665-0.674-1.317-1.203-1.951
		c-0.529-0.637-1.007-1.24-1.431-1.817C2.51,7.248,2.147,6.5,1.874,5.697c-0.271-0.801-0.62-1.552-1.043-2.248
		c0-0.512-0.115-0.998-0.341-1.451S0.149,1.061,0.149,0.545v-0.09c0-0.029,0-0.101,0-0.205c0-0.106,0.03-0.188,0.091-0.25
		c0.181,0,0.438,0.236,0.772,0.704c0.332,0.47,0.681,0.991,1.042,1.567C2.419,2.846,2.783,3.4,3.146,3.926
		c0.363,0.531,0.682,0.84,0.953,0.934C4.128,4.92,4.22,5.024,4.371,5.175c0.152,0.152,0.317,0.31,0.5,0.479
		c0.182,0.165,0.348,0.333,0.5,0.498c0.149,0.167,0.256,0.278,0.317,0.34c1.452,1.483,2.929,2.907,4.425,4.269
		c1.498,1.361,3.019,2.739,4.563,4.131l0.136,0.044c1.422,1.213,2.98,2.445,4.676,3.7c1.695,1.258,3.404,2.264,5.131,3.021
		c0.119,0.151,0.498,0.415,1.133,0.794c0.637,0.38,1.34,0.771,2.111,1.18c0.771,0.409,1.512,0.771,2.225,1.091
		c0.711,0.315,1.203,0.491,1.475,0.521c1.422,0.727,2.883,1.385,4.381,1.973c1.5,0.592,3.004,1.069,4.518,1.432
		c0.15,0,0.271,0.084,0.363,0.248c0.088,0.169,0.166,0.252,0.227,0.252c0-0.03,0.004-0.045,0.023-0.045
		c0.014,0,0.021-0.016,0.021-0.046h0.318c0.211,0,0.65,0.061,1.316,0.183c0.664,0.12,1.338,0.258,2.02,0.408
		c0.682,0.151,1.295,0.292,1.838,0.431c0.545,0.136,0.82,0.233,0.82,0.295c0,0.091-0.07,0.189-0.207,0.294
		c-0.135,0.106-0.295,0.206-0.477,0.295c-0.182,0.092-0.355,0.168-0.521,0.229c-0.166,0.062-0.281,0.09-0.34,0.09
		c-0.186,0-0.342-0.008-0.479-0.021c-0.135-0.014-0.295-0.039-0.473-0.068c-0.096-0.091-0.17-0.137-0.23-0.137
		s-0.105,0.016-0.135,0.046c-0.033,0.03-0.078,0.045-0.137,0.045c-0.152,0-0.332-0.038-0.545-0.113
		c-0.213-0.079-0.35-0.113-0.41-0.113c0-0.092-0.076-0.157-0.223-0.206c-0.156-0.045-0.318-0.081-0.502-0.111
		c-0.182-0.03-0.357-0.055-0.523-0.069s-0.277-0.022-0.34-0.022c-0.063-0.15-0.156-0.242-0.297-0.271
		c-0.135-0.032-0.262-0.046-0.385-0.046c0-0.092,0.035-0.151,0.115-0.182c0.076-0.031,0.15-0.053,0.227-0.071
		c0.074-0.013,0.152-0.028,0.225-0.042c0.078-0.016,0.115-0.054,0.115-0.113c0-0.092-0.063-0.168-0.18-0.229
		c-0.123-0.058-0.258-0.11-0.41-0.159c-0.15-0.045-0.295-0.082-0.432-0.112c-0.135-0.028-0.219-0.044-0.248-0.044
		c-0.123,0-0.197,0.044-0.229,0.136c0.242,0.241,0.467,0.364,0.682,0.364v0.18c-0.152,0-0.273,0.021-0.365,0.069
		c-0.088,0.044-0.211,0.069-0.361,0.069c-0.182,0-0.363-0.086-0.545-0.252c-0.182-0.164-0.303-0.251-0.363-0.251h-0.77
		c-0.125-0.149-0.57-0.347-1.342-0.589s-1.619-0.514-2.543-0.816c-0.922-0.303-1.801-0.607-2.631-0.908
		c-0.832-0.302-1.355-0.607-1.566-0.908c-0.334-0.06-0.842-0.279-1.521-0.657c-0.682-0.379-1.383-0.778-2.109-1.203
		c-0.729-0.425-1.4-0.788-2.021-1.091c-0.621-0.301-1.037-0.424-1.248-0.363c-0.061-0.121-0.197-0.267-0.41-0.432
		c-0.211-0.166-0.436-0.338-0.68-0.521c-0.242-0.18-0.477-0.332-0.703-0.455c-0.227-0.121-0.4-0.195-0.521-0.226l-1.09-0.138v0.228
		c0.363,0.121,0.795,0.335,1.293,0.637c0.5,0.304,0.998,0.636,1.5,0.999c0.498,0.362,0.98,0.727,1.451,1.089
		c0.469,0.365,0.869,0.667,1.203,0.906c0.482,0.335,1.158,0.736,2.02,1.204c0.863,0.469,1.771,0.938,2.725,1.41
		c0.953,0.467,1.875,0.896,2.768,1.292c0.893,0.394,1.627,0.666,2.201,0.816c0.275,0.091,0.75,0.229,1.432,0.41
		c0.68,0.179,1.385,0.385,2.111,0.612c0.727,0.227,1.377,0.459,1.949,0.702c0.578,0.245,0.91,0.438,1.002,0.593
		c0-0.094,0.025-0.139,0.088-0.139h0.139c0.15,0,0.211,0.076,0.18,0.229h0.182c0.092-0.031,0.279-0.054,0.568-0.07
		c0.287-0.014,0.459-0.006,0.523,0.023c0.545,0.061,1.043,0.234,1.496,0.523c0.455,0.287,0.682,0.731,0.682,1.34
		c0,0.09-0.053,0.149-0.158,0.18c-0.105,0.031-0.189,0.045-0.25,0.045h-0.092c-0.121,0-0.355-0.021-0.703-0.066
		c-0.35-0.047-0.711-0.115-1.092-0.207c-0.375-0.088-0.729-0.188-1.063-0.293C42.08,33.604,41.867,33.486,41.777,33.367z
		 M4.099,35.182c0-0.453,0.105-0.863,0.318-1.225c0.211-0.364,0.478-0.674,0.796-0.932c0.317-0.256,0.672-0.462,1.067-0.611
		c0.391-0.152,0.786-0.229,1.179-0.229c0.362,0,0.628,0.121,0.794,0.362c0.167,0.243,0.25,0.53,0.25,0.862
		c0,0.455-0.257,0.863-0.771,1.227H7.413c-0.152,0-0.28-0.008-0.387-0.021C6.92,34.6,6.792,34.592,6.642,34.592
		c-0.243,0-0.515,0.054-0.816,0.158c-0.305,0.106-0.455,0.313-0.455,0.613c0,0.242,0.188,0.455,0.566,0.636
		c0.378,0.182,0.674,0.273,0.885,0.273c0.302,0,0.561-0.085,0.772-0.249c0.21-0.169,0.454-0.25,0.726-0.25
		c0,0.42-0.234,0.693-0.704,0.816c-0.469,0.119-0.885,0.182-1.247,0.182c-0.184,0-0.403-0.047-0.659-0.137
		c-0.257-0.093-0.506-0.203-0.75-0.341c-0.242-0.136-0.447-0.302-0.612-0.499C4.181,35.598,4.099,35.392,4.099,35.182z
		 M9.591,35.363c-0.18-0.122-0.27-0.271-0.27-0.453c0-0.122,0.013-0.295,0.044-0.523c0.031-0.227,0.075-0.461,0.137-0.703
		c0.061-0.243,0.136-0.453,0.226-0.637c0.091-0.18,0.182-0.301,0.272-0.361c0.515-0.241,1.12-0.432,1.815-0.567
		c0.697-0.138,1.317-0.204,1.861-0.204c0.212,0,0.402,0.074,0.567,0.229c0.167,0.148,0.296,0.321,0.387,0.521
		c0.091,0.196,0.159,0.407,0.203,0.636c0.047,0.227,0.069,0.417,0.069,0.566c0,0.273-0.084,0.5-0.249,0.683
		c-0.167,0.181-0.371,0.315-0.614,0.409c-0.242,0.09-0.498,0.156-0.771,0.203c-0.272,0.043-0.53,0.067-0.771,0.067
		c-0.061,0-0.1-0.009-0.113-0.024c-0.017-0.014-0.054-0.021-0.115-0.021c-0.242,0-0.506,0.055-0.795,0.16
		c-0.287,0.104-0.551,0.156-0.793,0.156c-0.181,0-0.356-0.02-0.523-0.066C9.993,35.386,9.804,35.363,9.591,35.363z M13.859,27.781
		c-0.09-0.118-0.183-0.21-0.272-0.27c-0.09-0.061-0.183-0.115-0.272-0.159c-0.09-0.047-0.167-0.114-0.227-0.204
		c-0.062-0.092-0.091-0.227-0.091-0.412c0-0.27,0.173-0.506,0.522-0.703c0.348-0.194,0.597-0.385,0.748-0.565
		c0.03,0,0.092-0.007,0.183-0.024c0.09-0.014,0.15-0.021,0.181-0.021c0.272,0,0.522,0.031,0.749,0.09
		c0.226,0.063,0.416,0.213,0.568,0.455c0.393,0.697,0.711,1.415,0.953,2.157c0.242,0.741,0.559,1.476,0.953,2.2
		c0.119,0.182,0.287,0.379,0.5,0.591c0.211,0.212,0.422,0.415,0.635,0.612c0.211,0.197,0.393,0.402,0.545,0.615
		c0.15,0.207,0.227,0.421,0.227,0.634c0,0.181-0.029,0.371-0.09,0.569c-0.061,0.196-0.168,0.37-0.318,0.52v1.633
		c0,0.426,0.219,0.76,0.658,1.002c0.439,0.24,0.824,0.377,1.156,0.407c0.273,0.029,0.576,0.009,0.91-0.069
		c0.332-0.077,0.635-0.113,0.906-0.113c0.303,0,0.537,0.123,0.705,0.366c0.164,0.239,0.25,0.48,0.25,0.725
		c0,0.331-0.168,0.597-0.5,0.795c-0.334,0.197-0.635,0.308-0.908,0.339h-0.771c-1.482,0-2.68-0.361-3.586-1.088
		c-0.908-0.73-1.634-1.643-2.179-2.748c-0.543-1.104-0.969-2.314-1.271-3.631C14.418,30.167,14.13,28.932,13.859,27.781z
		 M19.943,30.37c0-0.062,0.232-0.181,0.701-0.362c0.469-0.183,0.992-0.363,1.566-0.545c0.576-0.183,1.127-0.349,1.658-0.5
		c0.529-0.15,0.84-0.229,0.93-0.229s0.221,0.017,0.387,0.046c0.164,0.032,0.332,0.069,0.5,0.112c0.164,0.05,0.316,0.116,0.451,0.207
		c0.137,0.089,0.205,0.181,0.205,0.272c-0.727,0.331-1.316,0.597-1.771,0.795c-0.451,0.196-0.883,0.386-1.293,0.566
		c-0.406,0.182-0.656,0.287-0.748,0.317h-0.682c-0.09,0-0.24,0-0.453,0c-0.211,0-0.424-0.022-0.635-0.066
		c-0.213-0.047-0.402-0.114-0.568-0.205S19.943,30.553,19.943,30.37z M20.941,33.82c0-0.425,0.295-0.838,0.885-1.249
		c0.59-0.409,1.285-0.776,2.088-1.11c0.801-0.334,1.596-0.599,2.383-0.797c0.787-0.195,1.363-0.294,1.725-0.294
		c0.031,0,0.143,0.021,0.34,0.069c0.197,0.044,0.4,0.097,0.615,0.158c0.209,0.059,0.406,0.143,0.588,0.25
		c0.184,0.102,0.273,0.203,0.273,0.294v0.046c-0.152,0.062-0.395,0.154-0.727,0.273c-0.334,0.121-0.561,0.256-0.682,0.406
		c-0.574,0.029-1.135,0.161-1.678,0.387c-0.547,0.227-1.098,0.463-1.658,0.703c-0.561,0.242-1.127,0.469-1.703,0.682
		c-0.572,0.212-1.164,0.318-1.77,0.318c-0.061,0-0.189,0-0.385,0C21.039,33.957,20.941,33.912,20.941,33.82z M37.781,26.376
		c-0.029,0-0.074-0.015-0.135-0.046c-0.063-0.031-0.109-0.047-0.137-0.047c-0.031,0-0.063-0.013-0.092-0.045v-0.044
		c0-0.06,0.273-0.249,0.818-0.569c0.545-0.317,1.227-0.726,2.041-1.225c0.818-0.5,1.703-1.037,2.658-1.611
		c0.953-0.574,1.836-1.15,2.654-1.723c0.816-0.577,1.498-1.105,2.043-1.59s0.816-0.877,0.816-1.184V18.16
		c-0.361,0.061-0.709,0.219-1.041,0.475c-0.336,0.26-0.676,0.523-1.021,0.795c-0.35,0.271-0.709,0.514-1.07,0.727
		s-0.74,0.318-1.135,0.318c-0.059,0-0.096-0.024-0.113-0.069c-0.016-0.045-0.055-0.097-0.115-0.157l-0.088,0.09
		c0,0.151-0.016,0.326-0.045,0.521c-0.033,0.199-0.168,0.296-0.41,0.296c0-0.183,0.016-0.319,0.045-0.409
		c0.031-0.092,0.049-0.225,0.049-0.408c-0.063,0-0.176,0.015-0.342,0.043c-0.168,0.033-0.248,0.125-0.248,0.273
		c0,0.092,0.027,0.168,0.088,0.23c0.059,0.059,0.09,0.135,0.09,0.224v0.136c-0.09,0.123-0.197,0.242-0.316,0.363
		c-0.211,0.212-0.361,0.319-0.455,0.319c-0.059,0-0.09-0.044-0.09-0.136c0-0.091-0.029-0.136-0.09-0.136h-0.139
		c0,0.151-0.27,0.439-0.816,0.86c-0.543,0.424-1.158,0.857-1.836,1.295c-0.684,0.439-1.355,0.833-2.021,1.182
		c-0.666,0.348-1.119,0.52-1.363,0.52c-0.029-0.028-0.066-0.051-0.113-0.068c-0.047-0.014-0.066-0.006-0.066,0.024l-0.229,0.138
		c-0.18,0-0.35-0.07-0.498-0.206c-0.154-0.136-0.303-0.235-0.455-0.297v-0.18c0-0.028,0.236-0.196,0.703-0.501
		c0.471-0.301,1.061-0.672,1.771-1.112c0.711-0.436,1.49-0.914,2.338-1.427c0.846-0.516,1.648-1.008,2.406-1.478
		c0.756-0.468,1.42-0.884,1.998-1.247c0.574-0.363,0.936-0.606,1.092-0.729c0.662-0.543,1.357-1.088,2.084-1.633
		c0.729-0.545,1.453-1.098,2.18-1.658c0.729-0.559,1.432-1.141,2.113-1.747c0.68-0.606,1.307-1.24,1.883-1.905
		c0.301-0.152,0.566-0.371,0.793-0.658c0.229-0.289,0.463-0.569,0.701-0.839c0.096-0.093,0.246-0.243,0.457-0.456
		c0.211-0.211,0.439-0.431,0.68-0.658c0.244-0.227,0.469-0.443,0.684-0.658c0.209-0.211,0.361-0.362,0.453-0.452
		c0.121-0.06,0.369-0.296,0.75-0.704c0.377-0.409,0.807-0.893,1.291-1.453c0.486-0.563,1.002-1.16,1.545-1.795
		c0.545-0.635,1.045-1.225,1.498-1.768c0.455-0.547,0.832-0.991,1.135-1.341s0.469-0.524,0.498-0.524
		c0.092,0,0.137,0.034,0.137,0.094c0,0.029,0.008,0.081,0.025,0.158c0.012,0.076,0.021,0.129,0.021,0.16
		c0,0.757-0.166,1.604-0.5,2.541c-0.334,0.939-0.771,1.901-1.316,2.885C61.479,7,60.857,7.992,60.164,8.99
		c-0.697,0.999-1.402,1.943-2.113,2.836c-0.711,0.894-1.398,1.711-2.064,2.451c-0.668,0.742-1.242,1.355-1.725,1.838
		c-0.123,0.183-0.402,0.501-0.84,0.953c-0.443,0.455-0.969,0.963-1.59,1.522s-1.279,1.144-1.975,1.747
		c-0.695,0.605-1.369,1.159-2.021,1.658c-0.648,0.498-1.225,0.906-1.725,1.225c-0.498,0.318-0.857,0.477-1.066,0.477
		c-0.061,0-0.09-0.045-0.09-0.137c0-0.091-0.033-0.135-0.092-0.135l-0.047,0.044c-0.15,0.273-0.27,0.477-0.361,0.612
		c-0.09,0.138-0.203,0.252-0.342,0.34c-0.135,0.093-0.301,0.178-0.496,0.251c-0.199,0.076-0.449,0.19-0.75,0.342
		c-0.119-0.062-0.236-0.047-0.342,0.042c-0.105,0.094-0.211,0.207-0.318,0.343c-0.105,0.136-0.205,0.273-0.293,0.409
		c-0.092,0.137-0.182,0.203-0.273,0.203h-0.68c-0.094,0.183-0.281,0.313-0.568,0.386c-0.287,0.077-0.508,0.114-0.658,0.114
		c-0.092,0-0.197,0-0.318,0c-0.119,0-0.211-0.045-0.273-0.136H37.781z M38.236,28.963c0.059-0.031,0.09-0.06,0.09-0.093
		c0-0.027-0.031-0.043-0.09-0.043V28.963z M39.324,29.145c0.092,0.061,0.213,0.092,0.365,0.092v-0.183
		C39.537,29.054,39.416,29.084,39.324,29.145z M39.416,32.686c-0.063,0-0.092,0.014-0.092,0.045c0,0.029,0.029,0.046,0.092,0.046
		c0.029,0,0.047-0.017,0.047-0.046C39.463,32.699,39.445,32.686,39.416,32.686z M40.049,32.004c0,0.061,0.02,0.092,0.047,0.092
		c0.031,0,0.047-0.031,0.047-0.092H40.049z M40.324,32.277c-0.063,0.06-0.063,0.092,0,0.092c0.059,0,0.104,0,0.137,0
		c0.063,0,0.119,0,0.182,0c0.061,0,0.09-0.032,0.09-0.092h-0.047c0-0.092-0.074-0.182-0.225-0.273
		C40.369,32.096,40.324,32.186,40.324,32.277z M41.117,32.48c0.076,0.075,0.16,0.115,0.25,0.115c0.031,0,0.072-0.008,0.135-0.024
		c0.063-0.016,0.094-0.052,0.094-0.112s-0.01-0.122-0.025-0.182c-0.016-0.063-0.049-0.092-0.109-0.092h-0.549
		c0,0.029-0.014,0.047-0.045,0.047s-0.061,0.014-0.09,0.045v0.044C40.93,32.35,41.043,32.404,41.117,32.48z M41.051,24.604
		c0.061,0.063,0.098,0.146,0.111,0.25c0.018,0.109,0.023,0.191,0.023,0.249h0.045c0.184,0,0.303-0.028,0.365-0.088
		c0.059-0.062,0.104-0.13,0.137-0.204c0.029-0.076,0.066-0.145,0.113-0.207c0.045-0.059,0.143-0.089,0.295-0.089
		c0.027,0.03,0.061,0.047,0.09,0.047c0.031,0.028,0.061,0.042,0.09,0.042h0.047h0.09c0.031-0.059,0.082-0.208,0.16-0.451
		c0.074-0.243,0.113-0.393,0.113-0.455l-0.047-0.045c-0.029,0-0.061-0.016-0.09-0.047c-0.061,0-0.092,0.031-0.092,0.092
		c-0.029,0.03-0.045,0.063-0.045,0.09c-0.271-0.09-0.438-0.037-0.498,0.159c-0.061,0.199-0.168,0.357-0.318,0.476
		c-0.061-0.026-0.092-0.082-0.092-0.158c0-0.072-0.027-0.128-0.088-0.158c-0.031,0-0.078,0.068-0.139,0.205
		C41.262,24.445,41.17,24.545,41.051,24.604z M41.256,25.468c-0.047,0-0.07,0.016-0.07,0.044h0.092
		C41.309,25.483,41.301,25.468,41.256,25.468z M41.641,38.042c0-0.392,0.15-0.642,0.455-0.749c0.299-0.106,0.617-0.162,0.951-0.162
		c0.332,0,0.613,0.04,0.842,0.117c0.225,0.073,0.49,0.112,0.793,0.112c0.818,0,1.385-0.278,1.705-0.839
		c0.316-0.561,0.566-1.189,0.746-1.885v-0.183c0-0.331-0.045-0.665-0.137-0.997c-0.09-0.334-0.135-0.681-0.135-1.043
		c0-0.031,0.195-0.229,0.59-0.589c0.393-0.364,0.832-0.782,1.316-1.251s0.947-0.923,1.387-1.362
		c0.438-0.438,0.717-0.763,0.838-0.974c0.119-0.242,0.25-0.493,0.387-0.75c0.135-0.258,0.297-0.5,0.475-0.729
		c0.18-0.225,0.385-0.414,0.613-0.565s0.492-0.228,0.793-0.228c0.336,0,0.699,0.153,1.092,0.453c0.393,0.305,0.59,0.637,0.59,0.998
		c0,0.033-0.006,0.078-0.023,0.138c-0.012,0.062-0.021,0.124-0.021,0.182c-0.213,0.03-0.555,0.272-1.023,0.728
		c-0.469,0.453-0.951,0.982-1.453,1.59c-0.496,0.602-0.959,1.201-1.383,1.79s-0.697,1.022-0.814,1.294
		c-0.064,0.91-0.281,1.861-0.662,2.86c-0.379,0.999-0.943,1.802-1.699,2.407c-0.182,0.15-0.494,0.277-0.932,0.385
		c-0.439,0.104-0.736,0.28-0.885,0.521H45c-0.184,0-0.453-0.008-0.818-0.021c-0.361-0.017-0.736-0.068-1.111-0.158
		c-0.379-0.092-0.709-0.222-0.998-0.388S41.641,38.344,41.641,38.042z M42.141,30.055v-0.229h-0.139L42.141,30.055z M42.164,32.686
		c-0.016,0-0.023,0.031-0.023,0.091h0.045C42.186,32.717,42.176,32.686,42.164,32.686z M42.277,20.885c0,0.059,0,0.135,0,0.224
		c0,0.094,0.014,0.169,0.043,0.228c0.152,0,0.219-0.082,0.205-0.248c-0.016-0.167,0.053-0.282,0.205-0.342h-0.229
		c-0.15,0-0.225,0.016-0.225,0.047V20.885z M42.502,30.055l0.092,0.043c0.029,0,0.061-0.015,0.09-0.043
		c0-0.064-0.029-0.124-0.09-0.184l-0.045,0.045c-0.031,0-0.047,0.015-0.047,0.045v0.047V30.055z M43.047,24.241
		c0.029,0,0.076,0.022,0.139,0.069c0.057,0.043,0.09,0.085,0.09,0.111l0.09-0.451c-0.123-0.062-0.18-0.151-0.18-0.273
		c0-0.15,0.012-0.256,0.047-0.318c0.025-0.059,0.043-0.151,0.043-0.271v-0.092c-0.121,0-0.25,0.154-0.385,0.454
		c-0.139,0.304-0.207,0.53-0.207,0.683c0,0.151,0.029,0.227,0.092,0.227h0.047c0.029,0,0.059-0.018,0.092-0.045
		C42.941,24.304,42.988,24.271,43.047,24.241z M42.684,24.604h0.184c0-0.059-0.031-0.089-0.092-0.089L42.684,24.604z M43.455,23.518
		l0.049-0.048H43.41L43.455,23.518z M43.682,22.926c0,0.09,0.018,0.152,0.047,0.182c0.031-0.029,0.045-0.061,0.045-0.092h0.047
		C43.82,22.955,43.773,22.926,43.682,22.926z M43.865,23.47l0.088,0.048c0.061,0,0.094-0.061,0.094-0.184
		c-0.033,0-0.053,0.006-0.068,0.023c-0.016,0.016-0.039,0.021-0.068,0.021h-0.045V23.47z M44.182,19.657v-0.136V19.43
		c0-0.029-0.016-0.06-0.043-0.092c0,0.032-0.016,0.047-0.045,0.047H44L44.182,19.657z M44.094,23.063
		c0,0.211,0.104,0.316,0.316,0.316l0.09-0.092c-0.031-0.027-0.072-0.072-0.135-0.135c-0.063-0.059-0.094-0.105-0.094-0.137v-0.137
		c0-0.027,0.018-0.059,0.049-0.09c0-0.09-0.049-0.134-0.139-0.134c-0.059,0-0.088,0.052-0.088,0.157
		C44.094,22.917,44.094,23.004,44.094,23.063z M44.547,22.472v-0.183H44.32C44.32,22.412,44.395,22.472,44.547,22.472z
		 M44.32,23.697l0.09,0.09h0.045H44.5l0.047-0.044v-0.046l-0.137-0.18l-0.09,0.088v0.047V23.697z M44.547,22.879h0.043l0.092-0.09
		v-0.045v-0.045l-0.045-0.044H44.59l-0.09,0.134L44.547,22.879z M44.912,30.37v-0.135h-0.096
		C44.816,30.295,44.848,30.338,44.912,30.37z M51.719,34.637c-0.121,0-0.225-0.068-0.318-0.203c-0.09-0.138-0.135-0.25-0.135-0.342
		c0-0.542,0.15-0.991,0.453-1.338c0.301-0.35,0.666-0.674,1.088-0.977h0.275c0.057,0,0.135,0.018,0.225,0.048
		c0.094,0.028,0.166,0.042,0.229,0.042c0.209,0,0.455-0.042,0.727-0.135c0.059,0,0.219-0.008,0.479-0.023
		c0.254-0.018,0.428-0.021,0.52-0.021c0.211,0,0.445-0.009,0.705-0.023c0.254-0.016,0.49-0.008,0.703,0.023
		c0.213,0.029,0.393,0.107,0.547,0.227c0.148,0.121,0.227,0.318,0.227,0.592c0,0.541-0.133,0.968-0.387,1.27
		c-0.26,0.301-0.584,0.521-0.979,0.658c-0.393,0.135-0.816,0.212-1.271,0.228c-0.453,0.015-0.877,0.021-1.27,0.021
		c0-0.03-0.041-0.046-0.113-0.046c-0.078,0-0.131,0-0.162,0H51.719z M56.486,35.682c0-0.213,0.119-0.318,0.361-0.318
		c0.182,0,0.447,0.115,0.797,0.34c0.346,0.227,0.52,0.463,0.52,0.705c0,0.119-0.061,0.219-0.182,0.295
		c-0.121,0.075-0.242,0.112-0.361,0.112c-0.242,0-0.496-0.128-0.75-0.384C56.615,36.172,56.486,35.924,56.486,35.682z
		 M58.164,33.957c0-0.334,0.084-0.635,0.25-0.91c0.166-0.271,0.25-0.574,0.25-0.904c0-0.094-0.023-0.168-0.066-0.229
		c-0.049-0.061-0.088-0.152-0.117-0.273c-0.057,0.029-0.164,0.029-0.316,0c-0.15-0.029-0.229-0.106-0.229-0.226
		c0-0.122,0.139-0.183,0.41-0.183h0.455c0.213,0,0.484,0.017,0.816,0.045c0.334,0.029,0.648,0.1,0.953,0.205
		c0.299,0.104,0.561,0.255,0.773,0.452s0.32,0.448,0.32,0.751v0.091c0,0.06-0.02,0.249-0.051,0.569
		c-0.029,0.315-0.057,0.52-0.088,0.611c-0.15,0.361-0.426,0.748-0.818,1.156c-0.395,0.406-0.803,0.614-1.229,0.614
		c-0.332,0-0.631-0.222-0.906-0.661C58.299,34.629,58.164,34.26,58.164,33.957z"/>
</g>
</svg>
