<?xml version="1.0" encoding="utf-8"?>
<!-- Generator: Adobe Illustrator 16.2.0, SVG Export Plug-In . SVG Version: 6.00 Build 0)  -->
<!DOCTYPE svg PUBLIC "-//W3C//DTD SVG 1.1//EN" "http://www.w3.org/Graphics/SVG/1.1/DTD/svg11.dtd">
<svg version="1.1" id="Layer_1" xmlns="http://www.w3.org/2000/svg" xmlns:xlink="http://www.w3.org/1999/xlink" x="0px" y="0px"
	 width="65.24px" height="42.656px" viewBox="0 0 65.24 42.656" enable-background="new 0 0 65.24 42.656" xml:space="preserve">
<g>
	<path fill-rule="evenodd" clip-rule="evenodd" fill="#FFFFFF" d="M1.375,1.447C1.503,1.652,1.632,1.855,1.761,2.06
		c0.506,0.811,1.016,1.621,1.52,2.433c0.118,0.192,0.283,0.339,0.429,0.503c0.52,0.584,1.06,1.149,1.583,1.73
		c0.572,0.636,1.145,1.271,1.693,1.925c0.394,0.467,0.811,0.915,1.204,1.383c0.86,1.019,1.829,1.936,2.752,2.895
		c0.735,0.762,1.469,1.528,2.22,2.279c0.187,0.187,0.367,0.383,0.546,0.58c0.446,0.488,0.995,0.855,1.508,1.264
		c0.979,0.777,1.969,1.538,2.951,2.311c1.299,1.022,2.605,2.032,3.887,3.073c1.078,0.877,2.26,1.602,3.422,2.355
		c1.131,0.732,2.266,1.457,3.404,2.176c0.307,0.193,0.654,0.309,0.988,0.447c0.795,0.332,1.576,0.689,2.346,1.074
		c1.076,0.543,2.185,1.014,3.3,1.473c1.713,0.703,3.469,1.277,5.248,1.787c1.717,0.49,3.432,0.994,5.146,1.494
		c0.41,0.121,0.836,0.119,1.254,0.184c0.244,0.039,0.475,0.109,0.674,0.256c0.08,0.057,0.135,0.105-0.002,0.189
		c-0.717,0.438-1.479,0.758-2.301,0.928c-0.385,0.08-0.777,0.064-1.168,0.029c-1.371-0.123-2.629-0.641-3.895-1.123
		c-0.898-0.346-1.799-0.682-2.693-1.039c-1.154-0.465-2.295-0.963-3.434-1.465c-1.566-0.688-3.105-1.43-4.642-2.182
		c-1.24-0.605-2.475-1.227-3.666-1.928c-0.813-0.482-1.582-1.033-2.375-1.549c-0.736-0.48-1.395-1.063-2.08-1.605
		c-0.369-0.291-0.787-0.492-1.275-0.498c-0.033-0.002-0.064-0.014-0.098-0.021s-0.066-0.018-0.082-0.006
		c0.189,0.201,0.373,0.416,0.574,0.609c0.439,0.432,0.908,0.836,1.385,1.227c0.52,0.426,1.059,0.83,1.607,1.219
		c1.432,1.012,2.938,1.898,4.486,2.715c1.359,0.723,2.752,1.381,4.162,1.998c1.617,0.709,3.244,1.393,4.878,2.059
		c1.846,0.748,3.697,1.484,5.553,2.207c0.549,0.215,1.111,0.381,1.676,0.537c0.619,0.172,1.043,0.547,1.244,1.164
		c0.059,0.176,0.055,0.184-0.125,0.186c-0.42,0.002-0.834-0.064-1.244-0.145c-1.334-0.266-2.656-0.594-3.986-0.881
		c-1.137-0.244-2.264-0.549-3.359-0.945c-1.16-0.42-2.318-0.84-3.457-1.313c-0.73-0.305-1.449-0.641-2.175-0.961
		c-0.605-0.266-1.211-0.527-1.818-0.791c-0.814-0.355-1.609-0.756-2.391-1.18c-0.83-0.449-1.652-0.914-2.467-1.396
		c-0.879-0.521-1.758-1.049-2.625-1.596c-1.135-0.715-2.252-1.457-3.35-2.227c-0.744-0.523-1.438-1.098-2.107-1.711
		c-0.625-0.572-1.281-1.115-1.908-1.686c-0.645-0.588-1.321-1.136-1.986-1.697c-0.852-0.72-1.577-1.56-2.335-2.374
		c-0.415-0.446-0.825-0.899-1.222-1.364c-0.526-0.615-1.025-1.25-1.504-1.903c-0.935-1.281-1.886-2.547-2.754-3.873
		C4.233,10.303,3.63,9.292,3.096,8.242C2.54,7.153,2.062,6.028,1.681,4.865C1.443,4.139,1.26,3.4,1.245,2.626
		C1.238,2.231,1.235,1.84,1.329,1.456C1.346,1.453,1.36,1.45,1.375,1.447z"/>
	<path fill-rule="evenodd" clip-rule="evenodd" fill="#FFFFFF" d="M37.174,29.646c0.131-0.141,0.289-0.207,0.432-0.291
		c1.414-0.822,2.834-1.635,4.246-2.455c0.676-0.395,1.367-0.758,2.016-1.195c0.6-0.402,1.117-0.883,1.4-1.592
		c-0.193,0-0.367,0.063-0.541,0.111c-0.504,0.141-0.949,0.404-1.367,0.701c-0.682,0.492-1.408,0.908-2.139,1.318
		c-0.982,0.549-1.963,1.102-2.945,1.654c-0.738,0.418-1.463,0.863-2.266,1.154c-0.135,0.051-0.262,0.055-0.395-0.004
		c-0.471-0.211-0.961-0.373-1.402-0.645c-0.074-0.043-0.195-0.074-0.186-0.174c0.008-0.084,0.125-0.1,0.199-0.137
		c1.221-0.596,2.453-1.164,3.688-1.734c0.854-0.395,1.686-0.832,2.492-1.314c2.012-1.205,3.93-2.553,5.826-3.93
		c1.016-0.738,2.021-1.488,3.018-2.253c0.783-0.602,1.57-1.202,2.344-1.82c0.855-0.687,1.711-1.377,2.529-2.109
		c0.289-0.26,0.594-0.506,0.871-0.779c0.256-0.247,0.484-0.521,0.723-0.789c0.328-0.366,0.65-0.736,0.979-1.105
		c0.436-0.491,0.863-0.988,1.307-1.471c0.459-0.501,0.883-1.031,1.33-1.543c0.355-0.41,0.699-0.83,1.051-1.243
		c0.363-0.427,0.73-0.847,1.094-1.275c0.412-0.486,0.826-0.976,1.23-1.47c0.609-0.743,1.207-1.495,1.787-2.261
		c0.193-0.258,0.381-0.521,0.574-0.779c0.029-0.038,0.043-0.107,0.107-0.088c0.055,0.017,0.033,0.078,0.041,0.12
		c0.076,0.511-0.061,1-0.184,1.485c-0.4,1.566-0.953,3.077-1.691,4.518c-0.277,0.545-0.627,1.049-0.918,1.588
		c-0.289,0.538-0.57,1.082-0.855,1.621c-0.654,1.237-1.328,2.463-2.188,3.57c-0.547,0.706-1.09,1.418-1.699,2.072
		c-0.588,0.633-1.199,1.238-1.834,1.82c-0.58,0.527-1.146,1.064-1.711,1.604c-0.893,0.853-1.814,1.673-2.756,2.47
		c-0.664,0.564-1.336,1.121-2.023,1.656c-0.453,0.355-0.949,0.656-1.436,0.969c-0.705,0.453-1.391,0.934-2.078,1.412
		c-0.969,0.678-1.967,1.311-2.986,1.912c-0.75,0.443-1.514,0.863-2.271,1.293c-0.08,0.045-0.168,0.074-0.248,0.113
		c-0.387,0.188-0.762,0.197-1.172,0.02c-0.543-0.232-1.117-0.4-1.676-0.6C37.391,29.736,37.293,29.693,37.174,29.646z"/>
	<path fill-rule="evenodd" clip-rule="evenodd" fill="#FFFFFF" d="M43.773,42.372c-0.756,0.002-1.441-0.201-2.027-0.689
		c-0.139-0.115-0.234-0.254-0.268-0.438c-0.025-0.162-0.143-0.299-0.096-0.486c0.115-0.475,0.447-0.701,0.928-0.609
		c0.293,0.057,0.576,0.131,0.846,0.246c0.49,0.211,0.98,0.188,1.473,0.016c0.795-0.279,1.434-0.76,1.883-1.479
		c0.424-0.676,0.494-1.379,0.176-2.119c-0.148-0.346-0.33-0.672-0.504-1c-0.07-0.133-0.041-0.186,0.098-0.229
		c0.66-0.213,1.291-0.486,1.848-0.908c0.895-0.676,1.539-1.537,1.881-2.615c0.152-0.486,0.313-0.973,0.557-1.42
		c0.385-0.697,0.971-1.164,1.719-1.408c0.479-0.156,0.939-0.016,1.383,0.207c0.42,0.209,0.631,0.605,0.906,0.943
		c0.234,0.291,0.227,0.314-0.135,0.414c-0.818,0.229-1.396,0.76-1.881,1.424c-0.588,0.807-1.047,1.695-1.598,2.525
		c-0.342,0.52-0.719,1.016-1.209,1.412c-0.355,0.289-0.486,0.682-0.547,1.127c-0.076,0.557-0.125,1.121-0.301,1.662
		c-0.193,0.613-0.516,1.148-0.959,1.621c-0.441,0.469-0.994,0.777-1.549,1.082c-0.633,0.344-1.305,0.566-2.016,0.672
		C44.18,42.353,43.975,42.357,43.773,42.372z"/>
	<path fill-rule="evenodd" clip-rule="evenodd" fill="#FFFFFF" d="M21.227,41.656c-0.77,0.029-1.441-0.232-2.078-0.592
		c-0.557-0.313-1.102-0.646-1.564-1.1c-0.773-0.766-1.287-1.674-1.479-2.748c-0.045-0.254-0.059-0.518-0.045-0.779
		c0.027-0.49-0.178-0.887-0.506-1.234c-0.35-0.371-0.727-0.717-1.07-1.094c-0.37-0.41-0.608-0.896-0.838-1.391
		c-0.302-0.652-0.571-1.32-1.005-1.904c-0.464-0.625-1.071-1.043-1.809-1.281c-0.279-0.092-0.284-0.092-0.152-0.354
		c0.358-0.713,0.918-1.184,1.718-1.287c0.722-0.094,1.485,0.184,1.81,1.059c0.183,0.49,0.298,0.996,0.41,1.504
		c0.243,1.1,0.874,1.943,1.704,2.668c0.568,0.494,1.195,0.896,1.863,1.236c0.186,0.094,0.379,0.18,0.572,0.25
		c0.119,0.043,0.145,0.1,0.109,0.215c-0.146,0.504-0.279,1.014-0.434,1.514c-0.072,0.227-0.059,0.447-0.008,0.668
		c0.133,0.58,0.426,1.078,0.803,1.533c0.324,0.395,0.697,0.725,1.154,0.957c0.225,0.117,0.465,0.154,0.707,0.121
		c0.416-0.053,0.824-0.143,1.24-0.182c0.27-0.027,0.559-0.08,0.811,0.088c0.336,0.229,0.441,0.844,0.211,1.215
		c-0.225,0.359-0.57,0.561-0.949,0.705C22.02,41.591,21.624,41.683,21.227,41.656z"/>
	<path fill-rule="evenodd" clip-rule="evenodd" fill="#FFFFFF" d="M31.379,33.999c-0.625,0.172-1.172,0.412-1.721,0.66
		c-0.314,0.143-0.66,0.188-0.992,0.275c-1.111,0.283-2.225,0.559-3.336,0.838c-0.961,0.24-1.926,0.441-2.9,0.598
		c-0.615,0.1-1.23,0.154-1.848,0.219c-0.396,0.041-0.795-0.002-1.186,0.061c-0.133,0.021-0.174-0.031-0.133-0.162
		c0.15-0.504,0.457-0.871,0.922-1.117c0.602-0.316,1.25-0.48,1.902-0.65c1.922-0.508,3.846-1.012,5.738-1.629
		c0.301-0.098,0.604-0.186,0.904-0.283c0.07-0.021,0.129-0.021,0.193,0.016c0.602,0.354,1.26,0.588,1.889,0.881
		C30.995,33.788,31.18,33.866,31.379,33.999z"/>
	<path fill-rule="evenodd" clip-rule="evenodd" fill="#FFFFFF" d="M20.444,34.132c-0.68,0.018-1.256-0.156-1.805-0.449
		c-0.318-0.168-0.658-0.305-0.939-0.541c-0.09-0.076-0.174-0.16-0.258-0.242c-0.045-0.043-0.109-0.094-0.084-0.154
		c0.016-0.035,0.096-0.051,0.148-0.061c0.469-0.094,0.939-0.184,1.412-0.279c0.855-0.174,1.709-0.367,2.57-0.523
		c1.258-0.227,2.488-0.564,3.721-0.896c0.105-0.027,0.201-0.037,0.305,0.027c0.588,0.371,1.18,0.736,1.771,1.105
		c0.049,0.027,0.117,0.053,0.109,0.117c-0.008,0.066-0.086,0.063-0.139,0.078c-1.209,0.375-2.408,0.773-3.631,1.115
		c-0.852,0.236-1.697,0.512-2.574,0.658C20.834,34.122,20.614,34.152,20.444,34.132z"/>
	<path fill-rule="evenodd" clip-rule="evenodd" fill="#FFFFFF" d="M13.221,36.38c-0.796-0.039-1.715,0.076-2.637,0.107
		c-0.294,0.012-0.584,0.029-0.878,0c-0.463-0.043-0.784-0.25-0.982-0.684c-0.255-0.549-0.501-1.1-0.728-1.662
		c-0.059-0.145-0.004-0.199,0.124-0.227c0.441-0.1,0.89-0.107,1.334-0.064c0.348,0.031,0.693,0.027,1.03-0.033
		c1.024-0.18,1.999-0.068,2.895,0.477c0.722,0.436,1.137,1.055,1.073,1.936c-0.008,0.123-0.058,0.152-0.167,0.15
		C13.973,36.376,13.66,36.38,13.221,36.38z"/>
	<path fill-rule="evenodd" clip-rule="evenodd" fill="#FFFFFF" d="M52.93,35.282c0.805-0.049,1.611-0.107,2.42-0.146
		c0.377-0.016,0.76-0.043,1.135,0.033c0.58,0.115,0.678,0.398,0.572,0.865c-0.131,0.572-0.416,1.09-0.873,1.48
		c-0.281,0.242-0.641,0.279-0.996,0.246c-0.223-0.02-0.451-0.023-0.676-0.049c-0.918-0.098-1.842-0.068-2.766-0.078
		c-0.367-0.004-0.729-0.076-1.076-0.205c-0.111-0.041-0.135-0.104-0.102-0.207c0.145-0.467,0.371-0.887,0.68-1.264
		c0.09-0.113,0.191-0.223,0.293-0.326c0.293-0.299,0.666-0.336,1.045-0.363c0.113-0.01,0.229-0.002,0.342-0.002
		C52.928,35.271,52.928,35.277,52.93,35.282z"/>
	<path fill-rule="evenodd" clip-rule="evenodd" fill="#FFFFFF" d="M7.834,33.38c-0.147,0.115-0.305,0.184-0.42,0.326
		c-0.166,0.205-0.172,0.422-0.13,0.654c0.054,0.281,0.167,0.539,0.265,0.807c0.149,0.395,0.262,0.797,0.161,1.225
		c-0.119,0.508-0.594,0.91-1.116,0.941c-0.518,0.031-1.004-0.068-1.435-0.371c-0.501-0.357-0.779-0.857-0.877-1.457
		c-0.113-0.699,0.018-1.342,0.467-1.898c0.271-0.334,0.642-0.498,1.063-0.543c0.495-0.055,0.993-0.068,1.481,0.061
		C7.483,33.175,7.667,33.251,7.834,33.38z"/>
	<path fill-rule="evenodd" clip-rule="evenodd" fill="#FFFFFF" d="M58.551,34.452c0.305-0.023,0.609,0.004,0.898,0.115
		c0.736,0.287,1.189,0.82,1.336,1.6c0.125,0.682-0.096,1.279-0.48,1.832c-0.313,0.453-0.764,0.645-1.285,0.734
		c-0.309,0.051-0.605,0.025-0.902-0.07c-0.645-0.209-0.863-0.807-0.771-1.377c0.1-0.645,0.436-1.195,0.734-1.76
		c0.121-0.227,0.129-0.219-0.084-0.348c-0.229-0.141-0.451-0.283-0.676-0.428c-0.031-0.02-0.08-0.033-0.072-0.082
		c0.008-0.051,0.057-0.047,0.094-0.055C57.738,34.517,58.135,34.425,58.551,34.452z"/>
	<path fill-rule="evenodd" clip-rule="evenodd" fill="#FFFFFF" d="M57.326,39.921c-0.199-0.014-0.408-0.146-0.602-0.307
		c-0.297-0.244-0.543-0.525-0.637-0.914c-0.041-0.172,0.092-0.203,0.193-0.27c0.1-0.064,0.178-0.068,0.26,0.035
		c0.318,0.408,0.74,0.674,1.211,0.871c0.125,0.051,0.145,0.111,0.096,0.229C57.744,39.816,57.613,39.921,57.326,39.921z"/>
	<path fill-rule="evenodd" clip-rule="evenodd" fill="#FFFFFF" d="M7.225,38.579c-0.034,0.01-0.065,0-0.089-0.027
		c-0.033-0.041-0.009-0.074,0.013-0.107c0.412-0.627,0.928-1.133,1.628-1.43c0.06-0.025,0.134-0.076,0.191-0.023
		c0.068,0.059,0.019,0.137,0.002,0.205c-0.155,0.609-0.579,0.963-1.135,1.188C7.637,38.462,7.438,38.546,7.225,38.579z"/>
</g>
<g>
	<path fill-rule="evenodd" clip-rule="evenodd" fill="#473522" d="M0.376,0.447C0.503,0.652,0.633,0.855,0.761,1.06
		c0.506,0.811,1.016,1.621,1.52,2.433c0.118,0.192,0.283,0.339,0.428,0.503c0.52,0.584,1.06,1.149,1.583,1.73
		c0.572,0.635,1.145,1.271,1.693,1.925C6.379,8.117,6.796,8.566,7.19,9.033c0.86,1.019,1.829,1.936,2.752,2.895
		c0.735,0.762,1.469,1.528,2.219,2.279c0.187,0.187,0.367,0.383,0.546,0.58c0.446,0.488,0.995,0.855,1.508,1.264
		c0.979,0.777,1.97,1.538,2.953,2.311c1.298,1.021,2.604,2.032,3.887,3.074c1.078,0.876,2.258,1.601,3.422,2.354
		c1.129,0.732,2.266,1.457,3.402,2.176c0.307,0.193,0.656,0.309,0.99,0.447c0.793,0.332,1.576,0.689,2.344,1.074
		c1.078,0.543,2.187,1.014,3.3,1.473c1.713,0.703,3.469,1.277,5.248,1.787c1.717,0.49,3.432,0.994,5.146,1.494
		c0.41,0.121,0.836,0.119,1.254,0.184c0.244,0.039,0.475,0.109,0.674,0.256c0.08,0.057,0.135,0.105-0.002,0.189
		c-0.717,0.438-1.479,0.758-2.301,0.928c-0.385,0.08-0.777,0.064-1.168,0.029c-1.371-0.123-2.629-0.641-3.895-1.123
		c-0.898-0.346-1.799-0.682-2.693-1.039c-1.154-0.465-2.295-0.963-3.432-1.465c-1.566-0.688-3.105-1.43-4.642-2.182
		c-1.242-0.605-2.477-1.227-3.666-1.928c-0.814-0.482-1.584-1.033-2.377-1.549c-0.736-0.48-1.393-1.063-2.08-1.605
		c-0.367-0.291-0.786-0.492-1.274-0.498c-0.032-0.002-0.064-0.014-0.098-0.021c-0.032-0.008-0.065-0.018-0.083-0.006
		c0.19,0.201,0.375,0.416,0.574,0.609c0.439,0.432,0.908,0.836,1.387,1.227c0.518,0.426,1.057,0.83,1.607,1.219
		c1.43,1.012,2.938,1.898,4.484,2.715c1.361,0.723,2.752,1.381,4.164,1.998c1.617,0.709,3.242,1.393,4.876,2.059
		c1.846,0.748,3.697,1.484,5.553,2.207c0.549,0.215,1.111,0.381,1.676,0.537c0.619,0.172,1.043,0.547,1.244,1.164
		c0.059,0.176,0.055,0.184-0.125,0.186c-0.42,0.002-0.834-0.064-1.244-0.145c-1.334-0.266-2.656-0.594-3.986-0.881
		c-1.137-0.244-2.264-0.549-3.359-0.945c-1.16-0.42-2.316-0.84-3.457-1.313c-0.73-0.305-1.447-0.641-2.174-0.961
		c-0.605-0.266-1.213-0.527-1.82-0.791c-0.814-0.355-1.609-0.756-2.389-1.18c-0.83-0.449-1.654-0.914-2.469-1.396
		c-0.879-0.521-1.758-1.049-2.623-1.596c-1.135-0.715-2.254-1.457-3.352-2.227c-0.742-0.523-1.438-1.098-2.107-1.711
		c-0.625-0.572-1.28-1.115-1.907-1.685c-0.645-0.588-1.321-1.137-1.986-1.699c-0.852-0.719-1.578-1.559-2.335-2.373
		c-0.415-0.446-0.825-0.899-1.222-1.364c-0.526-0.615-1.025-1.25-1.504-1.903c-0.934-1.281-1.885-2.547-2.753-3.873
		C3.234,9.303,2.63,8.292,2.096,7.242c-0.556-1.09-1.034-2.214-1.415-3.377C0.444,3.139,0.261,2.4,0.246,1.626
		C0.239,1.231,0.236,0.84,0.33,0.456C0.346,0.453,0.361,0.45,0.376,0.447z"/>
	<path fill-rule="evenodd" clip-rule="evenodd" fill="#473522" d="M36.174,28.646c0.131-0.141,0.289-0.207,0.432-0.291
		c1.414-0.822,2.834-1.635,4.246-2.455c0.676-0.395,1.367-0.758,2.016-1.195c0.6-0.402,1.117-0.883,1.4-1.592
		c-0.193,0-0.367,0.063-0.541,0.111c-0.504,0.141-0.949,0.404-1.367,0.701c-0.682,0.492-1.408,0.908-2.139,1.318
		c-0.982,0.549-1.963,1.102-2.945,1.654c-0.738,0.418-1.463,0.863-2.266,1.154c-0.135,0.051-0.262,0.055-0.395-0.004
		c-0.471-0.211-0.959-0.373-1.4-0.645c-0.074-0.043-0.195-0.074-0.186-0.174c0.008-0.084,0.125-0.1,0.199-0.137
		c1.219-0.596,2.451-1.164,3.686-1.734c0.854-0.395,1.686-0.832,2.492-1.314c2.012-1.205,3.93-2.552,5.826-3.93
		c1.016-0.737,2.021-1.488,3.018-2.253c0.783-0.602,1.57-1.202,2.344-1.82c0.855-0.687,1.711-1.377,2.529-2.109
		c0.289-0.26,0.594-0.506,0.871-0.779c0.256-0.247,0.484-0.521,0.723-0.789c0.328-0.366,0.65-0.736,0.979-1.105
		c0.436-0.491,0.863-0.988,1.307-1.471c0.459-0.501,0.883-1.031,1.33-1.543c0.355-0.41,0.699-0.83,1.051-1.243
		c0.363-0.427,0.73-0.847,1.094-1.275c0.412-0.486,0.826-0.976,1.23-1.47c0.609-0.743,1.207-1.495,1.787-2.261
		c0.193-0.258,0.381-0.521,0.574-0.779c0.029-0.038,0.043-0.107,0.107-0.088c0.055,0.017,0.033,0.078,0.041,0.12
		c0.076,0.511-0.061,1-0.184,1.485c-0.4,1.566-0.953,3.076-1.691,4.518c-0.277,0.545-0.627,1.049-0.918,1.588
		c-0.289,0.538-0.57,1.082-0.855,1.621c-0.654,1.237-1.328,2.463-2.188,3.57c-0.547,0.706-1.09,1.418-1.699,2.072
		c-0.588,0.633-1.199,1.238-1.834,1.82c-0.58,0.527-1.146,1.064-1.711,1.604c-0.893,0.852-1.814,1.674-2.756,2.47
		c-0.664,0.564-1.336,1.121-2.023,1.656c-0.453,0.355-0.949,0.656-1.436,0.969c-0.705,0.453-1.391,0.934-2.078,1.412
		c-0.969,0.678-1.967,1.311-2.986,1.912c-0.75,0.443-1.514,0.863-2.271,1.293c-0.08,0.045-0.168,0.074-0.248,0.113
		c-0.387,0.188-0.762,0.197-1.172,0.02c-0.543-0.232-1.117-0.4-1.676-0.6C36.391,28.736,36.293,28.693,36.174,28.646z"/>
	<path fill-rule="evenodd" clip-rule="evenodd" fill="#473522" d="M42.773,41.372c-0.756,0.002-1.441-0.201-2.027-0.689
		c-0.139-0.115-0.234-0.254-0.268-0.438c-0.025-0.162-0.143-0.299-0.096-0.486c0.115-0.475,0.447-0.701,0.928-0.609
		c0.293,0.057,0.576,0.131,0.846,0.246c0.49,0.211,0.98,0.188,1.473,0.016c0.795-0.279,1.434-0.76,1.883-1.479
		c0.424-0.676,0.494-1.379,0.176-2.119c-0.148-0.346-0.33-0.672-0.504-1c-0.07-0.133-0.041-0.186,0.098-0.229
		c0.66-0.213,1.291-0.486,1.848-0.908c0.895-0.676,1.539-1.537,1.881-2.615c0.152-0.486,0.313-0.973,0.557-1.42
		c0.385-0.697,0.971-1.164,1.719-1.408c0.479-0.156,0.939-0.016,1.383,0.207c0.42,0.209,0.631,0.605,0.906,0.943
		c0.234,0.291,0.227,0.314-0.135,0.414c-0.818,0.229-1.396,0.76-1.881,1.424c-0.588,0.807-1.047,1.695-1.598,2.525
		c-0.342,0.52-0.719,1.016-1.209,1.412c-0.355,0.289-0.486,0.682-0.547,1.127c-0.076,0.557-0.125,1.121-0.301,1.662
		c-0.193,0.613-0.516,1.148-0.959,1.621c-0.441,0.469-0.994,0.777-1.549,1.082c-0.633,0.344-1.305,0.566-2.016,0.672
		C43.18,41.353,42.975,41.357,42.773,41.372z"/>
	<path fill-rule="evenodd" clip-rule="evenodd" fill="#473522" d="M20.227,40.656c-0.769,0.029-1.439-0.232-2.076-0.592
		c-0.559-0.313-1.104-0.646-1.564-1.1c-0.775-0.766-1.289-1.674-1.479-2.748c-0.047-0.254-0.061-0.518-0.047-0.779
		c0.027-0.49-0.178-0.887-0.505-1.234c-0.35-0.371-0.728-0.717-1.07-1.094c-0.371-0.41-0.608-0.896-0.838-1.391
		c-0.301-0.652-0.571-1.32-1.004-1.904c-0.464-0.625-1.071-1.043-1.809-1.281c-0.28-0.092-0.285-0.092-0.153-0.354
		c0.359-0.713,0.918-1.184,1.718-1.287c0.722-0.094,1.485,0.184,1.81,1.059c0.182,0.49,0.298,0.996,0.41,1.504
		c0.243,1.1,0.874,1.943,1.704,2.668c0.567,0.494,1.194,0.896,1.862,1.236c0.188,0.094,0.379,0.18,0.574,0.25
		c0.117,0.043,0.145,0.1,0.109,0.215c-0.147,0.504-0.279,1.014-0.436,1.514c-0.071,0.227-0.059,0.447-0.006,0.668
		c0.131,0.58,0.424,1.078,0.801,1.533c0.324,0.395,0.699,0.725,1.155,0.957c0.225,0.117,0.464,0.154,0.708,0.121
		c0.414-0.053,0.822-0.143,1.238-0.182c0.271-0.027,0.559-0.08,0.811,0.088c0.338,0.229,0.441,0.844,0.211,1.215
		c-0.225,0.359-0.57,0.561-0.949,0.705C21.022,40.591,20.624,40.683,20.227,40.656z"/>
	<path fill-rule="evenodd" clip-rule="evenodd" fill="#473522" d="M30.381,32.999c-0.625,0.172-1.174,0.412-1.721,0.66
		c-0.316,0.143-0.662,0.188-0.994,0.275c-1.111,0.283-2.225,0.559-3.336,0.838c-0.959,0.24-1.926,0.441-2.9,0.598
		c-0.613,0.1-1.23,0.154-1.848,0.219c-0.395,0.041-0.794-0.002-1.186,0.061c-0.131,0.021-0.172-0.031-0.133-0.162
		c0.15-0.504,0.457-0.871,0.924-1.117c0.6-0.316,1.25-0.48,1.9-0.65c1.922-0.508,3.846-1.012,5.738-1.629
		c0.301-0.098,0.605-0.186,0.906-0.283c0.07-0.021,0.127-0.021,0.191,0.016c0.602,0.354,1.262,0.588,1.891,0.881
		C29.997,32.788,30.182,32.866,30.381,32.999z"/>
	<path fill-rule="evenodd" clip-rule="evenodd" fill="#473522" d="M19.444,33.132c-0.678,0.018-1.256-0.156-1.803-0.449
		c-0.319-0.168-0.658-0.305-0.939-0.541c-0.092-0.076-0.176-0.16-0.26-0.242c-0.045-0.043-0.109-0.094-0.082-0.154
		c0.014-0.035,0.094-0.051,0.146-0.061c0.47-0.094,0.941-0.184,1.412-0.279c0.857-0.174,1.711-0.367,2.57-0.523
		c1.258-0.227,2.488-0.564,3.721-0.896c0.105-0.027,0.201-0.037,0.307,0.027c0.588,0.371,1.18,0.736,1.771,1.105
		c0.047,0.027,0.115,0.053,0.109,0.117c-0.01,0.066-0.088,0.063-0.139,0.078c-1.211,0.375-2.41,0.773-3.631,1.115
		c-0.854,0.236-1.699,0.512-2.576,0.658C19.835,33.122,19.616,33.152,19.444,33.132z"/>
	<path fill-rule="evenodd" clip-rule="evenodd" fill="#473522" d="M12.221,35.38c-0.796-0.039-1.715,0.076-2.636,0.107
		c-0.294,0.012-0.584,0.029-0.878,0c-0.463-0.043-0.784-0.25-0.982-0.684c-0.254-0.549-0.501-1.1-0.728-1.662
		c-0.058-0.145-0.003-0.199,0.124-0.227c0.441-0.1,0.89-0.107,1.334-0.064c0.347,0.031,0.693,0.027,1.03-0.033
		c1.024-0.18,1.999-0.068,2.895,0.477c0.721,0.436,1.136,1.055,1.073,1.936c-0.008,0.123-0.058,0.152-0.167,0.15
		C12.974,35.376,12.661,35.38,12.221,35.38z"/>
	<path fill-rule="evenodd" clip-rule="evenodd" fill="#473522" d="M51.93,34.282c0.805-0.049,1.611-0.107,2.42-0.146
		c0.377-0.016,0.76-0.043,1.135,0.033c0.58,0.115,0.678,0.398,0.572,0.865c-0.131,0.572-0.416,1.09-0.873,1.48
		c-0.281,0.242-0.641,0.279-0.996,0.246c-0.223-0.02-0.451-0.023-0.676-0.049c-0.918-0.098-1.842-0.068-2.766-0.078
		c-0.367-0.004-0.729-0.076-1.076-0.205c-0.111-0.041-0.135-0.104-0.102-0.207c0.145-0.467,0.371-0.887,0.68-1.264
		c0.09-0.113,0.191-0.223,0.293-0.326c0.293-0.299,0.666-0.336,1.045-0.363c0.113-0.01,0.229-0.002,0.342-0.002
		C51.928,34.271,51.928,34.277,51.93,34.282z"/>
	<path fill-rule="evenodd" clip-rule="evenodd" fill="#473522" d="M6.834,32.38c-0.147,0.115-0.304,0.184-0.42,0.326
		c-0.166,0.205-0.172,0.422-0.129,0.654c0.053,0.281,0.167,0.539,0.265,0.807c0.149,0.395,0.262,0.797,0.161,1.225
		c-0.119,0.508-0.594,0.91-1.116,0.941c-0.518,0.031-1.004-0.068-1.434-0.371c-0.501-0.357-0.779-0.857-0.877-1.457
		C3.169,33.806,3.3,33.163,3.75,32.607c0.271-0.334,0.642-0.498,1.062-0.543c0.496-0.055,0.994-0.068,1.482,0.061
		C6.484,32.175,6.667,32.251,6.834,32.38z"/>
	<path fill-rule="evenodd" clip-rule="evenodd" fill="#473522" d="M57.551,33.452c0.305-0.023,0.609,0.004,0.898,0.115
		c0.736,0.287,1.189,0.82,1.336,1.6c0.125,0.682-0.096,1.279-0.48,1.832c-0.313,0.453-0.764,0.645-1.285,0.734
		c-0.309,0.051-0.605,0.025-0.902-0.07c-0.645-0.209-0.863-0.807-0.771-1.377c0.1-0.645,0.436-1.195,0.734-1.76
		c0.121-0.227,0.129-0.219-0.084-0.348c-0.229-0.141-0.451-0.283-0.676-0.428c-0.031-0.02-0.08-0.033-0.072-0.082
		c0.008-0.051,0.057-0.047,0.094-0.055C56.738,33.517,57.135,33.425,57.551,33.452z"/>
	<path fill-rule="evenodd" clip-rule="evenodd" fill="#473522" d="M56.326,38.921c-0.199-0.014-0.408-0.146-0.602-0.307
		c-0.297-0.244-0.543-0.525-0.637-0.914c-0.041-0.172,0.092-0.203,0.193-0.27c0.1-0.064,0.178-0.068,0.26,0.035
		c0.318,0.408,0.74,0.674,1.211,0.871c0.125,0.051,0.145,0.111,0.096,0.229C56.744,38.816,56.613,38.921,56.326,38.921z"/>
	<path fill-rule="evenodd" clip-rule="evenodd" fill="#473522" d="M6.226,37.579c-0.035,0.01-0.066,0-0.089-0.027
		c-0.033-0.041-0.009-0.074,0.013-0.107c0.412-0.627,0.928-1.133,1.627-1.43c0.06-0.025,0.134-0.076,0.192-0.023
		c0.068,0.059,0.019,0.137,0.002,0.205c-0.156,0.609-0.579,0.963-1.135,1.188C6.638,37.462,6.439,37.546,6.226,37.579z"/>
</g>
</svg>
