<?xml version="1.0" encoding="utf-8"?>
<!-- Generator: Adobe Illustrator 17.0.0, SVG Export Plug-In . SVG Version: 6.00 Build 0)  -->
<!DOCTYPE svg PUBLIC "-//W3C//DTD SVG 1.1//EN" "http://www.w3.org/Graphics/SVG/1.1/DTD/svg11.dtd">
<svg version="1.1" id="Calque_1" xmlns="http://www.w3.org/2000/svg" xmlns:xlink="http://www.w3.org/1999/xlink" x="0px" y="0px"
	 width="512px" height="512px" viewBox="0 0 512 512" enable-background="new 0 0 512 512" xml:space="preserve">
<rect x="125.552" y="172.642" fill="#FFFFFF" width="261.473" height="170.598"/>
<g>
	<path fill="#FFFFFF" d="M256,495.5c-63.438,0-123.08-24.704-167.938-69.563C43.204,381.08,18.5,321.438,18.5,258
		S43.204,134.92,88.062,90.062S192.562,20.5,256,20.5s123.08,24.704,167.938,69.562S493.5,194.562,493.5,258
		s-24.704,123.08-69.563,167.938C379.08,470.796,319.438,495.5,256,495.5z M256,32.5C131.659,32.5,30.5,133.659,30.5,258
		S131.659,483.5,256,483.5S481.5,382.341,481.5,258S380.341,32.5,256,32.5z"/>
</g>
<path fill="#FFFFFF" d="M386.933,164.97H125.066v0.001c-4.118,0-7.487,3.369-7.487,7.487v171.085c0,4.118,3.37,7.488,7.487,7.488
	h261.867c4.118,0,7.488-3.37,7.488-7.488V172.457C394.421,168.339,391.051,164.97,386.933,164.97z M206.963,300.051l41.429,14.172
	l-46.109,16.781l-33.536-92.146l56.268-20.478l-23.875,69.795C199.475,293.04,202.095,298.386,206.963,300.051z M232.521,295.302
	c0.467-1.365,1.956-2.097,3.321-1.63l9.416,3.221c1.37,0.468,2.098,1.959,1.631,3.324c-0.468,1.368-1.956,2.099-3.326,1.63
	l-9.416-3.221C232.782,298.16,232.053,296.671,232.521,295.302z M217.261,277.341l28.119-82.202l52.694,18.025l-28.119,82.202
	L217.261,277.341z M310.001,214.595c1.664-4.866-0.956-10.212-5.823-11.877l-18.626-6.371l24.177-8.799l33.536,92.146
	l-63.429,23.085L310.001,214.595z M130.62,177.897h168.314l-32.615,11.871l-19.366-6.625c-4.868-1.665-10.213,0.956-11.878,5.822
	l-4.757,13.905l-65.335,23.779c-7.358,2.677-11.15,10.81-8.471,18.166l32.565,89.472c0.512,1.41,1.226,2.687,2.095,3.814H130.62
	V177.897z M381.378,338.102H220.056l126.959-46.207c7.356-2.68,11.15-10.813,8.471-18.171l-32.567-89.473
	c-0.951-2.612-2.591-4.771-4.637-6.354h63.096L381.378,338.102L381.378,338.102z"/>
<g>
	<path fill="#1A171B" d="M256,493.5c-63.438,0-123.08-24.704-167.938-69.563C43.204,379.08,18.5,319.438,18.5,256
		S43.204,132.92,88.062,88.062S192.562,18.5,256,18.5s123.08,24.704,167.938,69.562S493.5,192.562,493.5,256
		s-24.704,123.08-69.563,167.938C379.08,468.796,319.438,493.5,256,493.5z M256,30.5C131.659,30.5,30.5,131.659,30.5,256
		S131.659,481.5,256,481.5S481.5,380.341,481.5,256S380.341,30.5,256,30.5z"/>
</g>
<g id="iphone">
</g>
<path fill="#1A171B" d="M386.933,162.97H125.066v0.001c-4.118,0-7.487,3.369-7.487,7.487v171.085c0,4.118,3.37,7.488,7.487,7.488
	h261.867c4.118,0,7.488-3.37,7.488-7.488V170.457C394.421,166.339,391.051,162.97,386.933,162.97z M206.963,298.051l41.429,14.172
	l-46.109,16.781l-33.536-92.146l56.268-20.478l-23.875,69.795C199.475,291.04,202.095,296.386,206.963,298.051z M232.521,293.302
	c0.467-1.365,1.956-2.097,3.321-1.63l9.416,3.221c1.37,0.468,2.098,1.959,1.631,3.324c-0.468,1.368-1.956,2.099-3.326,1.63
	l-9.416-3.221C232.782,296.16,232.053,294.671,232.521,293.302z M217.261,275.341l28.119-82.202l52.694,18.025l-28.119,82.202
	L217.261,275.341z M310.001,212.595c1.664-4.866-0.956-10.212-5.823-11.877l-18.626-6.371l24.177-8.799l33.536,92.146
	l-63.429,23.085L310.001,212.595z M130.62,175.897h168.314l-32.615,11.871l-19.366-6.625c-4.868-1.665-10.213,0.956-11.878,5.822
	l-4.757,13.905l-65.335,23.779c-7.358,2.677-11.15,10.81-8.471,18.166l32.565,89.472c0.512,1.41,1.226,2.687,2.095,3.814H130.62
	V175.897z M381.378,336.102H220.056l126.959-46.207c7.356-2.68,11.15-10.813,8.471-18.171l-32.567-89.473
	c-0.951-2.612-2.591-4.771-4.637-6.354h63.096L381.378,336.102L381.378,336.102z"/>
</svg>
